<?xml version="1.0" encoding="utf-8"?>
<!-- Generator: Adobe Illustrator 25.2.1, SVG Export Plug-In . SVG Version: 6.00 Build 0)  -->
<svg version="1.1" id="Layer_1" xmlns="http://www.w3.org/2000/svg" xmlns:xlink="http://www.w3.org/1999/xlink" x="0px" y="0px"
	 viewBox="0 0 48 48" style="enable-background:new 0 0 48 48;" xml:space="preserve">
<g>
	<path d="M24.3,6.8c-4.1,0-7.9,1.9-10.3,5.1V2h-2.7v17.8c0,6.2,4.3,11.5,10.3,12.7v-2.8c-5.5-1.5-8.7-7.1-7.2-12.6
		c1.5-5.5,7.1-8.7,12.6-7.2s8.7,7.1,7.2,12.6c-1,3.6-3.8,6.4-7.5,7.3v2.8c7.1-1.4,11.7-8.2,10.3-15.3C35.9,11.2,30.5,6.8,24.3,6.8
		L24.3,6.8z"/>
	<path d="M24.3,17.2c-1.3,0-2.3,1-2.3,2.3s1,2.3,2.3,2.3c1.3,0,2.3-1,2.3-2.3S25.6,17.2,24.3,17.2z M24.3,20.1
		c-0.3,0-0.6-0.3-0.6-0.6s0.3-0.6,0.6-0.6c0.3,0,0.6,0.3,0.6,0.6S24.6,20.1,24.3,20.1z"/>
	<path d="M22.8,23.2v14.1h2.7V23.2C24.7,23.8,23.6,23.7,22.8,23.2z"/>
	<path d="M4.2,42.5v-3.2h0.5v1.9c0.4-0.4,0.9-0.7,1.4-0.7c0.5,0,1.1,0.2,1.4,0.6c0.8,0.8,0.8,2,0,2.8c-0.4,0.4-0.8,0.6-1.4,0.6
		c-0.5,0-1.1-0.2-1.5-0.6C4.4,43.6,4.1,43.1,4.2,42.5L4.2,42.5z M7.2,43.6c0.3-0.3,0.4-0.7,0.4-1.1c0-0.4-0.2-0.8-0.4-1
		c-0.3-0.3-0.6-0.5-1-0.4c-0.4,0-0.7,0.2-1,0.4c-0.3,0.3-0.4,0.6-0.4,1c0,0.4,0.1,0.8,0.4,1.1c0.3,0.3,0.7,0.5,1.1,0.4
		C6.6,44,7,43.8,7.2,43.6L7.2,43.6z"/>
	<path d="M13,43.2c-0.1,0.4-0.4,0.7-0.7,1c-0.3,0.2-0.7,0.4-1.1,0.4c-0.5,0-1-0.2-1.4-0.6c-0.8-0.8-0.8-2-0.1-2.8c0,0,0,0,0.1-0.1
		c0.4-0.4,0.9-0.6,1.5-0.6c0.5,0,1,0.2,1.3,0.6c0.3,0.3,0.5,0.8,0.5,1.3v0.3H9.6c0,0.4,0.2,0.7,0.5,1c0.3,0.2,0.6,0.4,1,0.4
		c0.6,0,1.1-0.3,1.3-0.8L13,43.2z M12.6,42.2c-0.1-0.3-0.2-0.6-0.5-0.9c-0.6-0.5-1.6-0.5-2.1,0.2c-0.2,0.2-0.3,0.5-0.3,0.7H12.6z"/>
	<path d="M18,44.3c0,0.5-0.2,0.9-0.6,1.2c-0.7,0.6-1.8,0.6-2.6,0c-0.3-0.2-0.5-0.6-0.6-1h0.5c0.1,0.3,0.3,0.5,0.5,0.7
		c0.3,0.2,0.6,0.3,0.9,0.3c0.4,0,0.7-0.1,1-0.4c0.3-0.2,0.4-0.6,0.4-0.9v-0.4c-0.7,0.8-1.9,0.9-2.7,0.2c0,0-0.1-0.1-0.1-0.1
		c-0.4-0.4-0.6-0.9-0.6-1.5c0-1.1,0.8-2,1.9-2c1.1,0,2,0.9,2,2L18,44.3z M17,43.6c0.6-0.6,0.6-1.5,0-2.1c-0.3-0.3-0.7-0.5-1.1-0.4
		c-0.4,0-0.8,0.2-1,0.5c-0.3,0.3-0.4,0.7-0.4,1.1c0,0.4,0.2,0.8,0.4,1c0.3,0.3,0.6,0.4,1,0.4C16.4,44,16.8,43.9,17,43.6z"/>
	<path d="M19.5,40.1H19v-0.9h0.5L19.5,40.1z M19.5,44.4H19v-3.8h0.5L19.5,44.4z"/>
	<path d="M24,44.4h-0.5v-2.2c0-0.3-0.1-0.6-0.4-0.8c-0.2-0.2-0.5-0.4-0.8-0.4c-0.3,0-0.6,0.1-0.8,0.4c-0.2,0.2-0.4,0.5-0.3,0.8v2.2
		h-0.5v-2.2c0-0.5,0.2-0.9,0.5-1.2c0.3-0.3,0.8-0.5,1.2-0.5c0.5,0,0.9,0.2,1.2,0.5c0.3,0.3,0.5,0.8,0.5,1.2L24,44.4z"/>
	<path d="M25.5,40.1H25v-0.9h0.5V40.1z M25.5,44.4H25v-3.8h0.5V44.4z"/>
	<path d="M30,44.4h-0.5v-2.2c0-0.3-0.1-0.6-0.4-0.8c-0.2-0.2-0.5-0.4-0.8-0.4c-0.3,0-0.6,0.1-0.8,0.4c-0.2,0.2-0.4,0.5-0.3,0.8v2.2
		h-0.5v-2.2c0-0.5,0.2-0.9,0.5-1.2c0.3-0.3,0.8-0.5,1.2-0.5c0.5,0,0.9,0.2,1.2,0.5c0.3,0.3,0.5,0.8,0.5,1.2L30,44.4z"/>
	<path d="M35,44.3c0,0.5-0.2,0.9-0.6,1.2c-0.7,0.6-1.8,0.6-2.6,0c-0.3-0.2-0.5-0.6-0.6-1h0.5c0.1,0.3,0.3,0.5,0.5,0.7
		c0.3,0.2,0.6,0.3,0.9,0.3c0.4,0,0.7-0.1,1-0.4c0.3-0.2,0.4-0.6,0.4-0.9v-0.4c-0.4,0.4-0.9,0.7-1.4,0.7c-0.5,0-1.1-0.2-1.4-0.6
		c-0.4-0.4-0.6-0.9-0.6-1.5c0-1.1,0.8-2,1.9-2c0.5,0,1.1,0.2,1.4,0.6c0.4,0.4,0.6,0.9,0.6,1.4L35,44.3z M34,43.6
		c0.6-0.6,0.6-1.5,0-2.1c-0.3-0.3-0.7-0.5-1.1-0.4c-0.4,0-0.8,0.2-1,0.5c-0.3,0.3-0.4,0.7-0.4,1.1c0,0.4,0.2,0.8,0.4,1
		c0.3,0.3,0.6,0.4,1,0.4C33.4,44,33.7,43.9,34,43.6L34,43.6z"/>
	<rect x="39.2" y="39.9" width="0.4" height="0.4"/>
	<rect x="39.2" y="40.6" width="0.4" height="3.8"/>
	<path d="M43.4,42.4L43.4,42.4c0,0.8-0.7,1.5-1.5,1.5s-1.5-0.7-1.5-1.5V40H40v2.5c0,1.1,0.9,1.9,1.9,1.9c1.1,0,1.9-0.9,1.9-1.9l0,0
		L43.4,42.4z"/>
	<rect x="40" y="41.3" width="1.5" height="0.4"/>
</g>
</svg>
