<svg id="Layer_1" data-name="Layer 1" xmlns="http://www.w3.org/2000/svg" viewBox="0 0 36.17 40"><defs><style>.cls-1{fill:#010101;}</style></defs><path class="cls-1" d="M18.36,4.33A11.86,11.86,0,0,0,8.93,9V0H6.48V16.21a11.89,11.89,0,0,0,9.41,11.62V25.24a9.37,9.37,0,1,1,4.69.06v2.57A11.88,11.88,0,0,0,18.35,4.33Z" transform="translate(0 0)"/><path class="cls-1" d="M18.36,13.83a2.1,2.1,0,1,0,2.09,2.1A2.1,2.1,0,0,0,18.36,13.83Zm0,2.64a.56.56,0,1,1,.56-.56A.56.56,0,0,1,18.36,16.47Z" transform="translate(0 0)"/><path class="cls-1" d="M17,19.25V32.13h2.45V19.31A2.25,2.25,0,0,1,17,19.25Z" transform="translate(0 0)"/><path class="cls-1" d="M0,36.85v-3H.48v1.77A1.7,1.7,0,0,1,1.79,35a1.71,1.71,0,0,1,1.3.52,1.85,1.85,0,0,1,.05,2.59,1.79,1.79,0,0,1-1.24.56,1.73,1.73,0,0,1-1.34-.52A1.72,1.72,0,0,1,0,36.88Zm2.79,1a1.34,1.34,0,0,0,.37-1,1.28,1.28,0,0,0-.41-.94,1.26,1.26,0,0,0-.95-.41,1.22,1.22,0,0,0-.91.4,1.39,1.39,0,0,0-.4,1,1.36,1.36,0,0,0,.4,1,1.22,1.22,0,0,0,1,.4,1.29,1.29,0,0,0,.89-.44Z" transform="translate(0 0)"/><path class="cls-1" d="M8,37.48a1.78,1.78,0,0,1-1.69,1.24,1.74,1.74,0,0,1-1.29-.53A1.83,1.83,0,0,1,5,35.6l0-.05A1.73,1.73,0,0,1,6.41,35a1.83,1.83,0,0,1,1.21.56,1.67,1.67,0,0,1,.5,1.18V37H5a1.3,1.3,0,0,0,.45.88,1.44,1.44,0,0,0,.93.34,1.25,1.25,0,0,0,1.19-.77Zm-.38-.87a1.42,1.42,0,0,0-.46-.8A1.37,1.37,0,0,0,5.26,36a1.44,1.44,0,0,0-.31.66Z" transform="translate(0 0)"/><path class="cls-1" d="M12.58,38.47A1.35,1.35,0,0,1,12,39.59a1.89,1.89,0,0,1-2.32,0,1.62,1.62,0,0,1-.56-.88h.47a1.18,1.18,0,0,0,.47.62,1.29,1.29,0,0,0,.8.27,1.35,1.35,0,0,0,.89-.37,1.12,1.12,0,0,0,.38-.84v-.33a1.76,1.76,0,0,1-2.48.2l-.12-.1A1.85,1.85,0,0,1,9,36.86,1.82,1.82,0,0,1,10.73,35a1.85,1.85,0,0,1,1.86,1.84Zm-.86-.64a1.43,1.43,0,0,0,0-2,1.27,1.27,0,0,0-1-.4,1.32,1.32,0,0,0-.91.44,1.34,1.34,0,0,0-.37,1,1.38,1.38,0,0,0,1.35,1.35A1.21,1.21,0,0,0,11.72,37.83Z" transform="translate(0 0)"/><path class="cls-1" d="M14,34.71h-.46v-.82H14Zm0,3.91h-.46V35.13H14Z" transform="translate(0 0)"/><path class="cls-1" d="M18,38.63h-.47V36.58a1.06,1.06,0,0,0-.33-.76,1,1,0,0,0-.75-.32,1.07,1.07,0,0,0-.76.32,1,1,0,0,0-.32.76v2.05h-.47v-2a1.55,1.55,0,0,1,.44-1.11,1.52,1.52,0,0,1,1.12-.46,1.46,1.46,0,0,1,1.11.46,1.5,1.5,0,0,1,.45,1.11Z" transform="translate(0 0)"/><path class="cls-1" d="M19.44,34.71H19v-.82h.46Zm0,3.91H19V35.13h.46Z" transform="translate(0 0)"/><path class="cls-1" d="M23.5,38.63H23V36.58a1.09,1.09,0,0,0-.32-.76,1.06,1.06,0,0,0-1.52,0,1.05,1.05,0,0,0-.32.76v2.05H20.4v-2A1.54,1.54,0,0,1,22,35.06a1.46,1.46,0,0,1,1.11.46,1.5,1.5,0,0,1,.45,1.11Z" transform="translate(0 0)"/><path class="cls-1" d="M28.06,38.47a1.35,1.35,0,0,1-.56,1.12,1.89,1.89,0,0,1-2.32,0,1.66,1.66,0,0,1-.56-.88h.46a1.07,1.07,0,0,0,.46.62,1.28,1.28,0,0,0,.79.27,1.26,1.26,0,0,0,.9-.37,1.12,1.12,0,0,0,.38-.84v-.33a1.77,1.77,0,0,1-2.6.1,1.84,1.84,0,0,1-.55-1.33A1.81,1.81,0,0,1,26.2,35a1.72,1.72,0,0,1,1.31.56,1.66,1.66,0,0,1,.56,1.3Zm-.87-.64a1.41,1.41,0,0,0,0-2,1.24,1.24,0,0,0-1-.4,1.36,1.36,0,0,0-.92.44,1.38,1.38,0,0,0-.37,1,1.36,1.36,0,0,0,.41.95,1.31,1.31,0,0,0,1,.4,1.2,1.2,0,0,0,.9-.4Z" transform="translate(0 0)"/><rect class="cls-1" x="31.92" y="34.5" width="0.39" height="0.39"/><rect class="cls-1" x="31.92" y="35.1" width="0.39" height="3.47"/><path class="cls-1" d="M35.77,36.79h0a1.37,1.37,0,0,1-2.73,0V34.54h-.4v2.27a1.77,1.77,0,0,0,3.53,0h0Z" transform="translate(0 0)"/><rect class="cls-1" x="32.64" y="35.77" width="1.35" height="0.39"/></svg>