<?xml version="1.0" encoding="utf-8"?>
<!-- Generator: Adobe Illustrator 25.2.1, SVG Export Plug-In . SVG Version: 6.00 Build 0)  -->
<svg version="1.1" id="Layer_1" xmlns="http://www.w3.org/2000/svg" xmlns:xlink="http://www.w3.org/1999/xlink" x="0px" y="0px"
	 viewBox="0 0 244.7 235" style="enable-background:new 0 0 244.7 235;" xml:space="preserve">
<style type="text/css">
	.st0{fill:#EBEBEB;}
	.st1{fill:#F5F5F5;}
	.st2{fill:#FFFFFF;}
	.st3{fill:#E0E0E0;}
	.st4{fill:#263238;}
	.st5{fill:#455B64;}
	.st6{fill:#F3725F;}
	.st7{fill:#FBBF9E;}
	.st8{fill:#F7996E;}
	.st9{opacity:0.6;}
	.st10{opacity:0.3;}
</style>
<g>
	<path class="st0" d="M14.3,59.8c-0.3-2.5,3.2-4.6,5.9-4.9c1.3,0.1,2.6-0.1,3.8-0.3c2.6-0.9,3.7-4.3,6.3-5.4c1.9-0.8,4.1-0.1,6,0.8
		s3.7,2.1,5.8,2.2c1.8,0.1,3.8-0.6,5.4,0.3c1.2,0.7,1.8,2,2.9,2.8c1.1,0.7,2.5,1,3.8,1c1.3,0,2.7,0.2,3.9,0.6c1.3,0.5,2.1,1.8,2,3.1
		L14.3,59.8z"/>
	<path class="st0" d="M114.7,77.8c-0.3-2,2.5-3.6,4.7-3.8c1,0,2,0,3-0.3c2.1-0.7,2.9-3.4,4.9-4.3c1.5-0.6,3.2-0.1,4.7,0.7
		c1.5,0.7,2.9,1.7,4.6,1.8c1.4,0.1,3-0.4,4.2,0.3c0.9,0.5,1.4,1.6,2.3,2.2c0.9,0.6,1.9,0.8,3,0.8c1,0,2.1,0.1,3.1,0.5
		c1,0.4,1.7,1.4,1.6,2.5L114.7,77.8z"/>
	<path class="st1" d="M31.2,11.3c-0.3-2,2.5-3.6,4.7-3.8c1,0,2,0,3-0.3c2.1-0.7,2.9-3.4,4.9-4.3c1.5-0.6,3.2-0.1,4.7,0.7
		c1.5,0.7,2.9,1.7,4.6,1.8c1.4,0.1,3-0.4,4.2,0.3c0.9,0.5,1.4,1.6,2.3,2.2c0.9,0.6,1.9,0.8,3,0.8c1,0,2.1,0.1,3.1,0.5
		c1,0.4,1.6,1.4,1.5,2.5L31.2,11.3z"/>
	<path class="st1" d="M35.6,105.6c-0.3-2,2.5-3.6,4.7-3.8c1,0,2,0,3-0.3c2.1-0.7,2.9-3.4,4.9-4.3c1.5-0.6,3.3-0.1,4.7,0.7
		c1.5,0.7,2.9,1.7,4.5,1.8c1.4,0.1,3-0.4,4.2,0.3c0.9,0.5,1.4,1.6,2.3,2.2c0.9,0.6,1.9,0.8,3,0.8c1,0,2.1,0.1,3.1,0.5
		c1,0.4,1.6,1.4,1.5,2.5L35.6,105.6z"/>
	<path class="st1" d="M187,111.2c-0.3-2.4,3.1-4.4,5.7-4.6c1.2,0.1,2.5-0.1,3.7-0.3c2.5-0.9,3.5-4.1,6-5.2c1.8-0.8,4-0.1,5.7,0.8
		s3.5,2,5.5,2.2c1.7,0.1,3.6-0.5,5.1,0.3c1.1,0.6,1.7,1.9,2.8,2.7c1.1,0.7,2.3,1,3.6,1c1.3,0,2.5,0.2,3.7,0.6c1.2,0.5,2,1.7,1.9,3
		L187,111.2z"/>
	<path class="st1" d="M187.6,8.6c-0.3-2,2.5-3.7,4.7-3.8c1,0,2,0,3-0.3c2.1-0.7,2.9-3.4,4.9-4.3c1.5-0.6,3.3-0.1,4.7,0.7
		s2.9,1.7,4.6,1.8c1.4,0.1,3-0.4,4.2,0.3c0.9,0.5,1.4,1.6,2.3,2.2c0.9,0.6,1.9,0.8,3,0.8c1,0,2.1,0.1,3.1,0.5c1,0.4,1.6,1.4,1.5,2.5
		L187.6,8.6z"/>
	<rect x="10.2" y="180.4" class="st0" width="12.6" height="53.4"/>
	<rect x="12.6" y="184.2" class="st2" width="3.8" height="7.4"/>
	<path class="st3" d="M14.6,191.6c0,0-0.1-1.6-0.1-3.7s0-3.7,0.1-3.7s0,1.7,0,3.7S14.6,191.6,14.6,191.6z"/>
	<path class="st3" d="M16.4,186.7c-0.6,0-1.3,0-1.9,0c-0.6,0-1.3,0-1.9,0c0.6,0,1.3,0,1.9,0C15.1,186.7,15.8,186.7,16.4,186.7z"/>
	<path class="st3" d="M16.4,189.4c-0.6,0-1.3,0-1.9,0c-0.6,0-1.3,0-1.9,0c0.6,0,1.3,0,1.9,0C15.1,189.3,15.8,189.3,16.4,189.4z"/>
	<rect x="12.6" y="193.8" class="st2" width="3.8" height="7.4"/>
	<path class="st3" d="M14.6,201.2c0,0-0.1-1.7-0.1-3.7c0-2,0-3.7,0.1-3.7s0,1.7,0,3.7C14.7,199.6,14.6,201.2,14.6,201.2z"/>
	<path class="st3" d="M16.4,196.4c-0.6,0-1.3,0-1.9,0c-0.6,0-1.3,0-1.9,0c0.6-0.1,1.3-0.1,1.9,0C15.1,196.3,15.8,196.3,16.4,196.4z"
		/>
	<path class="st3" d="M16.4,199.1c0,0-0.9,0-1.9,0s-1.9,0-1.9,0c0.6-0.1,1.3-0.1,1.9-0.1C15.1,199,15.8,199,16.4,199.1z"/>
	<rect x="12.6" y="203.5" class="st2" width="3.8" height="7.4"/>
	<path class="st3" d="M14.6,210.9c0,0-0.1-1.7-0.1-3.7s0-3.7,0.1-3.7s0,1.7,0,3.7S14.6,210.9,14.6,210.9z"/>
	<path class="st3" d="M16.4,206.1c-0.6,0-1.3,0-1.9,0c-0.6,0-1.3,0-1.9,0c0.6,0,1.3,0,1.9,0C15.1,206,15.8,206,16.4,206.1z"/>
	<path class="st3" d="M16.4,208.7c-0.6,0.1-1.3,0.1-1.9,0.1c-0.6,0-1.3,0-1.9-0.1c0.6,0,1.3,0,1.9,0
		C15.1,208.7,15.8,208.7,16.4,208.7z"/>
	<rect x="12.6" y="213.2" class="st2" width="3.8" height="7.4"/>
	<path class="st3" d="M14.6,220.6c0,0-0.1-1.6-0.1-3.7s0-3.7,0.1-3.7s0,1.7,0,3.7S14.6,220.6,14.6,220.6z"/>
	<path class="st3" d="M16.4,215.7c-0.6,0.1-1.3,0.1-1.9,0.1c-0.6,0-1.3,0-1.9-0.1c0,0,0.9,0,1.9,0S16.4,215.7,16.4,215.7z"/>
	<path class="st3" d="M16.4,218.4c-0.6,0-1.3,0-1.9,0c-0.6,0-1.3,0-1.9,0c0.6-0.1,1.3-0.1,1.9-0.1C15.1,218.3,15.8,218.3,16.4,218.4
		z"/>
	<rect x="19" y="180.4" class="st3" width="9.2" height="53.4"/>
	<rect x="21.9" y="184.2" class="st2" width="3.8" height="7.4"/>
	<path class="st3" d="M23.9,191.6c0,0,0-1.6,0-3.7s0-3.7,0-3.7s0,1.7,0,3.7S23.9,191.6,23.9,191.6z"/>
	<path class="st3" d="M25.7,186.7c-0.6,0-1.3,0-1.9,0c-0.6,0-1.3,0-1.9,0c0.6,0,1.3,0,1.9,0C24.4,186.7,25.1,186.7,25.7,186.7z"/>
	<path class="st3" d="M25.7,189.4c-0.6,0-1.3,0-1.9,0c-0.6,0-1.3,0-1.9,0c0.6,0,1.3,0,1.9,0C24.4,189.3,25.1,189.3,25.7,189.4z"/>
	<rect x="21.9" y="193.9" class="st2" width="3.8" height="7.4"/>
	<path class="st3" d="M23.9,201.3c0,0,0-1.7,0-3.7s0-3.7,0-3.7s0,1.7,0,3.7S23.9,201.3,23.9,201.3z"/>
	<path class="st3" d="M25.7,196.5c-0.6,0-1.3,0-1.9,0c-0.6,0-1.3,0-1.9,0c0.6-0.1,1.3-0.1,1.9-0.1C24.4,196.4,25.1,196.4,25.7,196.5
		z"/>
	<path class="st3" d="M25.7,199.1c-0.6,0.1-1.3,0.1-1.9,0.1c-0.6,0-1.3,0-1.9-0.1c0,0,0.9,0,1.9,0S25.7,199.1,25.7,199.1z"/>
	<rect x="21.9" y="203.6" class="st2" width="3.8" height="7.4"/>
	<path class="st3" d="M23.9,211.1c0,0,0-1.7,0-3.7s0-3.7,0-3.7s0,1.7,0,3.7S23.9,211.1,23.9,211.1z"/>
	<path class="st3" d="M25.7,206.2c-0.6,0-1.3,0-1.9,0c-0.6,0-1.3,0-1.9,0c0.6,0,1.3,0,1.9,0C24.4,206.2,25.1,206.2,25.7,206.2z"/>
	<path class="st3" d="M25.7,208.9c0,0-0.9,0-1.9,0s-1.9,0-1.9,0c0.6-0.1,1.3-0.1,1.9,0C24.4,208.8,25.1,208.8,25.7,208.9z"/>
	<rect x="21.9" y="213.4" class="st2" width="3.8" height="7.4"/>
	<path class="st3" d="M23.9,220.8c0,0,0-1.7,0-3.7s0-3.7,0-3.7s0,1.7,0,3.7S23.9,220.8,23.9,220.8z"/>
	<path class="st3" d="M25.7,216c-0.6,0.1-1.3,0.1-1.9,0.1c-0.6,0-1.3,0-1.9-0.1c0.6,0,1.3,0,1.9,0C24.4,215.9,25.1,215.9,25.7,216z"
		/>
	<path class="st3" d="M25.7,218.6c-0.6,0.1-1.3,0.1-1.9,0.1c-0.6,0-1.3,0-1.9-0.1c0.6,0,1.3,0,1.9,0
		C24.4,218.6,25.1,218.6,25.7,218.6z"/>
	<rect x="12.6" y="222.8" class="st2" width="3.8" height="7.4"/>
	<path class="st3" d="M14.6,230.2c0,0-0.1-1.6-0.1-3.7s0-3.7,0.1-3.7s0,1.6,0,3.7S14.6,230.2,14.6,230.2z"/>
	<path class="st3" d="M16.4,225.4c-0.6,0.1-1.3,0.1-1.9,0.1c-0.6,0-1.3,0-1.9-0.1c0.6,0,1.3,0,1.9,0
		C15.1,225.4,15.8,225.4,16.4,225.4z"/>
	<path class="st3" d="M16.4,228c-0.6,0.1-1.3,0.1-1.9,0.1c-0.6,0-1.3,0-1.9-0.1c0.6-0.1,1.3-0.1,1.9-0.1C15.1,228,15.8,228,16.4,228
		z"/>
	<rect x="21.9" y="223.1" class="st2" width="3.8" height="7.4"/>
	<path class="st3" d="M23.9,230.5c0,0,0-1.6,0-3.7s0-3.7,0-3.7s0,1.7,0,3.7S23.9,230.5,23.9,230.5z"/>
	<path class="st3" d="M25.7,225.7c-0.6,0.1-1.3,0.1-1.9,0.1c-0.6,0-1.3,0-1.9-0.1c0,0,0.9,0,1.9,0S25.7,225.7,25.7,225.7z"/>
	<path class="st3" d="M25.7,228.4c-0.6,0.1-1.3,0.1-1.9,0.1c-0.6,0-1.3,0-1.9-0.1c0.6,0,1.3,0,1.9,0
		C24.4,228.3,25.1,228.3,25.7,228.4z"/>
	<rect x="71.3" y="180.4" class="st0" width="12.6" height="53.4"/>
	<rect x="73.7" y="184.2" class="st2" width="3.8" height="7.4"/>
	<path class="st3" d="M75.7,191.6c0,0,0-1.6,0-3.7s0-3.7,0-3.7s0.1,1.7,0.1,3.7S75.7,191.6,75.7,191.6z"/>
	<path class="st3" d="M77.5,186.7c-0.6,0-1.3,0-1.9,0c-0.6,0-1.3,0-1.9,0c0.6,0,1.3,0,1.9,0C76.2,186.7,76.9,186.7,77.5,186.7z"/>
	<path class="st3" d="M77.6,189.4c-0.6,0-1.3,0-1.9,0c-0.6,0-1.3,0-1.9,0c0.6,0,1.3,0,1.9,0C76.3,189.3,76.9,189.3,77.6,189.4z"/>
	<rect x="73.7" y="193.8" class="st2" width="3.8" height="7.4"/>
	<path class="st3" d="M75.7,201.2c0,0,0-1.7,0-3.7c0-2,0-3.7,0-3.7s0.1,1.7,0.1,3.7C75.8,199.6,75.7,201.2,75.7,201.2z"/>
	<path class="st3" d="M77.5,196.4c-0.6,0-1.3,0-1.9,0c-0.6,0-1.3,0-1.9,0c0.6-0.1,1.3-0.1,1.9,0C76.3,196.3,76.9,196.3,77.5,196.4z"
		/>
	<path class="st3" d="M77.6,199.1c0,0-0.9,0-1.9,0c-1.1,0-1.9,0-1.9,0c0.6-0.1,1.3-0.1,1.9-0.1C76.3,199,76.9,199,77.6,199.1z"/>
	<rect x="73.7" y="203.5" class="st2" width="3.8" height="7.4"/>
	<path class="st3" d="M75.7,210.9c0,0,0-1.7,0-3.7s0-3.7,0-3.7s0.1,1.7,0.1,3.7S75.7,210.9,75.7,210.9z"/>
	<path class="st3" d="M77.5,206.1c-0.6,0-1.3,0-1.9,0c-0.6,0-1.3,0-1.9,0c0.6,0,1.3,0,1.9,0C76.2,206,76.9,206,77.5,206.1z"/>
	<path class="st3" d="M77.6,208.7c-0.6,0.1-1.3,0.1-1.9,0.1c-0.6,0-1.3,0-1.9-0.1c0.6,0,1.3,0,1.9,0
		C76.3,208.7,76.9,208.7,77.6,208.7z"/>
	<rect x="73.7" y="213.2" class="st2" width="3.8" height="7.4"/>
	<path class="st3" d="M75.7,220.6c0,0,0-1.6,0-3.7s0-3.7,0-3.7s0.1,1.7,0.1,3.7S75.7,220.6,75.7,220.6z"/>
	<path class="st3" d="M77.5,215.7c-0.6,0.1-1.3,0.1-1.9,0.1c-0.6,0-1.3,0-1.9-0.1c0,0,0.9,0,1.9,0C76.7,215.7,77.5,215.7,77.5,215.7
		z"/>
	<path class="st3" d="M77.6,218.4c-0.6,0-1.3,0-1.9,0c-0.6,0-1.3,0-1.9,0c0.6-0.1,1.3-0.1,1.9-0.1C76.3,218.3,76.9,218.3,77.6,218.4
		z"/>
	<rect x="80.1" y="180.4" class="st3" width="9.2" height="53.4"/>
	<rect x="83" y="184.2" class="st2" width="3.8" height="7.4"/>
	<path class="st3" d="M85,191.6c0,0,0-1.6,0-3.7s0-3.7,0-3.7s0.1,1.7,0.1,3.7S85.1,191.6,85,191.6z"/>
	<path class="st3" d="M86.8,186.7c-0.6,0-1.3,0-1.9,0c-0.6,0-1.3,0-1.9,0c0.6,0,1.3,0,1.9,0C85.6,186.7,86.2,186.7,86.8,186.7z"/>
	<path class="st3" d="M86.9,189.4c-0.6,0-1.3,0-1.9,0c-0.6,0-1.3,0-1.9,0c0.6,0,1.3,0,1.9,0C85.6,189.3,86.2,189.3,86.9,189.4z"/>
	<rect x="83" y="193.9" class="st2" width="3.8" height="7.4"/>
	<path class="st3" d="M85,201.3c0,0,0-1.7,0-3.7s0-3.7,0-3.7s0.1,1.7,0.1,3.7S85.1,201.3,85,201.3z"/>
	<path class="st3" d="M86.8,196.5c-0.6,0-1.3,0-1.9,0c-0.6,0-1.3,0-1.9,0c0.6-0.1,1.3-0.1,1.9-0.1C85.6,196.4,86.2,196.4,86.8,196.5
		z"/>
	<path class="st3" d="M86.9,199.1c-0.6,0.1-1.3,0.1-1.9,0.1c-0.6,0-1.3,0-1.9-0.1c0,0,0.9,0,1.9,0S86.9,199.1,86.9,199.1z"/>
	<rect x="83" y="203.6" class="st2" width="3.8" height="7.4"/>
	<path class="st3" d="M85,211.1c0,0,0-1.7,0-3.7s0-3.7,0-3.7s0.1,1.7,0.1,3.7S85.1,211.1,85,211.1z"/>
	<path class="st3" d="M86.8,206.2c-0.6,0-1.3,0-1.9,0c-0.6,0-1.3,0-1.9,0c0.6,0,1.3,0,1.9,0C85.6,206.2,86.2,206.2,86.8,206.2z"/>
	<path class="st3" d="M86.9,208.9c0,0-0.9,0-1.9,0s-1.9,0-1.9,0c0.6-0.1,1.3-0.1,1.9,0C85.6,208.8,86.2,208.8,86.9,208.9z"/>
	<rect x="83" y="213.4" class="st2" width="3.8" height="7.4"/>
	<path class="st3" d="M85,220.8c0,0,0-1.7,0-3.7s0-3.7,0-3.7s0.1,1.7,0.1,3.7S85.1,220.8,85,220.8z"/>
	<path class="st3" d="M86.8,216c-0.6,0.1-1.3,0.1-1.9,0.1c-0.6,0-1.3,0-1.9-0.1c0.6,0,1.3,0,1.9,0C85.6,215.9,86.2,215.9,86.8,216z"
		/>
	<path class="st3" d="M86.9,218.6c-0.6,0.1-1.3,0.1-1.9,0.1c-0.6,0-1.3,0-1.9-0.1c0.6,0,1.3,0,1.9,0
		C85.6,218.6,86.2,218.6,86.9,218.6z"/>
	<rect x="73.7" y="222.8" class="st2" width="3.8" height="7.4"/>
	<path class="st3" d="M75.7,230.2c0,0,0-1.6,0-3.7s0-3.7,0-3.7s0.1,1.6,0.1,3.7S75.7,230.2,75.7,230.2z"/>
	<path class="st3" d="M77.5,225.4c-0.6,0.1-1.3,0.1-1.9,0.1c-0.6,0-1.3,0-1.9-0.1c0.6,0,1.3,0,1.9,0
		C76.2,225.4,76.9,225.4,77.5,225.4z"/>
	<path class="st3" d="M77.6,228c-0.6,0.1-1.3,0.1-1.9,0.1c-0.6,0-1.3,0-1.9-0.1c0.6-0.1,1.3-0.1,1.9-0.1C76.3,228,76.9,228,77.6,228
		z"/>
	<rect x="83" y="223.1" class="st2" width="3.8" height="7.4"/>
	<path class="st3" d="M85,230.5c0,0,0-1.6,0-3.7s0-3.7,0-3.7s0.1,1.7,0.1,3.7S85.1,230.5,85,230.5z"/>
	<path class="st3" d="M86.8,225.7c-0.6,0.1-1.3,0.1-1.9,0.1c-0.6,0-1.3,0-1.9-0.1c0,0,0.9,0,1.9,0S86.8,225.7,86.8,225.7z"/>
	<path class="st3" d="M86.9,228.4c-0.6,0.1-1.3,0.1-1.9,0.1c-0.6,0-1.3,0-1.9-0.1c0.6,0,1.3,0,1.9,0
		C85.6,228.3,86.2,228.3,86.9,228.4z"/>
	<rect x="25.8" y="164.8" class="st0" width="16.4" height="69.3"/>
	<rect x="28.9" y="169.7" class="st2" width="5" height="9.6"/>
	<path class="st3" d="M31.5,179.3c0,0-0.1-2.2-0.1-4.8s0-4.8,0.1-4.8s0.1,2.2,0.1,4.8S31.5,179.3,31.5,179.3z"/>
	<path class="st3" d="M33.8,173c-0.8,0.1-1.7,0.1-2.5,0.1c-0.8,0-1.7,0-2.5-0.1c0,0,1.1-0.1,2.5-0.1C32.7,173,33.8,173,33.8,173z"/>
	<path class="st3" d="M33.9,176.5c0,0-1.1,0.1-2.5,0.1c-1.4,0-2.5,0-2.5-0.1c0.8-0.1,1.7-0.1,2.5-0.1
		C32.2,176.4,33,176.4,33.9,176.5z"/>
	<rect x="28.9" y="182.2" class="st2" width="5" height="9.6"/>
	<path class="st3" d="M31.5,191.8c0,0-0.1-2.1-0.1-4.8c0-2.7,0-4.8,0.1-4.8s0.1,2.2,0.1,4.8C31.6,189.7,31.5,191.8,31.5,191.8z"/>
	<path class="st3" d="M33.8,185.6c0,0-1.1,0.1-2.5,0.1c-1.4,0-2.5,0-2.5-0.1c0.8-0.1,1.7-0.1,2.5-0.1
		C32.2,185.5,33,185.5,33.8,185.6z"/>
	<path class="st3" d="M33.9,189c-0.8,0.1-1.7,0.1-2.5,0.1c-0.8,0-1.7,0-2.5-0.1c0.8-0.1,1.7-0.1,2.5-0.1
		C32.2,188.9,33,188.9,33.9,189z"/>
	<rect x="28.9" y="194.8" class="st2" width="5" height="9.6"/>
	<path class="st3" d="M31.5,204.4c0,0-0.1-2.1-0.1-4.8s0-4.8,0.1-4.8s0.1,2.1,0.1,4.8S31.5,204.4,31.5,204.4z"/>
	<path class="st3" d="M33.8,198.1c0,0-1.1,0.1-2.5,0.1c-1.4,0-2.5,0-2.5-0.1c0.8-0.1,1.7-0.1,2.5-0.1C32.2,198,33,198,33.8,198.1z"
		/>
	<path class="st3" d="M33.9,201.6c-0.8,0.1-1.7,0.1-2.5,0.1c-0.8,0-1.7,0-2.5-0.1c0.8-0.1,1.7-0.1,2.5-0.1
		C32.2,201.5,33,201.5,33.9,201.6z"/>
	<rect x="28.9" y="207.3" class="st2" width="5" height="9.6"/>
	<path class="st3" d="M31.5,216.9c0,0-0.1-2.2-0.1-4.8s0-4.8,0.1-4.8s0.1,2.2,0.1,4.8S31.5,216.9,31.5,216.9z"/>
	<path class="st3" d="M33.8,210.7c0,0-1.1,0.1-2.5,0.1c-1.4,0-2.5,0-2.5-0.1c0.8-0.1,1.7-0.1,2.5-0.1
		C32.2,210.6,33,210.6,33.8,210.7z"/>
	<path class="st3" d="M33.9,214.1c-0.8,0.1-1.7,0.1-2.5,0.1c-0.8,0-1.7,0-2.5-0.1c0.8-0.1,1.7-0.1,2.5-0.1
		C32.2,214,33,214,33.9,214.1z"/>
	<rect x="37.2" y="164.8" class="st3" width="11.9" height="69.3"/>
	<rect x="40.9" y="169.7" class="st2" width="5" height="9.6"/>
	<path class="st3" d="M43.6,179.3c0,0-0.1-2.2-0.1-4.8s0-4.8,0.1-4.8s0.1,2.2,0.1,4.8S43.6,179.3,43.6,179.3z"/>
	<path class="st3" d="M45.9,173c-0.8,0.1-1.7,0.1-2.5,0.1c-0.8,0-1.7,0-2.5-0.1c0,0,1.1-0.1,2.5-0.1C44.8,173,45.9,173,45.9,173z"/>
	<path class="st3" d="M45.9,176.5c0,0-1.1,0.1-2.5,0.1s-2.5,0-2.5-0.1c0.8-0.1,1.7-0.1,2.5-0.1C44.3,176.4,45.1,176.4,45.9,176.5z"
		/>
	<rect x="40.9" y="182.3" class="st2" width="5" height="9.6"/>
	<path class="st3" d="M43.6,191.9c0,0-0.1-2.1-0.1-4.8s0-4.8,0.1-4.8s0.1,2.1,0.1,4.8S43.6,191.9,43.6,191.9z"/>
	<path class="st3" d="M45.9,185.7c0,0-1.1,0.1-2.5,0.1c-1.4,0-2.5,0-2.5-0.1c0.8-0.1,1.7-0.1,2.5-0.1
		C44.3,185.6,45.1,185.6,45.9,185.7z"/>
	<path class="st3" d="M45.9,189.1c-0.8,0.1-1.7,0.1-2.5,0.1c-0.8,0-1.7,0-2.5-0.1c0.8-0.1,1.7-0.1,2.5-0.1
		C44.3,189,45.1,189,45.9,189.1z"/>
	<rect x="40.9" y="195" class="st2" width="5" height="9.6"/>
	<path class="st3" d="M43.6,204.6c0,0-0.1-2.1-0.1-4.8c0-2.7,0-4.8,0.1-4.8s0.1,2.2,0.1,4.8C43.6,202.4,43.6,204.6,43.6,204.6z"/>
	<path class="st3" d="M45.9,198.3c-0.8,0.1-1.7,0.1-2.5,0.1c-0.8,0-1.7,0-2.5-0.1c0.8-0.1,1.7-0.1,2.5-0.1
		C44.3,198.2,45.1,198.3,45.9,198.3z"/>
	<path class="st3" d="M45.9,201.8c0,0-1.1,0.1-2.5,0.1s-2.5,0-2.5-0.1c0.8-0.1,1.7-0.1,2.5-0.1C44.3,201.7,45.1,201.7,45.9,201.8z"
		/>
	<rect x="40.9" y="207.6" class="st2" width="5" height="9.6"/>
	<path class="st3" d="M43.6,217.2c0,0-0.1-2.2-0.1-4.8s0-4.8,0.1-4.8s0.1,2.2,0.1,4.8S43.6,217.2,43.6,217.2z"/>
	<path class="st3" d="M45.9,211c0,0-1.1,0.1-2.5,0.1c-1.4,0-2.5,0-2.5-0.1c0.8-0.1,1.7-0.1,2.5-0.1C44.3,210.9,45.1,210.9,45.9,211z
		"/>
	<path class="st3" d="M45.9,214.4c-0.8,0.1-1.7,0.1-2.5,0.1c-0.8,0-1.7,0-2.5-0.1c0.8-0.1,1.7-0.1,2.5-0.1
		C44.3,214.3,45.1,214.3,45.9,214.4z"/>
	<rect x="28.9" y="219.9" class="st2" width="5" height="9.6"/>
	<path class="st3" d="M31.5,229.5c0,0-0.1-2.1-0.1-4.8s0-4.8,0.1-4.8s0.1,2.1,0.1,4.8S31.5,229.5,31.5,229.5z"/>
	<path class="st3" d="M33.8,223.2c0,0-1.1,0.1-2.5,0.1c-1.4,0-2.5,0-2.5-0.1c0.8-0.1,1.7-0.1,2.5-0.1
		C32.2,223.1,33,223.1,33.8,223.2z"/>
	<path class="st3" d="M33.9,226.6c-0.8,0.1-1.7,0.1-2.5,0.1c-0.8,0-1.7,0-2.5-0.1c0.8-0.1,1.7-0.1,2.5-0.1
		C32.2,226.5,33,226.6,33.9,226.6z"/>
	<rect x="40.9" y="220.3" class="st2" width="5" height="9.6"/>
	<path class="st3" d="M43.6,229.9c0,0-0.1-2.1-0.1-4.8s0-4.8,0.1-4.8s0.1,2.1,0.1,4.8S43.6,229.9,43.6,229.9z"/>
	<path class="st3" d="M45.9,223.6c-0.8,0.1-1.7,0.1-2.5,0.1c-0.8,0-1.7,0-2.5-0.1c0.8-0.1,1.7-0.1,2.5-0.1
		C44.3,223.5,45.1,223.5,45.9,223.6z"/>
	<path class="st3" d="M45.9,227c-0.8,0.1-1.7,0.1-2.5,0.1c-0.8,0-1.7,0-2.5-0.1c0,0,1.1-0.1,2.5-0.1S45.9,227,45.9,227z"/>
	<rect x="47.7" y="118.8" class="st0" width="17.4" height="73.6"/>
	<rect x="50.9" y="124" class="st2" width="5.3" height="10.2"/>
	<path class="st3" d="M53.7,134.2c0,0,0-2.3,0-5.1c0-2.8,0-5.1,0.1-5.1s0.1,2.3,0.1,5.1S53.8,134.2,53.7,134.2z"/>
	<path class="st3" d="M56.2,127.5c-0.9,0.1-1.8,0.1-2.7,0.1c-0.9,0-1.8,0-2.6-0.1c0.9-0.1,1.8-0.1,2.6-0.1
		C54.5,127.4,55.3,127.5,56.2,127.5z"/>
	<path class="st3" d="M56.3,131.2c-0.9,0.1-1.8,0.1-2.7,0.1c-0.9,0-1.8,0-2.7-0.1c0.9-0.1,1.8-0.1,2.7-0.1
		C54.5,131.1,55.4,131.1,56.3,131.2z"/>
	<rect x="50.9" y="137.3" class="st2" width="5.3" height="10.2"/>
	<path class="st3" d="M53.7,147.5c0,0,0-2.3,0-5.1s0-5.1,0.1-5.1s0.1,2.3,0.1,5.1S53.8,147.5,53.7,147.5z"/>
	<path class="st3" d="M56.2,140.8c0,0-1.2,0.1-2.7,0.1c-1.5,0-2.6,0-2.6-0.1c0.9-0.1,1.8-0.1,2.6-0.1
		C54.5,140.7,55.3,140.8,56.2,140.8z"/>
	<path class="st3" d="M56.3,144.5c-0.9,0.1-1.8,0.1-2.7,0.1c-0.9,0-1.8,0-2.7-0.1c0.9-0.1,1.8-0.1,2.7-0.1
		C54.5,144.4,55.4,144.4,56.3,144.5z"/>
	<rect x="50.9" y="150.6" class="st2" width="5.3" height="10.2"/>
	<path class="st3" d="M53.7,160.8c0,0,0-2.3,0-5.1c0-2.8,0-5.1,0.1-5.1s0.1,2.3,0.1,5.1C53.8,158.5,53.8,160.8,53.7,160.8z"/>
	<path class="st3" d="M56.2,154.1c-0.9,0.1-1.8,0.1-2.7,0.1c-0.9,0-1.8,0-2.6-0.1c0.9-0.1,1.8-0.1,2.6-0.1
		C54.5,154,55.3,154.1,56.2,154.1z"/>
	<path class="st3" d="M56.3,157.8c-0.9,0.1-1.8,0.1-2.7,0.1c-0.9,0-1.8,0-2.7-0.1c0.9-0.1,1.8-0.1,2.7-0.1
		C54.5,157.7,55.4,157.7,56.3,157.8z"/>
	<rect x="50.9" y="163.9" class="st2" width="5.3" height="10.2"/>
	<path class="st3" d="M53.7,174.1c0,0,0-2.3,0-5.1s0-5.1,0.1-5.1s0.1,2.3,0.1,5.1C53.8,171.8,53.8,174.1,53.7,174.1z"/>
	<path class="st3" d="M56.2,167.5c-0.9,0.1-1.8,0.1-2.7,0.1c-0.9,0-1.8,0-2.6-0.1c0.9-0.1,1.8-0.1,2.6-0.1
		C54.5,167.4,55.3,167.4,56.2,167.5z"/>
	<path class="st3" d="M56.3,171.1c-0.9,0.1-1.8,0.1-2.7,0.1c-0.9,0-1.8,0-2.7-0.1c0,0,1.2-0.1,2.7-0.1
		C55.1,171,56.3,171.1,56.3,171.1z"/>
	<rect x="59.8" y="118.8" class="st3" width="12.7" height="73.6"/>
	<rect x="63.8" y="124" class="st2" width="5.3" height="10.2"/>
	<path class="st3" d="M66.6,134.2c0,0-0.1-2.3-0.1-5.1c0-2.8,0-5.1,0.1-5.1c0.1,0,0.1,2.3,0.1,5.1S66.6,134.2,66.6,134.2z"/>
	<path class="st3" d="M69,127.5c-0.9,0.1-1.8,0.1-2.6,0.1c-0.9,0-1.8,0-2.7-0.1c0.9-0.1,1.8-0.1,2.7-0.1
		C67.3,127.4,68.2,127.5,69,127.5z"/>
	<path class="st3" d="M69.1,131.2c-0.9,0.1-1.8,0.1-2.7,0.1c-0.9,0-1.8,0-2.7-0.1c0.9-0.1,1.8-0.1,2.7-0.1
		C67.3,131.1,68.2,131.1,69.1,131.2z"/>
	<rect x="63.8" y="137.4" class="st2" width="5.3" height="10.2"/>
	<path class="st3" d="M66.6,147.6c0,0-0.1-2.3-0.1-5.1s0-5.1,0.1-5.1c0.1,0,0.1,2.3,0.1,5.1S66.6,147.6,66.6,147.6z"/>
	<path class="st3" d="M69,140.9c0,0-1.2,0.1-2.6,0.1c-1.5,0-2.7,0-2.7-0.1c0.9-0.1,1.8-0.1,2.7-0.1C67.3,140.8,68.1,140.9,69,140.9z
		"/>
	<path class="st3" d="M69.1,144.6c-0.9,0.1-1.8,0.1-2.7,0.1c-0.9,0-1.8,0-2.7-0.1c0.9-0.1,1.8-0.1,2.7-0.1
		C67.3,144.5,68.2,144.5,69.1,144.6z"/>
	<rect x="63.8" y="150.8" class="st2" width="5.3" height="10.2"/>
	<path class="st3" d="M66.6,161c0,0-0.1-2.3-0.1-5.1s0-5.1,0.1-5.1c0.1,0,0.1,2.3,0.1,5.1S66.6,161,66.6,161z"/>
	<path class="st3" d="M69,154.4c-0.9,0.1-1.8,0.1-2.6,0.1c-0.9,0-1.8,0-2.7-0.1c0.9-0.1,1.8-0.1,2.7-0.1
		C67.3,154.3,68.1,154.3,69,154.4z"/>
	<path class="st3" d="M69.1,158c0,0-1.2,0.1-2.7,0.1c-1.5,0-2.7,0-2.7-0.1c0.9-0.1,1.8-0.1,2.7-0.1C67.3,157.9,68.2,157.9,69.1,158z
		"/>
	<rect x="63.8" y="164.2" class="st2" width="5.3" height="10.2"/>
	<path class="st3" d="M66.6,174.5c0,0-0.1-2.3-0.1-5.1c0-2.8,0-5.1,0.1-5.1c0.1,0,0.1,2.3,0.1,5.1S66.6,174.5,66.6,174.5z"/>
	<path class="st3" d="M69,167.8c-0.9,0.1-1.8,0.1-2.6,0.1c-0.9,0-1.8,0-2.7-0.1c0.9-0.1,1.8-0.1,2.7-0.1
		C67.3,167.7,68.1,167.7,69,167.8z"/>
	<path class="st3" d="M69.1,171.5c-0.9,0-1.8,0-2.7,0c-0.9,0-1.8,0-2.7,0c0.9-0.1,1.8-0.1,2.7-0.1C67.3,171.4,68.2,171.4,69.1,171.5
		z"/>
	<rect x="50.9" y="177.2" class="st2" width="5.3" height="10.2"/>
	<path class="st3" d="M53.7,187.4c0,0,0-2.3,0-5.1s0-5.1,0.1-5.1s0.1,2.3,0.1,5.1S53.8,187.4,53.7,187.4z"/>
	<path class="st3" d="M56.2,180.8c-0.9,0.1-1.8,0.1-2.7,0.1c-0.9,0-1.8,0-2.6-0.1c0.9-0.1,1.8-0.1,2.6-0.1
		C54.5,180.7,55.3,180.7,56.2,180.8z"/>
	<path class="st3" d="M56.3,184.4c-0.9,0.1-1.8,0.1-2.7,0.1c-0.9,0-1.8,0-2.7-0.1c0.9-0.1,1.8-0.1,2.7-0.1
		C54.5,184.3,55.4,184.3,56.3,184.4z"/>
	<rect x="63.8" y="177.7" class="st2" width="5.3" height="10.2"/>
	<path class="st3" d="M66.6,187.8c0,0-0.1-2.3-0.1-5.1s0-5.1,0.1-5.1c0.1,0,0.1,2.3,0.1,5.1S66.6,187.8,66.6,187.8z"/>
	<path class="st3" d="M69,181.2c0,0-1.2,0.1-2.6,0.1c-1.5,0-2.7,0-2.7-0.1c0.9-0.1,1.8-0.1,2.7-0.1C67.3,181.1,68.1,181.1,69,181.2z
		"/>
	<path class="st3" d="M69.1,184.8c-0.9,0.1-1.8,0.1-2.7,0.1c-0.9,0-1.8,0-2.7-0.1c0.9-0.1,1.8-0.1,2.7-0.1
		C67.3,184.7,68.2,184.8,69.1,184.8z"/>
	<rect x="47.7" y="160.3" class="st0" width="17.4" height="73.6"/>
	<rect x="50.9" y="165.5" class="st2" width="5.3" height="10.2"/>
	<path class="st3" d="M53.7,175.7c0,0,0-2.3,0-5.1s0-5.1,0-5.1s0.1,2.3,0.1,5.1C53.8,173.4,53.8,175.7,53.7,175.7z"/>
	<path class="st3" d="M56.2,169c-0.9,0.1-1.8,0.1-2.7,0.1c-0.9,0-1.8,0-2.6-0.1c0.9-0.1,1.8-0.1,2.6-0.1
		C54.5,168.9,55.3,168.9,56.2,169z"/>
	<path class="st3" d="M56.3,172.7c-0.9,0.1-1.8,0.1-2.7,0.1c-0.9,0-1.8,0-2.7-0.1c0.9-0.1,1.8-0.1,2.7-0.1
		C54.5,172.6,55.4,172.6,56.3,172.7z"/>
	<rect x="50.9" y="178.8" class="st2" width="5.3" height="10.2"/>
	<path class="st3" d="M53.7,189c0,0,0-2.3,0-5.1s0-5.1,0.1-5.1s0.1,2.3,0.1,5.1S53.8,189,53.7,189z"/>
	<path class="st3" d="M56.2,182.3c-0.9,0.1-1.8,0.1-2.7,0.1c-0.9,0-1.8,0-2.6-0.1c0.9-0.1,1.8-0.1,2.6-0.1
		C54.5,182.2,55.3,182.3,56.2,182.3z"/>
	<path class="st3" d="M56.3,186c-0.9,0.1-1.8,0.1-2.7,0.1c-0.9,0-1.8,0-2.7-0.1c0.9-0.1,1.8-0.1,2.7-0.1
		C54.5,185.9,55.4,185.9,56.3,186z"/>
	<rect x="50.9" y="192.1" class="st2" width="5.3" height="10.2"/>
	<path class="st3" d="M53.7,202.3c0,0-0.1-2.3-0.1-5.1s0-5.1,0.1-5.1s0.1,2.3,0.1,5.1S53.8,202.3,53.7,202.3z"/>
	<path class="st3" d="M56.2,195.6c-0.9,0.1-1.8,0.1-2.7,0.1c-0.9,0-1.8,0-2.6-0.1c0.9-0.1,1.8-0.1,2.6-0.1
		C54.5,195.5,55.3,195.6,56.2,195.6z"/>
	<path class="st3" d="M56.3,199.3c-0.9,0.1-1.8,0.1-2.7,0.1c-0.9,0-1.8,0-2.7-0.1c0.9-0.1,1.8-0.1,2.7-0.1
		C54.5,199.2,55.4,199.2,56.3,199.3z"/>
	<rect x="50.9" y="205.4" class="st2" width="5.3" height="10.2"/>
	<path class="st3" d="M53.7,215.6c0,0,0-2.3,0-5.1s0-5.1,0.1-5.1s0.1,2.3,0.1,5.1S53.8,215.6,53.7,215.6z"/>
	<path class="st3" d="M56.2,209c0,0-1.2,0.1-2.7,0.1c-1.5,0-2.6,0-2.6-0.1c0.9-0.1,1.8-0.1,2.6-0.1C54.5,208.8,55.3,208.9,56.2,209z
		"/>
	<path class="st3" d="M56.3,212.6c-0.9,0.1-1.8,0.1-2.7,0.1c-0.9,0-1.8,0-2.7-0.1c0.9-0.1,1.8-0.1,2.7-0.1
		C54.5,212.5,55.4,212.5,56.3,212.6z"/>
	<rect x="59.8" y="160.3" class="st3" width="12.7" height="73.6"/>
	<rect x="63.8" y="165.5" class="st2" width="5.3" height="10.2"/>
	<path class="st3" d="M66.6,175.7c0,0-0.1-2.3-0.1-5.1s0-5.1,0.1-5.1c0.1,0,0.1,2.3,0.1,5.1S66.6,175.7,66.6,175.7z"/>
	<path class="st3" d="M69,169c-0.9,0.1-1.8,0.1-2.6,0.1c-0.9,0-1.8,0-2.7-0.1c0.9-0.1,1.8-0.1,2.7-0.1C67.3,168.9,68.1,168.9,69,169
		z"/>
	<path class="st3" d="M69.1,172.7c-0.9,0.1-1.8,0.1-2.7,0.1c-0.9,0-1.8,0-2.7-0.1c0.9-0.1,1.8-0.1,2.7-0.1
		C67.3,172.6,68.2,172.6,69.1,172.7z"/>
	<rect x="63.8" y="178.9" class="st2" width="5.3" height="10.2"/>
	<path class="st3" d="M66.6,189.1c0,0-0.1-2.3-0.1-5.1s0-5.1,0.1-5.1c0.1,0,0.1,2.3,0.1,5.1S66.6,189.1,66.6,189.1z"/>
	<path class="st3" d="M69,182.5c-0.9,0-1.8,0-2.6,0c-0.9,0-1.8,0-2.7,0c0.9-0.1,1.8-0.1,2.7-0.1C67.3,182.4,68.1,182.4,69,182.5z"/>
	<path class="st3" d="M69.1,186.1c-0.9,0.1-1.8,0.1-2.7,0.1c-0.9,0-1.8,0-2.7-0.1c0.9-0.1,1.8-0.1,2.7-0.1
		C67.3,186,68.2,186,69.1,186.1z"/>
	<rect x="63.8" y="192.3" class="st2" width="5.3" height="10.2"/>
	<path class="st3" d="M66.6,202.5c0,0-0.1-2.3-0.1-5.1s0-5.1,0.1-5.1c0.1,0,0.1,2.3,0.1,5.1S66.6,202.5,66.6,202.5z"/>
	<path class="st3" d="M69,195.9c-0.9,0.1-1.8,0.1-2.6,0.1c-0.9,0-1.8,0-2.7-0.1c0.9-0.1,1.8-0.1,2.7-0.1
		C67.3,195.8,68.1,195.8,69,195.9z"/>
	<path class="st3" d="M69.1,199.5c-0.9,0.1-1.8,0.1-2.7,0.1c-0.9,0-1.8,0-2.7-0.1c0.9,0,1.8,0,2.7,0
		C67.3,199.4,68.2,199.4,69.1,199.5z"/>
	<rect x="63.8" y="205.7" class="st2" width="5.3" height="10.2"/>
	<path class="st3" d="M66.6,215.9c0,0-0.1-2.3-0.1-5.1s0-5.1,0.1-5.1c0.1,0,0.1,2.3,0.1,5.1S66.6,215.9,66.6,215.9z"/>
	<path class="st3" d="M69,209.3c-0.9,0.1-1.8,0.1-2.6,0.1c-0.9,0-1.8,0-2.7-0.1c0.9-0.1,1.8-0.1,2.7-0.1
		C67.3,209.2,68.1,209.2,69,209.3z"/>
	<path class="st3" d="M69.1,212.9c-0.9,0.1-1.8,0.1-2.7,0.1c-0.9,0-1.8,0-2.7-0.1c0.9-0.1,1.8-0.1,2.7-0.1
		C67.3,212.8,68.2,212.8,69.1,212.9z"/>
	<rect x="50.9" y="218.7" class="st2" width="5.3" height="10.2"/>
	<path class="st3" d="M53.7,228.9c0,0,0-2.3,0-5.1s0-5.1,0.1-5.1s0.1,2.3,0.1,5.1S53.8,228.9,53.7,228.9z"/>
	<path class="st3" d="M56.2,222.2c-0.9,0.1-1.8,0.1-2.7,0.1c-0.9,0-1.8,0-2.6-0.1c0.9-0.1,1.8-0.1,2.6-0.1
		C54.5,222.2,55.3,222.2,56.2,222.2z"/>
	<path class="st3" d="M56.3,225.9c-0.9,0.1-1.8,0.1-2.7,0.1c-0.9,0-1.8,0-2.7-0.1c0.9-0.1,1.8-0.1,2.7-0.1
		C54.5,225.8,55.4,225.8,56.3,225.9z"/>
	<rect x="63.8" y="219.1" class="st2" width="5.3" height="10.2"/>
	<path class="st3" d="M66.6,229.3c0,0-0.1-2.3-0.1-5.1s0-5.1,0.1-5.1c0.1,0,0.1,2.3,0.1,5.1S66.6,229.3,66.6,229.3z"/>
	<path class="st3" d="M69,222.7c-0.9,0.1-1.8,0.1-2.6,0.1c-0.9,0-1.8,0-2.7-0.1c0.9-0.1,1.8-0.1,2.7-0.1
		C67.3,222.6,68.1,222.6,69,222.7z"/>
	<path class="st3" d="M69.1,226.3c-0.9,0.1-1.8,0.1-2.7,0.1c-0.9,0-1.8,0-2.7-0.1c0.9-0.1,1.8-0.1,2.7-0.1
		C67.3,226.2,68.2,226.3,69.1,226.3z"/>
	<rect x="215.4" y="169.5" class="st0" width="15.5" height="65.5"/>
	<rect x="218.3" y="174.1" class="st2" width="4.7" height="9.1"/>
	<path class="st3" d="M220.8,183.2c0,0-0.1-2-0.1-4.5s0-4.5,0.1-4.5s0.1,2,0.1,4.5S220.9,183.2,220.8,183.2z"/>
	<path class="st3" d="M223,177.2c-0.8,0.1-1.6,0.1-2.4,0.1c-0.8,0-1.6,0-2.4-0.1c0,0,1-0.1,2.4-0.1S223,177.2,223,177.2z"/>
	<path class="st3" d="M223.1,180.5c0,0-1.1,0.1-2.4,0.1s-2.4,0-2.4-0.1C219.9,180.4,221.5,180.4,223.1,180.5L223.1,180.5z"/>
	<rect x="218.3" y="185.9" class="st2" width="4.7" height="9.1"/>
	<path class="st3" d="M220.8,195c0,0-0.1-2-0.1-4.5s0-4.5,0.1-4.5s0.1,2,0.1,4.5C220.9,193,220.9,195,220.8,195z"/>
	<path class="st3" d="M223,189.1c-0.8,0.1-1.6,0.1-2.4,0.1c-0.8,0-1.6,0-2.4-0.1c0,0,1-0.1,2.4-0.1S223,189.1,223,189.1z"/>
	<path class="st3" d="M223.1,192.3c0,0-1.1,0.1-2.4,0.1s-2.4,0-2.4-0.1C219.9,192.2,221.5,192.2,223.1,192.3L223.1,192.3z"/>
	<rect x="218.3" y="197.8" class="st2" width="4.7" height="9.1"/>
	<path class="st3" d="M220.8,206.9c0,0-0.1-2-0.1-4.5s0-4.5,0.1-4.5s0.1,2,0.1,4.5S220.9,206.9,220.8,206.9z"/>
	<path class="st3" d="M223,200.9c-0.8,0.1-1.6,0.1-2.4,0.1c-0.8,0-1.6,0-2.4-0.1c0,0,1-0.1,2.4-0.1S223,200.9,223,200.9z"/>
	<path class="st3" d="M223.1,204.2c0,0-1.1,0.1-2.4,0.1s-2.4,0-2.4-0.1C219.9,204.1,221.5,204.1,223.1,204.2L223.1,204.2z"/>
	<rect x="218.3" y="209.6" class="st2" width="4.7" height="9.1"/>
	<path class="st3" d="M220.8,218.7c0,0-0.1-2-0.1-4.5c0-2.5,0-4.5,0.1-4.5s0.1,2,0.1,4.5S220.9,218.7,220.8,218.7z"/>
	<path class="st3" d="M223,212.8c-0.8,0.1-1.6,0.1-2.4,0.1c-0.8,0-1.6,0-2.4-0.1c0,0,1-0.1,2.4-0.1S223,212.8,223,212.8z"/>
	<path class="st3" d="M223.1,216c-1.6,0.1-3.2,0.1-4.7,0c0,0,1.1-0.1,2.4-0.1S223.1,216,223.1,216z"/>
	<rect x="226.2" y="169.5" class="st3" width="11.3" height="65.5"/>
	<rect x="229.7" y="174.1" class="st2" width="4.7" height="9.1"/>
	<path class="st3" d="M232.2,183.2c0,0-0.1-2-0.1-4.5s0-4.5,0.1-4.5s0.1,2,0.1,4.5S232.3,183.2,232.2,183.2z"/>
	<path class="st3" d="M234.5,177.2c-0.8,0.1-1.6,0.1-2.4,0.1c-0.8,0-1.6,0-2.4-0.1c0,0,1.1-0.1,2.4-0.1
		C233.4,177.2,234.5,177.2,234.5,177.2z"/>
	<path class="st3" d="M234.5,180.5c0,0-1.1,0.1-2.4,0.1s-2.4,0-2.4-0.1c0.8-0.1,1.6-0.1,2.4-0.1
		C232.9,180.4,233.7,180.4,234.5,180.5z"/>
	<rect x="229.7" y="186" class="st2" width="4.7" height="9.1"/>
	<path class="st3" d="M232.2,195.1c0,0-0.1-2-0.1-4.5c0-2.5,0-4.5,0.1-4.5s0.1,2,0.1,4.5S232.3,195.1,232.2,195.1z"/>
	<path class="st3" d="M234.5,189.2c0,0-1.1,0.1-2.4,0.1c-1.3,0-2.4,0-2.4-0.1c0.8-0.1,1.6-0.1,2.4-0.1
		C232.9,189.1,233.7,189.1,234.5,189.2z"/>
	<path class="st3" d="M234.5,192.5c-0.8,0.1-1.6,0.1-2.4,0.1c-0.8,0-1.6,0-2.4-0.1c0,0,1.1-0.1,2.4-0.1S234.5,192.4,234.5,192.5z"/>
	<rect x="229.7" y="198" class="st2" width="4.7" height="9.1"/>
	<path class="st3" d="M232.2,207.1c0,0-0.1-2-0.1-4.5c0-2.5,0-4.5,0.1-4.5s0.1,2,0.1,4.5C232.3,205.1,232.3,207.1,232.2,207.1z"/>
	<path class="st3" d="M234.5,201.1c0,0-1.1,0.1-2.4,0.1c-1.3,0-2.4,0-2.4-0.1c0.8-0.1,1.6-0.1,2.4-0.1
		C232.9,201,233.7,201.1,234.5,201.1z"/>
	<path class="st3" d="M234.5,204.4c0,0-1.1,0.1-2.4,0.1s-2.4,0-2.4-0.1s1.1-0.1,2.4-0.1S234.5,204.4,234.5,204.4z"/>
	<rect x="229.7" y="209.9" class="st2" width="4.7" height="9.1"/>
	<path class="st3" d="M232.2,219c0,0-0.1-2-0.1-4.5s0-4.5,0.1-4.5s0.1,2,0.1,4.5S232.3,219,232.2,219z"/>
	<path class="st3" d="M234.5,213.1c-0.8,0.1-1.6,0.1-2.4,0.1c-0.8,0-1.6,0-2.4-0.1c0,0,1.1-0.1,2.4-0.1
		C233.4,213,234.5,213.1,234.5,213.1z"/>
	<path class="st3" d="M234.5,216.3c0,0-1.1,0.1-2.4,0.1s-2.4,0-2.4-0.1c0.8-0.1,1.6-0.1,2.4-0.1
		C232.9,216.2,233.7,216.3,234.5,216.3z"/>
	<rect x="218.3" y="221.5" class="st2" width="4.7" height="9.1"/>
	<path class="st3" d="M220.8,230.6c0,0-0.1-2-0.1-4.5s0-4.5,0.1-4.5s0.1,2,0.1,4.5S220.9,230.6,220.8,230.6z"/>
	<path class="st3" d="M223,224.6c0,0-1.1,0.1-2.4,0.1c-1.3,0-2.4,0-2.4-0.1s1-0.1,2.4-0.1S223,224.6,223,224.6z"/>
	<path class="st3" d="M223.1,227.9c-1.6,0.1-3.2,0.1-4.7,0c0,0,1.1-0.1,2.4-0.1S223.1,227.9,223.1,227.9z"/>
	<rect x="229.7" y="221.9" class="st2" width="4.7" height="9.1"/>
	<path class="st3" d="M232.2,230.9c0,0-0.1-2-0.1-4.5s0-4.5,0.1-4.5s0.1,2,0.1,4.5S232.3,230.9,232.2,230.9z"/>
	<path class="st3" d="M234.5,225c0,0-1.1,0.1-2.4,0.1c-1.3,0-2.4,0-2.4-0.1c0.8-0.1,1.6-0.1,2.4-0.1
		C232.9,224.9,233.7,225,234.5,225z"/>
	<path class="st3" d="M234.5,228.3c-0.8,0.1-1.6,0.1-2.4,0.1c-0.8,0-1.6,0-2.4-0.1c0,0,1.1-0.1,2.4-0.1S234.5,228.2,234.5,228.3z"/>
	<path class="st4" d="M0,234c0,0.1,54.8,0.1,122.4,0.1s122.3-0.1,122.3-0.1s-54.8-0.1-122.4-0.1S0,233.9,0,234z"/>
	<rect x="137" y="120.3" class="st5" width="18.6" height="78.7"/>
	<rect x="140.5" y="125.8" class="st2" width="5.7" height="10.9"/>
	<path class="st3" d="M143.5,136.7c0,0-0.1-2.4-0.1-5.5s0-5.5,0.1-5.5c0.1,0,0.1,2.4,0.1,5.5C143.6,134.3,143.5,136.7,143.5,136.7z"
		/>
	<path class="st3" d="M146.2,129.6c-0.9,0.1-1.9,0.1-2.8,0.1c-0.9,0-1.9,0-2.8-0.1c0.9-0.1,1.9-0.1,2.8-0.1
		C144.3,129.5,145.2,129.5,146.2,129.6z"/>
	<path class="st3" d="M146.2,133.5c-0.9,0.1-1.9,0.1-2.9,0.1c-1,0-1.9,0-2.9-0.1c1-0.1,1.9-0.1,2.9,0
		C144.3,133.4,145.2,133.4,146.2,133.5z"/>
	<rect x="140.5" y="140.1" class="st2" width="5.7" height="10.9"/>
	<path class="st3" d="M143.5,151c0,0-0.1-2.4-0.1-5.4c0-3,0-5.4,0.1-5.4c0.1,0,0.1,2.4,0.1,5.4C143.6,148.5,143.5,151,143.5,151z"/>
	<path class="st3" d="M146.2,143.9c-0.9,0.1-1.9,0.1-2.8,0.1c-0.9,0-1.9,0-2.8-0.1c0.9-0.1,1.9-0.1,2.8-0.1
		C144.3,143.8,145.2,143.8,146.2,143.9z"/>
	<path class="st3" d="M146.2,147.8c-0.9,0.1-1.9,0.1-2.9,0.1c-1,0-1.9,0-2.9-0.1c0,0,1.3-0.1,2.9-0.1
		C144.9,147.7,146.2,147.7,146.2,147.8z"/>
	<rect x="140.5" y="154.3" class="st2" width="5.7" height="10.9"/>
	<path class="st3" d="M143.5,165.2c0,0-0.1-2.4-0.1-5.4c0-3,0-5.5,0.1-5.5c0.1,0,0.1,2.4,0.1,5.5
		C143.6,162.8,143.5,165.2,143.5,165.2z"/>
	<path class="st3" d="M146.2,158.1c-0.9,0.1-1.9,0.1-2.8,0.1c-0.9,0-1.9,0-2.8-0.1c0.9-0.1,1.9-0.1,2.8-0.1
		C144.3,158,145.2,158,146.2,158.1z"/>
	<path class="st3" d="M146.2,162c0,0-1.3,0.1-2.9,0.1c-1.6,0-2.9,0-2.9-0.1c1-0.1,1.9-0.1,2.9-0.1
		C144.3,161.9,145.2,161.9,146.2,162z"/>
	<rect x="140.5" y="168.6" class="st2" width="5.7" height="10.9"/>
	<path class="st3" d="M143.5,179.5c0,0-0.1-2.4-0.1-5.4s0-5.5,0.1-5.5c0.1,0,0.1,2.4,0.1,5.5S143.5,179.5,143.5,179.5z"/>
	<path class="st3" d="M146.2,172.3c-0.9,0.1-1.9,0.1-2.8,0.1c-0.9,0-1.9,0-2.8-0.1c0.9-0.1,1.9-0.1,2.8-0.1
		C144.3,172.2,145.2,172.3,146.2,172.3z"/>
	<path class="st3" d="M146.2,176.2c-0.9,0.1-1.9,0.1-2.9,0.1c-1,0-1.9,0-2.9-0.1c0,0,1.3-0.1,2.9-0.1
		C144.9,176.2,146.2,176.2,146.2,176.2z"/>
	<rect x="150" y="120.3" class="st4" width="13.6" height="78.7"/>
	<rect x="154.2" y="125.8" class="st2" width="5.7" height="10.9"/>
	<path class="st3" d="M157.2,136.7c0,0-0.1-2.4-0.1-5.5s0-5.5,0.1-5.5s0.1,2.4,0.1,5.5C157.3,134.3,157.2,136.7,157.2,136.7z"/>
	<path class="st3" d="M159.9,129.6c-0.9,0.1-1.9,0.1-2.8,0.1c-0.9,0-1.9,0-2.8-0.1c0.9-0.1,1.9-0.1,2.8-0.1
		C158,129.5,158.9,129.5,159.9,129.6z"/>
	<path class="st3" d="M159.9,133.5c-0.9,0.1-1.9,0.1-2.8,0.1c-1,0-1.9,0-2.9-0.1c0.9-0.1,1.9-0.1,2.8,0
		C158,133.4,159,133.4,159.9,133.5z"/>
	<rect x="154.2" y="140.2" class="st2" width="5.7" height="10.9"/>
	<path class="st3" d="M157.2,151.1c0,0-0.1-2.4-0.1-5.4s0-5.5,0.1-5.5s0.1,2.4,0.1,5.5S157.2,151.1,157.2,151.1z"/>
	<path class="st3" d="M159.9,144c-0.9,0.1-1.9,0.1-2.8,0.1c-0.9,0-1.9,0-2.8-0.1c0.9-0.1,1.9-0.1,2.8-0.1
		C158,143.9,158.9,143.9,159.9,144z"/>
	<path class="st3" d="M159.9,147.9c-0.9,0.1-1.9,0.1-2.8,0.1c-1,0-1.9,0-2.8-0.1c0.9-0.1,1.9-0.1,2.8-0.1
		C158,147.8,159,147.8,159.9,147.9z"/>
	<rect x="154.2" y="154.6" class="st2" width="5.7" height="10.9"/>
	<path class="st3" d="M157.2,165.5c0,0-0.1-2.4-0.1-5.4s0-5.5,0.1-5.5s0.1,2.4,0.1,5.5S157.2,165.5,157.2,165.5z"/>
	<path class="st3" d="M159.9,158.3c-0.9,0.1-1.9,0.1-2.8,0.1c-0.9,0-1.9,0-2.8-0.1c0.9-0.1,1.9-0.1,2.8-0.1
		C158,158.2,158.9,158.3,159.9,158.3z"/>
	<path class="st3" d="M159.9,162.2c-0.9,0.1-1.9,0.1-2.8,0.1c-1,0-1.9,0-2.8-0.1c0.9-0.1,1.9-0.1,2.8-0.1
		C158,162.1,159,162.2,159.9,162.2z"/>
	<rect x="154.2" y="168.9" class="st2" width="5.7" height="10.9"/>
	<path class="st3" d="M157.2,179.8c0,0-0.1-2.4-0.1-5.4s0-5.5,0.1-5.5s0.1,2.5,0.1,5.5S157.2,179.8,157.2,179.8z"/>
	<path class="st3" d="M159.9,172.7c-0.9,0.1-1.9,0.1-2.8,0.1c-0.9,0-1.9,0-2.8-0.1c0.9-0.1,1.9-0.1,2.8-0.1
		C158,172.6,158.9,172.6,159.9,172.7z"/>
	<path class="st3" d="M159.9,176.6c-0.9,0.1-1.9,0.1-2.8,0.1c-1,0-1.9,0-2.8-0.1c0.9-0.1,1.9-0.1,2.8-0.1
		C158,176.5,159,176.5,159.9,176.6z"/>
	<rect x="140.5" y="182.8" class="st2" width="5.7" height="10.9"/>
	<path class="st3" d="M143.5,193.7c0,0-0.1-2.4-0.1-5.5c0-3,0-5.4,0.1-5.4c0.1,0,0.1,2.4,0.1,5.4
		C143.6,191.3,143.5,193.7,143.5,193.7z"/>
	<path class="st3" d="M146.2,186.6c-0.9,0.1-1.9,0.1-2.8,0.1c-0.9,0-1.9,0-2.8-0.1c0.9-0.1,1.9-0.1,2.8-0.1
		C144.3,186.5,145.2,186.5,146.2,186.6z"/>
	<path class="st3" d="M146.2,190.5c0,0-1.3,0.1-2.9,0.1c-1.6,0-2.9,0-2.9-0.1c1-0.1,1.9-0.1,2.9-0.1
		C144.3,190.4,145.2,190.4,146.2,190.5z"/>
	<rect x="154.2" y="183.3" class="st2" width="5.7" height="10.9"/>
	<path class="st3" d="M157.2,194.2c0,0-0.1-2.4-0.1-5.4s0-5.4,0.1-5.4s0.1,2.4,0.1,5.4S157.2,194.2,157.2,194.2z"/>
	<path class="st3" d="M159.9,187.1c-0.9,0.1-1.9,0.1-2.8,0.1c-0.9,0-1.9,0-2.8-0.1c0.9-0.1,1.9-0.1,2.8-0.1
		C158,187,158.9,187,159.9,187.1z"/>
	<path class="st3" d="M159.9,191c-0.9,0.1-1.9,0.1-2.8,0.1c-1,0-1.9,0-2.8-0.1c0.9-0.1,1.9-0.1,2.8-0.1
		C158,190.9,159,190.9,159.9,191z"/>
	<rect x="155.9" y="131.7" class="st5" width="24.2" height="102.2"/>
	<rect x="160.4" y="138.8" class="st2" width="7.4" height="14.2"/>
	<path class="st3" d="M164.2,153c0,0-0.1-3.2-0.1-7.1s0-7.1,0.1-7.1s0.1,3.2,0.1,7.1C164.3,149.8,164.3,153,164.2,153z"/>
	<path class="st3" d="M167.7,143.7c-1.2,0.1-2.5,0.1-3.7,0.1c-1.2,0-2.4,0-3.7-0.1c0-0.1,1.6-0.1,3.7-0.1S167.7,143.7,167.7,143.7z"
		/>
	<path class="st3" d="M167.7,148.8c0,0-1.6,0.1-3.7,0.1c-2.1,0-3.7,0-3.7-0.1c1.2-0.1,2.5-0.1,3.7-0.1
		C165.2,148.7,166.5,148.7,167.7,148.8z"/>
	<rect x="160.4" y="157.3" class="st2" width="7.4" height="14.2"/>
	<path class="st3" d="M164.2,171.5c0,0-0.1-3.2-0.1-7.1s0-7.1,0.1-7.1s0.1,3.2,0.1,7.1S164.3,171.5,164.2,171.5z"/>
	<path class="st3" d="M167.7,162.2c-1.2,0.1-2.5,0.1-3.7,0.1c-1.2,0-2.4,0-3.7-0.1c0-0.1,1.6-0.1,3.7-0.1S167.7,162.2,167.7,162.2z"
		/>
	<path class="st3" d="M167.7,167.3c0,0-1.6,0.1-3.7,0.1c-2.1,0-3.7,0-3.7-0.1c1.2-0.1,2.5-0.1,3.7-0.1
		C165.2,167.2,166.5,167.2,167.7,167.3z"/>
	<rect x="160.4" y="175.8" class="st2" width="7.4" height="14.2"/>
	<path class="st3" d="M164.2,190c0,0-0.1-3.2-0.1-7.1s0-7.1,0.1-7.1s0.1,3.2,0.1,7.1C164.3,186.8,164.3,190,164.2,190z"/>
	<path class="st3" d="M167.7,180.7c-1.2,0.1-2.5,0.1-3.7,0.1c-1.2,0-2.4,0-3.7-0.1c1.2-0.1,2.4-0.1,3.7-0.1
		C165.3,180.6,166.5,180.6,167.7,180.7z"/>
	<path class="st3" d="M167.7,185.8c0,0-1.6,0.1-3.7,0.1c-2.1,0-3.7,0-3.7-0.1c1.2-0.1,2.5-0.1,3.7-0.1
		C165.2,185.7,166.5,185.7,167.7,185.8z"/>
	<rect x="160.4" y="194.3" class="st2" width="7.4" height="14.2"/>
	<path class="st3" d="M164.2,208.5c0,0-0.1-3.2-0.1-7.1s0-7.1,0.1-7.1s0.1,3.2,0.1,7.1S164.3,208.5,164.2,208.5z"/>
	<path class="st3" d="M167.7,199.2c-1.2,0.1-2.5,0.1-3.7,0.1c-1.2,0-2.4,0-3.7-0.1c1.2-0.1,2.4-0.1,3.7-0.1
		C165.3,199.1,166.5,199.1,167.7,199.2z"/>
	<path class="st3" d="M167.7,204.3c-1.2,0.1-2.5,0.1-3.7,0.1c-1.2,0-2.5,0-3.7-0.1c0,0,1.7-0.1,3.7-0.1
		C166,204.2,167.7,204.2,167.7,204.3z"/>
	<rect x="172.7" y="131.7" class="st4" width="17.6" height="102.2"/>
	<rect x="178.1" y="138.8" class="st2" width="7.4" height="14.2"/>
	<path class="st3" d="M182,153c0,0-0.1-3.2-0.1-7.1s0-7.1,0.1-7.1s0.1,3.2,0.1,7.1C182.1,149.8,182.1,153,182,153z"/>
	<path class="st3" d="M185.5,143.7c-1.2,0.1-2.5,0.1-3.7,0.1c-1.2,0-2.4,0-3.7-0.1c0-0.1,1.6-0.1,3.7-0.1S185.5,143.7,185.5,143.7z"
		/>
	<path class="st3" d="M185.5,148.8c0,0-1.6,0.1-3.7,0.1s-3.7,0-3.7-0.1c1.2-0.1,2.5-0.1,3.7-0.1
		C183.1,148.7,184.3,148.7,185.5,148.8z"/>
	<rect x="178.1" y="157.5" class="st2" width="7.4" height="14.2"/>
	<path class="st3" d="M182,171.6c0,0-0.1-3.2-0.1-7.1s0-7.1,0.1-7.1s0.1,3.2,0.1,7.1S182.1,171.6,182,171.6z"/>
	<path class="st3" d="M185.5,162.4c0,0-1.6,0.1-3.7,0.1s-3.7,0-3.7-0.1c1.2-0.1,2.4-0.1,3.7-0.1C183,162.3,184.3,162.3,185.5,162.4z
		"/>
	<path class="st3" d="M185.5,167.5c-1.2,0.1-2.5,0.1-3.7,0.1c-1.2,0-2.5,0-3.7-0.1c1.2-0.1,2.5-0.1,3.7-0.1
		C183.1,167.3,184.3,167.4,185.5,167.5z"/>
	<rect x="178.1" y="176.1" class="st2" width="7.4" height="14.2"/>
	<path class="st3" d="M182,190.3c0,0-0.1-3.2-0.1-7.1s0-7.1,0.1-7.1s0.1,3.2,0.1,7.1S182.1,190.3,182,190.3z"/>
	<path class="st3" d="M185.5,181c0,0-1.6,0.1-3.7,0.1s-3.7,0-3.7-0.1c1.2-0.1,2.4-0.1,3.7-0.1C183,180.9,184.3,180.9,185.5,181z"/>
	<path class="st3" d="M185.5,186.1c-1.2,0.1-2.5,0.1-3.7,0.1c-1.2,0-2.5,0-3.7-0.1c1.2-0.1,2.5-0.1,3.7-0.1
		C183.1,186,184.3,186,185.5,186.1z"/>
	<rect x="178.1" y="194.8" class="st2" width="7.4" height="14.2"/>
	<path class="st3" d="M182,208.9c0,0-0.1-3.2-0.1-7.1s0-7.1,0.1-7.1s0.1,3.2,0.1,7.1S182.1,208.9,182,208.9z"/>
	<path class="st3" d="M185.5,199.7c-1.2,0.1-2.5,0.1-3.7,0.1c-1.2,0-2.4,0-3.7-0.1c1.2-0.1,2.4-0.1,3.7-0.1
		C183,199.5,184.3,199.6,185.5,199.7z"/>
	<path class="st3" d="M185.5,204.7c-1.2,0.1-2.5,0.1-3.7,0.1c-1.2,0-2.5,0-3.7-0.1c1.2-0.1,2.5-0.1,3.7-0.1
		C183.1,204.6,184.3,204.6,185.5,204.7z"/>
	<rect x="160.4" y="212.8" class="st2" width="7.4" height="14.2"/>
	<path class="st3" d="M164.2,226.9c0,0-0.1-3.2-0.1-7.1s0-7.1,0.1-7.1s0.1,3.2,0.1,7.1S164.3,226.9,164.2,226.9z"/>
	<path class="st3" d="M167.7,217.7c-1.2,0.1-2.5,0.1-3.7,0.1c-1.2,0-2.4,0-3.7-0.1c1.2-0.1,2.4-0.1,3.7-0.1
		C165.3,217.6,166.5,217.6,167.7,217.7z"/>
	<path class="st3" d="M167.7,222.8c-1.2,0.1-2.5,0.1-3.7,0.1c-1.2,0-2.5,0-3.7-0.1c0,0,1.7-0.1,3.7-0.1
		C166,222.7,167.7,222.7,167.7,222.8z"/>
	<rect x="178.1" y="213.4" class="st2" width="7.4" height="14.2"/>
	<path class="st3" d="M182,227.6c0,0-0.1-3.2-0.1-7.1s0-7.1,0.1-7.1s0.1,3.2,0.1,7.1S182.1,227.6,182,227.6z"/>
	<path class="st3" d="M185.5,218.3c-1.2,0.1-2.5,0.1-3.7,0.1c-1.2,0-2.4,0-3.7-0.1c1.2-0.1,2.4-0.1,3.7-0.1
		C183,218.2,184.3,218.2,185.5,218.3z"/>
	<path class="st3" d="M185.5,223.4c-1.2,0.1-2.5,0.1-3.7,0.1c-1.2,0-2.5,0-3.7-0.1c1.2-0.1,2.5-0.1,3.7-0.1
		C183.1,223.2,184.3,223.3,185.5,223.4z"/>
	<rect x="155.9" y="92" class="st5" width="24.2" height="99.2"/>
	<rect x="160.4" y="99.2" class="st2" width="7.4" height="14.2"/>
	<path class="st3" d="M164.2,113.3c0,0-0.1-3.2-0.1-7.1c0-3.9,0-7.1,0.1-7.1s0.1,3.2,0.1,7.1C164.3,110.2,164.3,113.3,164.2,113.3z"
		/>
	<path class="st3" d="M167.7,104.1c-1.2,0.1-2.5,0.1-3.7,0.1c-1.2,0-2.4,0-3.7-0.1c1.2-0.1,2.4-0.1,3.7-0.1
		C165.3,103.9,166.5,104,167.7,104.1z"/>
	<path class="st3" d="M167.7,109.1c-1.2,0.1-2.5,0.1-3.7,0.1c-1.2,0-2.5,0-3.7-0.1c1.2-0.1,2.5-0.1,3.7-0.1
		C165.2,109,166.5,109,167.7,109.1z"/>
	<rect x="160.4" y="117.7" class="st2" width="7.4" height="14.2"/>
	<path class="st3" d="M164.2,131.8c0,0-0.1-3.2-0.1-7.1s0-7.1,0.1-7.1s0.1,3.2,0.1,7.1S164.3,131.8,164.2,131.8z"/>
	<path class="st3" d="M167.7,122.6c-1.2,0.1-2.5,0.1-3.7,0.1c-1.2,0-2.4,0-3.7-0.1c1.2-0.1,2.4-0.1,3.7-0.1
		C165.3,122.4,166.5,122.5,167.7,122.6z"/>
	<path class="st3" d="M167.7,127.6c-1.2,0.1-2.5,0.1-3.7,0.1c-1.2,0-2.5,0-3.7-0.1c1.2-0.1,2.5-0.1,3.7-0.1
		C165.2,127.5,166.5,127.5,167.7,127.6z"/>
	<rect x="160.4" y="136.1" class="st2" width="7.4" height="14.2"/>
	<path class="st3" d="M164.2,150.3c0,0-0.1-3.2-0.1-7.1s0-7.1,0.1-7.1s0.1,3.2,0.1,7.1S164.3,150.3,164.2,150.3z"/>
	<path class="st3" d="M167.7,141.1c-1.2,0.1-2.5,0.1-3.7,0.1c-1.2,0-2.4,0-3.7-0.1c1.2-0.1,2.4-0.1,3.7-0.1
		C165.3,140.9,166.5,141,167.7,141.1z"/>
	<path class="st3" d="M167.7,146.1c-1.2,0.1-2.5,0.1-3.7,0.1c-1.2,0-2.5,0-3.7-0.1c1.2-0.1,2.5-0.1,3.7-0.1
		C165.2,146,166.5,146,167.7,146.1z"/>
	<rect x="160.4" y="154.6" class="st2" width="7.4" height="14.2"/>
	<path class="st3" d="M164.2,168.8c0,0-0.1-3.2-0.1-7.1c0-3.9,0-7.1,0.1-7.1s0.1,3.2,0.1,7.1S164.3,168.8,164.2,168.8z"/>
	<path class="st3" d="M167.7,159.6c-1.2,0.1-2.5,0.1-3.7,0.1c-1.2,0-2.4,0-3.7-0.1c1.2-0.1,2.4-0.1,3.7-0.1
		C165.3,159.4,166.5,159.4,167.7,159.6z"/>
	<path class="st3" d="M167.7,164.6c-1.2,0.1-2.5,0.1-3.7,0.1c-1.2,0-2.5,0-3.7-0.1c1.2-0.1,2.5-0.1,3.7-0.1
		C165.2,164.5,166.5,164.5,167.7,164.6z"/>
	<rect x="172.7" y="92" class="st4" width="17.6" height="99.2"/>
	<rect x="178.1" y="99.2" class="st2" width="7.4" height="14.2"/>
	<path class="st3" d="M182,113.3c0,0-0.1-3.2-0.1-7.1c0-3.9,0-7.1,0.1-7.1s0.1,3.2,0.1,7.1C182.1,110.2,182.1,113.3,182,113.3z"/>
	<path class="st3" d="M185.5,104.1c-1.2,0.1-2.5,0.1-3.7,0.1c-1.2,0-2.4,0-3.7-0.1c1.2-0.1,2.4-0.1,3.7-0.1
		C183,103.9,184.3,104,185.5,104.1z"/>
	<path class="st3" d="M185.5,109.1c-1.2,0.1-2.5,0.1-3.7,0.1c-1.2,0-2.5,0-3.7-0.1c1.2-0.1,2.5-0.1,3.7-0.1
		C183.1,109,184.3,109,185.5,109.1z"/>
	<rect x="178.1" y="117.8" class="st2" width="7.4" height="14.2"/>
	<path class="st3" d="M182,132c0,0-0.1-3.2-0.1-7.1c0-3.9,0-7.1,0.1-7.1s0.1,3.2,0.1,7.1S182.1,132,182,132z"/>
	<path class="st3" d="M185.5,122.7c-1.2,0.1-2.5,0.1-3.7,0.1c-1.2,0-2.4,0-3.7-0.1c1.2-0.1,2.4-0.1,3.7-0.1
		C183,122.6,184.3,122.6,185.5,122.7z"/>
	<path class="st3" d="M185.5,127.8c-1.2,0.1-2.5,0.1-3.7,0.1c-1.2,0-2.5,0-3.7-0.1c1.2-0.1,2.5-0.1,3.7-0.1
		C183.1,127.6,184.3,127.7,185.5,127.8z"/>
	<rect x="178.1" y="136.4" class="st2" width="7.4" height="14.2"/>
	<path class="st3" d="M182,150.6c0,0-0.1-3.2-0.1-7.1s0-7.1,0.1-7.1s0.1,3.2,0.1,7.1S182.1,150.6,182,150.6z"/>
	<path class="st3" d="M185.5,141.4c-1.2,0.1-2.5,0.1-3.7,0.1c-1.2,0-2.4,0-3.7-0.1c1.2-0.1,2.4-0.1,3.7-0.1
		C183,141.2,184.3,141.3,185.5,141.4z"/>
	<path class="st3" d="M185.5,146.5c-1.2,0.1-2.5,0.1-3.7,0.1c-1.2,0-2.5,0-3.7-0.1c0-0.1,1.7-0.1,3.7-0.1S185.5,146.4,185.5,146.5z"
		/>
	<rect x="178.1" y="155.1" class="st2" width="7.4" height="14.2"/>
	<path class="st3" d="M182,169.2c0,0-0.1-3.2-0.1-7.1s0-7.1,0.1-7.1s0.1,3.2,0.1,7.1S182.1,169.2,182,169.2z"/>
	<path class="st3" d="M185.5,160c-1.2,0.1-2.5,0.1-3.7,0.1c-1.2,0-2.4,0-3.7-0.1c1.2-0.1,2.4-0.1,3.7-0.1
		C183,159.9,184.3,159.9,185.5,160z"/>
	<path class="st3" d="M185.5,165.1c-1.2,0.1-2.5,0.1-3.7,0.1c-1.2,0-2.5,0-3.7-0.1c0,0,1.7-0.1,3.7-0.1S185.5,165,185.5,165.1z"/>
	<rect x="160.4" y="173.1" class="st2" width="7.4" height="14.2"/>
	<path class="st3" d="M164.2,187.3c0,0-0.1-3.2-0.1-7.1c0-3.9,0-7.1,0.1-7.1s0.1,3.2,0.1,7.1S164.3,187.3,164.2,187.3z"/>
	<path class="st3" d="M167.7,178c-1.2,0.1-2.5,0.1-3.7,0.1c-1.2,0-2.4,0-3.7-0.1c1.2-0.1,2.4-0.1,3.7-0.1
		C165.3,177.9,166.5,177.9,167.7,178z"/>
	<path class="st3" d="M167.7,183.1c-1.2,0.1-2.5,0.1-3.7,0.1c-1.2,0-2.5,0-3.7-0.1c1.2-0.1,2.5-0.1,3.7-0.1
		C165.2,183,166.5,183,167.7,183.1z"/>
	<rect x="178.1" y="173.7" class="st2" width="7.4" height="14.2"/>
	<path class="st3" d="M182,187.9c0,0-0.1-3.2-0.1-7.1s0-7.1,0.1-7.1s0.1,3.2,0.1,7.1S182.1,187.9,182,187.9z"/>
	<path class="st3" d="M185.5,178.6c-1.2,0.1-2.5,0.1-3.7,0.1c-1.2,0-2.4,0-3.7-0.1c0,0,1.6-0.1,3.7-0.1S185.5,178.6,185.5,178.6z"/>
	<path class="st3" d="M185.5,183.7c0,0.1-1.6,0.1-3.7,0.1s-3.7,0-3.7-0.1c1.2-0.1,2.5-0.1,3.7-0.1
		C183.1,183.6,184.3,183.6,185.5,183.7z"/>
	<rect x="182.5" y="143.4" class="st5" width="21.4" height="90.6"/>
	<rect x="186.5" y="149.8" class="st2" width="6.5" height="12.6"/>
	<path class="st3" d="M190,162.3c-0.1,0-0.1-2.8-0.1-6.3s0-6.3,0.1-6.3s0.1,2.8,0.1,6.3S190,162.3,190,162.3z"/>
	<path class="st3" d="M193,154.1c-1.1,0.1-2.2,0.1-3.2,0.1c-1.1,0-2.2,0-3.3-0.1c1.1-0.1,2.2-0.1,3.3-0.1
		C190.9,154,191.9,154,193,154.1z"/>
	<path class="st3" d="M193.1,158.6c-1.1,0.1-2.2,0.1-3.3,0.1c-1.1,0-2.2,0-3.3-0.1c1.1-0.1,2.2-0.1,3.3-0.1
		C190.9,158.5,192,158.5,193.1,158.6z"/>
	<rect x="186.5" y="166.1" class="st2" width="6.5" height="12.6"/>
	<path class="st3" d="M190,178.7c-0.1,0-0.1-2.8-0.1-6.3s0-6.3,0.1-6.3s0.1,2.8,0.1,6.3S190,178.7,190,178.7z"/>
	<path class="st3" d="M193,170.5c-1.1,0.1-2.2,0.1-3.2,0.1c-1.1,0-2.2,0-3.3-0.1c1.1-0.1,2.2-0.1,3.3-0.1
		C190.9,170.3,191.9,170.4,193,170.5z"/>
	<path class="st3" d="M193.1,175c-1.1,0.1-2.2,0.1-3.3,0.1c-1.1,0-2.2,0-3.3-0.1c1.1-0.1,2.2-0.1,3.3-0.1
		C190.9,174.9,192,174.9,193.1,175z"/>
	<rect x="186.5" y="182.5" class="st2" width="6.5" height="12.6"/>
	<path class="st3" d="M190,195.1c-0.1,0-0.1-2.8-0.1-6.3s0-6.3,0.1-6.3s0.1,2.8,0.1,6.3C190,192.2,190,195.1,190,195.1z"/>
	<path class="st3" d="M193,186.9c-1.1,0.1-2.2,0.1-3.2,0.1c-1.1,0-2.2,0-3.3-0.1c1.1-0.1,2.2-0.1,3.3-0.1
		C190.9,186.8,191.9,186.8,193,186.9z"/>
	<path class="st3" d="M193.1,191.4c0,0-1.5,0.1-3.3,0.1s-3.3,0-3.3-0.1c1.1-0.1,2.2-0.1,3.3-0.1C190.9,191.2,192,191.3,193.1,191.4z
		"/>
	<rect x="186.5" y="198.9" class="st2" width="6.5" height="12.6"/>
	<path class="st3" d="M190,211.5c-0.1,0-0.1-2.8-0.1-6.3c0-3.5,0-6.3,0.1-6.3s0.1,2.8,0.1,6.3C190,208.7,190,211.5,190,211.5z"/>
	<path class="st3" d="M193,203.3c0,0-1.4,0.1-3.2,0.1c-1.8,0-3.3,0-3.3-0.1c1.1-0.1,2.2-0.1,3.3-0.1
		C190.9,203.1,191.9,203.2,193,203.3z"/>
	<path class="st3" d="M193.1,207.8c-1.1,0.1-2.2,0.1-3.3,0.1c-1.1,0-2.2,0-3.3-0.1c0,0,1.5-0.1,3.3-0.1
		C191.6,207.7,193.1,207.7,193.1,207.8z"/>
	<rect x="197.4" y="143.4" class="st4" width="15.6" height="90.6"/>
	<rect x="202.3" y="149.8" class="st2" width="6.5" height="12.6"/>
	<path class="st3" d="M205.7,162.3c0,0-0.1-2.8-0.1-6.3s0-6.3,0.1-6.3s0.1,2.8,0.1,6.3S205.8,162.3,205.7,162.3z"/>
	<path class="st3" d="M208.8,154.1c-1.1,0.1-2.2,0.1-3.2,0.1c-1.1,0-2.2,0-3.3-0.1c1.1-0.1,2.2-0.1,3.3-0.1
		C206.6,154,207.7,154,208.8,154.1z"/>
	<path class="st3" d="M208.8,158.6c-1.1,0.1-2.2,0.1-3.3,0.1c-1.1,0-2.2,0-3.3-0.1c1.1-0.1,2.2-0.1,3.3-0.1
		C206.6,158.5,207.7,158.5,208.8,158.6z"/>
	<rect x="202.3" y="166.3" class="st2" width="6.5" height="12.6"/>
	<path class="st3" d="M205.7,178.8c0,0-0.1-2.8-0.1-6.3c0-3.5,0-6.3,0.1-6.3s0.1,2.8,0.1,6.3C205.8,176,205.8,178.8,205.7,178.8z"/>
	<path class="st3" d="M208.8,170.6c0,0-1.5,0.1-3.2,0.1c-1.8,0-3.3,0-3.3-0.1c1.1-0.1,2.2-0.1,3.3-0.1
		C206.6,170.5,207.7,170.5,208.8,170.6z"/>
	<path class="st3" d="M208.8,175.1c-1.1,0.1-2.2,0.1-3.3,0.1c-1.1,0-2.2,0-3.3-0.1c1.1-0.1,2.2-0.1,3.3-0.1
		C206.6,175,207.7,175,208.8,175.1z"/>
	<rect x="202.3" y="182.8" class="st2" width="6.5" height="12.6"/>
	<path class="st3" d="M205.7,195.3c0,0-0.1-2.8-0.1-6.3c0-3.5,0-6.3,0.1-6.3s0.1,2.8,0.1,6.3C205.8,192.5,205.8,195.3,205.7,195.3z"
		/>
	<path class="st3" d="M208.8,187.1c-1.1,0.1-2.2,0.1-3.2,0.1c-1.1,0-2.2,0-3.3-0.1c1.1-0.1,2.2-0.1,3.3-0.1
		C206.6,187,207.7,187.1,208.8,187.1z"/>
	<path class="st3" d="M208.8,191.6c-1.1,0.1-2.2,0.1-3.3,0.1c-1.1,0-2.2,0-3.3-0.1c0,0,1.5-0.1,3.3-0.1S208.8,191.6,208.8,191.6z"/>
	<rect x="202.3" y="199.3" class="st2" width="6.5" height="12.6"/>
	<path class="st3" d="M205.7,211.9c0,0-0.1-2.8-0.1-6.3s0-6.3,0.1-6.3s0.1,2.8,0.1,6.3S205.8,211.9,205.7,211.9z"/>
	<path class="st3" d="M208.8,203.7c-1.1,0.1-2.2,0.1-3.2,0.1c-1.1,0-2.2,0-3.3-0.1c1.1-0.1,2.2-0.1,3.3-0.1
		C206.6,203.6,207.7,203.6,208.8,203.7z"/>
	<path class="st3" d="M208.8,208.2c0,0-1.5,0.1-3.3,0.1c-1.8,0-3.3,0-3.3-0.1c1.1-0.1,2.2-0.1,3.3-0.1
		C206.6,208,207.7,208.1,208.8,208.2z"/>
	<rect x="186.5" y="215.3" class="st2" width="6.5" height="12.6"/>
	<path class="st3" d="M190,227.8c-0.1,0-0.1-2.8-0.1-6.3s0-6.3,0.1-6.3s0.1,2.8,0.1,6.3S190,227.8,190,227.8z"/>
	<path class="st3" d="M193,219.6c-1.1,0.1-2.2,0.1-3.2,0.1c-1.1,0-2.2,0-3.3-0.1c0,0,1.5-0.1,3.3-0.1
		C191.6,219.6,193,219.6,193,219.6z"/>
	<path class="st3" d="M193.1,224.1c-1.1,0.1-2.2,0.1-3.3,0.1c-1.1,0-2.2,0-3.3-0.1c1.1-0.1,2.2-0.1,3.3-0.1
		C190.9,224,192,224,193.1,224.1z"/>
	<rect x="202.3" y="215.8" class="st2" width="6.5" height="12.6"/>
	<path class="st3" d="M205.7,228.4c0,0-0.1-2.8-0.1-6.3s0-6.3,0.1-6.3s0.1,2.8,0.1,6.3S205.8,228.4,205.7,228.4z"/>
	<path class="st3" d="M208.8,220.2c-1.1,0.1-2.2,0.1-3.2,0.1c-1.1,0-2.2,0-3.3-0.1c1.1-0.1,2.2-0.1,3.3-0.1
		C206.6,220.1,207.7,220.1,208.8,220.2z"/>
	<path class="st3" d="M208.8,224.7c-1.1,0.1-2.2,0.1-3.3,0.1c-1.1,0-2.2,0-3.3-0.1c1.1-0.1,2.2-0.1,3.3-0.1
		C206.6,224.6,207.7,224.6,208.8,224.7z"/>
	<polygon class="st5" points="41.6,228.7 44.3,230.8 52.3,223.7 57.2,226.5 68.8,216.9 69.3,216.5 63.2,234 30.9,234 	"/>
	<polygon class="st3" points="62.6,234 80.8,186.4 79,169.6 133.5,172.3 175.7,192 213.9,234 	"/>
	<path class="st4" d="M62.6,234l151.2,0.1h0.3l-0.2-0.2l-25-27.6c-4.4-4.9-8.8-9.7-13.1-14.4l0,0l0,0l-42.3-19.7l0,0l0,0L79,169.5
		h-0.1v0.1c0.6,6,1.2,11.6,1.8,16.8l0,0C69.4,216,62.9,233.4,62.6,234l18.2-47.6v0c-0.6-5.2-1.2-10.8-1.8-16.8l-0.1,0.1l54.5,2.8
		l0,0l42.2,19.6l0,0l13,14.4l25,27.6l0.1-0.2L62.6,234z"/>
	<path class="st4" d="M132.7,230.8l-0.1-0.2l-0.2-0.5c-0.2-0.4-0.5-1-0.9-1.8l-3.5-6.6c-3-5.6-7.1-13.3-11.7-21.8l-3-5.5l0,0h-0.1
		c-7.8-2.3-14.7-4.2-19.7-5.6c-2.5-0.7-4.5-1.2-5.8-1.6c-0.7-0.2-1.4-0.4-2.1-0.4h0.1l0.4,0.1l1.6,0.4l5.8,1.7l19.7,5.7l-0.1-0.1
		l3,5.5l11.7,21.7c1.5,2.8,2.7,5,3.6,6.6l1,1.8l0.3,0.5L132.7,230.8z"/>
	<polygon class="st5" points="152.3,228.4 170,204.8 176.7,210.8 184.3,199.2 187.5,202.7 193.3,191 198.3,197.3 217.9,177.9 
		225.5,186.2 230.1,181.1 242.1,191.6 242.9,234 134.6,234 	"/>
	<path class="st4" d="M218,204.2c0.1-0.2,0.2-0.4,0.3-0.6c0.2-0.4,0.4-0.9,0.6-1.5c0.6-1.3,1.4-3.1,2.4-5l0.4-0.7
		c0-0.1,0.1-0.2,0.2-0.3c0.1-0.1,0.2-0.1,0.3-0.2c0.4-0.2,0.9-0.1,1.2,0.1c0.5,0.7,1,1.4,1.4,2s0.7,1,0.9,1.4
		c0.1,0.2,0.2,0.4,0.4,0.5c-0.1-0.2-0.1-0.4-0.3-0.6c-0.2-0.4-0.5-0.9-0.8-1.4c-0.4-0.6-0.8-1.3-1.4-2.1c-0.4-0.4-1-0.5-1.5-0.2
		c-0.1,0.1-0.3,0.1-0.4,0.2c-0.1,0.1-0.2,0.2-0.2,0.4L221,197c-0.9,1.6-1.6,3.3-2.3,5c-0.2,0.7-0.4,1.2-0.6,1.6
		C218,203.8,218,204,218,204.2z"/>
	<path class="st4" d="M223,204.7c0,0,0.3-0.6,0.7-1.5c0.2-0.5,0.5-1,0.8-1.6l0.5-0.9c0.1-0.2,0.2-0.3,0.3-0.4
		c0.1-0.1,0.3-0.2,0.4-0.2c0.2,0,0.3,0,0.5,0.1c0.1,0,0.1,0.1,0.2,0.1l0.1,0.2l0.6,0.9l1,1.5c0.3,0.5,0.6,0.9,0.9,1.3
		c-0.2-0.5-0.5-1-0.8-1.4c-0.2-0.4-0.6-0.9-0.9-1.5l-0.6-0.8c-0.1-0.1-0.1-0.1-0.2-0.2c-0.1-0.1-0.2-0.2-0.3-0.2
		c-0.2-0.1-0.4-0.1-0.6-0.1c-0.2,0-0.4,0.1-0.6,0.3c-0.1,0.2-0.2,0.3-0.3,0.5l-0.5,0.9c-0.3,0.5-0.6,1-0.8,1.6
		c-0.2,0.5-0.3,0.9-0.4,1.1C223,204.4,223,204.6,223,204.7z"/>
	<path class="st4" d="M225.9,200.1c0.1-0.2,0.2-0.4,0.3-0.7l0.8-1.9c0.3-0.8,0.7-1.8,1.1-2.8l0.3-0.8c0.1-0.3,0.3-0.5,0.6-0.5
		c0.3-0.1,0.6,0,0.8,0.1c0.1,0.1,0.2,0.2,0.3,0.3l0.2,0.4c1,2,2,4,2.8,6.1c0.3,0.8,0.6,1.4,0.8,1.9c0.1,0.2,0.2,0.5,0.4,0.7
		c-0.1-0.2-0.1-0.5-0.2-0.7l-0.8-1.9c-0.8-2.1-1.7-4.2-2.7-6.2l-0.2-0.4c-0.1-0.2-0.2-0.3-0.4-0.4c-0.3-0.2-0.7-0.2-1-0.1
		c-0.3,0.1-0.6,0.4-0.7,0.7l-0.3,0.8l-1,2.9c-0.3,0.8-0.5,1.4-0.7,1.9C226.1,199.6,226,199.8,225.9,200.1z"/>
	<path class="st4" d="M198.1,213.9c0,0,0.3-0.7,0.8-1.8c0.5-1.1,1.2-2.7,2.1-4.3l0.3-0.6c0-0.1,0.1-0.2,0.2-0.3
		c0.1-0.1,0.1-0.1,0.2-0.2c0.3-0.2,0.8-0.1,1.1,0.1c0.5,0.6,0.9,1.3,1.2,1.8l0.8,1.2c0.1,0.2,0.2,0.3,0.3,0.4c0-0.2-0.1-0.3-0.2-0.5
		c-0.2-0.3-0.4-0.7-0.7-1.3c-0.3-0.5-0.7-1.1-1.2-1.8c-0.4-0.3-0.9-0.4-1.3-0.2c-0.1,0.1-0.2,0.1-0.3,0.2c-0.1,0.1-0.2,0.2-0.2,0.3
		l-0.3,0.6c-0.8,1.4-1.4,2.9-2,4.4c-0.2,0.6-0.4,1-0.5,1.4C198.2,213.5,198.2,213.7,198.1,213.9z"/>
	<path class="st4" d="M202.6,214.3c0.2-0.4,0.4-0.8,0.6-1.3c0.2-0.4,0.4-0.8,0.7-1.3l0.5-0.8c0.1-0.1,0.1-0.3,0.2-0.4
		c0.1-0.1,0.2-0.1,0.4-0.2c0.1,0,0.3,0,0.4,0.1c0.1,0,0.1,0.1,0.1,0.1l0.1,0.2l0.5,0.8c0.3,0.5,0.6,0.9,0.8,1.3
		c0.2,0.4,0.5,0.8,0.8,1.2c-0.2-0.4-0.4-0.9-0.6-1.3c-0.2-0.4-0.5-0.8-0.8-1.3l-0.5-0.8l-0.1-0.2c-0.1-0.1-0.1-0.1-0.2-0.2
		c-0.2-0.1-0.4-0.1-0.6-0.1c-0.2,0-0.4,0.1-0.5,0.2c-0.1,0.1-0.2,0.3-0.3,0.4l-0.4,0.8c-0.3,0.4-0.5,0.9-0.7,1.4
		C202.8,213.3,202.6,213.8,202.6,214.3z"/>
	<path class="st4" d="M205.1,210.2c0.1-0.2,0.2-0.4,0.3-0.6c0.2-0.4,0.4-1,0.7-1.7l1-2.5l0.3-0.7c0.1-0.2,0.3-0.4,0.5-0.5
		c0.2-0.1,0.5,0,0.7,0.1c0.1,0.1,0.2,0.2,0.2,0.3l0.2,0.4c0.9,1.7,1.7,3.5,2.4,5.4c0.3,0.7,0.5,1.2,0.7,1.6c0.1,0.2,0.2,0.4,0.3,0.6
		c0-0.2-0.1-0.4-0.2-0.6c-0.2-0.4-0.4-1-0.6-1.7c-0.7-1.9-1.5-3.7-2.4-5.4l-0.2-0.4c-0.1-0.1-0.2-0.3-0.3-0.4
		c-0.3-0.2-0.6-0.2-0.9-0.1c-0.3,0.1-0.5,0.3-0.6,0.6l-0.3,0.7l-0.9,2.5c-0.2,0.7-0.4,1.2-0.6,1.7
		C205.2,209.8,205.1,210,205.1,210.2z"/>
	<path class="st4" d="M222.9,229.3c0,0,0.3-0.7,0.8-1.8c0.5-1.1,1.2-2.7,2.1-4.3l0.3-0.6c0-0.1,0.1-0.2,0.2-0.3
		c0.1-0.1,0.1-0.1,0.2-0.2c0.3-0.1,0.7-0.1,1,0.1c0.5,0.6,0.9,1.3,1.2,1.8l0.8,1.2c0.1,0.2,0.2,0.3,0.3,0.4
		c-0.1-0.2-0.1-0.3-0.2-0.5c-0.2-0.3-0.4-0.7-0.7-1.3s-0.7-1.1-1.2-1.8c-0.4-0.3-0.9-0.4-1.3-0.2c-0.1,0.1-0.2,0.1-0.3,0.2
		c-0.1,0.1-0.1,0.2-0.2,0.3l-0.3,0.6c-0.8,1.4-1.4,2.9-2,4.4c-0.2,0.6-0.4,1.1-0.5,1.4C222.9,228.9,222.9,229.1,222.9,229.3z"/>
	<path class="st4" d="M229.8,225.7c0.1-0.2,0.2-0.4,0.3-0.6c0.2-0.4,0.4-1,0.7-1.7c0.3-0.7,0.6-1.6,1-2.5c0.1-0.2,0.2-0.5,0.3-0.7
		c0.1-0.2,0.3-0.4,0.5-0.5c0.2-0.1,0.5,0,0.7,0.1c0.1,0.1,0.2,0.2,0.2,0.3l0.2,0.4c0.9,1.7,1.7,3.5,2.4,5.4c0.3,0.7,0.6,1.2,0.7,1.6
		c0.1,0.2,0.2,0.4,0.3,0.6c-0.1-0.2-0.1-0.4-0.2-0.6c-0.2-0.4-0.4-1-0.6-1.7c-0.7-1.9-1.5-3.7-2.4-5.4l-0.2-0.4
		c-0.2-0.4-0.8-0.6-1.2-0.5c-0.3,0.1-0.5,0.3-0.6,0.6c-0.1,0.2-0.2,0.5-0.3,0.7l-0.9,2.5c-0.2,0.7-0.4,1.2-0.6,1.7
		C229.9,225.2,229.9,225.4,229.8,225.7z"/>
	<path class="st4" d="M174.6,229.7c0.3-0.6,0.6-1.2,0.8-1.8c0.5-1.1,1.2-2.7,2.1-4.3l0.3-0.6c0-0.1,0.1-0.2,0.2-0.3
		c0.1-0.1,0.1-0.1,0.2-0.2c0.3-0.1,0.7-0.1,1,0.1c0.5,0.6,0.9,1.3,1.2,1.8l0.8,1.2c0.1,0.2,0.2,0.3,0.3,0.4
		c-0.1-0.2-0.1-0.3-0.2-0.5c-0.2-0.3-0.4-0.7-0.7-1.3s-0.7-1.1-1.2-1.8c-0.4-0.3-0.9-0.4-1.3-0.2c-0.1,0.1-0.2,0.1-0.3,0.2
		c-0.1,0.1-0.2,0.2-0.2,0.3l-0.3,0.6c-0.8,1.4-1.4,2.9-2,4.4c-0.2,0.6-0.4,1-0.5,1.4C174.7,229.3,174.6,229.5,174.6,229.7z"/>
	<path class="st4" d="M181.6,226.1c0.1-0.2,0.2-0.4,0.3-0.6l0.7-1.7l1-2.5l0.3-0.7c0.1-0.2,0.3-0.4,0.5-0.5c0.2-0.1,0.5,0,0.7,0.1
		c0.1,0.1,0.2,0.2,0.2,0.3l0.2,0.4c0.9,1.7,1.7,3.5,2.4,5.4c0.3,0.7,0.5,1.2,0.7,1.6c0.1,0.2,0.2,0.4,0.3,0.6c0-0.2-0.1-0.4-0.2-0.6
		c-0.2-0.4-0.4-1-0.7-1.7c-0.7-1.9-1.5-3.7-2.4-5.4l-0.2-0.4c-0.1-0.1-0.2-0.3-0.3-0.4c-0.3-0.2-0.6-0.2-0.9-0.1
		c-0.3,0.1-0.5,0.3-0.6,0.6l-0.3,0.7c-0.3,0.9-0.6,1.8-0.9,2.5s-0.4,1.2-0.6,1.7C181.7,225.6,181.6,225.9,181.6,226.1z"/>
	<path class="st6" d="M22.5,209.2c-1.1,0.5-2,1.5-2.3,2.7c-0.4,1.2-0.5,2.4-0.3,3.6c0.4,2.4,1.5,4.7,3,6.6c2-1.7,2.4-4.7,2.6-6.2
		C25.6,213.4,24.5,208.9,22.5,209.2"/>
	<path class="st6" d="M20.6,225.9c0.3-1.4-0.2-2.8-1.2-3.7c-1.1-0.9-2.4-1.3-3.8-1.2c-0.6,0-1.2,0.3-1.7,0.8c-0.3,0.5-0.3,1.2,0,1.7
		c0.3,0.5,0.7,0.9,1.2,1.2C16.8,225.8,18.7,226.5,20.6,225.9"/>
	<path class="st4" d="M22.9,233.8c0-0.2,0-0.4-0.1-0.5l-0.3-1.5c-0.2-1.6-0.8-3.2-1.5-4.7c-0.8-1.5-2-2.7-3.4-3.6
		c-0.4-0.3-0.9-0.5-1.4-0.6c-0.2-0.1-0.3-0.1-0.4-0.1h-0.1c0.6,0.2,1.3,0.5,1.8,0.9c1.4,0.9,2.5,2.1,3.3,3.6c0.7,1.5,1.3,3,1.6,4.6
		c0.1,0.6,0.2,1.1,0.3,1.5C22.7,233.5,22.8,233.6,22.9,233.8z"/>
	<path class="st4" d="M22.8,210.7c0,0.1,0,0.2,0,0.2c0,0.2,0,0.4,0,0.7c0,0.6-0.1,1.5-0.1,2.5c-0.1,2.1-0.1,5.1-0.1,8.3
		s0.1,6.2,0.2,8.3c0,1.1,0.1,1.9,0.1,2.5c0,0.3,0,0.5,0,0.7c0,0.1,0,0.2,0,0.2c0-0.1,0-0.2,0-0.2v-0.7c0-0.6,0-1.5-0.1-2.5
		c0-2.1-0.1-5.1-0.1-8.3s0-6.2,0.1-8.3c0-1,0-1.9,0-2.5v-0.7C22.8,210.8,22.8,210.8,22.8,210.7z"/>
	<path class="st6" d="M24,227.4c0.5-2.9,2.3-5.3,4.9-6.6c0.6-0.4,1.4-0.4,2.1,0c0.4,0.6,0.5,1.4,0.2,2c-1.2,2.9-4,4.8-7.1,4.8"/>
	<path class="st4" d="M29.1,222.3c-0.2,0.1-0.3,0.1-0.5,0.2c-0.2,0.1-0.4,0.2-0.5,0.3c-0.2,0.1-0.5,0.2-0.7,0.4s-0.5,0.4-0.8,0.6
		s-0.5,0.5-0.8,0.8c-0.6,0.6-1.1,1.3-1.6,2c-0.4,0.7-0.8,1.5-1,2.4c-0.1,0.4-0.2,0.7-0.3,1.1c-0.1,0.4-0.1,0.7-0.1,1
		c0,0.3,0,0.5,0,0.8c0,0.2,0,0.4,0,0.6c0,0.2,0,0.3,0.1,0.5c0,0,0-0.7,0.1-1.9c0-0.3,0.1-0.6,0.2-0.9c0.1-0.4,0.2-0.7,0.3-1.1
		c0.3-0.8,0.6-1.6,1-2.3c0.4-0.7,1-1.4,1.5-2c0.3-0.3,0.5-0.5,0.8-0.8c0.3-0.2,0.5-0.4,0.8-0.6C28.5,222.6,29.1,222.3,29.1,222.3z"
		/>
	<path class="st4" d="M106.9,6.2c-0.4-0.8-1.3-1.2-2.2-1.1c-1-0.8-2.5-0.8-3.6,0c-0.8-0.5-1.7-0.5-2.5-0.1c-0.8,0.4-1.3,1.2-1.4,2.1
		c-0.9-0.1-1.8,0.3-2.3,1.1c-0.4,0.8-0.3,1.8,0.3,2.5c-1,0.3-1.6,1.3-1.4,2.4c0.2,1,1.2,1.7,2.2,1.7l10.4-6.1
		C107.1,8,107.3,7,106.9,6.2z"/>
	<path class="st7" d="M95.7,15c0.5-4.6,4.4-8,9-7.9h0.5c4.9,0.4,7.3,4.8,6.8,9.6l-1,16.3l-0.7,2l-8.5,10.6l-2.1-9.5v-4.4
		c0,0-4.7-0.8-4.7-5.5C94.9,23.9,95.3,19.3,95.7,15z"/>
	<path class="st8" d="M99.5,31.8c2.2,0,4.3-0.6,6.2-1.7c0,0-1.5,3.4-6.2,2.9L99.5,31.8z"/>
	<path class="st4" d="M97,19.6c0,0.4,0.3,0.7,0.6,0.7c0.4,0,0.7-0.2,0.7-0.6c0,0,0,0,0,0c0-0.4-0.3-0.7-0.6-0.7
		C97.4,19,97.1,19.3,97,19.6C97,19.6,97,19.6,97,19.6z"/>
	<path class="st4" d="M96.7,17.6c0.1,0.1,0.6-0.3,1.3-0.3s1.2,0.4,1.3,0.3s-0.1-0.2-0.3-0.4c-0.3-0.2-0.7-0.3-1.1-0.3
		c-0.4,0-0.7,0.1-1.1,0.3C96.7,17.4,96.6,17.6,96.7,17.6z"/>
	<path class="st4" d="M103.6,20c0.1,0.1,0.6-0.3,1.3-0.3c0.7,0,1.2,0.4,1.3,0.3c0.1-0.1,0-0.2-0.3-0.4c-0.3-0.2-0.7-0.3-1.1-0.3
		c-0.4,0-0.7,0.1-1,0.3C103.6,19.8,103.5,20,103.6,20z"/>
	<path class="st4" d="M101.1,23c-0.4-0.1-0.8-0.2-1.2-0.2c-0.2,0-0.4-0.1-0.4-0.2c0-0.2,0-0.4,0.1-0.5l0.6-1.4
		c0.5-1.2,1-2.4,1.3-3.7c-0.6,1.1-1.2,2.3-1.6,3.5l-0.5,1.4c-0.1,0.2-0.2,0.5-0.1,0.7c0,0.1,0.2,0.2,0.3,0.3c0.1,0,0.2,0,0.3,0
		C100.3,22.9,100.7,23,101.1,23z"/>
	<path class="st4" d="M103.6,18.3c0.1,0.2,0.7,0,1.5,0.1c0.8,0.1,1.4,0.2,1.5,0c0.1-0.2-0.1-0.3-0.3-0.4c-0.3-0.2-0.7-0.3-1.1-0.3
		c-0.4,0-0.8,0.1-1.1,0.3C103.7,18.1,103.5,18.2,103.6,18.3z"/>
	<path class="st4" d="M96.9,15.6c0.1,0.2,0.6,0.1,1.2,0.1s1.1,0.2,1.2,0.1s0-0.2-0.2-0.4c-0.3-0.2-0.6-0.4-1-0.4c-0.3,0-0.7,0-1,0.2
		C96.9,15.4,96.8,15.5,96.9,15.6z"/>
	<path class="st4" d="M96.2,12.9c0,0,1.3-2.9,2.7-3.6c1.7-0.8,2.4,1.1,4.1,0.7s3.3-1.2,5,0.1c1.8,1.4,0.9,2.4,1,4.5
		c0.3,8.5,1.8,10.9,2.3,6.9c0.1-0.4,1.3-0.8,1.5-2.6c0.3-2.4,0.4-5.3-0.1-7c-0.5-1.5-1.4-2.7-2.7-3.6c-2.3-1.8-5.4-1.9-7.7-1.7
		S96.1,9.2,96.2,12.9z"/>
	<path class="st7" d="M111.1,21.4c0-0.7,0.6-1.2,1.3-1.2c0,0,0.1,0,0.1,0c0.9,0.1,1.8,0.6,1.8,2.4c-0.2,3.2-3.4,2.4-3.4,2.3
		S111,22.7,111.1,21.4z"/>
	<path class="st8" d="M111.6,23.7c0,0,0,0,0.1,0.1c0.1,0.1,0.3,0.1,0.4,0c0.4-0.2,0.7-0.7,0.7-1.2c0-0.3,0-0.6-0.1-0.8
		c-0.1-0.2-0.2-0.4-0.4-0.4c-0.1,0-0.3,0-0.3,0.1c0,0.1,0,0.2,0,0.2s-0.1-0.1,0-0.2c0-0.1,0.1-0.1,0.1-0.2c0.1-0.1,0.2-0.1,0.3-0.1
		c0.3,0.1,0.5,0.3,0.6,0.5c0.1,0.3,0.2,0.6,0.1,0.9c0,0.6-0.3,1.1-0.9,1.3c-0.2,0.1-0.4,0-0.5-0.1C111.6,23.8,111.6,23.7,111.6,23.7
		z"/>
	<path class="st4" d="M111.1,15.1c-0.4,0.3-0.9,0.5-1.4,0.6c-0.5,0.1-1-0.3-1.1-0.8c0-0.2,0-0.5-0.1-0.7s-0.5-0.2-0.8-0.1
		c-1,0.1-1.9-0.6-2.1-1.5c-0.3,0.3-0.8,0.4-1.2,0.1c-0.3-0.3-0.6-0.6-0.9-1c-0.2-0.4-0.7-0.6-1.1-0.6c-0.2,0.1-0.5,0.1-0.7,0.1
		c-0.4,0-0.6-0.5-0.7-1s-0.1-0.8-0.4-1.1c-0.4-0.2-0.8-0.2-1.2-0.1c-0.4,0-0.9,0-1-0.4c0-0.2,0-0.4,0.2-0.6c0.6-0.8,1.6-1,2.5-0.7
		c0.3-1.1,1.3-1.9,2.5-2c1.1-0.1,2.2,0.5,2.7,1.5c0.7-0.6,1.7-0.8,2.6-0.6c0.9,0.2,1.7,0.9,2,1.8c0.8-0.2,1.7,0.1,2.2,0.8
		c0.5,0.7,0.5,1.6,0.1,2.3c0.6,0.3,1,0.9,1,1.6c0,0.6-0.5,1.1-1.1,1.1c-0.1,0-0.1,0-0.2,0c0.2,0.5,0,1.2-0.5,1.5
		c-0.5,0.3-1.2,0.1-1.5-0.4"/>
	<path class="st8" d="M102.9,24.1c0.1,0,0.1,0,0.2,0c0.1,0,0.1,0.1,0.1,0.2c0.2,0.5,0.1,1.1-0.2,1.6l0,0c-0.4,0.5-1.1,0.5-1.5,0.2
		c-0.1-0.1-0.2-0.2-0.3-0.4l-0.2-0.5L102.9,24.1z"/>
	<path class="st4" d="M101.4,25.9c0,0,0.2,0.3,0.8,0.4c0.2,0,0.3,0,0.5-0.1c0.2-0.1,0.3-0.2,0.4-0.3c0.2-0.3,0.3-0.8,0.3-1.2
		c0-0.1,0-0.2,0-0.3c0-0.1-0.1-0.2-0.2-0.3c-0.1-0.1-0.3-0.1-0.4,0l-0.2,0.1l-0.8,0.5c-0.3,0.1-0.5,0.3-0.8,0.5
		c0.3-0.1,0.6-0.2,0.8-0.3l0.9-0.4c0.2-0.1,0.4-0.2,0.4-0.1s0.1,0.3,0.1,0.5c0,0.4-0.1,0.7-0.3,1.1c-0.1,0.1-0.2,0.2-0.4,0.3
		c-0.1,0.1-0.3,0.1-0.4,0.1C101.9,26.1,101.6,26,101.4,25.9z"/>
	<path class="st5" d="M113.2,13.9c0,0.2-0.1,0.5-0.2,0.6c-0.2,0.2-0.4,0.3-0.6,0.4c-0.3,0-0.7-0.1-0.9-0.3h0.1
		c-0.2,0.3-0.4,0.6-0.7,0.8c-0.2,0.2-0.4,0.3-0.6,0.3c-0.2,0.1-0.4,0.1-0.7,0c-0.4,0-0.7-0.2-0.9-0.6c-0.1-0.2-0.2-0.4-0.2-0.7
		c0-0.1,0-0.2,0-0.3c0,0.1,0.1,0.2,0.1,0.2c0.1,0.2,0.2,0.4,0.3,0.6c0.5,0.6,1.3,0.6,1.9,0.1c0,0,0,0,0.1-0.1
		c0.2-0.2,0.4-0.5,0.6-0.7l0.1-0.1l0.1,0.1c0.2,0.2,0.5,0.3,0.8,0.3c0.2,0,0.4-0.1,0.6-0.3C113,14.3,113.1,14.1,113.2,13.9z"/>
	<path class="st5" d="M107.3,6.5c0,0-0.1,0-0.2,0.1c-0.2,0.1-0.4,0.2-0.5,0.4V7L106.5,7c-0.4-0.6-0.9-1-1.5-1.3
		c-0.4-0.2-0.8-0.3-1.3-0.3c-0.5,0-1,0.1-1.4,0.4c-0.3,0.2-0.6,0.4-0.8,0.8c-0.2,0.3-0.3,0.6-0.4,1v0.1H101
		c-0.5-0.1-0.9-0.1-1.3,0.1c-0.3,0.2-0.6,0.4-0.7,0.8c-0.1,0.3-0.2,0.7-0.2,1c0-0.1,0-0.2,0-0.3c0-0.3,0.1-0.5,0.2-0.7
		c0.2-0.4,0.4-0.7,0.8-0.8c0.4-0.2,1-0.3,1.5-0.2L101,7.5c0-0.4,0.2-0.7,0.4-1c0.2-0.3,0.5-0.6,0.9-0.8c0.4-0.3,1-0.4,1.5-0.4
		c0.5,0,0.9,0.1,1.3,0.3c0.6,0.3,1.2,0.8,1.6,1.4h-0.1c0.1-0.2,0.3-0.3,0.6-0.4C107.2,6.6,107.2,6.5,107.3,6.5z"/>
	<path class="st4" d="M96.7,157.2l-0.1,9.1c0,0-9.2,3-9.4,4.6l17.5,0.8l0.7-14.1L96.7,157.2z"/>
	<path class="st3" d="M102.1,165.7c0.3,0.1,0.5,0.5,0.5,0.8c-0.1,0.4-0.5,0.6-0.8,0.5c-0.4-0.1-0.6-0.5-0.5-0.9
		C101.4,165.8,101.8,165.6,102.1,165.7"/>
	<path class="st5" d="M104.7,171.6v-1.4L87.9,170c0,0-0.8,0.3-0.7,0.9L104.7,171.6z"/>
	<path class="st2" d="M96.3,166.1c0,0.1,0.4,0.1,0.8,0.4c0.4,0.3,0.6,0.7,0.7,0.6c0.1,0,0-0.5-0.5-0.9S96.3,166.1,96.3,166.1z"/>
	<path class="st2" d="M94.4,166.8c0,0.1,0.3,0.2,0.6,0.6s0.3,0.8,0.4,0.8s0.2-0.5-0.2-0.9C94.9,166.8,94.4,166.7,94.4,166.8z"/>
	<path class="st2" d="M93.3,169c0.1,0,0.2-0.4,0-0.9c-0.2-0.5-0.6-0.7-0.6-0.6s0.2,0.3,0.4,0.7C93.2,168.6,93.2,169,93.3,169z"/>
	<path class="st2" d="M96.6,164.1c0,0.1,0.4,0,0.9,0c0.5,0,0.9,0.2,0.9,0.1s-0.3-0.4-0.9-0.4C96.9,163.7,96.5,164,96.6,164.1z"/>
	<path class="st4" d="M117,159.1l1,10.9l-1.7,8.9c-0.1,0.6,0.3,1.2,0.9,1.3c0,0,0.1,0,0.1,0l0,0c0.4,0.1,0.7-0.1,1-0.3
		c1.6-1.7,7.3-8,7.2-8.8c-0.1-0.8-0.4-11.6-0.4-11.6L117,159.1z"/>
	<path class="st5" d="M117.2,180.2l8.1-9.9v0.5c0,0.4-0.1,0.8-0.3,1.1c-0.6,0.9-2.5,3.2-6.8,8C117.9,180.2,117.5,180.3,117.2,180.2
		L117.2,180.2z"/>
	<g class="st9">
		<path class="st2" d="M122.8,166.9c-0.3,0.2-0.3,0.6-0.1,0.9c0.2,0.3,0.6,0.3,0.9,0.1c0.3-0.2,0.4-0.7,0.1-1
			C123.5,166.7,123.1,166.7,122.8,166.9"/>
	</g>
	<path class="st2" d="M119.4,175.3c-0.3-0.3-0.6-0.6-1-0.8c-0.4-0.1-0.8-0.2-1.3-0.2c0,0,0.1-0.1,0.4-0.2c0.3-0.1,0.7,0,1,0.1
		c0.3,0.1,0.6,0.3,0.8,0.6C119.4,175.1,119.4,175.3,119.4,175.3z"/>
	<path class="st2" d="M118.7,176.8c0,0.1-0.4-0.3-1-0.4c-0.4,0-0.7-0.1-1.1-0.1c0.3-0.2,0.8-0.3,1.1-0.2
		C118.4,176.3,118.8,176.8,118.7,176.8z"/>
	<path class="st2" d="M120.7,173.3c-0.5-0.3-1-0.5-1.5-0.7c-0.5-0.1-1.1-0.2-1.7-0.3c0.6-0.2,1.2-0.2,1.7,0
		C119.9,172.5,120.4,172.8,120.7,173.3z"/>
	<path class="st2" d="M120.7,170c0,0.1-0.6-0.1-1.4-0.1s-1.4,0.2-1.4,0.2c0.4-0.3,0.9-0.5,1.4-0.4
		C119.8,169.5,120.3,169.7,120.7,170z"/>
	<path class="st2" d="M120.5,166.7c-0.5-0.1-1-0.2-1.5-0.2c-0.5,0.1-1,0.2-1.4,0.5c0,0,0.1-0.2,0.3-0.3c0.3-0.2,0.7-0.3,1.1-0.4
		c0.4,0,0.8,0,1.1,0.2C120.4,166.6,120.5,166.7,120.5,166.7z"/>
	<path class="st2" d="M119,166c0,0,0-0.1,0-0.4c0-0.4,0.1-0.7,0.2-1.1c0.1-0.3,0.3-0.5,0.5-0.6c0.2-0.1,0.4-0.1,0.5,0.1
		c0.1,0.1,0.2,0.3,0.2,0.5c0,0.8-0.5,1.4-1.3,1.6c-0.7,0.1-1.5-0.2-1.9-0.8c-0.1-0.2-0.1-0.4-0.1-0.5c0.1-0.2,0.3-0.3,0.5-0.3
		c0.3,0,0.5,0.2,0.8,0.3c0.3,0.2,0.6,0.5,0.8,0.8c0.1,0.1,0.2,0.2,0.2,0.4c-0.3-0.4-0.7-0.7-1.1-1c-0.2-0.2-0.4-0.3-0.7-0.3
		c-0.1,0-0.2,0-0.2,0.1c0,0.1,0,0.2,0.1,0.3c0.4,0.5,1,0.8,1.6,0.7c0.6-0.1,1.1-0.7,1.1-1.3c0-0.1,0-0.2-0.1-0.3
		c-0.1-0.1-0.2-0.1-0.3,0c-0.2,0.1-0.4,0.3-0.4,0.5C119.2,165,119.1,165.5,119,166z"/>
	<path class="st4" d="M87.4,82.1c-0.8,3.7-1.1,7.6-0.8,11.4c0.2,2.4,8.4,69.7,8.4,69.7H106l-3.1-63.2l0.9,0.2c0,0,6,27,6.5,31.4
		c0.5,3.9,5.9,34.8,5.9,34.8l10.5-0.1l-3.9-39.8L119,90.2l-1.4-10.5L87.4,82.1z"/>
	<path class="st4" d="M104.6,93.5c-0.1,0.1-0.3,0.2-0.5,0.3c-0.4,0.2-0.9,0.4-1.4,0.5c-0.3,0.1-0.7,0.1-1,0
		c-0.4-0.1-0.8-0.2-1.1-0.5c-0.3-0.3-0.5-0.7-0.6-1.1c-0.1-0.4-0.2-0.9-0.3-1.3c-0.4-1.8-0.6-3.5-0.7-4.7c-0.1-0.6-0.1-1.1-0.2-1.4
		c0-0.2,0-0.4,0-0.5c0.1,0.2,0.1,0.3,0.1,0.5c0,0.4,0.1,0.9,0.2,1.4c0.2,1.2,0.5,2.9,0.8,4.7c0.1,0.9,0.4,1.7,0.9,2.4
		c0.5,0.4,1.2,0.6,1.9,0.5c0.5-0.1,0.9-0.2,1.4-0.4C104.3,93.6,104.5,93.6,104.6,93.5z"/>
	<path class="st4" d="M101.3,85c0,0,0.1-0.1,0.2-0.1c0.2,0,0.4,0.1,0.6,0.2c0.3,0.2,0.5,0.5,0.5,0.9c0,0.5-0.3,0.9-0.7,1
		c-0.4,0.2-0.9,0.1-1.2-0.3c-0.2-0.3-0.3-0.6-0.2-0.9c0-0.2,0.2-0.4,0.3-0.6c0.1-0.1,0.2-0.1,0.2-0.1c-0.2,0.2-0.3,0.4-0.4,0.7
		c0,0.3,0.1,0.5,0.2,0.7c0.2,0.2,0.6,0.3,0.9,0.2c0.3-0.1,0.5-0.4,0.6-0.7c0-0.3-0.1-0.5-0.3-0.7C101.8,85,101.6,84.9,101.3,85z"/>
	<path class="st4" d="M118.9,89.5c-0.1,0-0.3,0.1-0.4,0.1c-0.3,0-0.7,0-1,0c-1.2-0.1-2.3-0.3-3.4-0.8c-1.1-0.4-2-1.1-2.9-1.8
		c-0.3-0.2-0.5-0.5-0.7-0.8c-0.2-0.2-0.2-0.3-0.2-0.3c0,0,0.4,0.4,1.1,0.9c0.9,0.7,1.8,1.3,2.9,1.8c1,0.4,2.1,0.7,3.3,0.9
		C118.3,89.5,118.9,89.5,118.9,89.5z"/>
	<path class="st4" d="M91.9,85.2c-0.1,0.4-0.3,0.8-0.5,1.1c-0.5,0.9-1,1.7-1.7,2.4c-0.6,0.7-1.4,1.3-2.2,1.8c-0.3,0.2-0.6,0.4-1,0.6
		c0.3-0.2,0.6-0.5,0.9-0.7c0.7-0.6,1.4-1.2,2.1-1.9c0.6-0.7,1.2-1.5,1.7-2.3C91.5,85.8,91.7,85.5,91.9,85.2z"/>
	<path class="st8" d="M88,16.3c0.9,0.3,2.9-0.9,3.7-1.5c0.5-0.4,1-0.7,1.6-0.8c0.7,0,1.3,0,2,0.1c0.5,0,0.9-0.2,1.1-0.5v-0.7
		l-3.9-0.8l-2.7,1.3L88,16.3z"/>
	<path class="st7" d="M86.2,16.5c0.6,0,1.2,0,1.9,0c1.1-0.2,2.1-0.7,2.7-1.6c0.4-0.3,2.7-1.7,2.7-1.7l3.4,0.5c0.7,0.1,1.3,0.1,2,0.1
		c0.4,0,0.7-0.3,0.7-0.7c0-0.1,0-0.1,0-0.2c0,0-6.2-1.8-6.4-2.1c-0.5-0.8-1.6-0.5-2.1-0.4c-0.5,0.1-8.1,3.1-8.1,3.1l2.6,3.3
		L86.2,16.5z"/>
	<path class="st8" d="M86.2,16.5L86,16.6l-0.5,0.3h0C85,16.1,84.1,15,83,13.5v0.1l5.7-2.2l1.7-0.6c0.3-0.1,0.6-0.2,0.9-0.3
		c0.3-0.1,0.6-0.1,0.9-0.1c0.3,0,0.6,0.1,0.8,0.4l0.1,0.1c0,0,0.1,0.1,0.1,0.1c0.1,0,0.2,0.1,0.3,0.1l0.5,0.2l1.9,0.6
		c1.3,0.4,2.5,0.8,3.7,1.1l-0.1-0.1c0.1,0.2,0,0.5-0.2,0.7c-0.3,0.1-0.5,0.1-0.8,0.1c-0.6,0-1.2-0.1-1.7-0.1l-3.2-0.4l0,0l0,0
		l-1.5,1l-0.7,0.4c-0.2,0.1-0.5,0.3-0.7,0.5c-0.3,0.3-0.6,0.7-1,0.9c-0.3,0.2-0.7,0.4-1.1,0.4c-0.7,0.1-1.3,0.1-1.7,0.1L86.2,16.5
		c0.3,0,0.4,0,0.6,0c0.6,0,1.1,0,1.7,0c0.4-0.1,0.8-0.2,1.1-0.4c0.4-0.3,0.8-0.6,1.1-0.9c0.2-0.2,0.4-0.3,0.6-0.4l0.7-0.4l1.5-0.9
		h-0.1l3.2,0.5c0.6,0.1,1.2,0.1,1.8,0.2c0.3,0,0.7,0,1-0.1c0.2-0.1,0.3-0.2,0.3-0.4c0-0.2,0-0.4,0-0.5v-0.1h-0.1
		c-1.2-0.3-2.4-0.7-3.7-1.1c-0.7-0.2-1.3-0.4-2-0.6l-0.5-0.2l-0.2-0.1l0,0c0,0,0,0,0-0.1l-0.1-0.1c-0.3-0.3-0.6-0.5-1-0.5
		c-0.7,0-1.3,0.1-1.9,0.4c-0.6,0.2-1.2,0.4-1.7,0.7l-5.7,2.3h-0.2l0.1,0.1l2.6,3.3l0,0l0,0l0.5-0.3C86.1,16.5,86.2,16.5,86.2,16.5z"
		/>
	<path class="st8" d="M88.3,15.7c0.1,0,0.1,0,0.2,0c0.2,0,0.4-0.1,0.6-0.2c0.7-0.4,1.3-0.9,1.7-1.6h-0.1l1.2-0.2
		c0.5-0.1,0.8-0.4,1.1-0.8l-0.1,0.1l1.4-0.1l0,0c0.7,0.2,1.5,0.3,2.2,0.4l0.5,0.1c0.2,0,0.4,0,0.5,0c0.4-0.1,0.6-0.4,0.8-0.7v-0.1
		l-0.1,0c-1.6-0.5-3.3-1-4.9-1.4l0.1,0.1c0-0.3-0.3-0.6-0.6-0.7c-0.2-0.1-0.5-0.1-0.7,0c-0.1,0-0.3,0.1-0.4,0.2
		c-0.1,0-0.1,0.1-0.1,0.1s0.2-0.1,0.6-0.1c0.2,0,0.4,0,0.7,0c0.3,0.1,0.5,0.3,0.5,0.6v0.1h0.1c1.2,0.3,2.9,0.8,4.9,1.5l-0.1-0.2
		c-0.1,0.3-0.3,0.5-0.6,0.5c-0.3,0-0.6,0-0.9-0.1c-0.8-0.1-1.5-0.3-2.2-0.4l0,0l-1.4,0.2h-0.1l0,0c-0.2,0.3-0.6,0.6-0.9,0.7
		l-1.2,0.3l0,0l0,0c-0.4,0.7-0.9,1.2-1.5,1.6C88.9,15.5,88.6,15.6,88.3,15.7z"/>
	<path class="st6" d="M91.2,33.5l-13.7-6.9l0.6-1l8-7.8l-4.2-5.7l-10.7,9.7c-4.8,5.6-2.9,8,0.2,10.9l8.8,7l8.5,6.2L91.2,33.5z"/>
	<path class="st4" d="M85.7,35.7c0,0.5,0.1,1,0.2,1.5c0.1,0.9,0.3,2.2,0.5,3.6c0.1,1.4,0.3,2.7,0.3,3.7c0,0.5,0,1,0.1,1.5
		c0.1-0.5,0.1-1,0.1-1.5c0-1.2-0.1-2.5-0.2-3.7c-0.1-1.2-0.3-2.4-0.6-3.6C86,36.7,85.9,36.2,85.7,35.7z"/>
	<path class="st4" d="M72.8,27.7c0.8-0.1,1.6-0.2,2.3-0.5c0.8-0.2,1.6-0.4,2.3-0.7c-0.8,0.1-1.6,0.2-2.3,0.5
		C74.3,27.2,73.6,27.4,72.8,27.7z"/>
	<path class="st1" d="M110.9,31.8l-5.6,4.4l-3.6,4.5l-1.3-4.7l-0.9-3.7l-1.5,1.5l-3.8,8.2L89.7,82c0,0,7.6,2.2,11.5,2.5
		c3.4,0,6.9-0.2,10.3-0.8v-21l2.2-20.8l-2.7-8L110.9,31.8z"/>
	<path class="st4" d="M99.6,84.2c0,0,0-0.1,0-0.1v-0.3c0-0.3,0-0.7,0-1.3c0-1.1,0.1-2.7,0.2-4.7c0.1-3.9,0.4-9.3,0.7-15.3
		s0.7-11.4,0.9-15.3c0.1-2,0.2-3.5,0.3-4.6c0-0.5,0.1-1,0.1-1.3V41c0-0.1,0-0.1,0-0.1c0,0,0,0.1,0,0.1v0.3c0,0.3-0.1,0.7-0.1,1.3
		c-0.1,1.1-0.2,2.7-0.4,4.6c-0.3,3.9-0.7,9.3-1,15.3c-0.3,6-0.4,11.4-0.5,15.3c0,2-0.1,3.6-0.1,4.7c0,0.5,0,1,0,1.3v0.3
		C99.6,84.2,99.6,84.2,99.6,84.2z"/>
	<path class="st6" d="M111.8,33.9l1.3,1.8l10.6,5.6l-5.9,18.1l-1.6,10.2l6,24c0,0-7.3,2.5-7.9,1.7c-0.7-1.3-1.3-2.6-1.8-3.9
		c-1.6-3.8-2.6-7.8-3-11.8c-0.5-4.3-0.7-8.6-0.5-12.8c0.6-6.6,1.4-17.5,1.5-20.4s0.6-13.7,0.6-13.7L111.8,33.9z"/>
	<path class="st6" d="M99.4,32.5L96.1,34l-5.8-0.8l-3.6,9.9L86.9,67l-5.2,25.5c0,0,3.8,1.4,5.3,0.8c1.5-0.6,3.6-4,3.7-6.1
		s3-22.2,3-22.2l2.9-27L99.4,32.5z"/>
	<path class="st4" d="M95,34.8L94.9,35l-0.4,0.5L93,37.3l0,0l0,0l1.2,0.9v-0.1l-1.5,0.5h0v0c0,2.6,0.1,5.9,0.1,9.4
		c0.1,4.3,0.1,8.2,0.2,11.1c0,1.4,0,2.5,0.1,3.4c0,0.4,0,0.7,0,0.9v0.2c0,0,0,0.1,0,0.1v-1.1c0-0.8,0-2,0-3.4
		c0-2.8-0.1-6.8-0.1-11.1c-0.1-3.5-0.1-6.8-0.1-9.4v0.1l1.4-0.5h0.1l-0.1-0.1l-1.2-0.9v0.1l1.5-1.9l0.4-0.5C95,34.9,95,34.8,95,34.8
		z"/>
	<path class="st4" d="M109.2,63.1C109.2,63.1,109.2,63.1,109.2,63.1l0.1-0.3c0.1-0.2,0.2-0.5,0.3-0.9c0.2-0.8,0.6-1.9,1.1-3.3
		c0.2-0.7,0.5-1.4,0.8-2.2c0.3-0.9,0.6-1.7,0.8-2.6c0.5-2,0.9-4.1,1.1-6.2c0.4-2.9,0.7-5.6,0.8-7.9l0,0l0,0l-1.3-1.2v0.1l1.2-0.9h0
		l0,0l-2.2-2.9l-0.6-0.8l-0.2-0.2c0,0-0.1-0.1-0.1-0.1l0,0.1l0.1,0.2l0.6,0.8l2.1,2.9v-0.1l-1.2,0.8h-0.1h0.1l1.2,1.2v-0.1
		c-0.2,2.3-0.4,5-0.8,7.9c-0.3,2.1-0.6,4.1-1.1,6.2c-0.2,0.9-0.5,1.8-0.8,2.6l-0.8,2.2c-0.5,1.4-0.8,2.5-1.1,3.3
		c-0.1,0.4-0.2,0.7-0.3,0.9l-0.1,0.2C109.2,63,109.2,63.1,109.2,63.1z"/>
	<path class="st4" d="M101.9,40.5l0.3-0.3l0.8-0.8l2.7-2.7h-0.1c0.4,0.4,0.6,0.9,0.7,1.5c0.1,0.3,0.1,0.6,0.1,0.9v0.2l0.1-0.1
		c1.3-1.1,2.4-2.2,3.3-2.9l1-0.9L111,35c-0.1,0.1-0.3,0.2-0.4,0.3c-0.2,0.2-0.6,0.5-1,0.8c-0.8,0.7-2,1.8-3.3,2.8l0.1,0.1
		c0-0.3,0-0.6-0.1-0.9c-0.1-0.6-0.4-1.1-0.7-1.5l-0.1-0.1v0.1l-2.6,2.8l-0.8,0.8C102.1,40.3,102,40.4,101.9,40.5z"/>
	<path class="st4" d="M98.3,34.6c0,0.1,0,0.2,0,0.2c0,0.2,0,0.4,0,0.7c0.1,0.8,0.2,1.6,0.4,2.4l0,0.2l0.1-0.2c0.3-0.5,0.6-1,1-1.4
		l0.4-0.3h-0.1c0.2,1.1,0.6,2.2,1,3.2c0.1,0.4,0.3,0.7,0.4,0.9c0,0.1,0.1,0.2,0.2,0.3c0-0.1-0.1-0.2-0.1-0.3
		c-0.1-0.2-0.2-0.6-0.3-0.9c-0.4-1-0.7-2.1-0.9-3.2V36l-0.1,0.1c-0.1,0.1-0.2,0.2-0.4,0.3c-0.4,0.4-0.7,0.9-1,1.5h0.1
		c-0.2-0.8-0.4-1.6-0.5-2.4C98.3,34.9,98.3,34.6,98.3,34.6z"/>
	<polygon class="st6" points="89.7,76.8 88.7,79.8 83.3,79.3 85,76.5 	"/>
	<path class="st4" d="M89.7,76.8c-0.1,0-0.2,0-0.3,0l-0.9-0.1c-0.8-0.1-2-0.2-3.4-0.3l0,0l0,0l-1.8,2.8l-0.1,0.1h0.1h0.3l5.1,0.5
		l0,0v0c0.3-0.9,0.5-1.7,0.7-2.2l0.2-0.6C89.6,77,89.6,76.9,89.7,76.8L89.5,77c-0.1,0.2-0.1,0.4-0.2,0.6c-0.2,0.5-0.4,1.2-0.7,2.1
		h0.1l-5.1-0.5h-0.3l0.1,0.1c0.6-1,1.2-2,1.7-2.8h-0.1c1.4,0.1,2.5,0.2,3.3,0.2l1,0.1L89.7,76.8z"/>
	<g class="st10">
		<path d="M92.9,38.7L92,40c0,0,0.2,18.5,1.2,23.2L92.9,38.7z"/>
	</g>
	<path class="st6" d="M129.7,73.4c0.3-1.2,0.5-2.5,0.6-3.8c0-1.1,0-2.2-0.2-3.3c-0.4-3.7-6.4-25.1-6.4-25.1l-6.1,16.7l3.2,11.1
		l-3.6,22.1l8.4,1.7C125.6,92.8,128.5,78.4,129.7,73.4z"/>
	<path class="st7" d="M115.4,94.8c-0.5,0.5-0.9,1.1-1.3,1.7c-0.3,1.1-0.6,2.3-0.8,3.5c0,0,0.5,0.4,1.4-1.1c0.4-0.7,0.7-1.5,1-2.3
		L115.4,94.8z"/>
	<path class="st7" d="M114.4,100l0.9-5.2l3.1-3.7l6,1.2l-1,6.5c-0.6,1-1.2,2-2,2.9c-0.5,0.4-1.4-0.1-1.4-0.1
		c-0.6,0.7-1.9,0.1-1.9,0.1c-0.8,0.6-1.6-0.3-1.6-0.3s-1,0.6-1.4,0.5c-0.2-0.1-0.3-0.2-0.4-0.4C114.5,101.2,114.3,100.6,114.4,100z"
		/>
	<path class="st8" d="M120.8,100.4c-0.1,0-0.3,0.2-0.4,0.5c-0.2,0.3-0.3,0.6-0.2,0.7s0.3-0.2,0.4-0.6
		C120.7,100.7,120.8,100.5,120.8,100.4z"/>
	<path class="st8" d="M119.1,100c-0.1,0-0.3,0.4-0.5,0.9c-0.2,0.3-0.3,0.6-0.4,0.9c0,0,0.4-0.3,0.6-0.8
		C119,100.7,119.1,100.4,119.1,100z"/>
	<path class="st8" d="M117.3,99.8c-0.1,0-0.2,0.4-0.4,0.8c-0.2,0.4-0.3,0.8-0.3,0.8c0.1,0,0.3-0.3,0.5-0.8
		C117.2,100.4,117.3,100.1,117.3,99.8z"/>
	<path class="st8" d="M115.1,96.5c-0.2,0.6-0.4,1.3-0.5,2c-0.2,0.7-0.2,1.3-0.2,2c0.2-0.6,0.4-1.3,0.5-2
		C115,97.8,115.1,97.1,115.1,96.5z"/>
	<path class="st8" d="M121.1,99.4c0,0,0,0.1,0.1,0.2c0.1,0.1,0.3,0.2,0.5,0.2c0.2,0,0.3-0.1,0.5-0.2c0.1-0.1,0.1-0.2,0.1-0.2
		c0,0-0.3,0.1-0.6,0.1C121.3,99.5,121.1,99.3,121.1,99.4z"/>
	<path class="st8" d="M119.1,99.3c0,0,0,0.1,0.1,0.2c0.2,0.1,0.3,0.2,0.5,0.2c0.2,0,0.4-0.1,0.5-0.2c0.1-0.1,0.2-0.2,0.1-0.2
		c0,0-0.3,0.1-0.7,0.1S119.1,99.3,119.1,99.3z"/>
	<path class="st8" d="M115.6,98.2c0,0-0.2,0.1-0.1,0.4c0.2,0.3,0.4,0.4,0.7,0.5c0.3,0.1,0.6,0.1,0.9,0c0.2-0.1,0.3-0.2,0.3-0.2
		c-0.4,0.1-0.7,0.1-1.1,0c-0.2-0.1-0.5-0.2-0.6-0.4C115.5,98.4,115.6,98.2,115.6,98.2z"/>
	<path class="st4" d="M116.2,69.5c0.1,0,1.1-5.5,2.4-12.3s2.2-12.4,2.1-12.4s-1.1,5.5-2.4,12.3C117.1,63.9,116.1,69.4,116.2,69.5z"
		/>
	<path class="st4" d="M120.8,69c0,0.1-0.1,0.2-0.1,0.3l-0.2,0.9c-0.1,0.8-0.3,1.9-0.6,3.3c-0.5,2.8-1.1,6.6-1.8,10.8
		c-0.4,2.5-0.8,4.8-1.1,6.8v0.1h0.1l6.1,1.2l1.7,0.3c0.2,0,0.4,0.1,0.6,0.1c-0.2-0.1-0.4-0.1-0.6-0.2l-1.7-0.4l-6.1-1.3l0.1,0.1
		c0.3-2,0.7-4.4,1.1-6.8c0.7-4.2,1.3-8,1.7-10.8c0.2-1.4,0.4-2.5,0.5-3.3c0-0.4,0.1-0.7,0.1-0.9C120.8,69.2,120.8,69.1,120.8,69z"/>
</g>
</svg>
