<?xml version="1.0" encoding="utf-8"?>
<!-- Generator: Adobe Illustrator 25.2.1, SVG Export Plug-In . SVG Version: 6.00 Build 0)  -->
<svg version="1.1" id="Layer_1" xmlns="http://www.w3.org/2000/svg" xmlns:xlink="http://www.w3.org/1999/xlink" x="0px" y="0px"
	 viewBox="0 0 244.6 235" style="enable-background:new 0 0 244.6 235;" xml:space="preserve">
<style type="text/css">
	.st0{fill:#EBEBEB;}
	.st1{fill:#263238;}
	.st2{fill:#E0E0E0;}
	.st3{fill:#F3725F;}
	.st4{fill:#FFFFFF;}
	.st5{fill:#455B64;}
	.st6{opacity:0.6;}
	.st7{fill:#FBBF9E;}
	.st8{fill:#F7996E;}
	.st9{opacity:0.3;enable-background:new    ;}
</style>
<g>
	<path class="st0" d="M222.9,72.6c0.4-2.5-3.2-4.6-6-4.9c-1.3,0-2.6-0.1-3.9-0.3c-2.6-0.9-3.7-4.3-6.3-5.4c-1.9-0.8-4.2-0.1-6,0.8
		c-1.8,0.9-3.7,2.1-5.8,2.3c-1.8,0.1-3.8-0.6-5.4,0.3c-1.2,0.7-1.8,2-2.9,2.8c-1.1,0.7-2.5,1-3.8,1c-1.3,0-2.7,0.2-3.9,0.6
		c-1.3,0.5-2.1,1.8-2,3.1L222.9,72.6z"/>
	<path class="st0" d="M111.8,49.1c0.3-2.5-3.3-4.7-6-4.9c-1.3,0.1-2.6-0.1-3.9-0.3c-2.6-0.9-3.6-4.3-6.2-5.4c-1.9-0.8-4.2-0.1-6,0.9
		s-3.8,2.1-5.8,2.2C82,41.7,80,41,78.4,41.9c-1.2,0.7-1.8,2-2.9,2.8c-1.1,0.7-2.5,1-3.8,1c-1.3,0-2.7,0.2-3.9,0.6
		c-1.3,0.5-2.1,1.8-2,3.1L111.8,49.1z"/>
	<path class="st0" d="M62.3,129.1c0.3-2.6-3.2-4.7-6-4.9c-1.3,0.1-2.6-0.1-3.8-0.3c-2.7-0.9-3.7-4.3-6.3-5.4c-1.9-0.8-4.2-0.1-6,0.9
		c-1.8,1-3.7,2.1-5.9,2.3c-1.8,0.1-3.8-0.6-5.4,0.3c-1.2,0.7-1.8,2-2.9,2.8c-1.1,0.7-2.5,1-3.8,1c-1.3,0-2.7,0.2-3.9,0.7
		c-1.3,0.5-2.1,1.8-2,3.1L62.3,129.1z"/>
	<path class="st0" d="M154.3,94.6c0.2-1.6-2-2.8-3.6-3c-0.8,0-1.6,0-2.4-0.2c-1.6-0.6-2.3-2.7-3.8-3.3c-1.2-0.4-2.6-0.2-3.7,0.5
		c-1.1,0.7-2.3,1.2-3.6,1.4c-1.1,0.1-2.3-0.3-3.3,0.2c-0.7,0.4-1.1,1.2-1.8,1.7c-0.7,0.4-1.5,0.6-2.3,0.6c-0.8,0-1.6,0.1-2.4,0.4
		c-0.8,0.3-1.3,1.1-1.2,1.9L154.3,94.6z"/>
	<path class="st1" d="M244.6,234.9c0,0.1-54.5,0.1-121.7,0.1S1.2,234.9,1.2,234.9s54.5-0.1,121.7-0.1S244.6,234.8,244.6,234.9z"/>
	<polygon class="st2" points="157.8,196.8 196,234.8 203.5,234.7 206.1,196.8 	"/>
	<polygon class="st2" points="188.9,200.4 150.4,234.8 177.3,234.7 199.9,215.6 	"/>
	<polygon class="st2" points="185.2,102.3 232.7,146.3 233.6,100.7 	"/>
	<polygon class="st2" points="217.2,104.2 88.8,234.7 114.1,234.7 228.8,119.1 	"/>
	<polygon class="st2" points="50.6,152.5 96.6,198.1 98.9,152.5 	"/>
	<polygon class="st2" points="82.5,155.5 0,234.7 26.6,234.7 93.6,170.7 	"/>
	<polygon class="st3" points="90.7,136.9 156.3,202 156.3,136.9 	"/>
	<path class="st3" d="M134,138.4c-1.5,1.2-95.9,96.4-95.9,96.4h40.7L153,160L134,138.4z"/>
	<circle class="st3" cx="44" cy="26.3" r="6.5"/>
	<path class="st3" d="M43.1,40.8C43,39.9,43,39,43,38.1c0-0.9,0-1.8,0.1-2.7c0.1,0.9,0.1,1.8,0.1,2.7C43.2,39,43.1,39.9,43.1,40.8z"
		/>
	<path class="st3" d="M39.3,33.9c-0.4,0.9-0.9,1.7-1.4,2.5c-0.8,1.4-1.5,2.5-1.5,2.4c0,0,0.6-1.1,1.4-2.5
		C38.6,35,39.3,33.9,39.3,33.9z"/>
	<path class="st3" d="M35.5,31.5c-0.5,0.5-1,0.9-1.5,1.3c-0.5,0.4-1,0.8-1.6,1.2c0.5-0.5,1-0.9,1.5-1.3
		C34.4,32.3,34.9,31.9,35.5,31.5z"/>
	<path class="st3" d="M49.5,38.1c0,0-0.1-0.2-0.2-0.7s-0.2-1-0.4-1.6s-0.3-1.2-0.5-1.6c-0.1-0.2-0.1-0.4-0.2-0.7
		c0.1,0.2,0.2,0.4,0.3,0.6c0.1,0.4,0.3,1,0.5,1.6s0.3,1.2,0.4,1.6C49.5,37.7,49.5,37.9,49.5,38.1z"/>
	<path class="st3" d="M56.1,33.5c-0.7-0.5-1.3-1-1.9-1.6c-0.6-0.5-1.3-1.1-1.8-1.7c0.7,0.5,1.3,1,1.9,1.5
		C55.3,32.7,56.2,33.4,56.1,33.5z"/>
	<path class="st3" d="M58.7,27c-0.3,0-0.5-0.1-0.8-0.1c-0.5-0.1-1.1-0.2-1.9-0.3s-1.4-0.2-1.9-0.2c-0.3,0-0.5,0-0.8-0.1
		c0.3,0,0.5,0,0.8,0c0.5,0,1.2,0,1.9,0.1c0.6,0.1,1.3,0.2,1.9,0.3C58.1,26.9,58.4,27,58.7,27z"/>
	<path class="st3" d="M58.7,20.7c0,0-1.4,0.4-3.1,0.8s-3.2,0.7-3.2,0.7s1.4-0.4,3.1-0.8S58.7,20.7,58.7,20.7z"/>
	<path class="st3" d="M51.3,13.4c0,0-0.6,1.1-1.5,2.4s-1.6,2.3-1.6,2.3c0,0,0.6-1.1,1.5-2.4S51.3,13.4,51.3,13.4z"/>
	<path class="st3" d="M44,11.8c0,0.3,0,0.6,0,0.9c0,0.5,0,1.3,0,2.1s0,1.6,0,2.2c0,0.3,0,0.6,0,0.9c0-0.3-0.1-0.6-0.1-0.9
		c0-0.6-0.1-1.3-0.1-2.2s0-1.6,0.1-2.2C44,12.4,44,12.1,44,11.8z"/>
	<path class="st3" d="M38.5,18.7c-0.6-0.8-1.1-1.6-1.5-2.4c-0.8-1.3-1.4-2.4-1.4-2.4s0.7,1,1.5,2.4C37.9,17.6,38.6,18.7,38.5,18.7z"
		/>
	<path class="st3" d="M35.2,21.5c-0.2,0-0.5,0-0.7-0.1c-0.4-0.1-1-0.2-1.6-0.4c-0.6-0.2-1.2-0.4-1.6-0.5c-0.2-0.1-0.4-0.2-0.6-0.3
		c0.2,0,0.5,0.1,0.7,0.2l1.6,0.5l1.6,0.4C34.8,21.3,35,21.4,35.2,21.5z"/>
	<path class="st3" d="M33.8,26.5c-0.7,0.1-1.4,0.2-2.1,0.3c-0.7,0.1-1.4,0.1-2.1,0.1c0.7-0.1,1.4-0.2,2.1-0.3
		C32.4,26.5,33.1,26.5,33.8,26.5z"/>
	<path class="st4" d="M227.1,169.1c0.3-1.9-2.4-3.5-4.5-3.7c-1,0-2,0-2.9-0.2c-2-0.7-2.8-3.3-4.7-4.1c-1.5-0.6-3.1-0.1-4.6,0.6
		c-1.3,0.9-2.8,1.4-4.4,1.7c-1.4,0.1-2.9-0.4-4.1,0.2c-0.9,0.5-1.4,1.5-2.2,2.1c-0.9,0.5-1.9,0.8-2.9,0.8c-1,0-2,0.1-2.9,0.5
		c-1,0.4-1.6,1.3-1.5,2.4L227.1,169.1z"/>
	<path class="st1" d="M227.1,169.1c0,0,0,0-0.2,0h-0.5h-2l-7.3,0.1l-24.6,0.3h-0.1v-0.1c-0.1-0.6,0.1-1.2,0.4-1.6
		c0.4-0.5,0.9-0.8,1.4-1c1.3-0.3,2.6-0.4,3.9-0.5c0.6-0.1,1.2-0.3,1.7-0.7c0.4-0.4,0.9-0.9,1.2-1.4c0.2-0.2,0.5-0.4,0.7-0.6
		c0.3-0.2,0.6-0.3,0.9-0.4c0.6-0.1,1.2-0.1,1.8-0.1c0.6,0.1,1.2,0.1,1.7,0.1c0.6-0.1,1.1-0.2,1.6-0.4c1-0.4,2-1,3-1.5
		c1-0.5,2-0.7,3.1-0.7c0.5,0,1,0.2,1.5,0.4c0.4,0.2,0.8,0.6,1.1,0.9c0.7,0.7,1.2,1.4,1.8,2c0.5,0.6,1.2,1.1,2,1.2
		c0.8,0.1,1.5,0.1,2.2,0.1c1.2,0.1,2.3,0.5,3.3,1.2c0.6,0.4,1.1,1,1.3,1.8C227.1,168.6,227.1,168.8,227.1,169.1
		c0-0.3-0.1-0.5-0.1-0.8c-0.2-0.7-0.7-1.3-1.3-1.7c-0.9-0.7-2-1.1-3.2-1.1c-0.7,0-1.5,0-2.2-0.1c-0.8-0.1-1.6-0.6-2.2-1.2
		c-0.6-0.6-1.1-1.4-1.8-2c-0.3-0.3-0.7-0.6-1.1-0.9c-0.4-0.2-0.9-0.4-1.4-0.4c-1,0-2.1,0.2-3,0.7c-1,0.4-1.9,1-3,1.5
		c-0.5,0.2-1,0.3-1.6,0.4c-0.6,0.1-1.2,0.1-1.8,0c-0.6-0.1-1.2-0.1-1.8,0c-0.6,0.2-1.1,0.5-1.5,1c-0.4,0.5-0.8,1-1.3,1.4
		c-0.5,0.4-1.1,0.7-1.8,0.8c-1.3,0.1-2.6,0.2-3.8,0.5c-0.5,0.2-1,0.5-1.3,0.9c-0.3,0.4-0.5,0.9-0.4,1.4l-0.1-0.1l24.5-0.2h7.4
		L227.1,169.1L227.1,169.1z"/>
	<path class="st4" d="M118.5,211.4c0.3-2.6-3.3-4.6-6-4.9c-1.3,0.1-2.6-0.1-3.9-0.3c-2.7-0.9-3.7-4.3-6.3-5.4
		c-1.9-0.8-4.2-0.1-6,0.9s-3.7,2.1-5.8,2.3c-1.8,0.1-3.8-0.6-5.4,0.3c-1.2,0.7-1.8,2-2.9,2.8c-1.1,0.7-2.5,1-3.8,1
		c-1.3,0-2.7,0.2-3.9,0.6c-1.3,0.5-2.1,1.8-2,3.1L118.5,211.4z"/>
	<path class="st1" d="M118.5,211.4h-0.2h-0.7h-2.6l-9.7,0.1l-32.7,0.4h-0.1v-0.1c-0.1-0.8,0.1-1.5,0.6-2.1c0.5-0.6,1.1-1.1,1.9-1.3
		c1.7-0.6,3.5-0.3,5.1-0.6c0.8-0.1,1.6-0.4,2.2-0.9c0.6-0.6,1.2-1.2,1.7-1.8c0.3-0.3,0.6-0.6,1-0.8c0.4-0.2,0.7-0.4,1.2-0.5
		c0.8-0.1,1.6-0.1,2.4-0.1c0.8,0.1,1.5,0.1,2.3,0.1c0.7-0.1,1.5-0.3,2.2-0.6c1.4-0.6,2.6-1.3,3.9-1.9c1.3-0.6,2.7-0.9,4.1-0.9
		c0.7,0.1,1.3,0.2,1.9,0.6c0.6,0.3,1.1,0.7,1.5,1.2c0.9,0.9,1.6,1.9,2.4,2.7c0.7,0.8,1.7,1.3,2.7,1.5c1,0.2,2,0.1,2.9,0.1
		c0.8,0.1,1.7,0.3,2.5,0.6c0.7,0.3,1.3,0.6,1.9,1c0.5,0.3,0.9,0.7,1.2,1.2c0.2,0.3,0.4,0.7,0.5,1.1c0.1,0.3,0.1,0.5,0.1,0.8
		c0,0.2,0,0.2,0,0.2s0-0.1,0-0.3c0-0.3,0-0.5-0.1-0.8c-0.3-0.9-0.9-1.7-1.8-2.2c-0.6-0.4-1.2-0.7-1.9-1c-0.8-0.3-1.7-0.4-2.6-0.4
		c-0.9-0.1-1.9,0-2.9-0.1c-1.1-0.2-2.1-0.7-2.8-1.6c-0.8-0.8-1.5-1.8-2.4-2.7c-0.4-0.5-0.9-0.8-1.4-1.2c-0.6-0.3-1.2-0.5-1.8-0.5
		c-1.4,0-2.8,0.3-4,0.9c-1.3,0.6-2.5,1.4-4,2c-0.7,0.3-1.5,0.5-2.2,0.6c-0.8,0.1-1.6,0.1-2.4,0c-0.8-0.1-1.6-0.1-2.3,0
		c-0.4,0.1-0.7,0.2-1.1,0.4c-0.3,0.2-0.6,0.5-0.9,0.8c-0.5,0.7-1.1,1.3-1.7,1.8c-0.7,0.5-1.5,0.9-2.4,1c-1.7,0.3-3.4,0.1-5.1,0.6
		c-0.7,0.2-1.3,0.7-1.8,1.2c-0.4,0.5-0.6,1.2-0.5,1.9l-0.1-0.1l32.7-0.3l9.8-0.1L118.5,211.4L118.5,211.4z"/>
	<path class="st4" d="M71.7,90.8c0.3-2.1-2.7-3.9-5-4.1c-1.1,0.1-2.2,0-3.2-0.2c-2.2-0.8-3.1-3.6-5.3-4.6c-1.6-0.7-3.5-0.1-5.1,0.7
		c-1.6,0.8-3.1,1.8-4.9,1.8c-1.5,0.1-3.2-0.5-4.5,0.3c-1,0.6-1.5,1.7-2.4,2.4c-1,0.6-2.1,0.9-3.2,0.9c-1.1,0-2.2,0.2-3.3,0.5
		c-1.1,0.4-1.8,1.5-1.7,2.6L71.7,90.8z"/>
	<path class="st1" d="M71.7,90.8h-0.2H71h-2.2l-8.2,0.1l-27.4,0.4h-0.1v-0.1c-0.1-0.7,0.1-1.3,0.5-1.8c0.4-0.5,1-0.9,1.6-1.1
		c1.4-0.5,2.9-0.3,4.3-0.5c0.7-0.1,1.3-0.4,1.8-0.8c0.5-0.5,1-1,1.4-1.5c0.2-0.3,0.5-0.5,0.8-0.7c0.3-0.2,0.6-0.3,1-0.4
		c0.7-0.1,1.3-0.1,2-0.1c0.6,0.1,1.3,0.1,1.9,0c0.6-0.1,1.3-0.2,1.9-0.4c1.2-0.5,2.2-1.1,3.3-1.6c1-0.5,2.2-0.8,3.4-0.8
		c0.6,0,1.1,0.2,1.6,0.5c0.5,0.3,0.9,0.6,1.3,1c0.7,0.8,1.3,1.6,2,2.3c0.6,0.7,1.4,1.1,2.3,1.3c0.8,0.1,1.7,0.1,2.4,0.1
		c1.3,0.1,2.6,0.6,3.6,1.4c0.7,0.5,1.2,1.2,1.5,2c0,0.2,0,0.4,0,0.7C71.7,90.8,71.7,90.9,71.7,90.8l0-0.2c0-0.2,0-0.4-0.1-0.6
		c-0.3-0.8-0.8-1.5-1.5-1.9c-1.1-0.7-2.3-1.2-3.6-1.3c-0.8,0-1.6,0-2.4-0.1c-0.9-0.2-1.8-0.6-2.4-1.3c-0.7-0.7-1.3-1.5-2-2.2
		c-0.4-0.4-0.8-0.7-1.2-1c-0.5-0.3-1-0.4-1.5-0.5c-1.1,0-2.3,0.2-3.3,0.8c-1.1,0.5-2.1,1.2-3.3,1.6c-0.6,0.3-1.2,0.4-1.9,0.5
		c-0.7,0.1-1.3,0.1-2,0c-0.7-0.1-1.3-0.1-2,0c-0.6,0.2-1.2,0.5-1.6,1c-0.4,0.6-0.9,1.1-1.4,1.5c-0.6,0.4-1.3,0.7-2,0.8
		c-1.4,0.3-2.9,0.1-4.3,0.5c-0.6,0.2-1.1,0.5-1.5,1c-0.4,0.5-0.5,1.1-0.4,1.7l-0.1-0.1l27.3-0.2l8.2-0.1L71.7,90.8L71.7,90.8z"/>
	<path class="st4" d="M209.6,35c0.2-1.7-2.1-3.1-3.9-3.2c-0.9,0-1.7,0-2.5-0.2c-1.8-0.6-2.4-2.9-4.1-3.6c-1.4-0.4-2.8-0.2-4,0.6
		c-1.2,0.7-2.5,1.3-3.8,1.5c-1.2,0.1-2.5-0.4-3.6,0.2c-0.8,0.4-1.2,1.3-1.9,1.9c-0.7,0.5-1.6,0.7-2.5,0.7c-0.9,0-1.8,0.1-2.6,0.4
		c-0.8,0.3-1.3,1.2-1.2,2.1L209.6,35z"/>
	<path class="st1" d="M209.6,35H209h-1.7l-6.4,0.1l-21.5,0.4h-0.1v-0.1c-0.1-0.5,0.1-1,0.4-1.5c0.3-0.4,0.8-0.7,1.3-0.9
		c1.1-0.2,2.3-0.4,3.4-0.4c0.5-0.1,1-0.3,1.5-0.6c0.4-0.4,0.8-0.8,1.1-1.2c0.4-0.4,0.9-0.7,1.4-0.9c0.5-0.1,1.1-0.1,1.6,0
		c0.5,0,1,0,1.5,0c0.5-0.1,1-0.2,1.4-0.4c0.9-0.4,1.7-0.9,2.6-1.3c0.8-0.4,1.8-0.6,2.7-0.6c0.5,0,0.9,0.2,1.3,0.4
		c0.4,0.2,0.7,0.5,1,0.8c0.6,0.6,1,1.2,1.6,1.8c0.5,0.5,1.1,0.9,1.8,1c0.6,0.1,1.3,0.1,1.9,0.1c1,0.1,2,0.5,2.9,1.1
		c0.6,0.4,1,0.9,1.1,1.5C209.6,34.6,209.6,34.9,209.6,35c0-0.2,0-0.4,0-0.6c-0.2-0.6-0.6-1.2-1.2-1.5c-0.8-0.6-1.8-0.9-2.8-1
		c-0.6,0-1.2,0-1.9-0.1c-0.7-0.1-1.4-0.5-1.9-1c-0.5-0.5-1-1.2-1.6-1.8c-0.3-0.3-0.6-0.6-1-0.8c-0.4-0.2-0.8-0.3-1.2-0.4
		c-0.9,0-1.8,0.2-2.6,0.6c-0.9,0.4-1.7,0.9-2.6,1.3c-0.5,0.2-1,0.3-1.5,0.4c-0.5,0-1,0-1.6,0c-0.5-0.1-1-0.1-1.5,0
		c-0.5,0.1-1,0.4-1.3,0.8c-0.3,0.4-0.7,0.8-1.1,1.2c-0.5,0.4-1,0.6-1.6,0.7c-1.1,0.1-2.2,0.2-3.3,0.4c-0.5,0.2-0.9,0.4-1.1,0.8
		c-0.3,0.3-0.4,0.8-0.4,1.2l-0.1-0.1l21.5-0.2h6.4L209.6,35L209.6,35z"/>
	<path class="st5" d="M121.4,123.9l-0.4,8.3c0,0,8.3,3.2,8.4,4.7l-16.1-0.1v-13L121.4,123.9z"/>
	<path class="st2" d="M116,131.5c-0.3,0.1-0.5,0.4-0.5,0.8c0.1,0.3,0.4,0.5,0.7,0.5c0.3-0.1,0.6-0.4,0.5-0.8
		C116.7,131.6,116.3,131.4,116,131.5"/>
	<g class="st6">
		<path class="st4" d="M113.3,136.8v-1.3l15.5,0.6c0,0,0.7,0.3,0.6,0.8L113.3,136.8z"/>
	</g>
	<path class="st1" d="M121.3,132.1c0,0.1-0.4,0.1-0.8,0.4s-0.6,0.6-0.7,0.6s0-0.5,0.5-0.8S121.3,132.1,121.3,132.1z"/>
	<path class="st1" d="M123,132.8c0,0.1-0.3,0.2-0.6,0.5s-0.3,0.7-0.4,0.7c-0.1,0-0.1-0.4,0.2-0.9C122.5,132.8,123,132.8,123,132.8z"
		/>
	<path class="st1" d="M123.9,134.9c-0.1,0-0.2-0.4,0-0.8s0.6-0.6,0.6-0.5s-0.2,0.3-0.4,0.6C124,134.5,124,134.9,123.9,134.9z"/>
	<path class="st1" d="M121.2,130.2c0,0.1-0.4,0-0.8,0s-0.8,0.2-0.8,0.1c0-0.1,0.3-0.3,0.8-0.4S121.2,130.2,121.2,130.2z"/>
	<path class="st5" d="M146.5,123.9l-0.4,8.3c0,0,8.3,3.2,8.4,4.7l-16.1-0.1v-13L146.5,123.9z"/>
	<path class="st2" d="M141.1,131.5c-0.3,0.1-0.5,0.4-0.5,0.8c0.1,0.3,0.4,0.5,0.7,0.5c0.3-0.1,0.5-0.5,0.5-0.8
		C141.8,131.6,141.4,131.4,141.1,131.5"/>
	<g class="st6">
		<path class="st4" d="M138.4,136.8v-1.3l15.5,0.6c0,0,0.7,0.3,0.6,0.8L138.4,136.8z"/>
	</g>
	<path class="st1" d="M146.4,132.1c0,0.1-0.4,0.1-0.8,0.4s-0.6,0.6-0.7,0.6s0-0.5,0.5-0.8S146.4,132.1,146.4,132.1z"/>
	<path class="st1" d="M148.1,132.8c0,0.1-0.3,0.2-0.6,0.5c-0.3,0.3-0.4,0.7-0.4,0.7c-0.1,0-0.1-0.4,0.2-0.9
		C147.6,132.8,148.1,132.8,148.1,132.8z"/>
	<path class="st1" d="M149,134.9c-0.1,0-0.2-0.4,0-0.8c0.2-0.4,0.6-0.6,0.6-0.5s-0.2,0.3-0.4,0.6C149.1,134.5,149.1,134.9,149,134.9
		z"/>
	<path class="st1" d="M146.3,130.2c0,0.1-0.4,0-0.8,0c-0.4,0-0.8,0.2-0.8,0.1c0-0.1,0.3-0.3,0.8-0.4
		C146,129.9,146.3,130.2,146.3,130.2z"/>
	<path class="st1" d="M113.4,14.7c-0.6-1.5-1.1-3.1-1.4-4.8c-0.3-1.6-0.3-3.3,0.2-4.9c0.1-0.2,0.8-1.8,1-1.8s-0.2,1.5-0.1,1.7
		c0.9,1.5,1.3,3.2,1.1,4.9C114.1,11.5,113.8,13.1,113.4,14.7"/>
	<path class="st7" d="M113.9,23.5l-0.6-15c-0.3-4.1,1.6-7.9,5.7-8h0.4c3.8,0.1,7,3.1,7.2,6.9c0.2,3.6,0.4,7.6,0.4,9.6
		c-0.1,4-4.1,4.5-4.1,4.5s0.2,2.9,0.2,4.1c0,0-0.4,0.3-4.1,0.4C117,26.1,115,25.2,113.9,23.5z"/>
	<path class="st8" d="M122.9,21.4c-1.8,0-3.6-0.6-5.2-1.6c0,0,1.2,2.9,5.2,2.6L122.9,21.4z"/>
	<path class="st1" d="M125.3,11c0,0.3-0.3,0.6-0.6,0.6c-0.3,0-0.6-0.2-0.6-0.5c0,0,0,0,0,0c0-0.3,0.3-0.6,0.6-0.6
		C125,10.4,125.3,10.7,125.3,11C125.3,11,125.3,11,125.3,11z"/>
	<path class="st1" d="M125.7,9.6c-0.1,0.1-0.5-0.3-1.1-0.3s-1.1,0.3-1.1,0.2s0-0.2,0.2-0.3c0.3-0.2,0.6-0.3,0.9-0.3
		c0.3,0,0.6,0.1,0.9,0.3C125.7,9.4,125.7,9.5,125.7,9.6z"/>
	<path class="st1" d="M120.1,11.1c-0.1,0.1-0.5-0.2-1.1-0.3s-1.1,0.3-1.1,0.2s0-0.2,0.2-0.3c0.3-0.2,0.6-0.3,0.9-0.3
		c0.3,0,0.6,0.1,0.9,0.3C120.1,10.9,120.1,11,120.1,11.1z"/>
	<path class="st1" d="M121.9,14.4c0.3-0.1,0.7-0.1,1-0.2c0.2,0,0.3,0,0.3-0.2c0-0.2,0-0.3-0.1-0.5c-0.2-0.4-0.3-0.8-0.4-1.2
		c-0.4-1-0.8-2.1-1-3.1c0.5,1,0.9,2,1.2,3c0.2,0.4,0.3,0.8,0.4,1.2c0.1,0.2,0.1,0.4,0.1,0.6c0,0.1-0.1,0.2-0.3,0.2
		c-0.1,0-0.2,0-0.3,0C122.6,14.4,122.3,14.4,121.9,14.4z"/>
	<path class="st1" d="M120.1,9.4c-0.1,0.2-0.7,0-1.4,0s-1.3,0.2-1.4,0s0.1-0.2,0.3-0.4c0.3-0.2,0.7-0.3,1.1-0.3
		c0.4,0,0.7,0.1,1.1,0.2C120,9.2,120.1,9.4,120.1,9.4z"/>
	<path class="st1" d="M125.9,7.3c-0.1,0.2-0.6,0.1-1.2,0.2s-1,0.3-1.2,0.2s0-0.2,0.2-0.4c0.3-0.2,0.6-0.4,0.9-0.4
		c0.3-0.1,0.7,0,1,0.1C125.9,7.1,126,7.2,125.9,7.3z"/>
	<path class="st7" d="M113.6,11.4c-0.1,0-2.7-0.8-2.7,1.9c-0.1,1.1,0.7,2.1,1.8,2.2c0.3,0,0.6,0,0.9-0.2
		C113.7,15.3,113.6,11.4,113.6,11.4z"/>
	<path class="st8" d="M112.8,14.3c0,0,0,0-0.1,0.1c-0.1,0-0.2,0-0.3,0c-0.3-0.2-0.6-0.6-0.6-1c0-0.2,0-0.5,0.1-0.7
		c0.1-0.2,0.2-0.3,0.3-0.4c0.1,0,0.2,0,0.3,0.1c0,0.1,0,0.1,0,0.1s0.1,0,0-0.2c0-0.1-0.1-0.1-0.1-0.2c-0.1-0.1-0.2-0.1-0.3-0.1
		c-0.2,0-0.4,0.2-0.5,0.4c-0.1,0.2-0.2,0.5-0.2,0.8c0,0.5,0.4,0.9,0.8,1.1C112.5,14.5,112.6,14.5,112.8,14.3
		C112.8,14.4,112.8,14.3,112.8,14.3z"/>
	<path class="st1" d="M124.8,3c0.4-0.3-0.9-1.7-2-2.1c-1.8-0.8-3.8-1-5.7-0.6c-1.8,0.4-3.3,1.6-4.2,3.2c-0.8,1.7-1.2,3.6-1.1,5.5
		c0,0.6,0.1,1.1,0.4,1.6c0.4,0.6,1.1,1,1.1,1.8c0,0.3,0.1,0.6,0.3,0.8c0.5,0.5,1.1,0,1.4-0.5c0.5-1.1,0.7-2.4,0.6-3.6
		c0.1-0.9,0-1.7-0.2-2.5c-0.1-0.4-0.4-0.9-0.5-1.3c-0.2-0.5-0.1-1,0.2-1.4c0.1-0.1,0.1-0.2,0.2-0.2c0.8-0.7,1.8-0.9,2.8-0.6
		c1.6,0.5,4.2,1.3,4.9,0.7c0.5-0.3,0.9-0.8,1.2-1.3L124.8,3z"/>
	<path class="st1" d="M122.3,16c0,0-0.1,0.1-0.4,0.2c-0.3,0-0.7,0-1-0.2c-0.3-0.2-0.6-0.4-0.8-0.7c-0.2-0.2-0.2-0.4-0.1-0.4
		s0.4,0.5,1.1,0.8S122.3,15.9,122.3,16z"/>
	<path class="st7" d="M160.3,9.4c0,0-0.1-0.6-0.4-0.6c-0.4,0-0.8,0.2-1,0.6C158.6,9.9,160.3,9.4,160.3,9.4z"/>
	<path class="st7" d="M152.2,19.5l0.3-5l1-5.2c0,0,0.8-0.8,1.2-0.7s0.3,0.9,0.3,0.9s1.1-1.2,1.5-0.9s0.3,0.9,0.3,0.9s1-1.3,1.5-1
		s0,1,0,1s0.6,5.8,0.3,7.9c-0.2,1.2-1,2.3-2.1,2.8l-0.8,3.3l-4.1-2.2L152.2,19.5z"/>
	<polygon class="st3" points="154.8,13 132.4,12.7 132.4,10.9 154.8,10.3 	"/>
	<path class="st3" d="M178.3,14.7l-31.5-1.3c-0.4-1.1-0.4-2.4,0-3.5l31.3-1.4C179.5,10.3,179.6,12.8,178.3,14.7z"/>
	<path class="st2" d="M178,8.8c-0.7,0.8-1,1.8-0.9,2.8c0,1,0.3,2,1,2.8c0.7-0.8,1-1.9,0.9-3C179,10.5,178.7,9.5,178,8.8z"/>
	<path class="st1" d="M176.8,14.7c-0.3-0.2-0.5-0.5-0.6-0.8c-0.4-0.7-0.6-1.5-0.6-2.3c0-0.8,0.2-1.6,0.6-2.3
		c0.1-0.3,0.3-0.6,0.6-0.8c0,0-0.2,0.3-0.4,0.8c-0.3,0.7-0.5,1.5-0.5,2.2c0,0.8,0.2,1.5,0.5,2.2C176.6,14.4,176.8,14.7,176.8,14.7z"
		/>
	<path class="st1" d="M178.2,8.6c0,0-0.2,0.3-0.4,0.9c-0.3,0.7-0.5,1.5-0.5,2.2c0,0.8,0.2,1.5,0.6,2.2c0.1,0.3,0.3,0.5,0.6,0.8
		c0,0-0.1,0-0.2-0.1c-0.2-0.2-0.4-0.4-0.5-0.6c-0.4-0.7-0.6-1.5-0.7-2.3c0-0.8,0.2-1.6,0.6-2.3C177.7,9.1,177.9,8.8,178.2,8.6z"/>
	<path class="st4" d="M178.6,10.2c0-0.1-0.1-0.2-0.2-0.3c-0.1-0.1-0.2-0.1-0.3-0.1c-0.1,0-0.2,0.1-0.2,0.2c0,0.1,0,0.2,0,0.3
		c0.1,0.2,0.3,0.4,0.3,0.7c0,0.2,0,0.5,0,0.7c0,0.1,0,0.2,0.1,0.2c0,0.1,0.1,0.1,0.2,0.1c0.1,0,0.2-0.2,0.2-0.3
		C178.8,11.3,178.8,10.7,178.6,10.2z"/>
	<path class="st1" d="M146.8,13.5c-0.3-0.5-0.5-1.2-0.4-1.8c0-0.6,0.1-1.3,0.5-1.8c0.1,0-0.2,0.8-0.2,1.8
		C146.6,12.7,146.9,13.5,146.8,13.5z"/>
	<path class="st3" d="M132.4,13.2L132.4,13.2c-0.2,0-0.3-0.2-0.3-0.3v-1.9c0-0.2,0.2-0.3,0.3-0.3l0,0c0.2,0,0.3,0.2,0.3,0.3v1.9
		C132.7,13,132.6,13.2,132.4,13.2z"/>
	<path class="st1" d="M132.4,13.2c0,0,0.1,0,0.2-0.1c0-0.1,0.1-0.1,0.1-0.2v-0.4c0-0.3,0-0.6,0-0.9V11c0-0.1-0.1-0.2-0.2-0.3
		c0,0,0,0,0,0c-0.1,0-0.2,0.1-0.2,0.2c0,0,0,0,0,0v0.5v0.9v0.4c0,0.1,0,0.1,0.1,0.2c0.1,0.1,0.2,0.1,0.2,0.1c0,0-0.1,0-0.2,0
		c-0.1-0.1-0.2-0.2-0.2-0.3v-0.4c0-0.3,0-0.6,0-0.9V11c0-0.1,0-0.3,0.1-0.4c0.1-0.1,0.2-0.2,0.4-0.2c0.1,0,0.3,0.1,0.4,0.2
		c0.1,0.1,0.1,0.2,0.1,0.4v0.5c0,0.3,0,0.6,0,0.9v0.4c0,0.1-0.1,0.2-0.2,0.3C132.5,13.2,132.4,13.2,132.4,13.2z"/>
	<path class="st7" d="M136.3,16.9c0,0-0.5-5.9-0.3-6.4c0.1-0.5,1.8-2.3,2.3-2.4c0.6-0.1,0.6,0.6,0.6,0.6c0.5-0.3,1-0.5,1.6-0.6
		c0.4,0,0.8,0.3,0.9,0.7c0.4-0.2,0.8-0.3,1.2-0.2c0.3,0.1,0.7,0.7,0.7,0.7s0.8-0.4,1.2,0c0.3,0.4,0.5,0.8,0.5,1.3
		c-0.5,0-1,0.2-1.5,0.5c-0.1,1.3-0.3,2.5-0.5,3.8c-0.3,1.2-1.6,2.3-2,2.9l-0.3,4.3l-5.3-2.8L136.3,16.9z"/>
	<path class="st8" d="M137.5,10.9c-0.1-0.5,0.1-1.1,0.4-1.5c0.3-0.5,0.7-0.8,1.3-0.9c-0.4,0.3-0.7,0.7-1.1,1.1
		C137.9,10,137.7,10.5,137.5,10.9z"/>
	<path class="st8" d="M140.1,10.8c-0.1-0.5-0.1-1,0.2-1.3c0.2-0.3,0.5-0.5,0.8-0.7c0.3-0.1,0.4-0.1,0.4,0c0,0.1-0.6,0.2-1,0.8
		C140.3,10.1,140.2,10.4,140.1,10.8z"/>
	<path class="st8" d="M142,10.7c-0.1,0,0-0.6,0.5-1c0.5-0.4,1.1-0.5,1.1-0.4c0,0.1-0.4,0.2-0.9,0.6S142.1,10.7,142,10.7z"/>
	<path class="st7" d="M155.6,18.3c0.9-1,0.2-3.9,0.2-3.9c0.8-0.3,1.3-0.9,1.6-1.7c0.3-1.3-0.3-1.5-0.3-1.5c-0.2,0.1-2.1,1.4-3.1,1.9
		s-1.3,5.9-1.3,5.9"/>
	<path class="st8" d="M152.6,19.1c0-0.2,0-0.5,0-0.7c0-0.4,0.1-1.1,0.2-1.9c0.1-0.9,0.3-1.9,0.6-2.8c0.1-0.1,0.1-0.3,0.2-0.4
		c0.1-0.1,0.2-0.2,0.4-0.3l0.7-0.4l1.5-0.9l0.8-0.5l0,0h0.1c0.2,0.1,0.4,0.3,0.4,0.5c0.1,0.2,0.1,0.4,0.1,0.6c0,0.3-0.1,0.7-0.3,1
		c-0.3,0.6-0.8,1-1.5,1.3l0.1-0.1c0.2,0.9,0.3,1.9,0.1,2.9c0,0.3-0.1,0.5-0.3,0.8c-0.1,0.2-0.2,0.2-0.2,0.2s0-0.1,0.1-0.2
		c0.1-0.2,0.2-0.5,0.2-0.8c0.1-1,0-1.9-0.2-2.8v-0.1h0.1c0.6-0.2,1-0.6,1.3-1.2c0.1-0.3,0.2-0.7,0.2-1c0.1-0.3-0.1-0.6-0.3-0.8h0.1
		c-0.2,0.1-0.5,0.3-0.8,0.5c-0.5,0.3-1,0.6-1.5,0.9c-0.2,0.1-0.5,0.3-0.7,0.4c-0.1,0-0.2,0.1-0.3,0.2c-0.1,0.1-0.1,0.2-0.2,0.3
		c-0.3,0.9-0.6,1.8-0.7,2.7c-0.1,0.8-0.2,1.4-0.2,1.9C152.7,18.6,152.7,18.8,152.6,19.1z"/>
	<path class="st1" d="M113.9,65.2c0,0,0.6,25.4,0,28.5s-1.6,15.9-1.6,25.5c0,9.5,0.4,11.7,0.4,11.7h9.2c0,0,0.6-18.1,3.5-28.6
		c2.7-9.7,5.7-24.5,5.7-30.9v-8.7h-16.3L113.9,65.2z"/>
	<path class="st1" d="M136.3,62.7c0,0,9.7,26.9,10.3,34.8s0.7,33.4,0.7,33.4h-9.6l-1.3-30.9L129,80V62.7H136.3z"/>
	<path class="st5" d="M131.1,77.2c0,0.2-0.1,0.5-0.1,0.7c-0.1,0.5-0.2,1.2-0.4,2c-0.3,1.7-0.8,4-1.2,6.6c-0.5,2.6-1,4.9-1.3,6.5
		c-0.2,0.8-0.4,1.5-0.5,2c0,0.2-0.1,0.5-0.2,0.7c0-0.2,0.1-0.5,0.1-0.7c0.1-0.5,0.2-1.2,0.4-2c0.3-1.7,0.8-4,1.3-6.5s1-4.9,1.3-6.5
		c0.2-0.8,0.3-1.5,0.5-2C130.9,77.7,131,77.4,131.1,77.2z"/>
	<path class="st5" d="M139.9,74.6h2.1c0,0,0.5-7.1-0.7-11.9c-1.2-4.8-7.2-25.6-7.2-25.6L127.4,26l-3.6-1.6L135.6,64L139.9,74.6z"/>
	<path class="st9" d="M132.5,40.2c0,0,6.2,18.4,7.2,23.2c0.7,3.7,1.3,7.4,1.6,11.2H140l-4.9-12.8c0,0-5.1-20.4-4.8-20.3
		C131.1,41.1,131.8,40.7,132.5,40.2z"/>
	<path class="st2" d="M112.5,24l0.6-3.5l9.9,4.4v-2.2l4.3,7.3l9.6,27.3c0.3,0.8,0.7,3.7,0.1,4.4l-0.8,1l-10.4,1.3L116,28.4L112.5,24
		z"/>
	<path class="st9" d="M114.1,77.2c0,0,13.2,1.5,15.9,0.4c1.6-0.6,2.7-2.1,2.8-3.8c0,0,1.3-9.4,1.2-11.5c-0.1-1.9-0.4-3.8-0.9-5.7
		l-19.2,18.9L114.1,77.2z"/>
	<path class="st3" d="M124.1,28.1c0,0,4.5,15.4,4.5,15.5s5,15.8,5,15.8l1-4.7l-7-23.5l-2.8-3.5L124.1,28.1z"/>
	<path class="st5" d="M109.6,25.4c-4.6,2.8-4.9,7.2-2.8,12.2c0.3,0.8,1,2.3,1.5,3.2c2,4.2,6.1,11.2,6.1,12.8
		c0,3.8-3.4,21.5-3.4,21.5s18.5,2.2,20.2,0.5c1.7-1.7,3-12.6,2.4-17.5c-0.6-5.4-3.4-14.5-4.5-17.8c-1.3-3.7-3.2-7.2-5.6-10.4
		c-2-2.5-4.4-4.6-7-6.3l-3.9-2.6l-0.8,2.7C111,24.4,110.3,24.9,109.6,25.4z"/>
	<path class="st5" d="M127.6,26.7c0.4,0,17.3,5.5,16.3,5.1l0.4-0.5l6.1-9.2l5.6,3.3c0,0-5.5,10.5-6.4,12.2c-0.9,1.6-2.6,2.7-4.5,2.7
		c-1.2,0-11.8-1.8-11.8-1.8L127.6,26.7z"/>
	<polygon class="st2" points="134.4,20.3 135.7,18 141.6,21.4 140.6,23.9 	"/>
	<path class="st9" d="M108.5,37.8c0,0,11.4,6.3,15,7.2s7.6,2,7.6,2l-1.6-5.2l-9.9-6L108.5,37.8z"/>
	<path class="st5" d="M108.5,37.8c-0.1-0.1,17,6,20.6,4.9s4.6-4.6,5.9-6.7c2.3-3.9,6.4-11.7,6.4-11.7l-7.3-4.2l-7.2,12.1
		c0,0-12.8-5.3-14-5.6c-2.8-0.8-5.7,0.7-6.6,3.4C104.2,34.9,108.5,37.8,108.5,37.8z"/>
	<path class="st1" d="M108.5,37.8l-0.2-0.1l-0.3-0.3c-0.4-0.4-0.8-0.8-1.2-1.3c-0.6-0.8-0.9-1.6-1.1-2.6c-0.1-0.3-0.1-0.6-0.1-0.9
		c0-0.3,0-0.6,0-0.9c0.1-0.3,0.1-0.6,0.2-1c0.1-0.3,0.2-0.7,0.4-1c0.3-0.7,0.7-1.3,1.2-1.9c0.6-0.6,1.3-1.1,2.1-1.3
		c0.9-0.3,1.8-0.3,2.6-0.2c0.5,0.1,0.9,0.2,1.3,0.4l1.3,0.5c3.6,1.4,7.6,3.1,12,4.8h-0.2l7.2-12.1l0.1-0.1L134,20l2.6,1.5l4.6,2.8
		l0.1,0.1l-0.1,0.1c-1.4,2.7-2.8,5.4-4.2,7.9c-0.7,1.3-1.4,2.5-2.1,3.7c-0.7,1.2-1.2,2.4-2,3.5c-0.7,1.1-1.6,2-2.7,2.7
		c-0.5,0.3-1.1,0.5-1.7,0.7c-0.6,0.1-1.2,0.1-1.8,0c-2.1-0.3-4.3-0.7-6.3-1.3c-3.8-1-6.8-2-8.9-2.7S108.4,37.9,108.5,37.8l0.1,0
		l0.6,0.2l2.4,0.8c2.1,0.7,5.1,1.7,8.9,2.7c2.1,0.6,4.2,1,6.3,1.2c0.6,0.1,1.2,0.1,1.7,0c0.6-0.1,1.1-0.3,1.7-0.7
		c1.1-0.7,2-1.6,2.6-2.7c0.7-1.1,1.2-2.3,2-3.5s1.4-2.4,2.1-3.7c1.4-2.5,2.8-5.2,4.2-7.9l0.1,0.2l-4.7-2.7l-2.6-1.5h0.2l-7.2,12.1
		l-0.1,0.1h-0.1c-4.3-1.8-8.3-3.4-11.9-4.9l-1.3-0.5c-0.4-0.2-0.9-0.3-1.3-0.4c-0.9-0.1-1.7-0.1-2.6,0.2c-0.8,0.2-1.5,0.7-2,1.3
		c-0.5,0.5-1,1.1-1.3,1.7c-0.1,0.3-0.3,0.7-0.4,1c-0.1,0.3-0.2,0.6-0.2,0.9c0,0.3-0.1,0.6,0,0.9c0,0.3,0,0.6,0.1,0.8
		c0.2,0.9,0.5,1.8,1.1,2.5c0.3,0.5,0.7,0.9,1.1,1.3l0.3,0.3L108.5,37.8z"/>
	<polygon class="st5" points="116.7,63.8 118.3,60.5 129.5,60.7 128.2,64.1 	"/>
	<path class="st1" d="M116.8,63.8c0.1,0,0.2,0,0.2,0h0.7h2.4c2,0,4.9,0.1,8.2,0.2l-0.1,0.1l1.2-3.2l0.1-0.2l0.1,0.2
		c-4.5-0.1-8.5-0.2-11.1-0.2h0.1l-1.2,2.3l-0.3,0.6C116.8,63.7,116.8,63.8,116.8,63.8c0,0,0.1-0.1,0.1-0.2l0.3-0.6
		c0.3-0.6,0.7-1.4,1.1-2.4l0,0h0c2.7,0,6.7,0.1,11.1,0.2h0.2l-0.1,0.2l-0.1,0.2l-1.2,3.2v0.1h-0.1c-3.3-0.1-6.2-0.2-8.3-0.3
		l-2.4-0.1H117L116.8,63.8z"/>
	<path class="st1" d="M124.2,30.9c0,0.1-2.9-1.5-6.3-3.5s-6.2-3.6-6.2-3.7s2.9,1.5,6.3,3.5S124.2,30.8,124.2,30.9z"/>
	<path class="st1" d="M128,55.2c0,0.1-2.7,0-6-0.2s-6-0.4-6-0.5s2.7,0,6,0.2S128,55.2,128,55.2z"/>
	<polygon class="st2" points="150.8,22.4 151.9,20.5 156.3,23.1 155.5,25.1 	"/>
	<path class="st1" d="M145,35.7c-0.5-0.5-0.9-1.1-1.1-1.7c-0.3-0.6-0.4-1.4-0.2-2c0.1,0,0.1,0.9,0.5,2S145.1,35.6,145,35.7z"/>
	<path class="st1" d="M134.2,37.5c0.4,1,0.7,2.1,1,3.2c0.3,1.1,0.6,2.1,0.8,3.2c-0.4-1-0.7-2.1-1-3.2
		C134.6,39.7,134.3,38.6,134.2,37.5z"/>
	<path class="st1" d="M127.3,36.2c-0.5-0.5-0.8-1.2-0.9-1.8c-0.2-0.7-0.1-1.4,0.2-2c-0.1,0.7-0.1,1.3,0,2
		C126.8,34.9,127,35.6,127.3,36.2z"/>
	<polygon class="st9" points="117.6,63.8 117.4,64.7 129,65.1 129.5,60.7 128.2,64.1 	"/>
	<polygon class="st3" points="122.7,27 122.8,27.2 124.1,28.1 124.8,27.7 124.3,26.3 123,25.3 	"/>
	<path class="st1" d="M124.4,25.3c0.1,0.4,0.2,0.8,0.3,1.2v0.2l-0.2-0.1c-0.4-0.3-1-0.7-1.7-1.2l0.2-0.1c-0.1,0.4-0.1,0.8-0.2,1.2
		l-0.1,0.8v0.2l-0.2-0.1c-1-0.5-1.8-0.9-2.4-1.2c-0.4-0.1-0.7-0.3-1-0.6c0.3,0.1,0.7,0.2,1,0.4c0.6,0.3,1.5,0.7,2.5,1.1l-0.2,0.1
		l0.1-0.8c0.1-0.4,0.1-0.9,0.2-1.2v-0.2l0.2,0.1c0.6,0.5,1.2,0.9,1.6,1.3l-0.2,0.1C124.4,26.1,124.4,25.7,124.4,25.3z"/>
</g>
</svg>
