<?xml version="1.0" encoding="utf-8"?>
<!-- Generator: Adobe Illustrator 25.2.1, SVG Export Plug-In . SVG Version: 6.00 Build 0)  -->
<svg version="1.1" id="Layer_1" xmlns="http://www.w3.org/2000/svg" xmlns:xlink="http://www.w3.org/1999/xlink" x="0px" y="0px"
	 viewBox="0 0 606.2 390" style="enable-background:new 0 0 606.2 390;" xml:space="preserve">
<style type="text/css">
	.st0{fill:url(#SVGID_1_);}
	.st1{fill:#C0CFEB;}
	.st2{fill:url(#SVGID_2_);}
	.st3{fill:url(#SVGID_3_);}
	.st4{fill:url(#SVGID_4_);}
	.st5{fill:url(#SVGID_5_);}
	.st6{fill:#98B1DC;}
	.st7{fill:#8193CA;}
	.st8{fill:url(#SVGID_6_);}
	.st9{fill:url(#SVGID_7_);}
	.st10{fill:url(#SVGID_8_);}
	.st11{fill:url(#SVGID_9_);}
	.st12{fill:url(#SVGID_10_);}
	.st13{fill:url(#SVGID_11_);}
	.st14{fill:url(#SVGID_12_);}
	.st15{fill:url(#SVGID_13_);}
	.st16{fill:url(#SVGID_14_);}
	.st17{fill:url(#SVGID_15_);}
	.st18{fill:url(#SVGID_16_);}
	.st19{fill:url(#SVGID_17_);}
	.st20{fill:url(#SVGID_18_);}
	.st21{fill:url(#SVGID_19_);}
	.st22{fill:url(#SVGID_20_);}
	.st23{fill:url(#SVGID_21_);}
	.st24{fill:url(#SVGID_22_);}
	.st25{fill:url(#SVGID_23_);}
	.st26{fill:url(#SVGID_24_);}
	.st27{fill:url(#SVGID_25_);}
	.st28{fill:url(#SVGID_26_);}
	.st29{fill:#0569AD;}
	.st30{fill:url(#SVGID_27_);}
	.st31{fill:url(#SVGID_28_);}
	.st32{fill:url(#SVGID_29_);}
	.st33{opacity:0.72;fill:#FFFFFF;enable-background:new    ;}
	.st34{fill:#FFFFFF;}
	.st35{fill:url(#SVGID_30_);}
	.st36{fill:url(#SVGID_31_);}
	.st37{fill:url(#SVGID_32_);}
	.st38{fill:url(#SVGID_33_);}
	.st39{fill:url(#SVGID_34_);}
	.st40{fill:url(#SVGID_35_);}
	.st41{fill:url(#SVGID_36_);}
	.st42{fill:url(#SVGID_37_);}
	.st43{fill:url(#SVGID_38_);}
	.st44{fill:url(#SVGID_39_);}
	.st45{fill:url(#SVGID_40_);}
	.st46{fill:url(#SVGID_41_);}
	.st47{fill:url(#SVGID_42_);}
	.st48{fill:url(#SVGID_43_);}
	.st49{fill:url(#SVGID_44_);}
	.st50{fill:url(#SVGID_45_);}
	.st51{fill:url(#SVGID_46_);}
	.st52{fill:url(#SVGID_47_);}
	.st53{fill:url(#SVGID_48_);}
	.st54{fill:url(#SVGID_49_);}
	.st55{fill:url(#SVGID_50_);}
	.st56{fill:url(#SVGID_51_);}
	.st57{fill:url(#SVGID_52_);}
	.st58{fill:url(#SVGID_53_);}
	.st59{fill:url(#SVGID_54_);}
	.st60{fill:url(#SVGID_55_);}
	.st61{fill:url(#SVGID_56_);}
	.st62{fill:url(#SVGID_57_);}
	.st63{fill:url(#SVGID_58_);}
	.st64{fill:url(#SVGID_59_);}
	.st65{fill:url(#SVGID_60_);}
	.st66{fill:url(#SVGID_61_);}
	.st67{fill:url(#SVGID_62_);}
	.st68{fill:url(#SVGID_63_);}
	.st69{fill:url(#SVGID_64_);}
	.st70{fill:url(#SVGID_65_);}
	.st71{opacity:0.64;}
	.st72{fill:url(#SVGID_66_);}
	.st73{fill:url(#SVGID_67_);}
	.st74{fill:url(#SVGID_68_);}
	.st75{fill:url(#SVGID_69_);}
	.st76{fill:url(#SVGID_70_);}
	.st77{fill:url(#SVGID_71_);}
	.st78{fill:url(#SVGID_72_);}
	.st79{fill:url(#SVGID_73_);}
	.st80{fill:url(#SVGID_74_);}
	.st81{fill:url(#SVGID_75_);}
	.st82{fill:url(#SVGID_76_);}
	.st83{fill:url(#SVGID_77_);}
	.st84{fill:url(#SVGID_78_);}
	.st85{fill:url(#SVGID_79_);}
	.st86{fill:url(#SVGID_80_);}
	.st87{fill:url(#SVGID_81_);}
	.st88{fill:url(#SVGID_82_);}
</style>
<g>
	
		<linearGradient id="SVGID_1_" gradientUnits="userSpaceOnUse" x1="-8093.5293" y1="-47.3076" x2="-8409.4395" y2="-319.8376" gradientTransform="matrix(-1 0 0 -1 -8024.6504 16.48)">
		<stop  offset="0" style="stop-color:#DBE2F3"/>
		<stop  offset="1" style="stop-color:#EAEFF8"/>
	</linearGradient>
	<path class="st0" d="M458.3,193.5c11,10.5,26.9,14.2,41.9,10.8c14.2-3.2,31-2.3,48.2,9.3c33.3,22.5,34.8,62.5,19.8,87.3
		c-7.8,12.7-10.1,28.1-6.3,42.5c3.4,12.6,0.6,26.7-24.3,33.2c-50.1,13.1-325.4,0.2-360.6-5.7s-166.4-38.1-83.1-81.2
		c0,0-144.3-152.7-53-235.1c82.7-74.5,168.8-32.6,208.3-5.6c14.9,10.2,32.7,15.4,50.8,15c46.2-1.2,131.6,8.4,128.1,97.1
		c-0.4,11.9,7.3,22.6,18.8,26C451.2,188.4,455,190.6,458.3,193.5z"/>
	<path class="st1" d="M163.8,381.2c0,0,8-93.3-43.8-122.1c-49.7-27.6-63.5-3.2-86.3-39.8c-0.6-1-1.9-1.3-2.9-0.7
		c-0.5,0.3-0.9,0.9-1,1.5c-2.7,20.9-7.4,91.9,52.6,106C151.8,342.5,163.8,381.2,163.8,381.2z"/>
	
		<linearGradient id="SVGID_2_" gradientUnits="userSpaceOnUse" x1="752.5166" y1="-287.8727" x2="879.6608" y2="-287.8727" gradientTransform="matrix(1 0 0 -1 -714.22 16.48)">
		<stop  offset="0" style="stop-color:#DBE2F3"/>
		<stop  offset="1" style="stop-color:#EAEFF8"/>
	</linearGradient>
	<path class="st2" d="M39.2,240.6c0,0.2,0.1,0.3,0.2,0.5c0.1,0.3,0.3,0.8,0.5,1.4c0.7,1.8,1.6,3.5,2.5,5.2c0.3,0.5,0.7,1.1,1,1.7
		s0.7,1.2,1.2,1.8c0.9,1.2,1.8,2.6,2.9,3.9l1.7,2.1c0.6,0.7,1.3,1.4,1.9,2.1l1,1.1c0.3,0.4,0.7,0.8,1,1.1l2.3,2.2l1.2,1.1
		c0.4,0.4,0.8,0.7,1.3,1.1l2.6,2.2c0.5,0.4,0.9,0.8,1.4,1.1l1.4,1l2.9,2.2l0.8,0.5c0.2,0.2,0.5,0.3,0.8,0.5l1.6,1l3.2,2.1l0.8,0.5
		l0.9,0.5l1.7,1l3.5,1.9c1.2,0.7,2.4,1.2,3.6,1.8l3.7,1.8c0.6,0.3,1.2,0.6,1.9,0.9l1.9,0.8l3.9,1.6c1.3,0.5,2.6,1.1,4,1.6l4,1.6
		l4,1.7l4,1.8c5.2,2.5,10.3,5.4,15.1,8.6c4.7,3.2,9.1,6.8,13.1,10.8c2,1.9,3.8,4,5.5,6s3.2,4.2,4.7,6.3c2.7,3.9,5,8.1,7,12.4
		c1.8,4,3.3,7.8,4.5,11.1s2.1,6.3,2.8,8.7l2.3,7.6c0.3,1.1-0.3,2.3-1.4,2.7s-2.3-0.3-2.7-1.4l0,0l0,0l0,0c0,0-0.8-2.8-2.1-7.6
		c-0.7-2.4-1.5-5.3-2.6-8.6s-2.4-7-4.1-10.9c-1.9-4.2-4.1-8.3-6.6-12.1c-1.3-2-2.8-4-4.3-6.1s-3.3-4-5.2-5.9
		c-3.8-3.9-8-7.5-12.5-10.6c-4.7-3.3-9.5-6.2-14.6-8.7l-3.8-1.9l-3.9-1.7l-4-1.6c-1.3-0.5-2.6-1.1-3.9-1.7l-3.9-1.7
		c-0.7-0.3-1.3-0.5-2-0.8s-1.3-0.6-1.9-0.9l-3.7-1.9c-1.2-0.6-2.5-1.2-3.7-1.9l-3.5-2l-1.7-1l-0.9-0.5l-0.8-0.5l-3.2-2.2l-1.6-1.1
		c-0.3-0.2-0.5-0.3-0.8-0.5l-0.8-0.6l-2.9-2.2l-1.4-1.1c-0.5-0.3-0.9-0.8-1.4-1.2l-2.5-2.3c-0.4-0.4-0.9-0.7-1.3-1.1l-1.2-1.2
		l-2.3-2.3c-0.4-0.4-0.7-0.8-1-1.1l-1-1.1c-0.7-0.8-1.3-1.5-1.9-2.2l-1.7-2.2c-1.1-1.4-2-2.8-2.9-4.1c-0.5-0.6-0.8-1.3-1.2-1.9
		s-0.7-1.2-1-1.8c-0.9-1.7-1.8-3.5-2.5-5.4c-0.2-0.6-0.4-1.2-0.5-1.5s-0.2-0.5-0.2-0.5l0,0c-0.1-0.3,0.1-0.5,0.4-0.6c0,0,0,0,0,0
		C38.9,240.3,39.1,240.4,39.2,240.6z"/>
	<path class="st1" d="M167.5,379l-5.7-3.4c2.9-44.6-5.2-126.5-49.8-148.8c-30.2-15.1-41.4-32-39.2-68c1.5-24-6.5-40.6-11.9-49
		c-0.6-0.9-0.3-2.2,0.6-2.8c0.6-0.4,1.4-0.4,2-0.1c18.4,9.1,66.3,35.9,88.2,78.6C179.2,239,167.5,379,167.5,379z"/>
	
		<linearGradient id="SVGID_3_" gradientUnits="userSpaceOnUse" x1="804.6731" y1="-234.5626" x2="884.0389" y2="-234.5626" gradientTransform="matrix(1 0 0 -1 -714.22 16.48)">
		<stop  offset="0" style="stop-color:#DBE2F3"/>
		<stop  offset="1" style="stop-color:#EAEFF8"/>
	</linearGradient>
	<path class="st3" d="M92,136.7l0.2,0.1l0.5,0.3l0.8,0.5l1,0.7c0.8,0.5,1.7,1.2,2.8,2c0.5,0.4,1.1,0.8,1.7,1.3s1.2,1,1.9,1.5
		c1.3,1.1,2.7,2.3,4.2,3.8l2.3,2.2l2.4,2.5c3.6,3.9,7,7.9,10.2,12.2c0.5,0.6,0.9,1.2,1.3,1.8l1.3,1.8l2.7,3.8
		c1.7,2.7,3.4,5.4,5.1,8.3l2.5,4.4l1.3,2.3c0.4,0.8,0.9,1.5,1.2,2.3c1.5,3.1,3.2,6.3,4.8,9.6l4.5,10.1c1.4,3.5,2.8,7,4.2,10.6
		c0.2,0.5,0.3,0.8,0.5,1.4l0.5,1.3c0.3,0.9,0.6,1.8,0.9,2.7c0.6,1.8,1.2,3.6,1.8,5.4l0.9,2.7c0.3,0.9,0.5,1.9,0.8,2.8
		c0.5,1.9,1.1,3.7,1.6,5.6l0.8,2.8c0.3,0.9,0.5,1.9,0.8,2.8c0.5,1.9,0.9,3.8,1.4,5.6s0.9,3.8,1.4,5.6s0.8,3.8,1.2,5.6
		c0.8,3.7,1.6,7.4,2.1,11.1c0.3,1.8,0.6,3.7,0.9,5.5c0.2,0.9,0.3,1.8,0.5,2.7s0.3,1.8,0.4,2.7c0.5,3.6,1,7.1,1.4,10.6
		s0.8,6.9,1.1,10.2s0.6,6.5,0.8,9.7s0.4,6.2,0.6,9c0.3,5.8,0.6,11.1,0.7,15.8c0.1,2.4,0.1,4.6,0.1,6.6s0,3.9,0,5.6
		c0,3.4-0.1,6.1-0.1,7.9l-0.1,2.8c0,1.2-1,2.1-2.2,2.1s-2.1-1-2.1-2.2l0,0v-0.1l0.1-2.7c0.1-1.8,0.1-4.4,0.2-7.8c0-1.7,0-3.5,0-5.6
		s0-4.2-0.1-6.5c-0.1-4.7-0.2-10-0.5-15.7c-0.2-2.9-0.3-5.9-0.5-9s-0.5-6.3-0.8-9.6s-0.7-6.7-1-10.1s-0.9-6.9-1.3-10.5l-0.4-2.7
		c-0.1-0.9-0.3-1.8-0.4-2.7l-0.9-5.5c-0.5-3.7-1.3-7.3-2-11c-0.4-1.9-0.7-3.7-1.1-5.6l-1.3-5.6c-0.4-1.9-0.9-3.7-1.3-5.6
		c-0.2-0.9-0.5-1.9-0.7-2.8l-0.8-2.8l-1.5-5.5c-0.3-0.9-0.5-1.8-0.8-2.8l-0.9-2.7c-0.6-1.8-1.2-3.6-1.8-5.5l-0.9-2.7l-0.4-1.4
		l-0.5-1.3l-4-10.5l-4.4-10c-1.5-3.2-3.1-6.4-4.6-9.5c-0.4-0.8-0.8-1.5-1.2-2.3l-1.2-2.2c-0.8-1.5-1.6-2.9-2.4-4.4
		c-1.7-2.8-3.4-5.5-5-8.2l-2.6-3.8l-1.2-1.8c-0.4-0.6-0.8-1.2-1.3-1.8c-3.1-4.2-6.4-8.3-9.9-12.1l-2.3-2.5l-2.2-2.2
		c-1.4-1.4-2.8-2.6-4.1-3.7c-0.6-0.6-1.2-1-1.8-1.5s-1.1-0.9-1.6-1.3c-1-0.8-1.9-1.4-2.7-1.9l-1-0.7l-0.7-0.4
		c-0.2-0.1-0.3-0.2-0.5-0.3l-0.2-0.1l0,0c-0.5-0.3-0.7-0.9-0.4-1.4c0,0,0,0,0,0C90.8,136.6,91.4,136.4,92,136.7
		C92,136.7,92,136.7,92,136.7z"/>
	<path class="st1" d="M173,373.3c-0.3,0.6-1.1,0.8-1.7,0.5c-0.4-0.2-0.7-0.7-0.6-1.2c3-24,14.8-129.1-4.4-183.8
		C144.8,127.5,103,66,205.5,25.2c0.8-0.3,1.7,0,2,0.8c0.2,0.4,0.2,0.8,0,1.2c-3,7.1-8.3,24.4,1.2,45.4
		c12.4,27.7,12.3,74.9-21.2,122.1C187.4,194.6,192.8,338.3,173,373.3z"/>
	
		<linearGradient id="SVGID_4_" gradientUnits="userSpaceOnUse" x1="872.0201" y1="-101.2934" x2="906.6669" y2="-101.2934" gradientTransform="matrix(1 0 0 -1 -714.22 16.48)">
		<stop  offset="0" style="stop-color:#DBE2F3"/>
		<stop  offset="1" style="stop-color:#EAEFF8"/>
	</linearGradient>
	<path class="st4" d="M192.1,42.8l-0.4,0.2l-1.1,0.7c-1.4,0.9-2.8,1.9-4.2,2.9c-2.1,1.6-4,3.4-5.8,5.4c-1.1,1.1-2.1,2.4-3.2,3.7
		s-2.2,2.8-3.2,4.4l-0.8,1.2c-0.3,0.4-0.5,0.8-0.8,1.2c-0.5,0.9-1,1.7-1.5,2.6l-1.5,2.7c-0.2,0.5-0.5,1-0.7,1.4l-0.7,1.5l-0.7,1.5
		c-0.2,0.5-0.4,1-0.6,1.5c-0.4,1-0.8,2.1-1.2,3.1c-0.7,2.2-1.5,4.4-2,6.6c-1.2,4.7-2.1,9.5-2.6,14.3c-0.1,1.2-0.2,2.5-0.3,3.7
		s-0.2,2.5-0.2,3.7l-0.1,3.8c0,0.6,0,1.2,0,1.9l0.1,1.9c0.1,2.5,0.1,5,0.3,7.5s0.3,5,0.7,7.5c0.5,4.9,1.4,9.8,2.3,14.4
		c0.5,2.3,1,4.6,1.5,6.8c0.1,0.6,0.2,1.1,0.4,1.7s0.3,1.1,0.4,1.6l0.8,3.2c1,4.2,2.3,8.1,3.4,11.8l0.8,2.7c0.3,0.8,0.6,1.7,0.9,2.5
		l1.6,4.6c1,2.9,2,5.4,2.8,7.5l2.5,6.5v0.1c0.4,1.1-0.1,2.3-1.2,2.8c-1.1,0.4-2.3-0.1-2.8-1.2l0,0c0,0-0.9-2.4-2.4-6.6
		c-0.8-2.1-1.8-4.7-2.7-7.6c-0.5-1.5-1-3.1-1.5-4.7c-0.3-0.8-0.6-1.7-0.8-2.6l-0.8-2.7c-1.1-3.7-2.3-7.7-3.3-12
		c-0.3-1.1-0.5-2.2-0.8-3.2c-0.1-0.5-0.3-1.1-0.4-1.7s-0.2-1.1-0.3-1.7l-1.4-7c-0.8-4.8-1.6-9.7-2.1-14.7c-0.3-2.5-0.4-5.1-0.6-7.6
		s-0.2-5.1-0.2-7.7v-1.9c0-0.6,0-1.3,0.1-1.9c0-1.3,0.1-2.6,0.2-3.9s0.2-2.5,0.3-3.8s0.2-2.5,0.4-3.8c0.6-4.9,1.6-9.8,2.9-14.6
		c0.6-2.4,1.4-4.6,2.2-6.8c0.4-1.1,0.9-2.1,1.3-3.2c0.2-0.5,0.4-1.1,0.7-1.6l0.7-1.5l0.7-1.5c0.2-0.5,0.5-1,0.7-1.5l1.5-2.8
		c0.5-0.9,1.1-1.8,1.6-2.6c0.3-0.4,0.5-0.9,0.8-1.3l0.8-1.2c1.1-1.6,2.3-3,3.4-4.4s2.2-2.6,3.4-3.7c1.9-2,3.9-3.8,6.1-5.4
		c1.4-1.1,2.8-2,4.3-2.9c0.5-0.3,0.9-0.5,1.2-0.7l0.4-0.2c0.3-0.2,0.7,0,0.8,0.3C192.5,42.2,192.4,42.6,192.1,42.8L192.1,42.8z"/>
	<path class="st1" d="M432.2,380.8c0,0-45.6-86-16-143.4c28.1-54.5,54-152.4,30.3-192.5c-0.4-0.7-0.2-1.7,0.5-2.1
		c0.5-0.3,1.1-0.3,1.6,0c19.8,12.9,75.7,58.2,27,134.9C417.5,269.3,398.1,260.7,432.2,380.8z"/>
	<path class="st1" d="M438.1,380.4c0,0.2-0.3,0.2-0.3,0.1c-3-7-27.8-68.7-13.2-105.5c14.8-37.2,91.7-98.5,78.8-154
		c-0.2-0.7,0.2-1.4,0.9-1.6c0.6-0.1,1.1,0.1,1.4,0.6c13.6,21.5,46.9,84,14,134.3C479.4,316,424.1,256.9,438.1,380.4z"/>
	
		<linearGradient id="SVGID_5_" gradientUnits="userSpaceOnUse" x1="1143.8096" y1="-221.9319" x2="1227.4728" y2="-221.9319" gradientTransform="matrix(1 0 0 -1 -714.22 16.48)">
		<stop  offset="0" style="stop-color:#DBE2F3"/>
		<stop  offset="1" style="stop-color:#EAEFF8"/>
	</linearGradient>
	<path class="st5" d="M508.6,157.3l0.3,0.5c0.2,0.3,0.4,0.8,0.7,1.5c0.8,1.9,1.5,3.9,2,5.9c0.8,3.1,1.3,6.3,1.6,9.5
		c0.3,4.2,0.1,8.4-0.6,12.6c-0.8,4.9-2.2,9.7-4.2,14.3c-2.2,5.1-5,9.9-8.4,14.4c-0.8,1.2-1.8,2.3-2.7,3.4s-1.9,2.2-2.9,3.3l-0.7,0.8
		l-0.8,0.8l-1.5,1.6l-0.8,0.8l-0.8,0.8l-1.6,1.6c-4.4,4.2-9,8-13.9,11.6c-4.8,3.6-9.8,7-14.4,10.5c-4.5,3.3-8.7,7.2-12.3,11.5
		c-3.3,4.1-6,8.6-8,13.4c-0.5,1.2-0.9,2.3-1.4,3.5l-1.2,3.4c-0.3,1.1-0.6,2.3-1,3.4s-0.5,2.2-0.8,3.3l-0.4,1.6
		c-0.1,0.5-0.2,1.1-0.3,1.6c-0.2,1-0.4,2.1-0.6,3.1c-0.3,2-0.6,3.9-0.9,5.7c-0.2,1.8-0.4,3.5-0.6,5s-0.3,3-0.4,4.3
		c-0.1,0.7-0.1,1.3-0.2,1.8s-0.1,1.1-0.1,1.6c-0.1,1-0.1,1.9-0.2,2.6c-0.1,1.4-0.2,2.1-0.2,2.1l0,0c-0.1,0.5-0.5,0.8-1,0.7
		c-0.4-0.1-0.7-0.4-0.8-0.8c0,0,0-0.8,0-2.2l0.1-2.6v-1.7l0.1-1.9c0.1-1.3,0.2-2.8,0.2-4.4s0.3-3.3,0.4-5.1s0.4-3.8,0.7-5.8
		c0.2-1,0.3-2.1,0.5-3.2c0.1-0.5,0.2-1.1,0.3-1.6s0.2-1.1,0.3-1.7c0.9-4.9,2.3-9.6,4.1-14.2c2-5.2,4.8-10.1,8.3-14.5
		c1.8-2.3,3.8-4.5,6-6.5c2.2-2,4.4-4,6.8-5.8c4.7-3.7,9.7-7.1,14.4-10.7c4.7-3.5,9.2-7.3,13.5-11.3l1.5-1.5l0.8-0.8l0.8-0.8l1.5-1.6
		l0.7-0.8l0.7-0.8c0.9-1.1,1.9-2.1,2.8-3.2s1.8-2.1,2.6-3.2c3.2-4.2,5.9-8.7,8.1-13.5c2-4.3,3.4-8.7,4.4-13.3
		c0.8-3.9,1.2-7.9,1.1-11.8c0-3.1-0.3-6.2-0.9-9.2c-0.4-2-0.8-3.9-1.4-5.8c-0.2-0.7-0.4-1.2-0.5-1.5l-0.2-0.5l0,0
		c-0.1-0.4,0.1-0.8,0.5-1C508,156.8,508.4,156.9,508.6,157.3L508.6,157.3z"/>
	<path class="st6" d="M385,29.9L381,95.1h24.4V31.8c0-1.8-1.2-3.4-2.9-4c-3.2-1.1-8.7-2.5-14.1-1.5C386.5,26.5,385.2,28.1,385,29.9z
		"/>
	<path class="st6" d="M354.4,29.6l2.7,65.5h23.2l1.8-66.2c0.1-1.8-1.1-3.5-2.9-4c-7.5-2.3-15-2.5-22.4,0.9
		C355.3,26.4,354.3,28,354.4,29.6z"/>
	<path class="st1" d="M360.6,74.1l0.2,2.3c0.1,0.7,0.6,1.2,1.3,1.2l12.1-0.7c0.6,0,1.1-0.5,1.2-1.2l0.1-1.6c0-0.7-0.5-1.3-1.2-1.4
		c0,0-0.1,0-0.1,0h-12.4c-0.7,0-1.3,0.6-1.3,1.3C360.6,74.1,360.6,74.1,360.6,74.1z"/>
	<path class="st1" d="M361.1,79.6v0.8c0,0.6,0.5,1.1,1.1,1.1c0,0,0,0,0.1,0l11.6-0.5c0.6,0,1.1-0.5,1.1-1.1V79
		c0-0.6-0.5-1.1-1.1-1.1c0,0,0,0-0.1,0l-11.6,0.5C361.6,78.5,361.1,79,361.1,79.6z"/>
	<path class="st1" d="M377,29.9c-0.4-0.5-1.1-0.8-1.8-0.8l-14.2,0.6c-1.3,0.1-2.3,1.3-2.2,2.6l0.7,32.5c0,1.3,0.9,2.4,2.2,2.5
		l12.5,0.8c0.6,0,1.3-0.2,1.7-0.7c0.5-0.5,0.7-1.1,0.8-1.8l1-34C377.7,31.1,377.5,30.4,377,29.9z"/>
	<path class="st1" d="M388.2,76.6l0.2,2.3c0,0.6,0.5,1.2,1.1,1.2c0,0,0,0,0,0l10.3-0.7c0.6-0.1,1-0.6,1-1.2l0.1-1.6
		c0.1-0.7-0.4-1.3-1-1.4c0,0,0,0,0,0h-10.6C388.6,75.3,388.1,75.9,388.2,76.6C388.2,76.6,388.2,76.6,388.2,76.6z"/>
	<path class="st1" d="M388.6,82v0.8c0,0.6,0.4,1.1,1,1.1c0,0,0,0,0,0l9.9-0.5c0.6-0.1,1-0.6,0.9-1.1v-0.9c0.1-0.5-0.3-1-0.9-1.1
		c0,0-0.1,0-0.1,0l-9.9,0.5C389,81,388.6,81.5,388.6,82z"/>
	<path class="st1" d="M399.7,31.5l-8.1-0.9c-1.7-0.2-3.3,1.1-3.5,2.8c0,0.1,0,0.1,0,0.2l-1,31.3c-0.1,1.7,1.3,3.2,3.1,3.2
		c0.1,0,0.1,0,0.2,0L398,68c1.6,0,3-1.4,3.1-3l1.4-30.2C402.5,33.1,401.3,31.7,399.7,31.5z"/>
	<path class="st6" d="M438.2,29.9l-4.1,65.2h24.4V31.8c0-1.8-1.2-3.4-2.9-4c-3.2-1.1-8.7-2.5-14.1-1.5
		C439.7,26.5,438.3,28.1,438.2,29.9z"/>
	<path class="st6" d="M407.6,29.6l2.7,65.5h23.2l1.8-66.2c0.1-1.8-1.1-3.5-2.8-4c-7.5-2.3-15-2.5-22.4,0.9
		C408.4,26.5,407.5,28,407.6,29.6z"/>
	<path class="st1" d="M413.8,74.1l0.2,2.3c0.1,0.7,0.6,1.2,1.3,1.2l12.1-0.7c0.6,0,1.2-0.5,1.2-1.2l0.1-1.6c0-0.7-0.5-1.3-1.2-1.4
		c0,0-0.1,0-0.1,0H415C414.3,72.8,413.8,73.3,413.8,74.1C413.8,74.1,413.8,74.1,413.8,74.1z"/>
	<path class="st1" d="M414.3,79.6v0.8c0,0.6,0.5,1.1,1.1,1.1c0,0,0,0,0.1,0l11.6-0.5c0.6,0,1.1-0.5,1.1-1.1V79
		c0-0.6-0.5-1.1-1.1-1.1c0,0,0,0-0.1,0l-11.6,0.5C414.7,78.5,414.3,79,414.3,79.6z"/>
	<path class="st1" d="M430.2,29.9c-0.4-0.5-1.1-0.8-1.7-0.8l-14.2,0.6c-1.3,0.1-2.3,1.3-2.2,2.6l0.7,32.5c0,1.3,0.9,2.4,2.2,2.5
		l12.5,0.8c0.6,0,1.3-0.2,1.7-0.7c0.5-0.5,0.7-1.1,0.8-1.8l1-34C430.9,31.1,430.6,30.4,430.2,29.9z"/>
	<path class="st1" d="M441.3,76.6l0.2,2.3c0,0.6,0.5,1.2,1.1,1.2c0,0,0,0,0,0l10.3-0.7c0.6-0.1,1-0.6,1-1.2l0.1-1.6
		c0.1-0.7-0.4-1.3-1.1-1.4c0,0,0,0,0,0h-10.6C441.7,75.3,441.2,75.9,441.3,76.6C441.3,76.6,441.3,76.6,441.3,76.6z"/>
	<path class="st1" d="M441.8,82v0.8c0,0.6,0.4,1.1,1,1.1c0,0,0,0,0,0l9.9-0.5c0.6-0.1,1-0.6,0.9-1.1v-0.9c0.1-0.5-0.3-1-0.9-1.1
		c0,0-0.1,0-0.1,0l-9.9,0.5C442.1,81,441.7,81.5,441.8,82z"/>
	<path class="st1" d="M452.8,31.5l-8.1-0.9c-1.7-0.2-3.3,1.1-3.5,2.8c0,0.1,0,0.1,0,0.2l-1,31.3c0,0.9,0.3,1.7,0.9,2.3
		c0.6,0.6,1.4,0.9,2.3,0.9l7.7-0.2c1.6,0,3-1.4,3.1-3l1.4-30.2C455.6,33.1,454.4,31.7,452.8,31.5z"/>
	<path class="st7" d="M339.7,91.2h135.8c1.9,0,3.5,1.5,3.5,3.5v3c0,1.9-1.5,3.5-3.5,3.5H339.7c-1.9,0-3.5-1.5-3.5-3.5v-3
		C336.2,92.7,337.8,91.2,339.7,91.2z"/>
	
		<linearGradient id="SVGID_6_" gradientUnits="userSpaceOnUse" x1="482.9892" y1="-344.065" x2="572.47" y2="-344.065" gradientTransform="matrix(0.9923 -0.1238 -0.1238 -0.9923 -369.3019 -104.0005)">
		<stop  offset="0" style="stop-color:#201B59"/>
		<stop  offset="1" style="stop-color:#2D2D84"/>
	</linearGradient>
	<path class="st8" d="M247.9,218.9l-88.8,11.1l-11.9-95.5c-0.6-5,2.9-9.5,7.9-10.2c0,0,0,0,0,0l70.7-8.8c5-0.6,9.6,2.9,10.2,7.9
		L247.9,218.9z"/>
	
		<linearGradient id="SVGID_7_" gradientUnits="userSpaceOnUse" x1="483.0528" y1="-342.0333" x2="501.6177" y2="-342.0333" gradientTransform="matrix(0.9923 -0.1238 -0.1238 -0.9923 -369.3019 -104.0005)">
		<stop  offset="0" style="stop-color:#201B59"/>
		<stop  offset="1" style="stop-color:#2D2D84"/>
	</linearGradient>
	<path class="st9" d="M155.4,124.2h-0.3c-5,0.6-8.5,5.2-7.9,10.2c0,0,0,0,0,0l11.4,91.6l18.4-2.3l-11.4-91.6
		C164.9,127.1,160.4,123.6,155.4,124.2z"/>
	
		<linearGradient id="SVGID_8_" gradientUnits="userSpaceOnUse" x1="13430.9023" y1="-347.9187" x2="13448.8223" y2="-235.1687" gradientTransform="matrix(-1 0 0 -1 13685.4004 16.48)">
		<stop  offset="0" style="stop-color:#CB266E"/>
		<stop  offset="1" style="stop-color:#4C286E"/>
	</linearGradient>
	<rect x="243.9" y="278.8" class="st10" width="8.3" height="89.7"/>
	
		<linearGradient id="SVGID_9_" gradientUnits="userSpaceOnUse" x1="13437.8643" y1="-348.6306" x2="13456.4443" y2="-231.7606" gradientTransform="matrix(-1 0 0 -1 13685.4102 16.48)">
		<stop  offset="0" style="stop-color:#CB266E"/>
		<stop  offset="1" style="stop-color:#4C286E"/>
	</linearGradient>
	<path class="st11" d="M211.7,370.3h72.6v-4.2c0-0.7-0.6-1.2-1.2-1.2h-70c-0.7,0-1.3,0.6-1.3,1.3L211.7,370.3z"/>
	
		<linearGradient id="SVGID_10_" gradientUnits="userSpaceOnUse" x1="9597.4209" y1="-352.1601" x2="9616.4707" y2="-232.3402" gradientTransform="matrix(-1 0 0 -1 9859.4004 16.48)">
		<stop  offset="0" style="stop-color:#F9EE4A"/>
		<stop  offset="1" style="stop-color:#DA3D66"/>
	</linearGradient>
	<path class="st12" d="M207.4,257.5h78.1c5.2,0,9.5,4.2,9.5,9.5v8.6c0,5.2-4.2,9.5-9.5,9.5h-78.1c-5.2,0-9.5-4.2-9.5-9.5V267
		C198,261.7,202.2,257.5,207.4,257.5z"/>
	
		<linearGradient id="SVGID_11_" gradientUnits="userSpaceOnUse" x1="1000.7666" y1="-330.3817" x2="1015.35" y2="-330.3817" gradientTransform="matrix(1 0 0 -1 -714.22 16.48)">
		<stop  offset="0" style="stop-color:#F5928F"/>
		<stop  offset="1" style="stop-color:#F8B2B1"/>
	</linearGradient>
	<path class="st13" d="M290.7,338.3l-3.9,11.2c-0.6,1.7,0,3.6,1.5,4.6c1,0.6,2.1,1,3.2,1.2c2,0.5,4-0.5,5-2.3l4.6-8.7L290.7,338.3z"
		/>
	
		<linearGradient id="SVGID_12_" gradientUnits="userSpaceOnUse" x1="980.6059" y1="-291.8142" x2="1042.5758" y2="-204.9642" gradientTransform="matrix(1 0 0 -1 -714.22 16.48)">
		<stop  offset="0" style="stop-color:#293882"/>
		<stop  offset="0.23" style="stop-color:#242D70"/>
		<stop  offset="0.73" style="stop-color:#1B184F"/>
		<stop  offset="1" style="stop-color:#171042"/>
	</linearGradient>
	<path class="st14" d="M253,237.6c0,0,48.6,8.4,69.5,27.7c20.9,19.3-19.2,80.8-19.2,80.8s-6.6,0-14.5-6.8c0,0,23.7-46.2,3.3-59.7
		c-23-15.2-49.5-18.6-49.5-18.6l9.9-21.8L253,237.6z"/>
	
		<linearGradient id="SVGID_13_" gradientUnits="userSpaceOnUse" x1="990.24" y1="-343.8608" x2="1003.9207" y2="-343.8608" gradientTransform="matrix(1 0 0 -1 -714.22 16.48)">
		<stop  offset="0" style="stop-color:#F5928F"/>
		<stop  offset="1" style="stop-color:#F8B2B1"/>
	</linearGradient>
	<path class="st15" d="M276,356.8c0.1,1.4,3,6.3,4.7,9.1c0.8,1.3,2.2,2.1,3.8,2.1c1.1,0,2.1-0.1,3.1-0.4c1.5-0.5,2.4-2.1,1.9-3.6
		l-3.3-11.4L276,356.8z"/>
	
		<linearGradient id="SVGID_14_" gradientUnits="userSpaceOnUse" x1="958.2607" y1="-335.1" x2="961.6807" y2="-218.96" gradientTransform="matrix(1 0 0 -1 -714.22 16.48)">
		<stop  offset="0" style="stop-color:#201B59"/>
		<stop  offset="1" style="stop-color:#2D2D84"/>
	</linearGradient>
	<path class="st16" d="M206.2,223c0,0-10.8,28.9,0,37.7s36.6,18.7,42.3,36.2s15.5,51.5,28.6,63.5c0,0,9.2-0.9,12.6-4.5
		c0,0-7.4-50.8-12.3-63.8c-4.3-11.3-10.5-27.5-22.6-36.7c-3.4-2.6-2.8-6.7-1.2-10.7l2.9-7.3L206.2,223z"/>
	
		<linearGradient id="SVGID_15_" gradientUnits="userSpaceOnUse" x1="1006.787" y1="-188.5648" x2="870.437" y2="-266.4847" gradientTransform="matrix(1 0 0 -1 -714.22 16.48)">
		<stop  offset="0" style="stop-color:#F37064"/>
		<stop  offset="1" style="stop-color:#F5928F"/>
	</linearGradient>
	<path class="st17" d="M318.8,200.3c-18.1,1.1-12.5-27.8-12.1-29l-27.5,19.4c0,0,1.5,15.5,24.3,23.6c5,1.9,10.5,2.3,15.7,1.1
		C317.5,210.6,317.4,205.3,318.8,200.3z"/>
	
		<linearGradient id="SVGID_16_" gradientUnits="userSpaceOnUse" x1="1032.0586" y1="-186.0278" x2="1079.8" y2="-186.0278" gradientTransform="matrix(1 0 0 -1 -714.22 16.48)">
		<stop  offset="0" style="stop-color:#F5928F"/>
		<stop  offset="1" style="stop-color:#F8B2B1"/>
	</linearGradient>
	<path class="st18" d="M353.8,191.6c-6.7-4.7-14.4,0-14.4,0c-9,5.9-15.7,8.4-20.6,8.7c-1.4,5-1.3,10.3,0.4,15.2
		c10.1-2.2,17.3-9.5,20.5-13.2c1.1-1.4,3.1-1.6,4.5-0.5c1.4,1.1,2.8,2.6,2.5,4.2c-0.5,3.2,3.2,4.2,3.4,3S349,201,349,201
		s7.3,7.4,10.2,10.2s6.4,0,6.4,0S360.6,196.3,353.8,191.6z"/>
	
		<linearGradient id="SVGID_17_" gradientUnits="userSpaceOnUse" x1="924.4253" y1="-180.559" x2="1098.9452" y2="-105.879" gradientTransform="matrix(1 0 0 -1 -714.22 16.48)">
		<stop  offset="0" style="stop-color:#F37064"/>
		<stop  offset="1" style="stop-color:#F5928F"/>
	</linearGradient>
	<path class="st19" d="M234.4,126.7c0,0,26.3-10.5,75.4,29.9c0,0,4.1,8.5-0.4,16s-47,44.3-52.9,64.7c0,0-25.4,8.2-51.6-11.3
		C204.9,226,207.2,169.3,234.4,126.7z"/>
	
		<linearGradient id="SVGID_18_" gradientUnits="userSpaceOnUse" x1="986.4902" y1="-115.548" x2="1018.16" y2="-115.548" gradientTransform="matrix(1 0 0 -1 -714.22 16.48)">
		<stop  offset="0" style="stop-color:#F5928F"/>
		<stop  offset="1" style="stop-color:#F8B2B1"/>
	</linearGradient>
	<path class="st20" d="M286.5,117.2l-13,15.7c-1.3,1.6-1.5,3.7-0.7,5.5c1.8,3.7,6.1,9,15.5,8.3c2.8-0.2,5.3-1.9,6.5-4.5l9.1-18.8
		L286.5,117.2z"/>
	
		<linearGradient id="SVGID_19_" gradientUnits="userSpaceOnUse" x1="916.129" y1="-161.1577" x2="1090.639" y2="-86.4778" gradientTransform="matrix(1 0 0 -1 -714.22 16.48)">
		<stop  offset="0" style="stop-color:#F37064"/>
		<stop  offset="1" style="stop-color:#F5928F"/>
	</linearGradient>
	<path class="st21" d="M214,194c-3.1-12.5,27.9-40.2,27.9-40.2l-7.5-27.1c0,0-66.9,44.5-49.8,80.3c2,4.5,5.3,8.4,9.5,11.1
		C199.4,203.6,207.9,197,214,194z"/>
	
		<linearGradient id="SVGID_20_" gradientUnits="userSpaceOnUse" x1="917.6397" y1="-156.2548" x2="1011.3397" y2="-150.8848" gradientTransform="matrix(1 0 0 -1 -714.22 16.48)">
		<stop  offset="0" style="stop-color:#E1483D"/>
		<stop  offset="1" style="stop-color:#E9625A"/>
	</linearGradient>
	<path class="st22" d="M213.9,192.2c-0.3,0-0.6-0.2-0.7-0.6c-3.1-12.7,26.9-39.8,28.2-41c0.3-0.3,0.8-0.3,1,0s0.3,0.8,0,1
		c-0.3,0.3-30.6,27.6-27.7,39.5c0.1,0.4-0.1,0.8-0.5,0.9c0,0,0,0,0,0C214.1,192.2,214,192.2,213.9,192.2z"/>
	
		<linearGradient id="SVGID_21_" gradientUnits="userSpaceOnUse" x1="985.676" y1="-138.0236" x2="975.936" y2="-159.3936" gradientTransform="matrix(1 0 0 -1 -714.22 16.48)">
		<stop  offset="0" style="stop-color:#F5928F"/>
		<stop  offset="1" style="stop-color:#F8B2B1"/>
	</linearGradient>
	<path class="st23" d="M260.9,192.9c0,0-36.7,14.3-45.7,3.5c-0.6-0.7-1-1.6-1.2-2.5c-6,3-14.6,9.6-20,24.1
		c19.3,12.3,52.3-6.9,61.3-12.5c1.5-0.9,3.2-1.3,4.9-0.9c3.4,0.7,9.4,1.8,12.6,1.3c4.7-0.7,11.4,15.8,19,10.7
		C291.8,216.7,285.3,187.9,260.9,192.9z"/>
	
		<linearGradient id="SVGID_22_" gradientUnits="userSpaceOnUse" x1="1050.5205" y1="-91.9918" x2="1025.6305" y2="-93.0717" gradientTransform="matrix(1 0 0 -1 -714.22 16.48)">
		<stop  offset="0" style="stop-color:#F5928F"/>
		<stop  offset="1" style="stop-color:#F8B2B1"/>
	</linearGradient>
	<path class="st24" d="M314.7,94.1c0.1,0.5-3,34.9-3,34.9l-19.6-2.2l-1.8-33C290.2,93.8,312.5,85.7,314.7,94.1z"/>
	
		<linearGradient id="SVGID_23_" gradientUnits="userSpaceOnUse" x1="1191.3967" y1="1002.0138" x2="1238.7151" y2="1002.0138" gradientTransform="matrix(0.9683 -0.2499 -0.2499 -0.9683 -622.1291 1384.0645)">
		<stop  offset="0" style="stop-color:#201B59"/>
		<stop  offset="1" style="stop-color:#2D2D84"/>
	</linearGradient>
	<path class="st25" d="M295.3,100.6l-0.4,17.5c0,0.2,0,0.4,0.1,0.7c0.3,1.3,1.8,5.8,6.3,4c4.1-1.7,7.8-3.1,10.6-2.6
		c1.2,0.2,2.1,1.4,2,2.6c-0.5,5.4-1.4,10.8-2.7,16.1c-0.3,1.2-1.5,2-2.8,1.8c-3.7-0.7-11.6-2.3-17.6-5c-0.8-0.4-1.4-1.2-1.4-2
		c-0.3-4.4-1.2-17.6-2.1-21.3c-0.8-3.4-5.3-5-7.2-5.6c-0.6-0.2-1.2-0.6-1.5-1.2c-1.1-2-2.8-6.9,3.2-9.6c1.2-0.6,1.8-2,1.2-3.2
		c0,0,0,0,0-0.1c-1.2-2.5-2-6.4,2.6-9.1s8.7-0.5,10.9,1.4c0.9,0.8,2.2,0.8,3.1,0c0.6-0.5,1.5-0.6,2.2-0.2c1.2,0.6,2.6,0,3.2-1.2
		c0-0.1,0.1-0.2,0.1-0.2c0.9-2.6,3-5.4,7.9-5.1c8.7,0.5,10.7,9.9,9.1,15.7s-11.1,4.7-16,2.4c-3.7-1.8-8,1-9.9,2.4
		C295.7,99.2,295.3,99.9,295.3,100.6z"/>
	
		<linearGradient id="SVGID_24_" gradientUnits="userSpaceOnUse" x1="1163.601" y1="973.1769" x2="1195.371" y2="1005.767" gradientTransform="matrix(0.9683 -0.2499 -0.2499 -0.9683 -622.1291 1384.0645)">
		<stop  offset="0" style="stop-color:#F5928F"/>
		<stop  offset="1" style="stop-color:#F8B2B1"/>
	</linearGradient>
	<path class="st26" d="M287.2,118.6c0,0,2.4-10.2-1.5-12.3s-9.1-0.2-7.1,6.8C281.1,121.9,287.2,118.6,287.2,118.6z"/>
	
		<linearGradient id="SVGID_25_" gradientUnits="userSpaceOnUse" x1="9508.0273" y1="-788.5777" x2="9445.9277" y2="-805.5977" gradientTransform="matrix(-1 -5.000000e-02 5.000000e-02 -1 9800.21 -117.18)">
		<stop  offset="0" style="stop-color:#201B59"/>
		<stop  offset="1" style="stop-color:#2D2D84"/>
	</linearGradient>
	<path class="st27" d="M279.7,221.1h0.2L357,221c1.9,0,3.4-1.5,3.4-3.5s-1.5-3.5-3.4-3.5l-77.1,0.1c-1.9,0-3.5,1.5-3.5,3.4
		C276.3,219.4,277.8,221,279.7,221.1L279.7,221.1z"/>
	
		<linearGradient id="SVGID_26_" gradientUnits="userSpaceOnUse" x1="9508.7295" y1="-143.9796" x2="9464.6699" y2="-190.5497" gradientTransform="matrix(-1 0 0 -1 9859.4102 16.48)">
		<stop  offset="0" style="stop-color:#201B59"/>
		<stop  offset="1" style="stop-color:#2D2D84"/>
	</linearGradient>
	<path class="st28" d="M426.2,151.1h-64.2c-4.7,0-9,2.7-11.1,7L321.3,221h79.8c3,0,5.8-1.9,6.9-4.7l23-58.2c1-2.6-0.3-5.6-2.9-6.6
		C427.5,151.2,426.9,151.1,426.2,151.1z"/>
	<path class="st7" d="M381,183.3c-1.4,4.3-0.4,8.5,2.3,9.4s5.9-2,7.3-6.3s0.4-8.5-2.3-9.4S382.4,179,381,183.3z"/>
	<path class="st6" d="M175.4,199.3h43v-8.6h-43C176.3,190.7,176.3,199.3,175.4,199.3z"/>
	<path class="st29" d="M218.4,197.2v-3.9c0-1.4-0.8-2.5-1.9-2.5h-40.9c-0.8,0-1.5-0.7-1.5-1.5c0-0.3,0.2-0.5,0.5-0.5h44.7
		c1,0,2.7,1.6,2.7,3.6v5.5c0,1.9-1.6,3.4-2.5,3.4h-44.5c-0.4,0-0.7-0.3-0.7-0.7l0,0c0-0.7,0.6-1.3,1.3-1.3h41.4
		C217.8,199.2,218.5,198.2,218.4,197.2z"/>
	<path class="st1" d="M217.2,193.1h-40.3c-0.3,0-0.6-0.4-0.5-0.7c0-0.3,0.3-0.5,0.5-0.5h40.3c0.3,0,0.7,0.2,0.7,0.5
		c0,0.3-0.2,0.7-0.5,0.7C217.3,193.1,217.2,193.1,217.2,193.1z"/>
	<path class="st1" d="M217.2,194.4h-40.3c-0.3,0-0.6-0.3-0.6-0.6c0-0.3,0.3-0.6,0.6-0.6h40.3c0.3,0,0.6,0.3,0.6,0.6
		C217.8,194.1,217.5,194.4,217.2,194.4C217.2,194.4,217.2,194.4,217.2,194.4z"/>
	<path class="st1" d="M217.2,195.7h-40.3c-0.3,0-0.6-0.3-0.6-0.6c0-0.3,0.3-0.6,0.6-0.6h40.3c0.3,0,0.6,0.3,0.6,0.6
		C217.8,195.4,217.5,195.7,217.2,195.7z"/>
	<path class="st1" d="M217.2,196.9h-40.3c-0.3,0-0.6-0.3-0.6-0.6c0-0.3,0.3-0.6,0.6-0.6c0,0,0,0,0,0h40.3c0.3,0,0.6,0.3,0.6,0.6
		C217.8,196.7,217.5,196.9,217.2,196.9C217.2,196.9,217.2,196.9,217.2,196.9z"/>
	<path class="st1" d="M217.2,198.2h-40.3c-0.3,0-0.6-0.3-0.6-0.6c0,0,0,0,0,0c0-0.3,0.3-0.6,0.6-0.6h40.3c0.3,0,0.6,0.3,0.6,0.6
		c0,0,0,0,0,0C217.8,197.9,217.5,198.2,217.2,198.2z"/>
	<path class="st7" d="M166.8,201.2h74.4c0.9,0,1.6,0.7,1.6,1.6v15.6c0,0.9-0.7,1.6-1.6,1.6h-74.4c-0.9,0-1.6-0.7-1.6-1.6v-15.6
		C165.2,201.9,165.9,201.2,166.8,201.2z"/>
	<path class="st6" d="M181.9,218.1h-6.7c-0.9,0-1.5-0.7-1.5-1.5v-12c0-0.9,0.7-1.5,1.5-1.5h6.7c0.9,0,1.5,0.7,1.5,1.5v12
		C183.4,217.4,182.7,218.1,181.9,218.1z M175.2,203.6c-0.5,0-0.9,0.4-0.9,0.9v12c0,0.5,0.4,0.9,0.9,0.9h6.7c0.5,0,0.9-0.4,0.9-0.9
		c0,0,0,0,0-0.1v-12c0-0.5-0.4-0.9-0.9-0.9L175.2,203.6z"/>
	<path class="st6" d="M186.9,218.1h-1.4c-0.7,0-1.3-0.6-1.3-1.3v-12.4c0-0.7,0.6-1.3,1.3-1.3h1.4c0.7,0,1.3,0.6,1.3,1.3v12.4
		C188.2,217.5,187.6,218.1,186.9,218.1z M185.4,203.6c-0.4,0-0.7,0.3-0.7,0.7l0,0v12.4c0,0.4,0.3,0.7,0.7,0.7l0,0h1.4
		c0.4,0,0.7-0.3,0.7-0.7l0,0v-12.4c0-0.4-0.3-0.7-0.7-0.7l0,0H185.4z"/>
	<path class="st29" d="M124.3,233.9v140.9c0,2.4,1.4,4.4,3.9,4.4h309.9c2.4,0,4.4-1.9,4.4-4.3c0,0,0,0,0,0V233.9H124.3z"/>
	<path class="st29" d="M234.3,233.9v140.9c0,2.4,1.5,4.4,3.9,4.4h204.4V233.9H234.3z"/>
	<path class="st29" d="M121.7,224.4c-0.2-1,0.1-2,0.7-2.8c0.6-0.8,1.5-1.2,2.5-1.2h324c1.3,0,2.5,0.7,3.1,1.8
		c0.7,1.1,0.8,2.6,0.2,3.8l-3.5,8.1c-0.7,1.8-2.5,3-4.5,3H127c-1.8,0-3.4-1.4-3.7-3.2L121.7,224.4z"/>
	<path class="st29" d="M113.8,220c-1.3,0-2.5,0.5-3.4,1.5c-0.9,0.9-1.2,2.2-1.1,3.4l1.2,8c0.4,2.1,2.3,3.6,4.5,3.5h108.6l0.2-16.3
		L113.8,220z"/>
	<path class="st7" d="M306.1,57.6c0-0.4-0.4-0.7-1.1-1c0.7-0.4,1.1-0.8,1.1-1.2c-0.1-1.2-4-1.9-8.7-1.5s-8.5,1.7-8.3,2.9
		c0,0.4,0.4,0.7,1,1c-0.7,0.4-1.1,0.8-1,1.2s0.4,0.7,1,1c-0.7,0.4-1.1,0.8-1,1.2s0.4,0.7,1,1c-0.7,0.4-1.1,0.8-1,1.2
		c0,0.5,0.8,1,2.1,1.3c0,0.4,0,0.9,0,1.3c0.2,2.3,2.7,4,6.1,4s6.3-2.4,6.3-4.7c0-0.5,0-1-0.1-1.5c1.6-0.5,2.6-1.2,2.5-1.8
		c0-0.4-0.4-0.7-1.1-1c0.7-0.4,1.1-0.8,1.1-1.2s-0.4-0.7-1.1-1C305.8,58.4,306.2,58,306.1,57.6z"/>
	<path class="st1" d="M295.2,65c-1.3,0-2.5-0.1-3.7-0.3c-0.1,0-0.1-0.1-0.1-0.1c0-0.1,0.1-0.1,0.1-0.1c0,0,0,0,0,0
		c2.1,0.3,4.2,0.4,6.2,0.2c1.8-0.1,3.5-0.4,5.2-0.9c0.1,0,0.1,0,0.1,0.1c0,0,0,0,0,0c0,0.1,0,0.1-0.1,0.1c-1.7,0.5-3.5,0.8-5.3,0.9
		C296.9,65,296.1,65,295.2,65z"/>
	<path class="st1" d="M295.3,62.9c-1.5,0-3.1-0.1-4.6-0.5c-0.1,0-0.1-0.1-0.1-0.1c0-0.1,0.1-0.1,0.1-0.1c0,0,0,0,0,0
		c4.6,0.9,9.4,0.5,13.9-1.1c0.1,0,0.1,0,0.1,0c0,0,0,0,0,0c0,0,0,0.1,0,0.1c0,0,0,0,0,0c-2.2,0.9-4.5,1.4-6.9,1.5
		C296.9,62.8,296.1,62.9,295.3,62.9z"/>
	<path class="st1" d="M295.2,60.7c-1.6,0-3.3-0.1-4.8-0.6c-0.1,0-0.1-0.1-0.1-0.1c0-0.1,0.1-0.1,0.1-0.1l0,0
		c2.4,0.6,4.9,0.7,7.3,0.5c2.3-0.1,4.6-0.6,6.8-1.5c0.1,0,0.1,0,0.1,0.1c0,0,0,0,0,0c0,0.1,0,0.1,0,0.1c0,0,0,0,0,0
		c-2.2,0.9-4.5,1.4-6.9,1.5C296.9,60.7,296.1,60.7,295.2,60.7z"/>
	<path class="st7" d="M295.3,58.5c-1.4,0-2.7-0.1-4.1-0.4c-0.1,0-0.1-0.1-0.1-0.1c0-0.1,0.1-0.1,0.1-0.1c0,0,0,0,0,0
		c2.2,0.4,4.4,0.5,6.5,0.3c2.3-0.1,4.6-0.6,6.8-1.5c0.1,0,0.1,0,0.1,0c0,0,0,0,0,0c0,0.1,0,0.1-0.1,0.1c0,0,0,0,0,0
		c-2.2,0.9-4.5,1.4-6.9,1.5C296.9,58.5,296.1,58.5,295.3,58.5z"/>
	
		<linearGradient id="SVGID_27_" gradientUnits="userSpaceOnUse" x1="1015.5061" y1="-56.9296" x2="1010.2261" y2="21.3904" gradientTransform="matrix(1 0 0 -1 -714.22 16.48)">
		<stop  offset="0" style="stop-color:#F37064"/>
		<stop  offset="1" style="stop-color:#F5928F"/>
	</linearGradient>
	<path class="st30" d="M285.9,46.6c-0.6-2-1.5-3.9-2.9-5.6c-4.7-5.9-7.4-13-7.9-20.5C274.3,6.3,287-0.9,298.5,0.1s23,9.6,21.7,22.8
		c-0.8,8.2-5.3,14.4-8.7,17.9c-2.2,2.2-3.7,5-4.5,8c-1,3.7-3.5,8.3-9.2,8.6C290.2,57.8,287.1,50.9,285.9,46.6z"/>
	
		<linearGradient id="SVGID_28_" gradientUnits="userSpaceOnUse" x1="1049.8885" y1="53.4436" x2="1036.8986" y2="23.4136" gradientTransform="matrix(1 0 0 -1 -714.22 16.48)">
		<stop  offset="0" style="stop-color:#E1483D"/>
		<stop  offset="1" style="stop-color:#E9625A"/>
	</linearGradient>
	<path class="st31" d="M299.6,54.6l4-26.3c0.1-0.5,0.3-0.9,0.6-0.8s0.4,0.6,0.3,1.2l0,0l-4.6,26c0,0.2-0.1,0.3-0.2,0.3
		S299.6,54.8,299.6,54.6z"/>
	
		<linearGradient id="SVGID_29_" gradientUnits="userSpaceOnUse" x1="1042.5392" y1="56.6217" x2="1029.5492" y2="26.5917" gradientTransform="matrix(1 0 0 -1 -714.22 16.48)">
		<stop  offset="0" style="stop-color:#E1483D"/>
		<stop  offset="1" style="stop-color:#E9625A"/>
	</linearGradient>
	<path class="st32" d="M295.4,54.8l-4-26.3c-0.1-0.5-0.3-0.9-0.6-0.8s-0.4,0.6-0.3,1.2l0,0l4.6,26c0,0.2,0.1,0.3,0.2,0.3
		S295.4,55,295.4,54.8z"/>
	<path class="st33" d="M303.6,26.1c-0.1-0.2-0.3-0.2-0.5-0.1l-2.2,1l-0.8-2.2c0-0.1-0.1-0.2-0.3-0.3c-0.3-0.1-0.5,0-0.7,0.2l0,0
		l-1.8,3.4l-1.7-4.8l0,0c0-0.1-0.1-0.2-0.3-0.3c-0.3-0.2-0.6-0.1-0.8,0.2l-2.6,3.6c-0.1,0.1-0.1,0.3,0.1,0.4c0,0,0,0,0,0
		c0.2,0.1,0.4,0.1,0.5-0.1l2.3-2.5l2,4.6l0,0c0.1,0.2,0.4,0.3,0.6,0.1c0,0,0.1-0.1,0.1-0.1l2-3.2l0.7,1.6l0,0l0,0
		c0.1,0.2,0.3,0.2,0.5,0.1l2.7-1.2C303.5,26.4,303.6,26.2,303.6,26.1z"/>
	<path class="st33" d="M311.5,37.9c-0.2,0-0.4-0.1-0.6-0.2c-0.4-0.3-0.5-0.9-0.2-1.3c0,0,0,0,0,0c0.7-0.9,1.3-1.8,1.8-2.8
		c0.2-0.5,0.8-0.7,1.2-0.5c0.5,0.2,0.7,0.8,0.5,1.2c0,0.1-0.1,0.1-0.1,0.2c-0.6,1-1.3,2-2,3C312.1,37.7,311.8,37.9,311.5,37.9z"/>
	<path class="st33" d="M314.9,32.2c-0.1,0-0.3,0-0.4-0.1c-0.5-0.2-0.7-0.7-0.5-1.2c0,0,0,0,0,0c2.5-5.6,2.7-12.1,0.6-17.8
		c-0.2-0.5,0-1,0.5-1.2c0,0,0,0,0,0c0.5-0.2,1,0,1.2,0.5c2.4,6.3,2.2,13.2-0.5,19.3C315.6,32,315.2,32.2,314.9,32.2z"/>
	<path class="st34" d="M109.8,210.6c0,0,64-31.6,43.1-54.9s-60-14-62,10.5S136.4,184.9,109.8,210.6z"/>
	<path class="st1" d="M147.4,162.3h-28.3c-0.3,0-0.6-0.3-0.6-0.6c0,0,0,0,0,0c0-0.3,0.3-0.6,0.6-0.6h28.3c0.3,0,0.6,0.3,0.6,0.6
		c0,0,0,0,0,0C148,162,147.8,162.3,147.4,162.3z"/>
	<path class="st1" d="M110.8,162.3h-8.4c-0.3,0-0.6-0.3-0.6-0.6c0,0,0,0,0,0c0-0.3,0.3-0.6,0.6-0.6h8.4c0.3,0,0.6,0.3,0.6,0.6
		C111.4,162,111.1,162.3,110.8,162.3C110.8,162.3,110.8,162.3,110.8,162.3z"/>
	<path class="st1" d="M148.4,168h-10.6c-0.3,0-0.6-0.3-0.6-0.6c0,0,0,0,0,0c0-0.3,0.3-0.6,0.6-0.6h10.6c0.3,0,0.6,0.3,0.6,0.6
		C149,167.7,148.7,168,148.4,168C148.4,168,148.4,168,148.4,168z"/>
	<path class="st1" d="M122.2,168h-18.8c-0.3,0-0.6-0.3-0.6-0.6c0,0,0,0,0,0c0-0.3,0.3-0.6,0.6-0.6h18.8c0.3,0,0.6,0.3,0.6,0.6
		C122.8,167.7,122.5,168,122.2,168C122.2,168,122.2,168,122.2,168z"/>
	<path class="st1" d="M149.3,173.7h-28.2c-0.3,0-0.6-0.3-0.6-0.6c0-0.3,0.3-0.6,0.6-0.6h28.2c0.3,0,0.6,0.3,0.6,0.6
		C149.9,173.4,149.7,173.7,149.3,173.7z"/>
	<path class="st1" d="M114.1,173.7h-9.8c-0.3,0-0.6-0.3-0.6-0.6c0-0.3,0.3-0.6,0.6-0.6h9.8c0.3,0,0.6,0.3,0.6,0.6
		C114.7,173.4,114.4,173.7,114.1,173.7z"/>
	
		<linearGradient id="SVGID_30_" gradientUnits="userSpaceOnUse" x1="4427.1875" y1="-355.6478" x2="4365.9175" y2="-422.2978" gradientTransform="matrix(1 0 0 -1 -4319.21 16.48)">
		<stop  offset="0" style="stop-color:#201B59"/>
		<stop  offset="1" style="stop-color:#2D2D84"/>
	</linearGradient>
	<path class="st35" d="M88.6,377.1c0,0-0.6,3.6-0.9,7.2c-0.1,1.3,0.9,2.5,2.2,2.7c0,0,0.1,0,0.1,0c4.7,0.2,14.9,0.6,18.5,0.4
		c0.4,0,0.8-0.4,0.8-0.8c0-0.1,0-0.2-0.1-0.3l0,0c-0.2-0.4-0.5-0.8-0.9-1l-16.7-7.7L88.6,377.1z"/>
	
		<linearGradient id="SVGID_31_" gradientUnits="userSpaceOnUse" x1="4407.2998" y1="-360.5985" x2="4412.7402" y2="-360.5985" gradientTransform="matrix(1 0 0 -1 -4319.21 16.48)">
		<stop  offset="0" style="stop-color:#F5928F"/>
		<stop  offset="1" style="stop-color:#F8B2B1"/>
	</linearGradient>
	<path class="st36" d="M88.1,375l0.5,4.3c0,0,2.9,1.4,4.9-0.2l-1.2-4.8L88.1,375z"/>
	
		<linearGradient id="SVGID_32_" gradientUnits="userSpaceOnUse" x1="4432.0498" y1="-280.2994" x2="4379.9199" y2="-350.9694" gradientTransform="matrix(1 0 0 -1 -4319.21 16.48)">
		<stop  offset="0" style="stop-color:#201B59"/>
		<stop  offset="1" style="stop-color:#2D2D84"/>
	</linearGradient>
	<path class="st37" d="M88.5,294.2c-0.2,1.1-1.2,56,4.7,80.6c0.1,0.4-0.1,0.8-0.5,1c-1.5,0.6-3.1,0.9-4.8,1c-0.6,0-1.2-0.4-1.4-1
		c-1.7-5.7-9.7-34.3-10.8-61.6c-1.2-30.5,0-1,0-1l0.7-18.9L88.5,294.2z"/>
	
		<linearGradient id="SVGID_33_" gradientUnits="userSpaceOnUse" x1="4413.436" y1="-343.0064" x2="4352.166" y2="-409.6563" gradientTransform="matrix(1 0 0 -1 -4319.21 16.48)">
		<stop  offset="0" style="stop-color:#201B59"/>
		<stop  offset="1" style="stop-color:#2D2D84"/>
	</linearGradient>
	<path class="st38" d="M69.4,379c-1,2.1-1.6,4.3-2,6.6c-0.2,0.8,0.3,1.6,1.2,1.8c0.1,0,0.1,0,0.2,0c1.6,0.2,4,0.3,5.9,0.3
		c0.8,0,1.5-0.7,1.5-1.5c0,0,0-0.1,0-0.1c-0.3-2.5-1.3-5-2.9-6.9L69.4,379z"/>
	
		<linearGradient id="SVGID_34_" gradientUnits="userSpaceOnUse" x1="4387.6899" y1="-360.376" x2="4392.3901" y2="-360.376" gradientTransform="matrix(1 0 0 -1 -4319.21 16.48)">
		<stop  offset="0" style="stop-color:#F5928F"/>
		<stop  offset="1" style="stop-color:#F8B2B1"/>
	</linearGradient>
	<path class="st39" d="M68.5,373.5l1.2,6.5c1.1,0.6,2.4,0.7,3.5,0.2l-0.6-7L68.5,373.5z"/>
	
		<linearGradient id="SVGID_35_" gradientUnits="userSpaceOnUse" x1="4422.7041" y1="-273.4083" x2="4370.564" y2="-344.0783" gradientTransform="matrix(1 0 0 -1 -4319.21 16.48)">
		<stop  offset="0" style="stop-color:#201B59"/>
		<stop  offset="1" style="stop-color:#2D2D84"/>
	</linearGradient>
	<path class="st40" d="M65.3,295.9c-4.8,29,1,71.6,3,79.9c0.1,0.5,0.5,0.9,1,1c1.2,0.2,2.5,0.2,3.8-0.2c0.5-0.1,0.8-0.6,0.9-1.1
		c0.3-6.7-0.2-48.1,4.3-64.5c0.2-0.8,0.7-1.5,1.4-2l8.7-6.2l0.7-10L65.3,295.9z"/>
	
		<linearGradient id="SVGID_36_" gradientUnits="userSpaceOnUse" x1="-2538.7815" y1="-222.0903" x2="-2511.9915" y2="-366.6803" gradientTransform="matrix(-1 0 0 -1 -2445.9299 16.48)">
		<stop  offset="0" style="stop-color:#F37064"/>
		<stop  offset="1" style="stop-color:#F5928F"/>
	</linearGradient>
	<path class="st41" d="M95.8,241c-14.4-0.2-30.2,3.8-30.2,3.8c-4.3,25-0.8,53.8-0.8,53.8c11.1,2.9,23.7-1.8,23.7-1.8
		C90.4,286.4,99,257,99,257c6.2-0.7,12.1-2.6,17.6-5.6c-3-3.7-5.1-8.1-6.1-12.7C105.8,240.2,100.8,241,95.8,241z"/>
	
		<linearGradient id="SVGID_37_" gradientUnits="userSpaceOnUse" x1="-2895.137" y1="-613.98" x2="-2855.457" y2="-565.29" gradientTransform="matrix(-1 0 0 -1 -2445.9299 16.48)">
		<stop  offset="0" style="stop-color:#F5928F"/>
		<stop  offset="1" style="stop-color:#F8B2B1"/>
	</linearGradient>
	<path class="st42" d="M138.3,219.8c-0.7-1-2.1-1.3-3.2-0.9c-2.1,8.9-13.2,16.2-24.6,19.7c1,4.7,3.1,9,6.1,12.7
		C135.5,240.8,138.3,219.8,138.3,219.8z"/>
	
		<linearGradient id="SVGID_38_" gradientUnits="userSpaceOnUse" x1="-2913.9365" y1="-598.6622" x2="-2874.2563" y2="-549.9722" gradientTransform="matrix(-1 0 0 -1 -2445.9299 16.48)">
		<stop  offset="0" style="stop-color:#F5928F"/>
		<stop  offset="1" style="stop-color:#F8B2B1"/>
	</linearGradient>
	<path class="st43" d="M138,220.3c0.2,0.5-1.6,1.2-2.6-0.7c0-0.9-0.6-4.9,0-5.6c2.6-3.2,5.5-6.2,8.6-9c0.6,0.5,0.6,1.3,0.2,1.9
		l-2.8,2.9c0.7,1,1.2,2.1,1.6,3.2c0.2,1,0.1,2-0.4,2.8c-0.5,0.9-1.1,2-1.8,2.9C140.2,219.6,139.1,220.2,138,220.3z"/>
	
		<linearGradient id="SVGID_39_" gradientUnits="userSpaceOnUse" x1="853.0018" y1="-189.85" x2="853.0018" y2="-225.02" gradientTransform="matrix(1 0 0 -1 -714.22 16.48)">
		<stop  offset="0" style="stop-color:#F5928F"/>
		<stop  offset="1" style="stop-color:#F8B2B1"/>
	</linearGradient>
	<path class="st44" d="M140.2,211.5l-2.5,2.1l-0.8,2.1l2.2,2.5c0,0,0.8-4.2,1.3-5.1S140.7,211.8,140.2,211.5z"/>
	
		<linearGradient id="SVGID_40_" gradientUnits="userSpaceOnUse" x1="-2511.7437" y1="-217.0807" x2="-2484.9536" y2="-361.6707" gradientTransform="matrix(-1 0 0 -1 -2445.9299 16.48)">
		<stop  offset="0" style="stop-color:#F37064"/>
		<stop  offset="1" style="stop-color:#F5928F"/>
	</linearGradient>
	<path class="st45" d="M71.1,258.7l-5.5-13.9c0,0-13.4,9.1-15.6,20.7c4.1,0.3,8,1.4,11.7,3.1C62.6,263.2,71.1,258.7,71.1,258.7z"/>
	
		<linearGradient id="SVGID_41_" gradientUnits="userSpaceOnUse" x1="804.252" y1="-262.3969" x2="761.502" y2="-255.7269" gradientTransform="matrix(1 0 0 -1 -714.22 16.48)">
		<stop  offset="0" style="stop-color:#F5928F"/>
		<stop  offset="1" style="stop-color:#F8B2B1"/>
	</linearGradient>
	<path class="st46" d="M82.8,271c0,0-15.1,8.5-20.2,1.2c-0.9-1.3-1.3-2.9-1-4.4C58,266,54.1,265,50,264.7c-0.7,3.7-0.1,7.6,1.7,10.9
		c8.9,16.3,33.1-0.9,33.1-0.9L82.8,271z"/>
	
		<linearGradient id="SVGID_42_" gradientUnits="userSpaceOnUse" x1="4414.6885" y1="-232.9704" x2="4434.0386" y2="-313.5904" gradientTransform="matrix(1 0 0 -1 -4319.21 16.48)">
		<stop  offset="0" style="stop-color:#201B59"/>
		<stop  offset="1" style="stop-color:#2D2D84"/>
	</linearGradient>
	<path class="st47" d="M81,282.6l8.2-28.7c0.1-0.3,0.4-0.6,0.7-0.6c1.5-0.2,5.8-0.7,10.8-1.1c6-0.5,13-0.9,17.2-0.6
		c0.5,0,0.8,0.4,0.8,0.9c0,0.1,0,0.2-0.1,0.3c-2.4,4.8-12.1,24.3-17,30.7c-0.2,0.2-0.4,0.3-0.7,0.3l-19.1-0.2
		c-0.5,0-0.8-0.4-0.8-0.8C81,282.7,81,282.7,81,282.6z"/>
	<path class="st7" d="M101.6,249.7l6-1c0.2,0,0.4,0.1,0.5,0.3c0,0.1,0,0.2,0,0.2l-0.6,1.8c0,0.2-0.2,0.3-0.3,0.3l-5.7,0.8
		c-0.2,0-0.5-0.1-0.5-0.4c0-0.1,0-0.1,0-0.2l0.4-1.6C101.3,249.8,101.5,249.7,101.6,249.7z"/>
	<path class="st7" d="M97.2,254.7l0.5-2.6c0.1-0.3,0.3-0.4,0.5-0.5l12-1.2c0.3,0,0.6,0.2,0.7,0.5c0,0.1,0,0.1,0,0.2l-0.8,3.2
		c-0.1,0.3-0.3,0.4-0.5,0.5l-11.7,0.6c-0.3,0-0.6-0.2-0.6-0.5C97.1,254.9,97.1,254.8,97.2,254.7z"/>
	
		<linearGradient id="SVGID_43_" gradientUnits="userSpaceOnUse" x1="809.8625" y1="-243.3221" x2="804.4525" y2="-249.8221" gradientTransform="matrix(1 0 0 -1 -714.22 16.48)">
		<stop  offset="0" style="stop-color:#F5928F"/>
		<stop  offset="1" style="stop-color:#F8B2B1"/>
	</linearGradient>
	<path class="st48" d="M83,275.6c0,0-1.1-4.7-0.7-6.4s1.4-3.8,4.3-3.3c2.2,0.4,4.4,1,6.5,1.7c0,0.9-0.8,1.7-1.8,1.6
		c-0.2,0-0.5-0.1-0.7-0.2l1.4,1.1c0,0-0.2,1.8-2.1,0.8l1.3,1.4c-0.4,0.7-1.3,1-2.1,0.6c-0.1,0-0.1-0.1-0.2-0.1
		C87.7,272.1,87,276.2,83,275.6z"/>
	
		<linearGradient id="SVGID_44_" gradientUnits="userSpaceOnUse" x1="798.8387" y1="-209.5589" x2="796.4987" y2="-232.6389" gradientTransform="matrix(1 0 0 -1 -714.22 16.48)">
		<stop  offset="0" style="stop-color:#F5928F"/>
		<stop  offset="1" style="stop-color:#F8B2B1"/>
	</linearGradient>
	<path class="st49" d="M81.3,229.4l-4.6,13.2c-0.1,0.2,0,0.5,0.2,0.6c1.2,0.7,5.7,2.7,11.2-0.8c0.6-0.4,0.9-0.9,1-1.6l1.5-11.5H81.3
		z"/>
	
		<linearGradient id="SVGID_45_" gradientUnits="userSpaceOnUse" x1="-2802.8816" y1="-1010.4854" x2="-2816.4114" y2="-990.0955" gradientTransform="matrix(0.75 -0.67 -0.67 -0.75 1784.4601 -2340.3201)">
		<stop  offset="0" style="stop-color:#F5928F"/>
		<stop  offset="1" style="stop-color:#F8B2B1"/>
	</linearGradient>
	<path class="st50" d="M91.2,217.1c0,0,5,9.5,4.4,13.3s-6.9,3.5-12.3,0.5l-3.8-10.2L91.2,217.1z"/>
	
		<linearGradient id="SVGID_46_" gradientUnits="userSpaceOnUse" x1="-2959.1208" y1="-757.8285" x2="-2954.771" y2="-782.6385" gradientTransform="matrix(0.75 -0.67 -0.67 -0.75 1784.4601 -2340.3201)">
		<stop  offset="0" style="stop-color:#201B59"/>
		<stop  offset="1" style="stop-color:#2D2D84"/>
	</linearGradient>
	<path class="st51" d="M83.5,225.8c0.2-0.1,0.3-0.3,0.2-0.5c0,0,0,0,0-0.1c-0.6-0.9-1.1-1.9-1.4-3c0,0-0.9-0.6,2.3-1.3s8-2,9-4.7
		s-1.6-9.3-5.7-4c-0.1,0.2-0.4,0.2-0.6,0.1c0,0,0,0-0.1-0.1c-0.7-0.9-2.4-2.7-4.9-1.6c-1.5,0.5-2.6,1.9-2.5,3.6
		c0,0.2-0.2,0.4-0.4,0.4c0,0-0.1,0-0.1,0c-2.1-0.6-4.3,0.5-5.2,2.4c-1.1,2.4-0.4,3.7,0.3,4.3c0.1,0.2,0.1,0.4,0,0.6
		c0,0-0.1,0.1-0.1,0.1c-1.2,0.3-1.9,1.5-1.7,2.7c0.1,2.5,2.9,2.2,3.7,2.1c0.1,0,0.3,0,0.3,0.1c0.7,0.8,3.7,3.9,7,4.3
		c0.2,0,0.4-0.1,0.4-0.4c0-0.1,0-0.1,0-0.1l-1.4-4.1c-0.1-0.2,0-0.4,0.2-0.5L83.5,225.8z"/>
	
		<linearGradient id="SVGID_47_" gradientUnits="userSpaceOnUse" x1="-2805.8953" y1="-1012.4772" x2="-2819.4253" y2="-992.0972" gradientTransform="matrix(0.75 -0.67 -0.67 -0.75 1784.4601 -2340.3201)">
		<stop  offset="0" style="stop-color:#F5928F"/>
		<stop  offset="1" style="stop-color:#F8B2B1"/>
	</linearGradient>
	<path class="st52" d="M84.1,226.4c0,0-3.6-2.5-3.8-0.4s3.2,3,4.9,2.2L84.1,226.4z"/>
	
		<ellipse transform="matrix(0.3765 -0.9264 0.9264 0.3765 156.0823 604.652)" class="st34" cx="527.3" cy="186.4" rx="57.3" ry="57.3"/>
	<circle class="st29" cx="527.3" cy="186.3" r="48.9"/>
	
		<linearGradient id="SVGID_48_" gradientUnits="userSpaceOnUse" x1="1189.1499" y1="-169.86" x2="1293.8099" y2="-169.86" gradientTransform="matrix(1 0 0 -1 -714.22 16.48)">
		<stop  offset="0" style="stop-color:#DBE2F3"/>
		<stop  offset="1" style="stop-color:#EAEFF8"/>
	</linearGradient>
	<path class="st53" d="M527.3,238.7c-28.9,0-52.3-23.4-52.3-52.3s23.4-52.3,52.3-52.3c28.9,0,52.3,23.4,52.3,52.3c0,0,0,0,0,0
		C579.6,215.2,556.1,238.6,527.3,238.7z M527.3,140.8c-25.2,0-45.5,20.4-45.6,45.5c0,25.2,20.4,45.5,45.5,45.6
		c25.2,0,45.5-20.4,45.6-45.5c0,0,0,0,0,0C572.7,161.2,552.4,140.8,527.3,140.8z"/>
	
		<ellipse transform="matrix(0.3736 -0.9276 0.9276 0.3736 157.4167 605.745)" class="st29" cx="527.2" cy="186.3" rx="29.8" ry="29.8"/>
	
		<linearGradient id="SVGID_49_" gradientUnits="userSpaceOnUse" x1="1208.25" y1="-169.86" x2="1274.71" y2="-169.86" gradientTransform="matrix(1 0 0 -1 -714.22 16.48)">
		<stop  offset="0" style="stop-color:#DBE2F3"/>
		<stop  offset="1" style="stop-color:#EAEFF8"/>
	</linearGradient>
	<path class="st54" d="M527.3,219.6c-18.4,0-33.2-14.9-33.2-33.2s14.9-33.2,33.2-33.2c18.4,0,33.2,14.9,33.2,33.2c0,0,0,0,0,0
		C560.5,204.7,545.6,219.5,527.3,219.6z M527.3,159.9c-14.6,0-26.4,11.8-26.4,26.4s11.8,26.4,26.4,26.4c14.6,0,26.4-11.8,26.4-26.4
		C553.7,171.7,541.9,159.9,527.3,159.9L527.3,159.9z"/>
	
		<ellipse transform="matrix(0.9865 -0.1638 0.1638 0.9865 -23.3903 88.9077)" class="st29" cx="527.3" cy="186.3" rx="11.6" ry="11.6"/>
	
		<linearGradient id="SVGID_50_" gradientUnits="userSpaceOnUse" x1="1226.53" y1="-169.82" x2="1256.4399" y2="-169.82" gradientTransform="matrix(1 0 0 -1 -714.22 16.48)">
		<stop  offset="0" style="stop-color:#DBE2F3"/>
		<stop  offset="1" style="stop-color:#EAEFF8"/>
	</linearGradient>
	<path class="st55" d="M527.3,201.3c-8.3,0-15-6.7-15-15s6.7-15,15-15s15,6.7,15,15l0,0C542.3,194.6,535.5,201.3,527.3,201.3z
		 M527.3,178.2c-4.5,0-8.2,3.7-8.2,8.2c0,4.5,3.7,8.2,8.2,8.2c4.5,0,8.2-3.7,8.2-8.2C535.4,181.8,531.8,178.2,527.3,178.2z"/>
	
		<linearGradient id="SVGID_51_" gradientUnits="userSpaceOnUse" x1="-2647.8384" y1="-2464.2439" x2="-2665.3184" y2="-2535.2639" gradientTransform="matrix(-0.7071 -0.7071 -0.7071 0.7071 -3103.9209 51.6058)">
		<stop  offset="0" style="stop-color:#201B59"/>
		<stop  offset="1" style="stop-color:#2D2D84"/>
	</linearGradient>
	<polygon class="st56" points="539.8,176.7 538.3,175.2 596.8,116.6 598.3,118.2 	"/>
	
		<linearGradient id="SVGID_52_" gradientUnits="userSpaceOnUse" x1="1241.2495" y1="-163.1897" x2="1257.8735" y2="-163.1897" gradientTransform="matrix(1 0 0 -1 -714.22 16.48)">
		<stop  offset="0" style="stop-color:#F37064"/>
		<stop  offset="1" style="stop-color:#F5928F"/>
	</linearGradient>
	<path class="st57" d="M539.3,171.5c0.9-0.9,5.1,3.3,4.2,4.2L528,187.9c-0.3,0.2-0.7,0.2-0.9-0.1c-0.2-0.2-0.2-0.5,0-0.8
		L539.3,171.5z"/>
	<path class="st7" d="M598.3,118.2l7.9,0.8l-10.8,10.8c-3.5,3.5-8.5,5.3-13.5,4.8l0,0L598.3,118.2z"/>
	<path class="st7" d="M596.8,116.7l-0.8-7.9l-10.8,10.8c-3.5,3.5-5.3,8.5-4.8,13.5l0,0L596.8,116.7z"/>
	<path class="st6" d="M123.4,77.7c0,0-10.4,12.5-10,13.8s20.3,17.4,22,16s11-11.5,11-11.5C137.4,85.4,124.5,76.6,123.4,77.7z"/>
	<path class="st34" d="M134.8,120.5c-4.3,0-22.4-13-29.2-20c-3.6-3.7-3.7-5.1-3.5-5.8c1.5-4.1,18.9-30.6,25.4-31.3h0.2l0.2,0.1
		c5.4,3.9,32.3,23.6,32.5,27.4c0.2,4-21.5,28.4-25.2,29.6C135.1,120.5,134.9,120.5,134.8,120.5z M127.4,64.6
		c-5.9,1.3-22.6,26.3-24.1,30.5c0,0.1-0.2,1.1,3.2,4.6c8.3,8.4,26.2,20.4,28.4,19.6c3.8-1.3,24.5-25.5,24.3-28.4
		C159,88.7,142.7,75.8,127.4,64.6L127.4,64.6z"/>
	<path class="st34" d="M135.1,108.2c-0.2,0-0.4,0-0.7-0.1c-3.8-1.1-21.1-14.8-21.6-16.5c-0.3-1,3.1-5.9,10.1-14.3
		c0.2-0.3,0.6-0.3,0.9-0.1c0.3,0.2,0.3,0.6,0.1,0.9c-4.6,5.6-9.5,11.8-9.8,13.1c1.6,2.2,18.7,15.5,21,15.5l0,0
		c1.8-1.2,10.6-10.8,10.7-10.9c0.3-0.2,0.6-0.2,0.9,0c0.2,0.3,0.2,0.7,0,0.9c-0.4,0.4-9.2,9.9-10.8,11.2
		C135.5,108.1,135.3,108.2,135.1,108.2z"/>
	<path class="st34" d="M143.7,97.3c-4.9,0-14.2-2-15.7-2.9c-2-1.3-6.1-14.8-5.2-17l0,0c0.1-0.3,0.5-0.8,1.6-0.4
		c2.4,0.8,8.5,5.4,13,9.1c6.6,5.5,9.8,8.8,9.6,10c-0.1,0.4-0.4,0.7-0.8,0.9C145.4,97.2,144.5,97.3,143.7,97.3z M123.9,78.1
		c-0.4,2.3,3.3,14.3,4.8,15.2c2,1.2,15.5,3.5,17.1,2.5C144.8,93.2,126.8,78.6,123.9,78.1z"/>
	
		<linearGradient id="SVGID_53_" gradientUnits="userSpaceOnUse" x1="834.3019" y1="-68.8075" x2="836.5219" y2="-68.8075" gradientTransform="matrix(1 0 0 -1 -714.22 16.48)">
		<stop  offset="0" style="stop-color:#DBE2F3"/>
		<stop  offset="1" style="stop-color:#EAEFF8"/>
	</linearGradient>
	<path class="st58" d="M120.7,86.5c-0.1,0-0.3,0-0.4-0.1c-0.3-0.2-0.3-0.6-0.1-0.9c0,0,0,0,0,0l1-1.2c0.2-0.3,0.6-0.3,0.9-0.1
		c0.3,0.2,0.3,0.6,0.1,0.9l-1,1.2C121.1,86.5,120.9,86.5,120.7,86.5z"/>
	
		<linearGradient id="SVGID_54_" gradientUnits="userSpaceOnUse" x1="841.22" y1="-71.1534" x2="854.76" y2="-71.1534" gradientTransform="matrix(1 0 0 -1 -714.22 16.48)">
		<stop  offset="0" style="stop-color:#DBE2F3"/>
		<stop  offset="1" style="stop-color:#EAEFF8"/>
	</linearGradient>
	<path class="st59" d="M139.9,93.3c-0.2,0-0.4-0.1-0.5-0.2c-2.4-3-12.1-9.8-12.2-9.9c-0.3-0.2-0.4-0.5-0.3-0.8
		c0.2-0.3,0.5-0.4,0.8-0.3c0.1,0,0.1,0.1,0.1,0.1c0.4,0.3,10,7,12.4,10.1c0.2,0.3,0.1,0.7-0.1,0.9C140.2,93.2,140,93.3,139.9,93.3
		L139.9,93.3z"/>
	<path class="st6" d="M253,297.7c-0.1,0-0.2,0-0.2-0.1c-0.1-0.1-0.1-0.3,0-0.4l0.8-0.7c0.1-0.1,0.3-0.1,0.4,0c0,0,0,0,0,0
		c0.1,0.1,0.1,0.3,0,0.4l-0.8,0.7C253.2,297.7,253.1,297.7,253,297.7z"/>
	<path class="st6" d="M232.3,305.6c-0.1,0-0.3-0.1-0.3-0.2c0,0,0,0,0,0c0-0.1,0.1-0.3,0.2-0.3c0,0,0,0,0,0c0.7,0,1.4-0.1,2.1-0.1
		c0.1,0,0.3,0,0.3,0.2s0,0.3-0.2,0.3c0,0-0.1,0-0.1,0C233.7,305.5,233,305.5,232.3,305.6L232.3,305.6z M228.8,305.5L228.8,305.5
		c-0.7,0-1.5-0.1-2.2-0.2c-0.2,0-0.3-0.2-0.2-0.3c0-0.1,0.1-0.3,0.3-0.2c0,0,0,0,0,0c0.7,0.1,1.4,0.2,2.1,0.2c0.2,0,0.3,0.2,0.2,0.3
		C229,305.4,228.9,305.5,228.8,305.5L228.8,305.5z M237.9,304.9c-0.1,0-0.3-0.1-0.3-0.2c0-0.1,0.1-0.3,0.2-0.3c0,0,0,0,0,0
		c0.7-0.1,1.4-0.3,2.1-0.5c0.1,0,0.3,0,0.3,0.2c0,0.1,0,0.3-0.2,0.3C239.3,304.6,238.6,304.7,237.9,304.9L237.9,304.9z M223.2,304.6
		L223.2,304.6c-0.8-0.2-1.5-0.4-2.2-0.6c-0.1,0-0.2-0.2-0.2-0.3s0.2-0.2,0.3-0.2c0.7,0.2,1.4,0.4,2.1,0.6c0.1,0,0.2,0.2,0.2,0.3
		c0,0,0,0,0,0C223.4,304.6,223.3,304.7,223.2,304.6L223.2,304.6z M243.3,303.3c-0.1,0-0.2-0.1-0.2-0.2c-0.1-0.1,0-0.3,0.1-0.4
		c0,0,0,0,0,0l0.2-0.1c0.6-0.2,1.2-0.5,1.8-0.7c0.1-0.1,0.3,0,0.4,0.1c0,0,0,0,0,0c0.1,0.1,0,0.3-0.1,0.4c-0.6,0.3-1.2,0.5-1.8,0.8
		L243.3,303.3C243.4,303.3,243.3,303.3,243.3,303.3L243.3,303.3z M217.8,302.9c0,0-0.1,0-0.1,0c-0.7-0.3-1.3-0.6-2-0.9
		c-0.1-0.1-0.2-0.2-0.1-0.4c0,0,0,0,0,0c0.1-0.1,0.2-0.2,0.4-0.1c0,0,0,0,0,0c0.6,0.3,1.3,0.6,1.9,0.9c0.1,0.1,0.2,0.2,0.2,0.4
		C218,302.8,217.9,302.9,217.8,302.9L217.8,302.9z M248.4,300.9c-0.1,0-0.2-0.1-0.2-0.1c-0.1-0.1,0-0.3,0.1-0.4
		c0.6-0.3,1.2-0.7,1.8-1.1c0.1-0.1,0.3-0.1,0.4,0.1c0,0,0,0,0,0c0.1,0.1,0.1,0.3-0.1,0.4c0,0,0,0,0,0c-0.6,0.4-1.2,0.8-1.8,1.1
		C248.5,300.9,248.5,300.9,248.4,300.9L248.4,300.9z M212.8,300.3c0,0-0.1,0-0.1,0c-0.6-0.4-1.2-0.8-1.8-1.2
		c-0.1-0.1-0.2-0.3-0.1-0.4c0.1-0.1,0.3-0.2,0.4-0.1c0,0,0,0,0,0c0.6,0.4,1.2,0.8,1.8,1.2c0.1,0.1,0.2,0.2,0.1,0.4
		C213,300.3,212.9,300.3,212.8,300.3L212.8,300.3z M208.3,296.9c-0.1,0-0.1,0-0.2-0.1c-0.5-0.5-1.1-1-1.6-1.5
		c-0.1-0.1-0.2-0.3-0.1-0.4s0.3-0.2,0.4-0.1c0,0,0,0,0.1,0.1c0.5,0.5,1,1,1.5,1.5c0.1,0.1,0.1,0.3,0,0.4c0,0,0,0,0,0
		C208.4,296.9,208.4,296.9,208.3,296.9L208.3,296.9z M204.4,292.9c-0.1,0-0.2,0-0.2-0.1c-0.5-0.6-0.9-1.1-1.3-1.7
		c-0.1-0.1-0.1-0.3,0.1-0.4c0,0,0,0,0,0c0.1-0.1,0.3-0.1,0.4,0.1c0,0,0,0,0,0c0.4,0.6,0.8,1.2,1.3,1.7c0.1,0.1,0.1,0.3,0,0.4
		C204.5,292.8,204.5,292.9,204.4,292.9L204.4,292.9z M201.2,288.2c-0.1,0-0.2-0.1-0.2-0.1c-0.3-0.6-0.7-1.3-1-1.9
		c-0.1-0.1,0-0.3,0.1-0.4c0,0,0,0,0,0c0.1-0.1,0.3,0,0.4,0.1c0.3,0.7,0.6,1.3,1,1.9c0.1,0.1,0,0.3-0.1,0.4
		C201.3,288.2,201.2,288.2,201.2,288.2L201.2,288.2z M198.8,283.1c-0.1,0-0.2-0.1-0.3-0.2c-0.3-0.7-0.5-1.4-0.7-2.1
		c0-0.1,0-0.3,0.2-0.3s0.3,0,0.3,0.2c0.2,0.7,0.4,1.4,0.7,2C199.1,282.9,199,283,198.8,283.1C198.9,283.1,198.9,283.1,198.8,283.1
		L198.8,283.1z M197.2,277.7c-0.1,0-0.2-0.1-0.3-0.2c-0.1-0.7-0.3-1.4-0.3-2.1c0-0.2,0.1-0.3,0.2-0.3c0.1,0,0.3,0.1,0.3,0.2
		c0,0,0,0,0,0c0.1,0.7,0.2,1.4,0.3,2.1C197.6,277.5,197.5,277.6,197.2,277.7C197.3,277.7,197.3,277.7,197.2,277.7L197.2,277.7z
		 M196.6,272.1c-0.2,0-0.3-0.1-0.3-0.3c0-0.3,0-0.6,0-0.9s0-0.8,0-1.2c0-0.2,0.1-0.3,0.3-0.3l0,0c0.2,0,0.3,0.1,0.3,0.3
		c0,0.4,0,0.8,0,1.2s0,0.6,0,0.9C196.9,271.9,196.8,272,196.6,272.1L196.6,272.1z"/>
	<path class="st6" d="M197,266.4L197,266.4c-0.2,0-0.3-0.2-0.2-0.3c0-0.4,0.1-0.7,0.2-1.1c0-0.1,0.2-0.2,0.3-0.2c0,0,0,0,0,0
		c0.1,0,0.3,0.2,0.2,0.3c0,0,0,0,0,0c-0.1,0.4-0.1,0.7-0.2,1.1C197.3,266.3,197.1,266.4,197,266.4z"/>
	<path class="st6" d="M210.6,243.5c-0.1,0-0.2,0-0.2-0.1c-0.1-0.1-0.1-0.3,0.1-0.4c0.3-0.2,0.6-0.4,0.9-0.7c0.1-0.1,0.3-0.1,0.4,0.1
		c0,0,0,0,0,0c0.1,0.1,0.1,0.3-0.1,0.4c0,0,0,0,0,0c-0.3,0.2-0.6,0.4-0.9,0.7C210.7,243.5,210.6,243.5,210.6,243.5z"/>
	<path class="st6" d="M265.5,273.8L265.5,273.8c-0.1,0-0.3-0.2-0.2-0.3c0.1-0.8,0.1-1.5,0.1-2.3c0-0.1,0.1-0.3,0.3-0.3c0,0,0,0,0,0
		l0,0c0.2,0,0.3,0.1,0.3,0.3c0,0.8,0,1.5-0.1,2.3C265.7,273.6,265.6,273.8,265.5,273.8C265.5,273.8,265.5,273.8,265.5,273.8z
		 M265.4,267.8c-0.1,0-0.3-0.1-0.3-0.3c-0.1-0.7-0.2-1.5-0.3-2.2c0-0.1,0-0.3,0.2-0.3s0.3,0,0.3,0.2c0,0,0,0,0,0.1
		c0.1,0.8,0.2,1.5,0.3,2.3C265.7,267.6,265.6,267.7,265.4,267.8L265.4,267.8z M264.3,261.9c-0.1,0-0.2-0.1-0.3-0.2
		c-0.2-0.7-0.4-1.4-0.7-2.2c0-0.1,0-0.3,0.2-0.3c0.1-0.1,0.3,0,0.4,0.2c0,0,0,0,0,0c0.2,0.7,0.5,1.5,0.7,2.2c0,0.1,0,0.3-0.2,0.3
		C264.4,261.9,264.4,261.9,264.3,261.9L264.3,261.9z M262.2,256.3c-0.1,0-0.2-0.1-0.2-0.2c-0.3-0.7-0.7-1.3-1-2
		c-0.1-0.1,0-0.3,0.1-0.4c0,0,0,0,0,0c0.1-0.1,0.3,0,0.4,0.1c0,0,0,0,0,0c0.4,0.7,0.7,1.3,1,2c0.1,0.1,0,0.3-0.1,0.4
		C262.3,256.2,262.3,256.2,262.2,256.3L262.2,256.3z M259.2,251.1c-0.1,0-0.2,0-0.2-0.1c-0.4-0.6-0.9-1.2-1.4-1.8
		c-0.1-0.1-0.1-0.3,0-0.4c0.1-0.1,0.3-0.1,0.4,0c0,0,0,0,0,0c0.5,0.6,1,1.2,1.4,1.8c0.1,0.1,0.1,0.3-0.1,0.4c0,0,0,0,0,0
		C259.3,251.1,259.3,251.2,259.2,251.1L259.2,251.1z M255.4,246.6c-0.1,0-0.1,0-0.2-0.1c-0.5-0.5-1.1-1-1.7-1.5
		c-0.1-0.1-0.1-0.3,0-0.4c0.1-0.1,0.2-0.1,0.3,0c0.6,0.5,1.1,1,1.7,1.6c0.1,0.1,0.1,0.3,0,0.4C255.5,246.6,255.4,246.6,255.4,246.6
		L255.4,246.6z M250.8,242.8c-0.1,0-0.1,0-0.2,0c-0.6-0.4-1.3-0.8-1.9-1.2c-0.1-0.1-0.2-0.2-0.1-0.4c0.1-0.1,0.2-0.2,0.4-0.1
		c0.7,0.4,1.3,0.8,1.9,1.2c0.1,0.1,0.2,0.2,0.1,0.4C251,242.8,250.9,242.8,250.8,242.8L250.8,242.8z M214.7,240.8
		c-0.2,0-0.3-0.1-0.3-0.3c0-0.1,0.1-0.2,0.1-0.2c0.7-0.4,1.4-0.7,2-1c0.1-0.1,0.3,0,0.4,0.1s0,0.3-0.1,0.4
		C216.1,240.1,215.4,240.5,214.7,240.8C214.7,240.9,214.7,240.9,214.7,240.8L214.7,240.8z M245.6,239.8h-0.1
		c-0.7-0.3-1.4-0.6-2.1-0.9c-0.1-0.1-0.2-0.2-0.2-0.4c0.1-0.1,0.2-0.2,0.4-0.2c0.7,0.3,1.4,0.6,2.1,0.9c0.1,0.1,0.2,0.2,0.1,0.4
		c0,0,0,0,0,0C245.8,239.8,245.7,239.9,245.6,239.8L245.6,239.8z M220.1,238.5c-0.1,0-0.2-0.1-0.3-0.2c0-0.1,0-0.3,0.2-0.3
		c0.7-0.2,1.5-0.5,2.2-0.7c0.1,0,0.3,0,0.3,0.2s0,0.3-0.2,0.3C221.6,238,220.9,238.2,220.1,238.5L220.1,238.5z M240,237.8L240,237.8
		c-0.8-0.2-1.5-0.4-2.3-0.5c-0.2,0-0.3-0.2-0.2-0.3c0-0.2,0.2-0.3,0.3-0.2l0,0c0.7,0.2,1.5,0.3,2.2,0.5c0.1,0,0.2,0.2,0.2,0.3
		C240.2,237.8,240.1,237.8,240,237.8L240,237.8z M225.9,237.1c-0.1,0-0.3-0.1-0.3-0.2c0-0.2,0.1-0.3,0.2-0.3
		c0.8-0.1,1.5-0.2,2.3-0.3c0.2,0,0.3,0.2,0.2,0.3c0,0.1-0.1,0.2-0.2,0.2C227.4,236.9,226.6,236.9,225.9,237.1z M234.1,236.8
		L234.1,236.8c-0.7-0.1-1.5-0.1-2.2-0.1c-0.1,0-0.3-0.1-0.3-0.3c0,0,0,0,0,0c0-0.2,0.1-0.3,0.3-0.3c0.8,0,1.5,0.1,2.3,0.1
		c0.2,0,0.3,0.2,0.3,0.3c0,0,0,0,0,0C234.4,236.7,234.3,236.8,234.1,236.8C234.1,236.8,234.1,236.8,234.1,236.8L234.1,236.8z"/>
	<path class="st6" d="M264.8,278.5L264.8,278.5c-0.2,0-0.3-0.2-0.3-0.3c0.1-0.4,0.2-0.7,0.2-1.1c0-0.1,0.2-0.2,0.3-0.2
		c0.1,0,0.2,0.2,0.2,0.3l0,0c-0.1,0.4-0.1,0.7-0.2,1.1C265,278.4,264.9,278.5,264.8,278.5z"/>
	<path class="st6" d="M256,279.7c0.1-0.2,0-0.3-0.1-0.5l-3.6-3.5c0.5-2.3,0.7-4.7,0.4-7.1l3.9-3.1c0.1-0.1,0.2-0.3,0.1-0.5l-2-5.7
		c-0.1-0.2-0.2-0.3-0.4-0.3h-5c-1.3-2-2.9-3.8-4.7-5.3l0.6-5c0-0.2-0.1-0.3-0.2-0.4l-5.4-2.6c-0.2-0.1-0.3-0.1-0.5,0.1l-3.5,3.6
		c-2.3-0.5-4.7-0.7-7.1-0.4l-3.1-3.9c-0.1-0.1-0.3-0.2-0.5-0.1l-5.7,2c-0.2,0.1-0.3,0.2-0.3,0.4v5c-2,1.3-3.8,2.9-5.3,4.7l-5-0.6
		c-0.2,0-0.3,0.1-0.4,0.2l-2.6,5.4c-0.1,0.2,0,0.4,0.1,0.5l3.6,3.5c-0.5,2.3-0.7,4.7-0.4,7.1l-3.9,3.1c-0.1,0.1-0.2,0.3-0.1,0.5
		l2,5.7c0.1,0.2,0.2,0.3,0.4,0.3h5c1.3,2,2.9,3.8,4.7,5.3l-0.6,5c0,0.2,0.1,0.3,0.2,0.4l5.4,2.6c0.2,0.1,0.3,0,0.5-0.1l3.5-3.6
		c2.3,0.5,4.7,0.7,7.1,0.4l3.1,3.9c0.1,0.1,0.3,0.2,0.5,0.1l5.7-2c0.2-0.1,0.3-0.2,0.3-0.4v-5c2-1.3,3.8-2.9,5.3-4.7l5,0.6
		c0.2,0,0.3-0.1,0.4-0.2L256,279.7z"/>
	<path class="st1" d="M230.9,276.6c-3.1,0-5.6-2.5-5.6-5.6s2.5-5.6,5.6-5.6c3.1,0,5.6,2.5,5.6,5.6c0,1.9-1,3.7-2.5,4.7
		C233,276.3,232,276.6,230.9,276.6z M230.9,265.9c-2.8,0-5.1,2.3-5.1,5.1s2.3,5.1,5.1,5.1c2.8,0,5.1-2.3,5.1-5.1c0-1-0.3-2-0.8-2.8
		c-0.7-1.1-1.9-1.9-3.2-2.2C231.5,265.9,231.2,265.9,230.9,265.9L230.9,265.9z"/>
	<path class="st1" d="M230.8,285.7c-6.3,0-11.9-4-14-10c-0.6-1.6-0.8-3.2-0.8-4.9c0-8.2,6.6-14.9,14.8-14.9c6.3,0,12,4,14.1,10l0,0
		c0.3,0.9,0.5,1.8,0.7,2.8c0,0.1,0,0.2,0,0.3l0,0c0,0.2-0.2,0.3-0.3,0.2c-0.1,0-0.2-0.1-0.2-0.2c-0.1-1-0.4-2-0.7-3
		c-2.6-7.5-10.8-11.4-18.2-8.8c-7.5,2.6-11.4,10.8-8.8,18.2s10.8,11.4,18.2,8.8c2.4-0.9,4.6-2.3,6.3-4.3c0.1-0.1,0.3-0.1,0.4,0
		c0.1,0.1,0.1,0.1,0.1,0.2c0,0.1,0,0.1-0.1,0.2C239.4,283.7,235.2,285.7,230.8,285.7z"/>
	<path class="st6" d="M199.2,246l-2.2-1.8c0.2-1.3,0.2-2.7-0.1-4l2.1-1.9c0.1-0.1,0.1-0.2,0.1-0.3l-1.4-3.1c0-0.1-0.1-0.1-0.2-0.1
		l-2.8,0.2c-0.8-1.1-1.8-2-2.9-2.8l0.1-2.8c0-0.1,0-0.2-0.1-0.2l-3.2-1.2c-0.1,0-0.2,0-0.3,0.1l-1.8,2.2c-1.3-0.2-2.7-0.2-4,0.1
		l-1.9-2.1c-0.1-0.1-0.2-0.1-0.3-0.1l-3.1,1.4c-0.1,0-0.1,0.1-0.1,0.2l0.2,2.8c-1.1,0.8-2,1.8-2.8,2.9l-2.8-0.1
		c-0.1,0-0.2,0.1-0.2,0.1l-1.2,3.2c0,0.1,0,0.2,0.1,0.3l2.2,1.8c-0.2,1.3-0.2,2.7,0.1,4l-2.1,1.9c-0.1,0.1-0.1,0.2-0.1,0.3l1.4,3.1
		c0,0.1,0.1,0.1,0.2,0.1l2.8-0.2c0.8,1.1,1.8,2,2.9,2.8l-0.1,2.8c0,0.1,0.1,0.2,0.2,0.2l3.2,1.2c0.1,0,0.2,0,0.3-0.1l1.8-2.2
		c1.3,0.2,2.7,0.2,4-0.1l1.9,2.1c0.1,0.1,0.2,0.1,0.3,0.1l3.1-1.4c0.1,0,0.1-0.1,0.1-0.2l-0.2-2.8c1.1-0.8,2-1.8,2.8-2.9l2.8,0.1
		c0.1,0,0.2-0.1,0.2-0.2l1.2-3.2C199.3,246.1,199.3,246,199.2,246z"/>
	<path class="st1" d="M184.8,245.7c-1.8,0-3.3-1.4-3.3-3.3c0-1.8,1.4-3.3,3.3-3.3c1.8,0,3.3,1.4,3.3,3.3c0,1-0.5,2-1.3,2.6
		C186.2,245.5,185.5,245.7,184.8,245.7z M184.8,239.7c-0.6,0-1.2,0.2-1.7,0.6c-1.2,0.9-1.6,2.6-0.7,3.8c0.9,1.2,2.6,1.6,3.8,0.7
		c0.1-0.1,0.2-0.1,0.2-0.2c0.6-0.5,0.9-1.1,1-1.8c0.2-1.5-0.9-2.8-2.4-3L184.8,239.7z"/>
	<path class="st6" d="M199.6,253.2c-0.1,0-0.1,0-0.2,0c-0.1-0.1-0.2-0.3-0.1-0.4c0,0,0,0,0,0c0.2-0.3,0.4-0.6,0.6-0.9
		c0.1-0.1,0.3-0.1,0.4,0c0.1,0.1,0.1,0.2,0.1,0.3c-0.2,0.3-0.4,0.6-0.6,0.9C199.8,253.1,199.7,253.2,199.6,253.2z"/>
	<path class="st6" d="M185.4,260.8c-0.1,0-0.3-0.1-0.3-0.2c0,0,0,0,0,0c0-0.1,0.1-0.3,0.2-0.3c0,0,0,0,0,0c0.7,0,1.4-0.1,2.1-0.2
		c0.1,0,0.3,0.1,0.3,0.2c0,0,0,0,0,0c0,0.2-0.1,0.3-0.2,0.3C186.9,260.7,186.1,260.8,185.4,260.8L185.4,260.8z M182,260.6L182,260.6
		c-0.8-0.1-1.5-0.3-2.1-0.5c-0.1,0-0.2-0.2-0.2-0.3c0-0.1,0.2-0.2,0.3-0.2c0.7,0.2,1.3,0.3,2,0.4c0.2,0,0.3,0.2,0.2,0.3
		C182.2,260.5,182.1,260.6,182,260.6L182,260.6z M190.9,259.8c-0.2,0-0.3-0.1-0.3-0.3c0-0.1,0.1-0.2,0.2-0.2
		c0.7-0.2,1.3-0.5,1.9-0.8c0.1-0.1,0.3,0,0.4,0.1c0.1,0.1,0,0.3-0.1,0.4C192.3,259.3,191.6,259.5,190.9,259.8L190.9,259.8z
		 M176.7,258.9h-0.1c-0.6-0.3-1.3-0.7-1.9-1.1c-0.1-0.1-0.2-0.2-0.1-0.4c0,0,0,0,0,0c0.1-0.1,0.3-0.2,0.4-0.1c0,0,0,0,0,0
		c0.6,0.4,1.2,0.7,1.8,1c0.1,0.1,0.2,0.2,0.1,0.4c0,0,0,0,0,0C176.9,258.9,176.8,258.9,176.7,258.9L176.7,258.9z M195.8,257.2
		c-0.1,0-0.2,0-0.2-0.1c-0.1-0.1-0.1-0.3,0-0.4l0.2-0.2c0.5-0.4,1-0.8,1.4-1.2c0.1-0.1,0.3-0.1,0.4,0c0,0,0,0,0,0
		c0.1,0.1,0.1,0.3,0,0.4c0,0,0,0,0,0c-0.5,0.4-0.9,0.8-1.4,1.2l-0.2,0.2C195.9,257.1,195.8,257.2,195.8,257.2z M172.2,255.7
		c-0.1,0-0.1,0-0.2-0.1c-0.5-0.5-1-1-1.5-1.6c-0.1-0.1-0.1-0.3,0-0.4c0.1-0.1,0.3-0.1,0.4,0c0,0,0,0,0,0c0.4,0.5,0.9,1.1,1.4,1.5
		c0.1,0.1,0.1,0.3,0,0.4C172.3,255.7,172.2,255.7,172.2,255.7L172.2,255.7z M168.9,251.3c-0.1,0-0.2-0.1-0.2-0.1
		c-0.3-0.6-0.6-1.3-0.9-2c-0.1-0.1,0-0.3,0.1-0.4c0,0,0,0,0,0c0.1,0,0.3,0,0.4,0.2c0.3,0.6,0.5,1.3,0.9,1.9c0.1,0.1,0,0.3-0.1,0.4
		C169,251.3,168.9,251.3,168.9,251.3L168.9,251.3z"/>
	<path class="st6" d="M167,246.1c-0.1,0-0.2-0.1-0.3-0.2c-0.1-0.4-0.1-0.7-0.2-1.1c0-0.2,0.1-0.3,0.2-0.3c0.1,0,0.3,0.1,0.3,0.2
		c0,0,0,0,0,0c0,0.4,0.1,0.7,0.2,1.1C167.3,245.9,167.2,246,167,246.1C167,246.1,167,246.1,167,246.1L167,246.1z"/>
	<path class="st6" d="M170.2,231.9c-0.1,0-0.1,0-0.2,0c-0.1-0.1-0.2-0.3-0.1-0.4c0.2-0.3,0.5-0.6,0.7-0.9c0.1-0.1,0.3-0.1,0.4,0
		c0,0,0,0,0,0c0.1,0.1,0.1,0.3,0,0.4c-0.2,0.3-0.5,0.6-0.7,0.9C170.4,231.9,170.3,231.9,170.2,231.9z"/>
	<path class="st6" d="M202,236.9c-0.1,0-0.2-0.1-0.3-0.2c-0.2-0.7-0.5-1.3-0.8-1.9c-0.1-0.1,0-0.3,0.1-0.4c0.1-0.1,0.3,0,0.4,0.1
		c0.3,0.6,0.6,1.3,0.8,2C202.3,236.7,202.2,236.9,202,236.9L202,236.9z M199.5,232c-0.1,0-0.2,0-0.2-0.1l-0.4-0.5
		c-0.3-0.4-0.6-0.8-1-1.1c-0.1-0.1-0.1-0.3,0-0.4c0.1-0.1,0.3-0.1,0.4,0c0,0,0,0,0,0c0.3,0.4,0.7,0.8,1,1.2c0.1,0.2,0.2,0.3,0.4,0.5
		c0.1,0.1,0.1,0.3-0.1,0.4C199.5,232,199.5,232,199.5,232z M173.3,228.7c-0.1,0-0.2,0-0.2-0.1c-0.1-0.1-0.1-0.3,0-0.4l0.3-0.2
		c0.5-0.3,0.9-0.7,1.4-1c0.1-0.1,0.3,0,0.4,0.1c0.1,0.1,0,0.3-0.1,0.3c-0.5,0.3-0.9,0.6-1.4,1l-0.3,0.2
		C173.4,228.7,173.4,228.7,173.3,228.7z M195.6,228.2c-0.1,0-0.1,0-0.2,0c-0.5-0.4-1.1-0.8-1.7-1.2c-0.1-0.1-0.2-0.2-0.1-0.4
		c0.1-0.1,0.2-0.2,0.4-0.1c0.6,0.4,1.2,0.7,1.8,1.2c0.1,0.1,0.2,0.3,0.1,0.4C195.8,228.1,195.7,228.2,195.6,228.2z M178,225.9
		c-0.2,0-0.3-0.1-0.3-0.3c0-0.1,0.1-0.2,0.2-0.2c0.7-0.3,1.3-0.5,2-0.7c0.1,0,0.3,0.1,0.3,0.2c0,0.1,0,0.3-0.2,0.3
		C179.4,225.4,178.8,225.6,178,225.9L178,225.9z M190.8,225.6L190.8,225.6c-0.8-0.2-1.4-0.4-2.1-0.6c-0.1,0-0.2-0.2-0.2-0.3
		c0-0.1,0.2-0.2,0.3-0.2c0.7,0.2,1.3,0.4,2,0.6c0.1,0.1,0.2,0.2,0.2,0.3C191,225.5,190.9,225.6,190.8,225.6L190.8,225.6z
		 M183.4,224.6c-0.1,0-0.3-0.1-0.3-0.2c0-0.2,0.1-0.3,0.3-0.3c0,0,0,0,0,0c0.5,0,1-0.1,1.5-0.1h0.7c0.2,0,0.3,0.1,0.3,0.3
		c0,0.2-0.1,0.3-0.3,0.3c-0.2,0-0.4,0-0.6,0C184.3,224.6,183.9,224.6,183.4,224.6L183.4,224.6z"/>
	<path class="st6" d="M202.9,241.3c-0.1,0-0.3-0.1-0.3-0.2c0-0.4-0.1-0.7-0.1-1.1c0-0.2,0.1-0.3,0.3-0.3c0.1,0,0.2,0.1,0.3,0.2
		c0,0.4,0.1,0.8,0.1,1.1C203.2,241.1,203.1,241.3,202.9,241.3C202.9,241.3,202.9,241.3,202.9,241.3L202.9,241.3z"/>
	<path class="st1" d="M184.8,250.9c-4.7,0-8.4-3.8-8.5-8.4c0-4.7,3.8-8.4,8.4-8.5c3.3,0,6.4,2,7.7,5c0.1,0.2,0.2,0.4,0.2,0.6
		c0.1,0.3,0.2,0.7,0.3,1v0.1c0,0,0,0,0,0.1c0,0.1-0.1,0.2-0.2,0.3c-0.1,0-0.3-0.1-0.3-0.2c0,0,0,0,0,0c-0.1-0.5-0.3-1.1-0.5-1.6l0,0
		c-1.4-3.2-4.8-5.1-8.3-4.6c-0.7,0.1-1.4,0.3-2,0.5h-0.1h-0.1c-4,1.8-5.8,6.4-4,10.4c1.8,4,6.4,5.8,10.4,4c1.3-0.6,2.4-1.5,3.2-2.7
		c0.1-0.1,0.3-0.1,0.4-0.1c0,0,0,0,0,0c0.1,0.1,0.1,0.1,0.1,0.2c0,0.1,0,0.1,0,0.2c-0.9,1.2-2.1,2.2-3.5,2.8
		C187.1,250.6,185.9,250.8,184.8,250.9z"/>
	<path class="st1" d="M535.7,334.3l-79.8-0.4c-2.3,0-4.2,1.9-4.2,4.2c0,0.8,0.2,1.5,0.6,2.2l0.4,0.7c0.8,1.2,2.1,2,3.6,2h79.3
		c2.3,0,4.2-1.9,4.2-4.2c0,0,0,0,0,0v-0.2C539.8,336.2,538,334.3,535.7,334.3z"/>
	<path class="st1" d="M546.8,338.6v0.1c0,2.3,1.9,4.2,4.2,4.2c0,0,0,0,0,0h17.7c1.9,0,3.5-1.3,4-3.1l0,0c0.6-2.2-0.7-4.5-2.9-5.1
		c-0.3-0.1-0.7-0.1-1.1-0.1l-17.7-0.1C548.7,334.4,546.8,336.3,546.8,338.6z"/>
	<path class="st1" d="M516.5,349.3l-60.6-0.5c-2.3,0-4.2,1.9-4.2,4.2c0,0.8,0.2,1.5,0.6,2.2l0.4,0.7c0.8,1.2,2.1,2,3.6,2h60.2
		c2.3,0,4.2-1.9,4.2-4.2v-0.2C520.6,351.2,518.8,349.3,516.5,349.3z"/>
	<path class="st1" d="M527.6,353.6v0.1c0,2.3,1.9,4.2,4.2,4.2h17.7c1.9,0,3.5-1.3,4-3.1l0,0c0.6-2.2-0.7-4.5-3-5.1
		c-0.3-0.1-0.7-0.1-1-0.1l-17.7-0.1C529.5,349.4,527.6,351.3,527.6,353.6z"/>
	<path class="st1" d="M84,75.5L4.2,75C1.9,75,0,76.9,0,79.2c0,0.8,0.2,1.5,0.6,2.2L1,82.1c0.8,1.2,2.1,2,3.6,2H84
		c2.3,0,4.2-1.9,4.2-4.2v-0.2C88.1,77.4,86.3,75.5,84,75.5z"/>
	<path class="st1" d="M95.1,79.7v0.1c0,2.3,1.9,4.2,4.2,4.2H117c1.9,0,3.5-1.3,4-3.1l0,0c0.6-2.2-0.7-4.5-3-5.1
		c-0.3-0.1-0.7-0.1-1-0.1l-17.7-0.1C97,75.5,95.1,77.4,95.1,79.7z"/>
	<path class="st1" d="M64.8,90.5L4.2,90C1.9,90,0,91.9,0,94.2c0,0.8,0.2,1.5,0.6,2.2L1,97c0.8,1.2,2.1,2,3.6,2h60.2
		c2.3,0,4.2-1.9,4.2-4.2v-0.2C68.9,92.3,67.1,90.5,64.8,90.5z"/>
	<path class="st1" d="M75.9,94.7v0.1c0,2.3,1.9,4.2,4.2,4.2h17.7c1.9,0,3.6-1.3,4-3.1l0,0c0.6-2.2-0.7-4.5-3-5.1
		c-0.3-0.1-0.7-0.1-1-0.1l-17.7-0.1C77.8,90.6,75.9,92.4,75.9,94.7z"/>
	<path class="st6" d="M78.6,177.1c-0.7,0-1.2-0.6-1.2-1.2V174c0-0.7,0.6-1.2,1.2-1.2c0.7,0,1.2,0.6,1.2,1.2v1.8
		C79.8,176.5,79.2,177.1,78.6,177.1z M78.6,170.9c-0.7,0-1.2-0.6-1.2-1.2v-1.8c0-0.7,0.6-1.2,1.2-1.2c0.7,0,1.2,0.6,1.2,1.2
		c0,0,0,0,0,0v1.8C79.8,170.3,79.2,170.9,78.6,170.9z M78.6,164.7c-0.7,0-1.2-0.5-1.2-1.2v-1.9c0-0.7,0.6-1.2,1.2-1.2
		c0.7,0,1.2,0.6,1.2,1.2v1.8C79.8,164.2,79.2,164.7,78.6,164.7z M78.6,158.5c-0.7,0-1.2-0.5-1.2-1.2v-1.8c0-0.7,0.6-1.2,1.2-1.2
		c0.7,0,1.2,0.6,1.2,1.2v1.9C79.8,158,79.2,158.5,78.6,158.5z M78.6,152.4c-0.7,0-1.2-0.5-1.2-1.2v-1.9c0-0.7,0.6-1.2,1.2-1.2
		c0.7,0,1.2,0.6,1.2,1.2v1.9C79.8,151.8,79.2,152.4,78.6,152.4z M78.6,146.2c-0.7,0-1.2-0.5-1.2-1.2v-1.9c0-0.7,0.6-1.2,1.2-1.2
		c0.7,0,1.2,0.6,1.2,1.2v1.9C79.8,145.6,79.2,146.2,78.6,146.2z M78.6,140c-0.7,0-1.2-0.5-1.2-1.2v-1.9c0-0.7,0.6-1.2,1.2-1.2
		c0.7,0,1.2,0.6,1.2,1.2v1.9C79.8,139.5,79.2,140,78.6,140z M78.6,133.8c-0.7,0-1.2-0.5-1.2-1.2v-1.9c0-0.7,0.6-1.2,1.2-1.2
		c0.7,0,1.2,0.6,1.2,1.2v1.9C79.8,133.3,79.2,133.8,78.6,133.8L78.6,133.8z M78.6,127.6c-0.7,0-1.2-0.5-1.2-1.2v-1.9
		c0-0.7,0.6-1.2,1.2-1.2c0.7,0,1.2,0.6,1.2,1.2c0,0,0,0,0,0v1.9C79.8,127.1,79.2,127.6,78.6,127.6L78.6,127.6z M78.6,121.5
		c-0.7,0-1.2-0.6-1.2-1.2v-1.9c0-0.7,0.6-1.2,1.2-1.2c0.7,0,1.2,0.6,1.2,1.2v1.9C79.8,120.9,79.2,121.5,78.6,121.5L78.6,121.5z
		 M78.6,115.3c-0.7,0-1.2-0.6-1.2-1.2v-1.9c0-0.7,0.6-1.2,1.2-1.2c0.7,0,1.2,0.6,1.2,1.2v1.9C79.8,114.7,79.2,115.3,78.6,115.3
		L78.6,115.3z M78.6,109.1c-0.7,0-1.2-0.6-1.2-1.2V106c0-0.7,0.6-1.2,1.2-1.2c0.7,0,1.2,0.6,1.2,1.2c0,0,0,0,0,0v1.9
		C79.8,108.6,79.2,109.1,78.6,109.1L78.6,109.1z M78.6,102.9c-0.7,0-1.2-0.6-1.2-1.2v-1.9c0-0.7,0.6-1.2,1.2-1.2
		c0.7,0,1.2,0.6,1.2,1.2v1.9C79.8,102.4,79.2,102.9,78.6,102.9L78.6,102.9z M78.6,96.8c-0.7,0-1.2-0.6-1.2-1.2v-1.9
		c0-0.7,0.6-1.2,1.2-1.2c0.7,0,1.2,0.6,1.2,1.2v1.8C79.8,96.2,79.3,96.7,78.6,96.8C78.6,96.7,78.6,96.7,78.6,96.8L78.6,96.8z
		 M78.6,90.6c-0.7,0-1.2-0.6-1.2-1.2v-1.9c0-0.7,0.6-1.2,1.2-1.2c0.7,0,1.2,0.6,1.2,1.2v1.9C79.8,90,79.2,90.6,78.6,90.6L78.6,90.6z
		 M78.6,84.4c-0.7,0-1.2-0.6-1.2-1.2v-1.9c0-0.7,0.6-1.2,1.2-1.2c0.7,0,1.2,0.6,1.2,1.2c0,0,0,0,0,0v1.9
		C79.8,83.8,79.2,84.4,78.6,84.4L78.6,84.4z M78.6,78.2c-0.7,0-1.2-0.6-1.2-1.2v-1.9c0-0.7,0.6-1.2,1.2-1.2c0.7,0,1.2,0.6,1.2,1.2
		c0,0,0,0,0,0V77C79.8,77.7,79.2,78.2,78.6,78.2L78.6,78.2z M78.6,72c-0.7,0-1.2-0.6-1.2-1.2v-1.9c0-0.7,0.6-1.2,1.2-1.2
		c0.7,0,1.2,0.6,1.2,1.2v1.9C79.8,71.5,79.2,72,78.6,72L78.6,72z M78.6,65.9c-0.7,0-1.2-0.5-1.2-1.2v-1.9c0-0.7,0.6-1.2,1.2-1.2
		c0.7,0,1.2,0.6,1.2,1.2v1.9C79.8,65.3,79.2,65.9,78.6,65.9L78.6,65.9z M78.6,59.7c-0.7,0-1.2-0.5-1.2-1.2v-1.9
		c0-0.7,0.6-1.2,1.2-1.2c0.7,0,1.2,0.6,1.2,1.2v1.9C79.8,59.1,79.2,59.7,78.6,59.7L78.6,59.7z M78.6,53.5c-0.7,0-1.2-0.5-1.2-1.2
		v-1.9c0-0.7,0.6-1.2,1.2-1.2c0.7,0,1.2,0.6,1.2,1.2v1.9C79.8,52.9,79.2,53.5,78.6,53.5L78.6,53.5z M78.6,47.3
		c-0.7,0-1.2-0.5-1.2-1.2v-1.9c0-0.7,0.6-1.2,1.2-1.2c0.7,0,1.2,0.6,1.2,1.2v1.9C79.8,46.8,79.2,47.3,78.6,47.3L78.6,47.3z
		 M78.6,41.1c-0.7,0-1.2-0.5-1.2-1.2v-2.4h1.9c0.7,0,1.2,0.5,1.2,1.2c0,0.4-0.2,0.9-0.6,1.1V40C79.8,40.6,79.2,41.1,78.6,41.1
		L78.6,41.1z M270.8,39.9h-1.9c-0.7-0.1-1.2-0.7-1.1-1.3c0.1-0.6,0.5-1.1,1.1-1.1h1.9c0.7,0.1,1.2,0.7,1.1,1.3
		C271.9,39.4,271.4,39.8,270.8,39.9z M264.6,39.9h-1.8c-0.7,0.1-1.3-0.4-1.3-1.1c-0.1-0.7,0.4-1.3,1.1-1.3c0.1,0,0.1,0,0.2,0h1.8
		c0.7-0.1,1.3,0.4,1.3,1.1c0.1,0.7-0.4,1.3-1.1,1.3C264.7,39.9,264.7,39.9,264.6,39.9z M258.4,39.9h-1.8c-0.7,0.1-1.3-0.4-1.3-1.1
		c-0.1-0.7,0.4-1.3,1.1-1.3c0.1,0,0.1,0,0.2,0h1.8c0.7-0.1,1.3,0.4,1.3,1.1c0.1,0.7-0.4,1.3-1.1,1.3
		C258.6,39.9,258.5,39.9,258.4,39.9z M252.2,39.9h-1.8c-0.7,0.1-1.3-0.4-1.3-1.1c-0.1-0.7,0.4-1.3,1.1-1.3c0.1,0,0.1,0,0.2,0h1.8
		c0.7-0.1,1.3,0.4,1.3,1.1c0.1,0.7-0.4,1.3-1.1,1.3C252.4,39.9,252.3,39.9,252.2,39.9z M246.1,39.9h-1.8c-0.7,0.1-1.3-0.4-1.3-1.1
		c-0.1-0.7,0.4-1.3,1.1-1.3c0.1,0,0.1,0,0.2,0h1.8c0.7-0.1,1.3,0.4,1.3,1.1c0.1,0.7-0.4,1.3-1.1,1.3
		C246.2,39.9,246.1,39.9,246.1,39.9z M239.9,39.9H238c-0.7,0.1-1.3-0.4-1.3-1.1c-0.1-0.7,0.4-1.3,1.1-1.3c0.1,0,0.1,0,0.2,0h1.8
		c0.7-0.1,1.3,0.4,1.3,1.1c0.1,0.7-0.4,1.3-1.1,1.3C240,39.9,239.9,39.9,239.9,39.9L239.9,39.9z M233.7,39.9h-1.9
		c-0.7,0.1-1.3-0.4-1.3-1.1c-0.1-0.7,0.4-1.3,1.1-1.3c0.1,0,0.1,0,0.2,0h1.8c0.7-0.1,1.3,0.4,1.3,1.1c0.1,0.7-0.4,1.3-1.1,1.3
		C233.8,39.9,233.7,39.9,233.7,39.9L233.7,39.9z M227.5,39.9h-1.8c-0.7,0.1-1.3-0.4-1.3-1.1c-0.1-0.7,0.4-1.3,1.1-1.3
		c0.1,0,0.1,0,0.2,0h1.8c0.7-0.1,1.3,0.4,1.3,1.1c0.1,0.7-0.4,1.3-1.1,1.3C227.7,39.9,227.6,39.9,227.5,39.9z M221.3,39.9h-1.8
		c-0.7,0.1-1.3-0.4-1.3-1.1c-0.1-0.7,0.4-1.3,1.1-1.3c0.1,0,0.1,0,0.2,0h1.8c0.7-0.1,1.3,0.4,1.3,1.1c0.1,0.7-0.4,1.3-1.1,1.3
		C221.5,39.9,221.4,39.9,221.3,39.9z M215.2,39.9h-1.8c-0.7,0.1-1.3-0.4-1.3-1.1c-0.1-0.7,0.4-1.3,1.1-1.3c0.1,0,0.1,0,0.2,0h1.8
		c0.7-0.1,1.3,0.4,1.3,1.1c0.1,0.7-0.4,1.3-1.1,1.3C215.3,39.9,215.2,39.9,215.2,39.9z M209,39.9h-1.9c-0.7-0.1-1.2-0.7-1.1-1.3
		c0.1-0.6,0.5-1.1,1.1-1.1h1.8c0.7-0.1,1.3,0.4,1.3,1.1c0.1,0.7-0.4,1.3-1.1,1.3C209.1,39.9,209,39.9,209,39.9L209,39.9z
		 M202.8,39.9H201c-0.7-0.1-1.2-0.7-1.1-1.3c0.1-0.6,0.5-1.1,1.1-1.1h1.8c0.7,0.1,1.2,0.7,1.1,1.3C203.9,39.4,203.4,39.8,202.8,39.9
		L202.8,39.9z M196.6,39.9h-1.9c-0.7-0.1-1.2-0.7-1.1-1.3c0.1-0.6,0.5-1.1,1.1-1.1h1.9c0.7,0.1,1.2,0.7,1.1,1.3
		C197.7,39.4,197.2,39.8,196.6,39.9z M190.5,39.9h-1.9c-0.7-0.1-1.2-0.7-1.1-1.3c0.1-0.6,0.5-1.1,1.1-1.1h1.9
		c0.7,0.1,1.2,0.7,1.1,1.3C191.5,39.4,191,39.8,190.5,39.9z M184.3,39.9h-1.9c-0.7-0.1-1.2-0.7-1.1-1.3c0.1-0.6,0.5-1.1,1.1-1.1h1.9
		c0.7,0.1,1.2,0.7,1.1,1.3C185.3,39.4,184.9,39.8,184.3,39.9z M178.1,39.9h-1.9c-0.7-0.1-1.2-0.7-1.1-1.3c0.1-0.6,0.5-1.1,1.1-1.1
		h1.9c0.7,0.1,1.2,0.7,1.1,1.3C179.1,39.4,178.6,39.8,178.1,39.9L178.1,39.9z M171.9,39.9h-1.9c-0.7-0.1-1.2-0.7-1.1-1.3
		c0.1-0.6,0.5-1.1,1.1-1.1h1.9c0.7,0.1,1.2,0.7,1.1,1.3C173,39.4,172.5,39.8,171.9,39.9z M165.7,39.9h-1.8c-0.7,0.1-1.3-0.4-1.3-1.1
		c-0.1-0.7,0.4-1.3,1.1-1.3c0.1,0,0.1,0,0.2,0h1.8c0.7-0.1,1.3,0.4,1.3,1.1c0.1,0.7-0.4,1.3-1.1,1.3
		C165.9,39.9,165.8,39.9,165.7,39.9z M159.6,39.9h-1.8c-0.7,0.1-1.3-0.4-1.3-1.1c-0.1-0.7,0.4-1.3,1.1-1.3c0.1,0,0.1,0,0.2,0h1.8
		c0.7-0.1,1.3,0.4,1.3,1.1c0.1,0.7-0.4,1.3-1.1,1.3C159.7,39.9,159.6,39.9,159.6,39.9z M153.4,39.9h-1.8c-0.7,0.1-1.3-0.4-1.3-1.1
		c-0.1-0.7,0.4-1.3,1.1-1.3c0.1,0,0.1,0,0.2,0h1.8c0.7-0.1,1.3,0.4,1.3,1.1c0.1,0.7-0.4,1.3-1.1,1.3
		C153.5,39.9,153.4,39.9,153.4,39.9z M147.2,39.9h-1.8c-0.7,0.1-1.3-0.4-1.3-1.1c-0.1-0.7,0.4-1.3,1.1-1.3c0.1,0,0.1,0,0.2,0h1.8
		c0.7-0.1,1.3,0.4,1.3,1.1c0.1,0.7-0.4,1.3-1.1,1.3C147.3,39.9,147.3,39.9,147.2,39.9z M141,39.9h-1.8c-0.7,0.1-1.3-0.4-1.3-1.1
		c-0.1-0.7,0.4-1.3,1.1-1.3c0.1,0,0.1,0,0.2,0h1.8c0.7-0.1,1.3,0.4,1.3,1.1c0.1,0.7-0.4,1.3-1.1,1.3C141.2,39.9,141.1,39.9,141,39.9
		z M134.8,39.9H133c-0.7,0.1-1.3-0.4-1.3-1.1c-0.1-0.7,0.4-1.3,1.1-1.3c0.1,0,0.1,0,0.2,0h1.8c0.7-0.1,1.3,0.4,1.3,1.1
		c0.1,0.7-0.4,1.3-1.1,1.3C134.9,39.9,134.9,39.9,134.8,39.9L134.8,39.9z M128.7,39.9h-1.9c-0.7,0.1-1.3-0.4-1.3-1.1
		c-0.1-0.7,0.4-1.3,1.1-1.3c0.1,0,0.1,0,0.2,0h1.8c0.7-0.1,1.3,0.4,1.3,1.1c0.1,0.7-0.4,1.3-1.1,1.3
		C128.8,39.9,128.7,39.9,128.7,39.9L128.7,39.9z M122.5,39.9h-1.8c-0.7,0.1-1.3-0.4-1.3-1.1c-0.1-0.7,0.4-1.3,1.1-1.3
		c0.1,0,0.1,0,0.2,0h1.8c0.7-0.1,1.3,0.4,1.3,1.1c0.1,0.7-0.4,1.3-1.1,1.3C122.6,39.9,122.5,39.9,122.5,39.9z M116.3,39.9h-1.8
		c-0.7,0.1-1.3-0.4-1.3-1.1c-0.1-0.7,0.4-1.3,1.1-1.3c0.1,0,0.1,0,0.2,0h1.8c0.7-0.1,1.3,0.4,1.3,1.1c0.1,0.7-0.4,1.3-1.1,1.3
		C116.4,39.9,116.4,39.9,116.3,39.9z M110.1,39.9h-1.8c-0.7-0.1-1.2-0.7-1.1-1.3c0.1-0.6,0.5-1.1,1.1-1.1h1.8
		c0.7-0.1,1.3,0.4,1.3,1.1c0.1,0.7-0.4,1.3-1.1,1.3C110.3,39.9,110.2,39.9,110.1,39.9z M103.9,39.9h-1.9c-0.7-0.1-1.2-0.7-1.1-1.3
		c0.1-0.6,0.5-1.1,1.1-1.1h1.9c0.7,0.1,1.2,0.7,1.1,1.3C105,39.4,104.5,39.8,103.9,39.9z M97.8,39.9h-1.9c-0.7-0.1-1.2-0.7-1.1-1.3
		c0.1-0.6,0.5-1.1,1.1-1.1h1.9c0.7,0.1,1.2,0.7,1.1,1.3C98.8,39.4,98.4,39.8,97.8,39.9z M91.6,39.9h-1.9c-0.7-0.1-1.2-0.7-1.1-1.3
		c0.1-0.6,0.5-1.1,1.1-1.1h1.9c0.7,0.1,1.2,0.7,1.1,1.3C92.7,39.4,92.2,39.8,91.6,39.9z M85.4,39.9h-1.9c-0.7-0.1-1.2-0.7-1.1-1.3
		c0.1-0.6,0.5-1.1,1.1-1.1h1.9c0.7,0.1,1.2,0.7,1.1,1.3C86.5,39.4,86,39.8,85.4,39.9z"/>
	<path class="st6" d="M278.8,321.7h-1.2c-0.7,0.1-1.3-0.4-1.3-1.1s0.4-1.3,1.1-1.3c0.1,0,0.1,0,0.2,0h1.2c0.7-0.1,1.3,0.4,1.3,1.1
		s-0.4,1.3-1.1,1.3C278.9,321.7,278.9,321.7,278.8,321.7z M273.2,321.7h-1.8c-0.7,0.1-1.3-0.4-1.3-1.1s0.4-1.3,1.1-1.3
		c0.1,0,0.1,0,0.2,0h1.8c0.7-0.1,1.3,0.4,1.3,1.1s-0.4,1.3-1.1,1.3C273.4,321.7,273.3,321.7,273.2,321.7z M267,321.7h-1.8
		c-0.7,0.1-1.3-0.4-1.3-1.1s0.4-1.3,1.1-1.3c0.1,0,0.1,0,0.2,0h1.8c0.7-0.1,1.3,0.4,1.3,1.1s-0.4,1.3-1.1,1.3
		C267.2,321.7,267.1,321.7,267,321.7z M260.9,321.7H259c-0.7,0.1-1.3-0.4-1.3-1.1s0.4-1.3,1.1-1.3c0.1,0,0.1,0,0.2,0h1.8
		c0.7-0.1,1.3,0.4,1.3,1.1s-0.4,1.3-1.1,1.3C261,321.7,260.9,321.7,260.9,321.7z M254.7,321.7h-1.9c-0.7,0.1-1.3-0.4-1.3-1.1
		s0.4-1.3,1.1-1.3c0.1,0,0.1,0,0.2,0h1.8c0.7-0.1,1.3,0.4,1.3,1.1s-0.4,1.3-1.1,1.3C254.8,321.7,254.7,321.7,254.7,321.7
		L254.7,321.7z M248.5,321.7h-1.8c-0.7,0.1-1.3-0.4-1.3-1.1s0.4-1.3,1.1-1.3c0.1,0,0.1,0,0.2,0h1.8c0.7-0.1,1.3,0.4,1.3,1.1
		s-0.4,1.3-1.1,1.3C248.6,321.7,248.6,321.7,248.5,321.7z M242.3,321.7h-1.8c-0.7,0.1-1.3-0.4-1.3-1.1s0.4-1.3,1.1-1.3
		c0.1,0,0.1,0,0.2,0h1.8c0.7-0.1,1.3,0.4,1.3,1.1s-0.4,1.3-1.1,1.3C242.5,321.7,242.4,321.7,242.3,321.7z M236.1,321.7h-1.8
		c-0.7,0.1-1.3-0.4-1.3-1.1s0.4-1.3,1.1-1.3c0.1,0,0.1,0,0.2,0h1.8c0.7-0.1,1.3,0.4,1.3,1.1s-0.4,1.3-1.1,1.3
		C236.3,321.7,236.2,321.7,236.1,321.7z M230,321.7h-1.8c-0.7-0.1-1.2-0.7-1.1-1.3c0.1-0.6,0.5-1.1,1.1-1.1h1.8
		c0.7-0.1,1.3,0.4,1.3,1.1s-0.4,1.3-1.1,1.3C230.1,321.7,230,321.7,230,321.7z M223.8,321.7h-1.9c-0.7-0.1-1.2-0.7-1.1-1.3
		c0.1-0.6,0.5-1.1,1.1-1.1h1.8c0.7,0.1,1.2,0.7,1.1,1.3C224.8,321.2,224.4,321.6,223.8,321.7L223.8,321.7z M217.6,321.7h-1.8
		c-0.7-0.1-1.2-0.7-1.1-1.3c0.1-0.6,0.5-1.1,1.1-1.1h1.9c0.7,0.1,1.2,0.7,1.1,1.3C218.7,321.2,218.2,321.6,217.6,321.7L217.6,321.7z
		 M211.4,321.7h-1.9c-0.7-0.1-1.2-0.7-1.1-1.3c0.1-0.6,0.5-1.1,1.1-1.1h1.9c0.7,0.1,1.2,0.7,1.1,1.3
		C212.5,321.2,212,321.6,211.4,321.7z M205.3,321.7h-1.9c-0.7-0.1-1.2-0.7-1.1-1.3c0.1-0.6,0.5-1.1,1.1-1.1h1.9
		c0.7,0.1,1.2,0.7,1.1,1.3C206.3,321.2,205.8,321.6,205.3,321.7z M199.1,321.7h-1.9c-0.7-0.1-1.2-0.7-1.1-1.3
		c0.1-0.6,0.5-1.1,1.1-1.1h1.9c0.7,0.1,1.2,0.7,1.1,1.3C200.1,321.2,199.7,321.6,199.1,321.7z M192.9,321.7H191
		c-0.7-0.1-1.2-0.7-1.1-1.3c0.1-0.6,0.5-1.1,1.1-1.1h1.9c0.7,0.1,1.2,0.7,1.1,1.3C194,321.2,193.5,321.6,192.9,321.7z M186.7,321.7
		h-1.8c-0.7,0.1-1.3-0.4-1.3-1.1s0.4-1.3,1.1-1.3c0.1,0,0.1,0,0.2,0h1.8c0.7-0.1,1.3,0.4,1.3,1.1s-0.4,1.3-1.1,1.3
		C186.9,321.7,186.8,321.7,186.7,321.7z M180.5,321.7h-1.8c-0.7,0.1-1.3-0.4-1.3-1.1s0.4-1.3,1.1-1.3c0.1,0,0.1,0,0.2,0h1.8
		c0.7-0.1,1.3,0.4,1.3,1.1s-0.4,1.3-1.1,1.3C180.7,321.7,180.6,321.7,180.5,321.7z M174.4,321.7h-1.9c-0.7,0.1-1.3-0.4-1.3-1.1
		s0.4-1.3,1.1-1.3c0.1,0,0.1,0,0.2,0h1.8c0.7-0.1,1.3,0.4,1.3,1.1s-0.4,1.3-1.1,1.3C174.5,321.7,174.4,321.7,174.4,321.7
		L174.4,321.7z M168.2,321.7h-1.8c-0.7,0.1-1.3-0.4-1.3-1.1s0.4-1.3,1.1-1.3c0.1,0,0.1,0,0.2,0h1.8c0.7-0.1,1.3,0.4,1.3,1.1
		s-0.4,1.3-1.1,1.3C168.3,321.7,168.2,321.7,168.2,321.7z M162,321.7h-1.8c-0.7,0.1-1.3-0.4-1.3-1.1s0.4-1.3,1.1-1.3
		c0.1,0,0.1,0,0.2,0h1.8c0.7-0.1,1.3,0.4,1.3,1.1s-0.4,1.3-1.1,1.3C162.1,321.7,162.1,321.7,162,321.7z M155.8,321.7H154
		c-0.7,0.1-1.3-0.4-1.3-1.1s0.4-1.3,1.1-1.3c0.1,0,0.1,0,0.2,0h1.8c0.7-0.1,1.3,0.4,1.3,1.1s-0.4,1.3-1.1,1.3
		C155.9,321.7,155.9,321.7,155.8,321.7L155.8,321.7z M149.6,321.7h-1.9c-0.7,0.1-1.3-0.4-1.3-1.1s0.4-1.3,1.1-1.3c0.1,0,0.1,0,0.2,0
		h1.8c0.7-0.1,1.3,0.4,1.3,1.1s-0.4,1.3-1.1,1.3C149.8,321.7,149.7,321.7,149.6,321.7L149.6,321.7z M143.5,321.7h-1.9
		c-0.7,0.1-1.3-0.4-1.3-1.1s0.4-1.3,1.1-1.3c0.1,0,0.1,0,0.2,0h1.8c0.7-0.1,1.3,0.4,1.3,1.1s-0.4,1.3-1.1,1.3
		C143.6,321.7,143.5,321.7,143.5,321.7L143.5,321.7z M137.3,321.7h-1.8c-0.7,0.1-1.3-0.4-1.3-1.1s0.4-1.3,1.1-1.3c0.1,0,0.1,0,0.2,0
		h1.8c0.7-0.1,1.3,0.4,1.3,1.1s-0.4,1.3-1.1,1.3C137.4,321.7,137.3,321.7,137.3,321.7z M131.1,321.7h-1.8c-0.7,0.1-1.3-0.4-1.3-1.1
		s0.4-1.3,1.1-1.3c0.1,0,0.1,0,0.2,0h1.8c0.7-0.1,1.3,0.4,1.3,1.1s-0.4,1.3-1.1,1.3C131.2,321.7,131.2,321.7,131.1,321.7z
		 M124.9,321.7h-1.9c-0.7-0.1-1.2-0.7-1.1-1.3c0.1-0.6,0.5-1.1,1.1-1.1h1.9c0.7,0.1,1.2,0.7,1.1,1.3
		C126,321.2,125.5,321.6,124.9,321.7z M118.7,321.7h-1.9c-0.7-0.1-1.2-0.7-1.1-1.3c0.1-0.6,0.5-1.1,1.1-1.1h1.9
		c0.7,0.1,1.2,0.7,1.1,1.3C119.8,321.2,119.3,321.6,118.7,321.7z M112.6,321.7h-1.9c-0.7-0.1-1.2-0.7-1.1-1.3
		c0.1-0.6,0.5-1.1,1.1-1.1h1.9c0.7,0.1,1.2,0.7,1.1,1.3C113.6,321.2,113.1,321.6,112.6,321.7L112.6,321.7z"/>
	<path class="st6" d="M464.7,324.8c-0.6,0.1-1.2-0.4-1.2-1c0,0,0,0,0,0c0-0.7,0.5-1.2,1.2-1.2c0,0,0,0,0,0c0.3,0,0.9,0,1.9,0
		c0.7,0,1.2,0.5,1.2,1.2c0,0,0,0,0,0c0,0.6-0.5,1.1-1.1,1.1c0,0,0,0-0.1,0C465.7,324.9,465,324.8,464.7,324.8L464.7,324.8z
		 M470.9,324.8c-0.6,0-1.2-0.4-1.2-1.1c0,0,0,0,0-0.1c0-0.7,0.5-1.3,1.2-1.3h1.9l0,0c0.7,0,1.2,0.6,1.2,1.3c0,0.7-0.5,1.2-1.2,1.2
		c0,0,0,0,0,0L470.9,324.8L470.9,324.8z M477.1,324.8c-0.6,0-1.2-0.4-1.2-1.1c0,0,0,0,0-0.1c0-0.7,0.5-1.3,1.2-1.3h1.9l0,0
		c0.7,0,1.2,0.6,1.2,1.3c0,0.7-0.5,1.2-1.2,1.2c0,0,0,0,0,0L477.1,324.8L477.1,324.8z M483.3,324.8c-0.6,0-1.2-0.4-1.2-1.1
		c0,0,0,0,0-0.1c0-0.7,0.5-1.3,1.2-1.3h1.9l0,0c0.7,0,1.2,0.6,1.2,1.3c0,0.7-0.5,1.2-1.2,1.2c0,0,0,0,0,0L483.3,324.8L483.3,324.8z
		 M489.5,324.8c-0.6,0-1.2-0.5-1.2-1.1c0,0,0,0,0-0.1c0-0.7,0.5-1.3,1.2-1.3h1.8l0,0c0.7,0,1.2,0.6,1.2,1.3c0,0.7-0.5,1.2-1.2,1.2
		c0,0,0,0,0,0L489.5,324.8L489.5,324.8z M495.7,324.8c-0.6,0-1.2-0.4-1.2-1.1c0,0,0,0,0-0.1c0-0.7,0.5-1.3,1.2-1.3h1.9l0,0
		c0.7,0,1.2,0.6,1.2,1.3c0,0.7-0.6,1.2-1.2,1.2c0,0,0,0,0,0L495.7,324.8L495.7,324.8z M501.9,324.9v-2.4h1.9
		c0.7,0.1,1.2,0.7,1.1,1.3c-0.1,0.6-0.5,1.1-1.1,1.1L501.9,324.9z M508.1,324.9c-0.7,0-1.2-0.6-1.2-1.2c0-0.7,0.5-1.3,1.2-1.3
		l1.9-0.1l0,0c0.7,0,1.2,0.6,1.2,1.3c0,0.7-0.6,1.3-1.2,1.3L508.1,324.9L508.1,324.9z M514.3,324.9c-0.7,0.1-1.3-0.4-1.3-1.1
		s0.4-1.3,1.1-1.3c0.1,0,0.1,0,0.2,0h1.9c0.7,0.1,1.2,0.7,1.1,1.3c-0.1,0.6-0.5,1.1-1.1,1.1H514.3z M520.5,324.9
		c-0.7,0-1.2-0.6-1.2-1.2c0-0.7,0.6-1.2,1.2-1.2h1.9c0.7,0.1,1.2,0.7,1.1,1.3c-0.1,0.6-0.5,1.1-1.1,1.1L520.5,324.9z M526.7,324.8
		c-0.7,0-1.3-0.6-1.3-1.3c0-0.7,0.6-1.3,1.3-1.3h1.9c0.7-0.1,1.3,0.4,1.3,1.1s-0.4,1.3-1.1,1.3c-0.1,0-0.1,0-0.2,0L526.7,324.8
		L526.7,324.8z M532.1,324.1c-0.7,0-1.2-0.5-1.2-1.2c0,0,0,0,0,0V321c0.1-0.7,0.7-1.2,1.3-1.1c0.6,0.1,1.1,0.5,1.1,1.1v1.9
		C533.3,323.6,532.8,324.1,532.1,324.1L532.1,324.1z M532.1,317.9c-0.7,0-1.2-0.5-1.2-1.2c0,0,0,0,0,0v-1.9c0.1-0.7,0.7-1.2,1.3-1.1
		c0.6,0.1,1.1,0.5,1.1,1.1v1.9C533.3,317.4,532.8,317.9,532.1,317.9L532.1,317.9z M532.1,311.8c-0.7,0-1.2-0.5-1.2-1.2c0,0,0,0,0,0
		v-1.9c0.1-0.7,0.7-1.2,1.3-1.1c0.6,0.1,1.1,0.5,1.1,1.1v1.8C533.4,311.2,532.8,311.7,532.1,311.8
		C532.1,311.7,532.1,311.8,532.1,311.8L532.1,311.8z M532.1,305.6c-0.7,0-1.2-0.5-1.2-1.2c0,0,0,0,0,0v-1.9c0.1-0.7,0.7-1.2,1.3-1.1
		c0.6,0.1,1.1,0.5,1.1,1.1v1.9C533.3,305,532.8,305.6,532.1,305.6L532.1,305.6z M532.1,299.4c-0.7,0-1.2-0.5-1.2-1.2c0,0,0,0,0,0
		v-1.9c0.1-0.7,0.7-1.2,1.3-1.1c0.6,0.1,1.1,0.5,1.1,1.1v1.9C533.3,298.8,532.8,299.4,532.1,299.4L532.1,299.4z M532.1,293.2
		c-0.7,0-1.2-0.5-1.2-1.2c0,0,0,0,0,0v-1.9c0.1-0.7,0.7-1.2,1.3-1.1c0.6,0.1,1.1,0.5,1.1,1.1v1.9
		C533.3,292.7,532.8,293.2,532.1,293.2L532.1,293.2z M532.1,287c-0.7,0-1.2-0.5-1.2-1.2c0,0,0,0,0,0V284c-0.1-0.7,0.4-1.3,1.1-1.3
		c0.7-0.1,1.3,0.4,1.3,1.1c0,0.1,0,0.1,0,0.2v1.8C533.3,286.5,532.8,287,532.1,287L532.1,287z M532.1,280.9c-0.7,0-1.2-0.6-1.2-1.2
		v-1.8c-0.1-0.7,0.4-1.3,1.1-1.3c0.7-0.1,1.3,0.4,1.3,1.1c0,0.1,0,0.1,0,0.2v1.8C533.3,280.3,532.8,280.9,532.1,280.9L532.1,280.9z
		 M532.1,274.7c-0.7,0-1.2-0.6-1.2-1.2v-1.8c-0.1-0.7,0.4-1.3,1.1-1.3c0.7-0.1,1.3,0.4,1.3,1.1c0,0.1,0,0.1,0,0.2v1.9
		C533.3,274.1,532.8,274.7,532.1,274.7L532.1,274.7z M532.1,268.5c-0.7,0-1.2-0.6-1.2-1.2v-1.8c-0.1-0.7,0.4-1.3,1.1-1.3
		c0.7-0.1,1.3,0.4,1.3,1.1c0,0.1,0,0.1,0,0.2v1.8C533.3,267.9,532.8,268.5,532.1,268.5L532.1,268.5z"/>
	<path class="st6" d="M79.6,182c-0.2,0-0.5-0.1-0.7-0.2c-0.6-0.4-0.8-1.1-0.4-1.7c0,0,0,0,0,0l1-1.6c0.3-0.6,1.1-0.8,1.7-0.5
		c0.6,0.3,0.8,1.1,0.5,1.7c0,0.1-0.1,0.1-0.1,0.2l-1,1.6C80.4,181.8,80,182,79.6,182z M77,181.4c-0.4,0-0.7-0.2-0.9-0.4l-1.2-1.5
		c-0.4-0.5-0.4-1.3,0.1-1.7s1.3-0.4,1.7,0.1l1.2,1.4c0.4,0.5,0.3,1.3-0.2,1.7C77.5,181.2,77.2,181.3,77,181.4L77,181.4z M82.9,176.8
		c-0.2,0-0.5-0.1-0.7-0.2c-0.6-0.4-0.8-1.1-0.4-1.7c0,0,0,0,0,0l1-1.6c0.4-0.6,1.1-0.8,1.7-0.4s0.8,1.1,0.4,1.7l-1,1.6
		C83.7,176.6,83.3,176.8,82.9,176.8z M73,176.7c-0.4,0-0.7-0.2-0.9-0.4l-1.2-1.4c-0.5-0.5-0.5-1.3,0-1.8c0.5-0.5,1.3-0.5,1.8,0
		c0,0,0.1,0.1,0.1,0.1l1.2,1.4c0.4,0.5,0.3,1.3-0.2,1.7C73.5,176.5,73.2,176.6,73,176.7L73,176.7z"/>
	<path class="st6" d="M277.8,326.3c-0.3,0-0.6-0.1-0.8-0.3c-0.5-0.5-0.6-1.2-0.1-1.8l1.2-1.4c0.4-0.5,1.2-0.7,1.7-0.2
		c0.5,0.4,0.7,1.2,0.2,1.7c0,0-0.1,0.1-0.1,0.1l-1.2,1.4C278.5,326.2,278.1,326.3,277.8,326.3z M281.9,321.7c-0.3,0-0.6-0.1-0.8-0.3
		c-0.2-0.1-0.3-0.3-0.3-0.5l-0.8-0.7c-0.5-0.4-0.7-1.2-0.2-1.7c0.4-0.5,1.2-0.7,1.7-0.2c0,0,0.1,0.1,0.1,0.1l1.3,1.1
		c0.5,0.4,0.6,1.2,0.1,1.7c0,0,0,0,0,0l-0.1,0.1C282.5,321.5,282.2,321.7,281.9,321.7L281.9,321.7z M277.4,317.6
		c-0.3,0-0.6-0.1-0.8-0.3l-1.4-1.2c-0.5-0.5-0.5-1.3,0-1.8c0.4-0.4,1.1-0.5,1.6-0.1l1.4,1.2c0.5,0.5,0.6,1.2,0.1,1.8
		C278.1,317.5,277.8,317.6,277.4,317.6L277.4,317.6z"/>
	<path class="st6" d="M527.3,268.8c-0.7,0-1.2-0.5-1.2-1.2c0-0.3,0.1-0.5,0.2-0.7l1.1-1.5c0.3-0.6,1.1-0.8,1.7-0.4
		c0.6,0.3,0.8,1.1,0.4,1.7c0,0.1-0.1,0.1-0.1,0.2l-1.1,1.5C528,268.6,527.7,268.8,527.3,268.8z M535.6,267.1c-0.4,0-0.8-0.2-1-0.5
		l-1.1-1.5c-0.4-0.6-0.3-1.3,0.3-1.7s1.3-0.3,1.7,0.3l0,0l1.1,1.5c0.4,0.5,0.3,1.3-0.2,1.7c0,0,0,0,0,0
		C536.1,267,535.9,267.1,535.6,267.1L535.6,267.1z M530.8,263.7c-0.3,0-0.5-0.1-0.7-0.2c-0.6-0.4-0.7-1.2-0.3-1.7l1.1-1.5
		c0.4-0.5,1.2-0.6,1.7-0.2c0.5,0.4,0.6,1.1,0.3,1.6l-1.1,1.5C531.6,263.5,531.2,263.7,530.8,263.7L530.8,263.7z"/>
	<path class="st6" d="M312.2,205l143.2-0.6c1.4,0,2.5,1.1,2.5,2.4c0,0,0,0,0,0l-0.3,50.1c0,1.4-1.1,2.4-2.5,2.4c0,0,0,0-0.1,0
		c-12.6-0.4-142.1-2-144.5-1.9s-1.1-39.5-0.8-50.1C309.8,206,310.9,205,312.2,205z"/>
	
		<linearGradient id="SVGID_55_" gradientUnits="userSpaceOnUse" x1="1097.7217" y1="-156.12" x2="1097.7217" y2="-188.59" gradientTransform="matrix(1 0 0 -1 -714.22 16.48)">
		<stop  offset="0" style="stop-color:#DBE2F3"/>
		<stop  offset="1" style="stop-color:#EAEFF8"/>
	</linearGradient>
	<path class="st60" d="M455.1,257.5L455.1,257.5c-8.1-0.2-85.3-1.2-122.4-1.7l-20.8-0.3h-0.3v-0.2c-0.9-5-0.9-21.5,0-47.9
		c0-0.3,0.3-0.6,0.6-0.6l143.2-0.6c0.2,0,0.3,0.1,0.4,0.2c0.1,0.1,0.2,0.3,0.2,0.4l-0.3,50.1C455.7,257.3,455.4,257.5,455.1,257.5z
		 M312.1,255l20.5,0.3c37.1,0.5,114.4,1.4,122.4,1.7l0,0l0.3-50.1l-143.2,0.7C311.3,233.4,311.3,249.8,312.1,255L312.1,255z"/>
	
		<linearGradient id="SVGID_56_" gradientUnits="userSpaceOnUse" x1="1057.9823" y1="-229.8492" x2="1064.7523" y2="-165.1892" gradientTransform="matrix(1 0 0 -1 -714.22 16.48)">
		<stop  offset="0" style="stop-color:#DBE2F3"/>
		<stop  offset="1" style="stop-color:#EAEFF8"/>
	</linearGradient>
	<path class="st61" d="M318.3,217.9L318.3,217.9c0,1.3,0.4,2.5,1,2.5h54.8c0.6,0,1-1.1,1-2.5l0,0c0-1.4-0.4-2.5-1-2.5h-54.8
		C318.8,215.5,318.3,216.6,318.3,217.9z"/>
	
		<linearGradient id="SVGID_57_" gradientUnits="userSpaceOnUse" x1="1058.8517" y1="-229.9391" x2="1065.6117" y2="-165.2792" gradientTransform="matrix(1 0 0 -1 -714.22 16.48)">
		<stop  offset="0" style="stop-color:#DBE2F3"/>
		<stop  offset="1" style="stop-color:#EAEFF8"/>
	</linearGradient>
	<path class="st62" d="M318.3,226.3L318.3,226.3c0,1.4,0.4,2.5,1,2.5h54.8c0.6,0,1-1.1,1-2.5l0,0c0-1.3-0.4-2.5-1-2.5h-54.8
		C318.8,223.8,318.3,224.9,318.3,226.3z"/>
	
		<linearGradient id="SVGID_58_" gradientUnits="userSpaceOnUse" x1="1059.7174" y1="-230.0287" x2="1066.4774" y2="-165.3687" gradientTransform="matrix(1 0 0 -1 -714.22 16.48)">
		<stop  offset="0" style="stop-color:#DBE2F3"/>
		<stop  offset="1" style="stop-color:#EAEFF8"/>
	</linearGradient>
	<path class="st63" d="M318.3,234.7L318.3,234.7c0,1.4,0.4,2.5,1,2.5h54.8c0.6,0,1-1.1,1-2.5l0,0c0-1.3-0.4-2.5-1-2.5h-54.8
		C318.8,232.2,318.3,233.3,318.3,234.7z"/>
	
		<linearGradient id="SVGID_59_" gradientUnits="userSpaceOnUse" x1="1060.582" y1="-230.1192" x2="1067.3521" y2="-165.4592" gradientTransform="matrix(1 0 0 -1 -714.22 16.48)">
		<stop  offset="0" style="stop-color:#DBE2F3"/>
		<stop  offset="1" style="stop-color:#EAEFF8"/>
	</linearGradient>
	<path class="st64" d="M318.3,243L318.3,243c0,1.3,0.4,2.5,1,2.5h54.8c0.6,0,1-1.1,1-2.5l0,0c0-1.4-0.4-2.5-1-2.5h-54.8
		C318.8,240.6,318.3,241.7,318.3,243z"/>
	
		<linearGradient id="SVGID_60_" gradientUnits="userSpaceOnUse" x1="1103.0616" y1="-208.2217" x2="1106.5817" y2="-143.0217" gradientTransform="matrix(1 0 0 -1 -714.293 16.4903)">
		<stop  offset="0" style="stop-color:#DBE2F3"/>
		<stop  offset="1" style="stop-color:#EAEFF8"/>
	</linearGradient>
	<circle class="st65" cx="389" cy="219.6" r="9.5"/>
	
		<linearGradient id="SVGID_61_" gradientUnits="userSpaceOnUse" x1="1126.6371" y1="-209.4977" x2="1130.157" y2="-144.2977" gradientTransform="matrix(1 0 0 -1 -714.1117 16.4686)">
		<stop  offset="0" style="stop-color:#DBE2F3"/>
		<stop  offset="1" style="stop-color:#EAEFF8"/>
	</linearGradient>
	<circle class="st66" cx="412.9" cy="219.7" r="9.5"/>
	
		<linearGradient id="SVGID_62_" gradientUnits="userSpaceOnUse" x1="436.117" y1="164.7502" x2="439.637" y2="229.9501" gradientTransform="matrix(1 0 0 -1 0 392)">
		<stop  offset="0" style="stop-color:#DBE2F3"/>
		<stop  offset="1" style="stop-color:#EAEFF8"/>
	</linearGradient>
	<circle class="st67" cx="436.5" cy="220" r="9.5"/>
	
		<linearGradient id="SVGID_63_" gradientUnits="userSpaceOnUse" x1="1141.9346" y1="-140.0249" x2="1117.9945" y2="-179.3849" gradientTransform="matrix(1 0 0 -1 -714.22 16.48)">
		<stop  offset="0" style="stop-color:#F37064"/>
		<stop  offset="1" style="stop-color:#F5928F"/>
	</linearGradient>
	<path class="st68" d="M394.8,217.6c0.3,0.7,0.5,1.5,0.5,2.3c0,3.4-2.7,6.1-6.1,6.1s-6.1-2.7-6.1-6.1s2.7-6.1,6.1-6.1h0.3v-1.6h-0.3
		c-4.2,0-7.7,3.4-7.7,7.7c0,4.2,3.4,7.7,7.7,7.7s7.7-3.4,7.7-7.7c0-1-0.2-2-0.6-2.9L394.8,217.6z"/>
	
		<linearGradient id="SVGID_64_" gradientUnits="userSpaceOnUse" x1="1158.7911" y1="-150.2707" x2="1134.8511" y2="-189.6407" gradientTransform="matrix(1 0 0 -1 -714.22 16.48)">
		<stop  offset="0" style="stop-color:#F37064"/>
		<stop  offset="1" style="stop-color:#F5928F"/>
	</linearGradient>
	<path class="st69" d="M416,225.1c-1,0.6-2.1,1-3.3,1c-3.4,0-6.1-2.7-6.1-6.1s2.7-6.1,6.1-6.1h0.3v-1.6h-0.3c-4.2,0-7.7,3.4-7.7,7.7
		s3.4,7.7,7.7,7.7c0,0,0,0,0,0c1.4,0,2.8-0.4,4-1.2L416,225.1z"/>
	
		<linearGradient id="SVGID_65_" gradientUnits="userSpaceOnUse" x1="1176.5531" y1="-161.0698" x2="1152.6031" y2="-200.4398" gradientTransform="matrix(1 0 0 -1 -714.22 16.48)">
		<stop  offset="0" style="stop-color:#F37064"/>
		<stop  offset="1" style="stop-color:#F5928F"/>
	</linearGradient>
	<path class="st70" d="M441.6,223.4c-1.9,2.8-5.7,3.5-8.5,1.6c-2.8-1.9-3.5-5.7-1.6-8.5c1.1-1.7,3-2.7,5.1-2.7h0.3v-1.6h-0.3
		c-4.2,0-7.7,3.4-7.7,7.7s3.4,7.7,7.7,7.7c2.5,0,4.9-1.3,6.4-3.4L441.6,223.4z"/>
	<g class="st71">
		<path class="st1" d="M396.9,233.2h-15.6c-1-0.1-1.8,0.7-1.9,1.6c-0.1,1,0.7,1.8,1.6,1.9c0.1,0,0.2,0,0.3,0h15.6
			c1,0.1,1.8-0.7,1.9-1.6c0.1-1-0.7-1.8-1.6-1.9C397,233.2,396.9,233.2,396.9,233.2z"/>
		<path class="st1" d="M420.6,233.2H405c-1,0.1-1.7,0.9-1.6,1.9c0.1,0.9,0.8,1.6,1.6,1.6h15.6c1,0.1,1.8-0.7,1.9-1.6
			c0.1-1-0.7-1.8-1.6-1.9C420.7,233.2,420.7,233.2,420.6,233.2z"/>
		<path class="st1" d="M428.8,236.8h15.6c1,0.1,1.8-0.7,1.9-1.6c0.1-1-0.7-1.8-1.6-1.9c-0.1,0-0.2,0-0.3,0h-15.6
			c-1-0.1-1.8,0.7-1.9,1.6c-0.1,1,0.7,1.8,1.6,1.9C428.6,236.8,428.7,236.8,428.8,236.8z"/>
		<path class="st1" d="M381.3,238.7h15.6c1,0,1.8,0.8,1.8,1.8v10.4c0,1-0.8,1.8-1.8,1.8h-15.6c-1,0-1.8-0.8-1.8-1.8v-10.4
			C379.5,239.5,380.3,238.7,381.3,238.7z"/>
		<path class="st1" d="M405,238.7h15.6c1,0,1.8,0.8,1.8,1.8v10.4c0,1-0.8,1.8-1.8,1.8H405c-1,0-1.8-0.8-1.8-1.8v-10.4
			C403.2,239.5,404,238.7,405,238.7z"/>
		<path class="st1" d="M428.7,238.7h15.6c1,0,1.8,0.8,1.8,1.8v10.4c0,1-0.8,1.8-1.8,1.8h-15.6c-1,0-1.8-0.8-1.8-1.8v-10.4
			C427,239.5,427.8,238.7,428.7,238.7z"/>
	</g>
	
		<linearGradient id="SVGID_66_" gradientUnits="userSpaceOnUse" x1="468.7743" y1="56.59" x2="450.6543" y2="48.75" gradientTransform="matrix(1 0 0 -1 0 392)">
		<stop  offset="0" style="stop-color:#201B59"/>
		<stop  offset="1" style="stop-color:#2D2D84"/>
	</linearGradient>
	<rect x="400.3" y="346.2" class="st72" width="3.4" height="36.3"/>
	
		<linearGradient id="SVGID_67_" gradientUnits="userSpaceOnUse" x1="474.1264" y1="40.7752" x2="456.2664" y2="33.0452" gradientTransform="matrix(1 0 0 -1 0 392)">
		<stop  offset="0" style="stop-color:#201B59"/>
		<stop  offset="1" style="stop-color:#2D2D84"/>
	</linearGradient>
	<path class="st73" d="M389.5,381h25c1.2,0,2.2,1,2.2,2.2l0,0l0,0h-29.4l0,0l0,0C387.2,382,388.2,381,389.5,381
		C389.4,381,389.5,381,389.5,381z"/>
	
		<linearGradient id="SVGID_68_" gradientUnits="userSpaceOnUse" x1="461.2044" y1="74.0998" x2="443.0744" y2="66.2598" gradientTransform="matrix(1 0 0 -1 0 392)">
		<stop  offset="0" style="stop-color:#201B59"/>
		<stop  offset="1" style="stop-color:#2D2D84"/>
	</linearGradient>
	<path class="st74" d="M387.7,338h29.7c2,0,3.6,1.6,3.6,3.6v3.3c0,2-1.6,3.6-3.6,3.6h-29.7c-2,0-3.6-1.6-3.6-3.6v-3.3
		C384.1,339.6,385.7,338,387.7,338z"/>
	
		<linearGradient id="SVGID_69_" gradientUnits="userSpaceOnUse" x1="1079.5796" y1="-335.24" x2="1103.4396" y2="-335.24" gradientTransform="matrix(1 0 0 -1 -714.22 16.48)">
		<stop  offset="0" style="stop-color:#F5928F"/>
		<stop  offset="1" style="stop-color:#F8B2B1"/>
	</linearGradient>
	<path class="st75" d="M377.2,322c-3.8,0.8-7.4,2.3-10.6,4.5c-0.9,0.6-1.4,1.6-1.2,2.7c1.8,13.7,6.1,27.1,12.5,39.3
		c0.5,0.9,0.6,1.9,0.4,2.9l-1.6,7.4l-3,2.7h7.6l5-13.6l-2.2-0.7c-1.7-0.5-2.8-2.1-2.8-3.8l-0.2-14.6c0-4-1.4-7.9-4-11l12.1-0.6
		L377.2,322z"/>
	
		<linearGradient id="SVGID_70_" gradientUnits="userSpaceOnUse" x1="1094.182" y1="-350.8001" x2="1090.672" y2="-404.6201" gradientTransform="matrix(1 0 0 -1 -714.22 16.48)">
		<stop  offset="0" style="stop-color:#201B59"/>
		<stop  offset="1" style="stop-color:#2D2D84"/>
	</linearGradient>
	<path class="st76" d="M370.9,382.8c-0.7,0.9,7.4,2.1,11.5,0.1c0,0,5.7-9.9,5.7-14.9c0,0-0.4-1-3.8-0.8c0,0-1.9,11.7-3.9,13
		s-5.6,0.1-5.6,0.1S371.9,381.5,370.9,382.8z"/>
	
		<linearGradient id="SVGID_71_" gradientUnits="userSpaceOnUse" x1="1109.3724" y1="-361.5923" x2="1091.2424" y2="-348.8823" gradientTransform="matrix(1 0 0 -1 -714.22 16.48)">
		<stop  offset="0" style="stop-color:#F5928F"/>
		<stop  offset="1" style="stop-color:#F8B2B1"/>
	</linearGradient>
	<path class="st77" d="M387.7,338c-0.1-0.1-13-1.5-13-1.5c0.2,3.1-0.1,6.3-0.9,9.3c-1.3,5.4-20.3,28.8-20.3,28.8l2,6.3
		c-5.8,2.1-12.1,2.5-18.2,1.1l12.3-7.4c0,0,11.5-39.3,18.6-46.3l13-4.5L387.7,338z"/>
	
		<linearGradient id="SVGID_72_" gradientUnits="userSpaceOnUse" x1="1111.0156" y1="-298.9199" x2="1109.9355" y2="-376.83" gradientTransform="matrix(1 0 0 -1 -714.22 16.48)">
		<stop  offset="0" style="stop-color:#F37064"/>
		<stop  offset="1" style="stop-color:#F5928F"/>
	</linearGradient>
	<path class="st78" d="M416.7,315.1c0,0,7.4,11.1,8.1,16.1s-2,7.1-9.8,7.4s-28.7,0.3-28.7,0.3l-17.8-15.2c0,0,13-4.6,16.3-5.9
		S416.7,315.1,416.7,315.1z"/>
	
		<linearGradient id="SVGID_73_" gradientUnits="userSpaceOnUse" x1="1060.3379" y1="-348.5918" x2="1056.8279" y2="-402.4218" gradientTransform="matrix(1 0 0 -1 -714.22 16.48)">
		<stop  offset="0" style="stop-color:#201B59"/>
		<stop  offset="1" style="stop-color:#2D2D84"/>
	</linearGradient>
	<path class="st79" d="M354.8,378.8c0,0,2.1,2.1,0.7,4.4c0,0-17,3-21.6,1.6c0,0,1-2.2,6.2-4.7l-0.4,0.3c-0.3,0.2-0.3,0.6-0.1,0.9
		c0.1,0.2,0.3,0.3,0.5,0.2C343.5,381.4,350.5,380.8,354.8,378.8z"/>
	
		<linearGradient id="SVGID_74_" gradientUnits="userSpaceOnUse" x1="1107.4557" y1="-263.9112" x2="1134.2157" y2="-322.1512" gradientTransform="matrix(1 0 0 -1 -714.22 16.48)">
		<stop  offset="0" style="stop-color:#F37064"/>
		<stop  offset="1" style="stop-color:#F5928F"/>
	</linearGradient>
	<path class="st80" d="M396.5,313.7c0,0-8.7-8.3-12.9-13.7c-2.3-3-3.1-6.8-2-10.5c2-6.6,5.4-13.4,5.7-14.4
		c0.5-1.6,10.2-1.6,10.2-1.6s19.1,12.4,26.7,33.5l-8.4,2.6c-2.9-4.8-6.2-9.4-9.9-13.7c0,0,8.5,11.3,8.8,15.9L396.5,313.7z"/>
	
		<linearGradient id="SVGID_75_" gradientUnits="userSpaceOnUse" x1="1103.4816" y1="-247.7194" x2="1110.8816" y2="-267.3694" gradientTransform="matrix(1 0 0 -1 -714.22 16.48)">
		<stop  offset="0" style="stop-color:#F5928F"/>
		<stop  offset="1" style="stop-color:#F8B2B1"/>
	</linearGradient>
	<path class="st81" d="M386.2,266c0.1,0.3,2.6,8.8,2.8,8.9s5.6,0.5,8.1-1.3l-4.3-9L386.2,266z"/>
	
		<linearGradient id="SVGID_76_" gradientUnits="userSpaceOnUse" x1="698.1019" y1="-1020.9446" x2="700.6219" y2="-995.3347" gradientTransform="matrix(0.8357 -0.5492 -0.5492 -0.8357 -720.2117 -132.8409)">
		<stop  offset="0" style="stop-color:#F5928F"/>
		<stop  offset="1" style="stop-color:#F8B2B1"/>
	</linearGradient>
	<path class="st82" d="M380.1,255.1c0,0-2.8,4.1-1.7,11.4s4.7,8.5,7.3,7.3s6.3-3.7,7.8-9.8S383.8,249.9,380.1,255.1z"/>
	
		<linearGradient id="SVGID_77_" gradientUnits="userSpaceOnUse" x1="737.9803" y1="-905.5499" x2="700.6703" y2="-944.3699" gradientTransform="matrix(0.8357 -0.5492 -0.5492 -0.8357 -720.2117 -132.8409)">
		<stop  offset="0" style="stop-color:#201B59"/>
		<stop  offset="1" style="stop-color:#2D2D84"/>
	</linearGradient>
	<path class="st83" d="M389,262.6c0,0-2.4-10-9.7-5.4l-0.9,2.3c0,0-5.6-2.8-2.7-7.7c3.2-5.2,10-6.7,15.2-3.5
		c0.4,0.2,0.8,0.5,1.1,0.8c5.7,4.6,7.1,9.1,5.8,13.9s-4.6,2.5-4.6,2.5s0-3.7-1.6-4.7s-2,1.8-2,1.8L389,262.6z"/>
	
		<linearGradient id="SVGID_78_" gradientUnits="userSpaceOnUse" x1="705.0525" y1="-1021.6328" x2="707.5825" y2="-996.0228" gradientTransform="matrix(0.8357 -0.5492 -0.5492 -0.8357 -720.2117 -132.8409)">
		<stop  offset="0" style="stop-color:#F5928F"/>
		<stop  offset="1" style="stop-color:#F8B2B1"/>
	</linearGradient>
	<path class="st84" d="M390.4,263c0,0-1.3-5.1,1.8-4.8s1,4.9,0,6.5L390.4,263z"/>
	
		<linearGradient id="SVGID_79_" gradientUnits="userSpaceOnUse" x1="1124.7052" y1="-280.1078" x2="1116.9452" y2="-297.0578" gradientTransform="matrix(1 0 0 -1 -714.22 16.48)">
		<stop  offset="0" style="stop-color:#F5928F"/>
		<stop  offset="1" style="stop-color:#F8B2B1"/>
	</linearGradient>
	<path class="st85" d="M378.9,314.3l6.4-6.2l8.8,3.7c0,0,8.8,1.4,13.8,0l5-1.4l11.3-3.5l1.8,5c0.5,1.3,0,2.7-1.1,3.5
		c-0.9,0.7-1.9,1.3-2.9,1.8c-1.5,0.7-36.8-0.5-36.8-0.5L378.9,314.3z"/>
	
		<linearGradient id="SVGID_80_" gradientUnits="userSpaceOnUse" x1="754.5721" y1="-921.4917" x2="717.2521" y2="-960.3116" gradientTransform="matrix(0.8357 -0.5492 -0.5492 -0.8357 -720.2117 -132.8409)">
		<stop  offset="0" style="stop-color:#201B59"/>
		<stop  offset="1" style="stop-color:#2D2D84"/>
	</linearGradient>
	<path class="st86" d="M392.1,250.4c-1.1-0.3-1.7-1.4-1.4-2.5c0.1-0.4,0.3-0.7,0.6-0.9c3.8-3.4,10.6-7,19.2,0.3
		c9.7,8.2,15,11.9,17.6,11.5c1.1-0.2,2.1,0.5,2.3,1.6c0.1,0.5,0,1-0.3,1.4c-1.1,1.4-2.6,2.5-4.3,3
		C408.1,271.6,401.1,252.4,392.1,250.4z"/>
	
		<linearGradient id="SVGID_81_" gradientUnits="userSpaceOnUse" x1="1043.2067" y1="-477.1241" x2="1013.4266" y2="-485.2841" gradientTransform="matrix(0.9988 -4.937274e-02 -4.937274e-02 -0.9988 -656.2641 -117.632)">
		<stop  offset="0" style="stop-color:#201B59"/>
		<stop  offset="1" style="stop-color:#2D2D84"/>
	</linearGradient>
	<path class="st87" d="M403,317.2L403,317.2h-37.1c-0.9-0.1-1.6-0.9-1.5-1.8c0.1-0.8,0.7-1.5,1.5-1.5h37c0.9,0,1.6,0.7,1.7,1.7
		C404.6,316.4,403.9,317.1,403,317.2z"/>
	
		<linearGradient id="SVGID_82_" gradientUnits="userSpaceOnUse" x1="1083.1805" y1="-271.6499" x2="1062.0505" y2="-293.9899" gradientTransform="matrix(1 0 0 -1 -714.22 16.48)">
		<stop  offset="0" style="stop-color:#201B59"/>
		<stop  offset="1" style="stop-color:#2D2D84"/>
	</linearGradient>
	<path class="st88" d="M332.7,283.6h30.8c2.3,0,4.3,1.3,5.3,3.4l14.2,30.2h-38.2c-1.5,0-2.8-0.9-3.3-2.2l-11-27.9
		c-0.5-1.3,0.1-2.7,1.4-3.2C332.1,283.7,332.4,283.6,332.7,283.6z"/>
	<path class="st7" d="M354.4,299.1c0.7,2.1,0.2,4.1-1.1,4.5s-2.8-0.9-3.5-3s-0.2-4.1,1.1-4.5S353.8,297,354.4,299.1z"/>
	<path class="st1" d="M454.7,318.5c0.1-0.4,0-0.9-0.3-1.2c-0.3-0.3-0.7-0.5-1.2-0.5H298.9c-0.6,0-1.1,0.3-1.5,0.8
		c-0.3,0.5-0.4,1.1-0.1,1.6l1.7,3.4c0.4,0.8,1.2,1.3,2.1,1.3h151c0.8,0,1.6-0.5,1.7-1.3L454.7,318.5z"/>
	<path class="st1" d="M307.6,390c-0.2,0-0.4,0-0.5-0.1c-0.7-0.3-1-1.1-0.7-1.8l28.4-67.5c0.3-0.7,1.1-1,1.8-0.7c0,0,0,0,0,0
		c0.7,0.3,1,1.1,0.7,1.8l-28.4,67.5C308.6,389.7,308.1,390,307.6,390z"/>
	<path class="st1" d="M339.5,390c-0.5,0-1-0.3-1.2-0.8l-28.4-67.5c-0.3-0.7,0-1.5,0.7-1.8c0.7-0.3,1.5,0,1.8,0.7c0,0,0,0,0,0
		l28.4,67.5c0.3,0.7,0,1.5-0.7,1.8C339.9,390,339.7,390,339.5,390z"/>
	<path class="st1" d="M419.3,390c-0.2,0-0.4,0-0.5-0.1c-0.7-0.3-1-1.1-0.7-1.8l28.4-67.5c0.3-0.7,1.1-1,1.8-0.7c0,0,0,0,0,0
		c0.7,0.3,1,1.1,0.7,1.8l-28.4,67.5C420.4,389.7,419.9,390,419.3,390z"/>
	<path class="st1" d="M451.3,390c-0.5,0-1-0.3-1.2-0.8l-28.4-67.5c-0.3-0.7,0-1.5,0.7-1.8c0.7-0.3,1.5,0,1.8,0.7c0,0,0,0,0,0
		l28.4,67.5c0.3,0.7,0,1.5-0.7,1.8C451.7,390,451.5,390,451.3,390z"/>
	<path class="st6" d="M519.4,49.6l-1.6,4.7c-2.3,0.6-4.5,1.5-6.4,2.7l-4.5-2.1c-0.2-0.1-0.3-0.1-0.5,0.1l-4.2,4.2
		c-0.1,0.1-0.2,0.3-0.1,0.5l2.2,4.4c-1.2,2-2.1,4.2-2.6,6.5l-4.7,1.7c-0.2,0.1-0.3,0.2-0.3,0.4l0.1,6c0,0.2,0.1,0.3,0.3,0.4l4.7,1.6
		c0.6,2.3,1.5,4.5,2.7,6.4l-2.1,4.5c-0.1,0.2,0,0.3,0.1,0.5l4.2,4.2c0.1,0.1,0.3,0.2,0.5,0.1l4.4-2.2c2,1.2,4.2,2.1,6.5,2.6l1.7,4.7
		c0.1,0.2,0.2,0.3,0.4,0.3h5.9c0.2,0,0.3-0.1,0.4-0.3l1.6-4.7c2.3-0.6,4.5-1.5,6.4-2.7L539,96c0.2,0.1,0.3,0,0.5-0.1l4.2-4.2
		c0.1-0.1,0.1-0.3,0.1-0.5l-2.2-4.4c1.2-2,2.1-4.2,2.6-6.5l4.7-1.6c0.2-0.1,0.3-0.2,0.3-0.4v-5.9c0-0.2-0.1-0.3-0.3-0.4l-4.7-1.6
		c-0.5-2.3-1.5-4.5-2.7-6.4l2.1-4.5c0.1-0.2,0-0.3-0.1-0.5l-4.2-4.2c-0.1-0.1-0.3-0.2-0.5-0.1l-4.4,2.2c-2-1.2-4.2-2.1-6.5-2.6
		l-1.7-4.7c-0.1-0.2-0.2-0.3-0.4-0.3h-6C519.6,49.3,519.5,49.4,519.4,49.6z M535.2,68c4.1,6.8,2,15.6-4.8,19.7s-15.6,2-19.7-4.8
		c-4.1-6.8-2-15.6,4.8-19.7c2.2-1.4,4.8-2.1,7.4-2.1c1,0,2,0.1,3,0.3L535.2,68z"/>
	<path class="st6" d="M521.7,70.3c2.8-0.7,5.7,1,6.4,3.8c0.7,2.8-1,5.7-3.8,6.4c-2.8,0.7-5.7-0.9-6.4-3.8
		C517.1,73.9,518.8,71,521.7,70.3C521.6,70.3,521.6,70.3,521.7,70.3z"/>
	<path class="st6" d="M489.5,100.2l-0.1,2.4c-1,0.6-1.8,1.3-2.6,2.2l-2.4-0.4c-0.1,0-0.2,0-0.2,0.1l-1.3,2.5c0,0.1,0,0.2,0,0.2
		l1.6,1.7c-0.3,1.1-0.4,2.2-0.3,3.4l-1.9,1.4c-0.1,0-0.1,0.1-0.1,0.2l0.8,2.7c0,0.1,0.1,0.1,0.2,0.1l2.4,0.1c0.6,1,1.3,1.8,2.2,2.6
		l-0.4,2.4c0,0.1,0,0.2,0.1,0.2l2.5,1.3c0.1,0,0.2,0,0.2,0l1.7-1.6c1.1,0.3,2.2,0.4,3.3,0.3l1.4,1.9c0.1,0.1,0.1,0.1,0.2,0.1
		l2.7-0.9c0.1,0,0.1-0.1,0.1-0.2l0.1-2.4c1-0.6,1.8-1.3,2.6-2.2l2.3,0.4c0.1,0,0.2,0,0.2-0.1l1.3-2.5c0-0.1,0-0.2,0-0.2l-1.6-1.7
		c0.3-1.1,0.4-2.2,0.3-3.4l1.9-1.4c0.1-0.1,0.1-0.1,0.1-0.2l-0.8-2.7c0-0.1-0.1-0.1-0.2-0.1l-2.4-0.1c-0.6-1-1.3-1.8-2.2-2.6
		l0.3-2.4c0-0.1,0-0.2-0.1-0.2l-2.5-1.3c-0.1,0-0.2,0-0.2,0l-1.7,1.6c-1.1-0.3-2.2-0.4-3.3-0.3l-1.4-1.9c0-0.1-0.1-0.1-0.2-0.1
		l-2.7,0.9C489.5,100,489.5,100.1,489.5,100.2z M499.3,106.5c2.8,2.5,3.1,6.9,0.6,9.7c-2.5,2.8-6.9,3.1-9.7,0.6
		c-2.8-2.5-3.1-6.9-0.6-9.7c0.8-0.9,1.9-1.6,3.1-2c0.5-0.1,1-0.2,1.4-0.3L499.3,106.5z"/>
</g>
</svg>
