<?xml version="1.0" encoding="utf-8"?>
<!-- Generator: Adobe Illustrator 25.2.1, SVG Export Plug-In . SVG Version: 6.00 Build 0)  -->
<svg version="1.1" id="Layer_1" xmlns="http://www.w3.org/2000/svg" xmlns:xlink="http://www.w3.org/1999/xlink" x="0px" y="0px"
	 viewBox="0 0 387.1 350" style="enable-background:new 0 0 387.1 350;" xml:space="preserve">
<style type="text/css">
	.st0{fill:url(#SVGID_1_);}
	.st1{fill:url(#SVGID_2_);}
	.st2{fill:url(#SVGID_3_);}
	.st3{fill:#0569AD;}
	.st4{fill:url(#SVGID_4_);}
	.st5{fill:url(#SVGID_5_);}
	.st6{fill:url(#SVGID_6_);}
	.st7{fill:url(#SVGID_7_);}
	.st8{fill:#98B1DC;}
	.st9{opacity:0.23;fill:#FFFFFF;enable-background:new    ;}
	.st10{fill:url(#SVGID_8_);}
	.st11{fill:url(#SVGID_9_);}
	.st12{fill:url(#SVGID_10_);}
	.st13{fill:url(#SVGID_11_);}
	.st14{fill:url(#SVGID_12_);}
	.st15{fill:#C0CFEB;}
	.st16{fill:url(#SVGID_13_);}
	.st17{fill:url(#SVGID_14_);}
	.st18{fill:url(#SVGID_15_);}
	.st19{fill:url(#SVGID_16_);}
	.st20{fill:url(#SVGID_17_);}
	.st21{fill:url(#SVGID_18_);}
	.st22{fill:url(#SVGID_19_);}
	.st23{fill:url(#SVGID_20_);}
	.st24{fill:url(#SVGID_21_);}
	.st25{fill:url(#SVGID_22_);}
	.st26{fill:url(#SVGID_23_);}
	.st27{fill:url(#SVGID_24_);}
	.st28{fill:url(#SVGID_25_);}
	.st29{fill:url(#SVGID_26_);}
	.st30{fill:url(#SVGID_27_);}
	.st31{fill:url(#SVGID_28_);}
	.st32{fill:url(#SVGID_29_);}
	.st33{fill:url(#SVGID_30_);}
	.st34{fill:url(#SVGID_31_);}
	.st35{fill:url(#SVGID_32_);}
	.st36{fill:url(#SVGID_33_);}
</style>
<g>
	
		<linearGradient id="SVGID_1_" gradientUnits="userSpaceOnUse" x1="399.0164" y1="1150.2808" x2="166.6041" y2="902.8727" gradientTransform="matrix(1 0 0 1 -11.07 -763.33)">
		<stop  offset="0" style="stop-color:#DBE2F3"/>
		<stop  offset="1" style="stop-color:#EAEFF8"/>
	</linearGradient>
	<path class="st0" d="M318,287.8c-6.6,6.8-14.1,12.8-22.2,17.9c-57.3,38.3-123,33.7-143.3,30c-32.7-6.1-60-16.9-83.8-38.2
		c-53.8-48.6-51.2-150.2-10.1-213c4.8-7.4,45.9-68.4,111.6-77c1.6-0.2,2.8-0.4,3.9-0.4c10.1-1.1,73.1-6.7,124.5,36.3
		c7.4,6.2,20.5,16.5,30.2,34.2C363.5,140.7,368.9,235.3,318,287.8z"/>
	
		<linearGradient id="SVGID_2_" gradientUnits="userSpaceOnUse" x1="148.7124" y1="759.3896" x2="163.4569" y2="908.7014" gradientTransform="matrix(1 0 0 1 -11.07 -763.33)">
		<stop  offset="0" style="stop-color:#5560AB"/>
		<stop  offset="1" style="stop-color:#4C57A6"/>
	</linearGradient>
	<path class="st1" d="M163.8,154.9c7.5-16.2,21.9-28.5,38.8-30.5l-1.7-72.8c-48.5,0.1-112.2,63.3-108,75.1L163.8,154.9z"/>
	
		<linearGradient id="SVGID_3_" gradientUnits="userSpaceOnUse" x1="112.3471" y1="933.2294" x2="310.6486" y2="844.1791" gradientTransform="matrix(1 0 0 1 -11.07 -763.33)">
		<stop  offset="0" style="stop-color:#E1483D"/>
		<stop  offset="1" style="stop-color:#E9625A"/>
	</linearGradient>
	<path class="st2" d="M210.9,123.9c22.2,6.3,39.1,16.1,43.8,45.5l105.7,3l0,0c0.1-86.9-116.7-180-146.9-171.8c-0.5,0.2-1,0.6-1,1.3
		L210.9,123.9z"/>
	<path class="st3" d="M163.4,150.1c7.8-15.2,22.3-25.8,39.2-27.7l1.2-73c0-0.6-0.4-1.2-1.1-1.2l0,0c-47.6,0.5-89.6,30.2-109.1,73.9
		c-0.3,0.6,0,1.3,0.6,1.6c0,0,0,0,0.1,0L163.4,150.1z"/>
	
		<linearGradient id="SVGID_4_" gradientUnits="userSpaceOnUse" x1="357.6596" y1="896.0478" x2="237.828" y2="1020.3666" gradientTransform="matrix(1 0 0 1 -11.07 -763.33)">
		<stop  offset="0" style="stop-color:#F5928F"/>
		<stop  offset="1" style="stop-color:#F37064"/>
	</linearGradient>
	<path class="st4" d="M257.4,185.1c-1,0-1.9,0.6-2.2,1.5c-0.8,2.6-2.3,7.6-2.5,8.3c-1.2,3.1-2.6,6.1-4.2,9
		c-3,5.4-6.9,10.1-11.7,14.1c-12.1,9.8-29.5,11.7-44,6.7c-0.4-0.1-0.8-0.3-1.3-0.4c-0.7-0.3-1.6,0-2,0.7L153,291.8
		c17.8,8.9,34.5,11.2,55.5,9.9c60.9-3.9,108.8-53.4,114.1-114.8L257.4,185.1z"/>
	
		<linearGradient id="SVGID_5_" gradientUnits="userSpaceOnUse" x1="245.9375" y1="761.2614" x2="250.4964" y2="1269.1259" gradientTransform="matrix(1 0 0 1 -11.07 -763.33)">
		<stop  offset="0" style="stop-color:#F9BABA"/>
		<stop  offset="1" style="stop-color:#F5928F"/>
	</linearGradient>
	<path class="st5" d="M257.4,185.1c-3.9,24.3-22,43.3-46.4,44.2c-7.2,0.1-14.4-1.2-21.1-3.8c-0.6-0.3-1.3,0-1.7,0.6l-37.6,64.7
		c18.2,9.2,38.5,13.3,58.8,11.9c60.9-3.9,108.8-54.9,114.1-116.2L257.4,185.1z"/>
	
		<linearGradient id="SVGID_6_" gradientUnits="userSpaceOnUse" x1="105.5043" y1="823.8348" x2="154.8441" y2="1014.8046" gradientTransform="matrix(1 0 0 1 -11.07 -763.33)">
		<stop  offset="0" style="stop-color:#5560AB"/>
		<stop  offset="1" style="stop-color:#4C57A6"/>
	</linearGradient>
	<path class="st6" d="M142.7,280.6l36.4-65.3c0.3-0.4,0.2-1.1-0.3-1.3c-11.2-9.4-20.2-22.1-20.2-38.5c0-4-1.8-10-1-13.7l-68.5-24.5
		c-3.9,12.7-5.8,25.8-5.8,39.1c0,44.1,23.4,82.8,55.5,105.2c1.2,0.8,2.8,0.5,3.6-0.6C142.6,280.8,142.6,280.7,142.7,280.6z"/>
	<path class="st3" d="M139,278.8l37.7-64.5c0.4-0.8,0.3-1.9-0.4-2.5c-11.4-10.1-17.9-24.7-17.7-39.9c0-3.9,0.4-7.9,1.3-11.8
		l-69.6-26c-0.5-0.2-1.1,0.1-1.3,0.6v0.1c-3.7,12.4-5.6,25.2-5.6,38.1C83.4,217.9,105.6,256.8,139,278.8z"/>
	
		<linearGradient id="SVGID_7_" gradientUnits="userSpaceOnUse" x1="345.6761" y1="811.201" x2="230.9686" y2="912.4473" gradientTransform="matrix(1 0 0 1 -11.07 -763.33)">
		<stop  offset="0" style="stop-color:#F5928F"/>
		<stop  offset="1" style="stop-color:#F37064"/>
	</linearGradient>
	<path class="st7" d="M215.9,122.8c21.6,3.6,38.3,21.8,41.2,44.5c0.2,1.3,1.2,2.2,2.3,2.2l104.5,3.5l0.8-0.8
		C364.5,84.8,301.7,9.9,217.8,0L215.9,122.8z"/>
	<path class="st8" d="M148.6,99.9l21.6,1.4c0.6,0.1,1.2-0.4,1.2-1c0-0.4-0.1-0.6-0.4-0.9L150.2,84L148.6,99.9z"/>
	<path class="st8" d="M24.8,30.5l122-0.7c2.7-0.2,4.9,1.9,5,4.6c0,0,0,0,0,0.1l-0.5,61.5c-0.2,2.7-2.4,4.7-5.1,4.6c0,0,0,0-0.1,0
		L25.5,97.1c-2.6,0-4.7-2-4.8-4.5l-0.8-57.4C19.9,32.5,22.2,30.4,24.8,30.5L24.8,30.5z"/>
	<path class="st9" d="M28.7,34.3L143,33.7c2.6,0,4.8,1.8,4.8,4l-0.4,53.7c0,2.2,1.9,5.4-0.7,5.3L29.3,92.4c-2.5-0.1-4.5-1.8-4.6-3.9
		L24,38.3C23.9,36.1,26,34.3,28.7,34.3z"/>
	
		<linearGradient id="SVGID_8_" gradientUnits="userSpaceOnUse" x1="35.0536" y1="828.4479" x2="159.0762" y2="828.4479" gradientTransform="matrix(1 0 0 1 -11.07 -763.33)">
		<stop  offset="0" style="stop-color:#DBE2F3"/>
		<stop  offset="1" style="stop-color:#EAEFF8"/>
	</linearGradient>
	<path class="st10" d="M146.4,96.7L25.7,93.4c-0.4,0-0.9-0.4-0.9-0.8L24,35.2c0-0.3,0.1-0.4,0.3-0.6c0.2-0.2,0.4-0.3,0.7-0.3
		l122-0.7c0.3,0,0.5,0.1,0.7,0.3c0.2,0.2,0.3,0.4,0.3,0.6l-0.5,61.5C147.4,96.3,146.9,96.7,146.4,96.7
		C146.5,96.7,146.5,96.7,146.4,96.7z M25.7,92.5l120.8,3.3l0.4-61.5l-122,0.8L25.7,92.5z"/>
	
		<linearGradient id="SVGID_9_" gradientUnits="userSpaceOnUse" x1="42.9509" y1="811.5259" x2="152.3456" y2="811.5259" gradientTransform="matrix(1 0 0 1 -11.07 -763.33)">
		<stop  offset="0" style="stop-color:#DBE2F3"/>
		<stop  offset="1" style="stop-color:#EAEFF8"/>
	</linearGradient>
	<path class="st11" d="M31.9,48.2c0,2.2,1.3,3.9,2.8,3.9h103.8c1.5,0,2.8-1.8,2.8-3.9c0-2.2-1.3-3.9-2.8-3.9H34.7
		C33.1,44.2,31.9,46,31.9,48.2z"/>
	
		<linearGradient id="SVGID_10_" gradientUnits="userSpaceOnUse" x1="44.7457" y1="824.5384" x2="149.8329" y2="824.5384" gradientTransform="matrix(1 0 0 1 -11.07 -763.33)">
		<stop  offset="0" style="stop-color:#DBE2F3"/>
		<stop  offset="1" style="stop-color:#EAEFF8"/>
	</linearGradient>
	<path class="st12" d="M37.5,58.9h97.4c2.2,0,3.9,1.1,3.9,2.3c0,1.3-1.7,2.3-3.9,2.3H37.5c-2.2,0-3.9-1.1-3.9-2.3
		C33.7,60,35.5,58.9,37.5,58.9z"/>
	
		<linearGradient id="SVGID_11_" gradientUnits="userSpaceOnUse" x1="44.8355" y1="834.5868" x2="149.9226" y2="834.5868" gradientTransform="matrix(1 0 0 1 -11.07 -763.33)">
		<stop  offset="0" style="stop-color:#DBE2F3"/>
		<stop  offset="1" style="stop-color:#EAEFF8"/>
	</linearGradient>
	<path class="st13" d="M33.8,72c0,1.3,1.7,2.3,3.9,2.3H135c2.2,0,3.9-1.1,3.9-2.3v-1.4c0-1.3-1.8-2.4-3.9-2.3l-97.5,1.4
		C35.4,69.6,33.8,70.7,33.8,72z"/>
	
		<linearGradient id="SVGID_12_" gradientUnits="userSpaceOnUse" x1="45.1047" y1="845.0892" x2="150.1918" y2="845.0892" gradientTransform="matrix(1 0 0 1 -11.07 -763.33)">
		<stop  offset="0" style="stop-color:#DBE2F3"/>
		<stop  offset="1" style="stop-color:#EAEFF8"/>
	</linearGradient>
	<path class="st14" d="M37.9,79.4h97.4c2.2,0,3.9,1.1,3.9,2.3c0,1.3-1.7,2.3-3.9,2.3H37.9c-2.2,0-3.9-1.1-3.9-2.3
		C34,80.5,35.8,79.4,37.9,79.4z"/>
	<path class="st8" d="M240,254.8h107.2c11.1,0,20.1,9,20.1,20.1v26.8c0,11.1-9,20.1-20.1,20.1H240c-11.1,0-20.1-9-20.1-20.1v-26.8
		C219.9,263.8,229,254.8,240,254.8z"/>
	<path class="st15" d="M289.4,266.5h63.3c1.5,0,2.9,1.3,2.9,2.9v1.2c0,1.5-1.3,2.9-2.9,2.9h-63.3c-1.5,0-2.9-1.3-2.9-2.9v-1.2
		C286.6,267.9,287.8,266.5,289.4,266.5z"/>
	<path class="st15" d="M289,283.4h63.3c1.5,0,2.9,1.3,2.9,2.9v1.2c0,1.5-1.3,2.9-2.9,2.9H289c-1.5,0-2.9-1.3-2.9-2.9v-1.2
		C286.1,284.7,287.4,283.4,289,283.4z"/>
	<path class="st15" d="M289.3,301.4h63.3c1.5,0,2.9,1.3,2.9,2.9v1.2c0,1.5-1.3,2.9-2.9,2.9h-63.3c-1.5,0-2.9-1.3-2.9-2.9v-1.2
		C286.6,302.6,287.8,301.4,289.3,301.4z"/>
	
		<linearGradient id="SVGID_13_" gradientUnits="userSpaceOnUse" x1="-11409.2314" y1="119.7802" x2="-11481.0059" y2="267.6112" gradientTransform="matrix(-1 0 0 1 -11591.9707 -757.65)">
		<stop  offset="0" style="stop-color:#F9BABA"/>
		<stop  offset="1" style="stop-color:#F5928F"/>
	</linearGradient>
	<path class="st16" d="M251.2,288.1l7.5-26.3c0.1-0.4,0.6-0.8,1.1-0.6h0.1c11.7,4,19.6,14.8,20.1,27.1c0,0.5-0.4,1-1,1.1
		c0,0,0,0-0.1,0l-27.2-0.4c-0.4,0-0.6-0.4-0.6-0.7C251.2,288.2,251.2,288.2,251.2,288.1z"/>
	
		<linearGradient id="SVGID_14_" gradientUnits="userSpaceOnUse" x1="263.4275" y1="1062.243" x2="283.5655" y2="1062.243" gradientTransform="matrix(1 0 0 1 -11.07 -763.33)">
		<stop  offset="0" style="stop-color:#DBE2F3"/>
		<stop  offset="1" style="stop-color:#EAEFF8"/>
	</linearGradient>
	<path class="st17" d="M272.5,291.8c-0.5,5.7-3.2,10.9-7.4,14.8c-0.4,0.4-0.9,0.3-1.3-0.1c0,0,0,0,0-0.1l-11.3-14.6
		c-0.2-0.3-0.1-0.6,0.2-0.8c0.1-0.1,0.2-0.1,0.3-0.1l18.9,0.3C272.2,291.2,272.5,291.5,272.5,291.8z"/>
	
		<linearGradient id="SVGID_15_" gradientUnits="userSpaceOnUse" x1="245.0449" y1="1040.5135" x2="265.9824" y2="1040.5135" gradientTransform="matrix(1 0 0 1 -11.07 -763.33)">
		<stop  offset="0" style="stop-color:#DBE2F3"/>
		<stop  offset="1" style="stop-color:#EAEFF8"/>
	</linearGradient>
	<path class="st18" d="M248.4,287.4c-4.6-4.3-9.9-9.3-14.3-13.5c-0.3-0.2-0.3-0.6-0.1-0.8c0,0,0,0,0.1-0.1c5.5-5,13-7.1,20.3-5.7
		c0.4,0.1,0.5,0.4,0.4,0.7l0,0l-5.5,18.9c-0.1,0.4-0.4,0.5-0.7,0.4C248.6,287.4,248.5,287.4,248.4,287.4z"/>
	
		<linearGradient id="SVGID_16_" gradientUnits="userSpaceOnUse" x1="237.6" y1="1052.2097" x2="258.5247" y2="1052.2097" gradientTransform="matrix(1 0 0 1 -11.07 -763.33)">
		<stop  offset="0" style="stop-color:#DBE2F3"/>
		<stop  offset="1" style="stop-color:#EAEFF8"/>
	</linearGradient>
	<path class="st19" d="M246.9,290.7l-15.7,11.8c-0.4,0.3-1,0.2-1.3-0.3c-2.2-3.6-3.4-7.7-3.4-12c0-5.3,1.9-10.5,5.2-14.6
		c0.3-0.4,0.8-0.4,1.2-0.2c0,0,0,0,0.1,0.1l3.7,3.4c4,3.8,8.1,7.6,10.4,9.8c0.5,0.4,0.5,1.3,0,1.8
		C247.1,290.6,247,290.6,246.9,290.7z"/>
	
		<linearGradient id="SVGID_17_" gradientUnits="userSpaceOnUse" x1="243.0742" y1="1065.8354" x2="259.7122" y2="1065.8354" gradientTransform="matrix(1 0 0 1 -11.07 -763.33)">
		<stop  offset="0" style="stop-color:#DBE2F3"/>
		<stop  offset="1" style="stop-color:#EAEFF8"/>
	</linearGradient>
	<path class="st20" d="M248.6,292.7l-0.3,19.3c0,0.4-0.4,0.7-0.7,0.7c0,0,0,0-0.1,0c-5.8-0.4-11.3-3.1-15.3-7.5
		c-0.3-0.4-0.3-0.9,0.1-1.2c0,0,0.1,0,0.1-0.1l15.6-11.7c0.2-0.1,0.4,0,0.6,0.2C248.6,292.6,248.6,292.7,248.6,292.7z"/>
	
		<linearGradient id="SVGID_18_" gradientUnits="userSpaceOnUse" x1="261.3814" y1="1066.2626" x2="273.5503" y2="1066.2626" gradientTransform="matrix(1 0 0 1 -11.07 -763.33)">
		<stop  offset="0" style="stop-color:#DBE2F3"/>
		<stop  offset="1" style="stop-color:#EAEFF8"/>
	</linearGradient>
	<path class="st21" d="M251.2,293.5l11.1,14.4c0.3,0.4,0.2,0.8-0.2,1.1l0,0c-3.2,2.2-6.9,3.4-10.8,3.8c-0.5,0.1-1.1-0.4-1.1-0.9
		v-0.1l0.3-18.1c0-0.2,0.1-0.4,0.3-0.4C251,293.2,251.1,293.3,251.2,293.5z"/>
	
		<linearGradient id="SVGID_19_" gradientUnits="userSpaceOnUse" x1="-7590.9629" y1="854.2997" x2="-7575.1958" y2="893.8577" gradientTransform="matrix(-1 0 0 1 -7434.5 -763.33)">
		<stop  offset="0" style="stop-color:#201B59"/>
		<stop  offset="1" style="stop-color:#2D2D84"/>
	</linearGradient>
	<path class="st22" d="M147.1,112.3c0,0-5.3,2.6-6.3,5.6c-0.8,2.4-6.6,2.7-7.3,7.4c-0.3,2.4-2.1,4.3-4.5,4.8
		c-6,0.9-15.3,4-16.8,14.4c-1.2,8,3,10.9,7.2,12c3.1,0.7,5.1,3.8,4.6,7c-0.6,3.1,0.3,6.6,5.6,9.3c11.8,6.2,23.5-14.7,23.5-14.7
		l2.4-36.5L147.1,112.3z"/>
	
		<linearGradient id="SVGID_20_" gradientUnits="userSpaceOnUse" x1="-7822.5771" y1="43.6482" x2="-7793.438" y2="109.9312" gradientTransform="matrix(-0.98 -0.21 -0.21 0.98 -7458.6206 -1571.12)">
		<stop  offset="0" style="stop-color:#F9BABA"/>
		<stop  offset="1" style="stop-color:#F5928F"/>
	</linearGradient>
	<path class="st23" d="M211,103.6c0,0-23.4,37.2-51.3,44.3c0,0,5.5,15.5,9.6,17.2c0,0,34.4-28.6,43.2-56.3L211,103.6z"/>
	
		<linearGradient id="SVGID_21_" gradientUnits="userSpaceOnUse" x1="-7533.2793" y1="1107.5968" x2="-7519.9009" y2="1107.5968" gradientTransform="matrix(-1 0 0 1 -7434.5 -763.33)">
		<stop  offset="0" style="stop-color:#201B59"/>
		<stop  offset="1" style="stop-color:#2D2D84"/>
	</linearGradient>
	<path class="st24" d="M98.7,341l-0.7,6.3c-0.2,1.2-1.1,2.2-2.2,2.2c-2.8,0.4-5.6,0.4-8.3,0.2c-1.3-0.1-2.1-1.3-2-2.4
		c0-0.2,0.1-0.3,0.1-0.4c0.7-2.4,2.2-6,4.2-8.2h6.9c1.2,0,2.2,1,2.2,2.2C98.7,340.8,98.7,340.9,98.7,341z"/>
	
		<linearGradient id="SVGID_22_" gradientUnits="userSpaceOnUse" x1="-7589.7554" y1="1160.2821" x2="-7570.5151" y2="935.3723" gradientTransform="matrix(-1 0 0 1 -7434.5 -763.33)">
		<stop  offset="0" style="stop-color:#F9BABA"/>
		<stop  offset="1" style="stop-color:#F5928F"/>
	</linearGradient>
	<path class="st25" d="M153.1,267.8l1.2,6.9c0,0-3.9,39.7-4.6,55.6c-0.1,2.5,0.5,4.9,1.8,7.1l6.8,11l-17.4-10.2l-0.4-2.2l2.9-3.9
		l-3.7-44.5c-0.2-2.6,0.4-5.2,1.5-7.5l3.6-6.7L153.1,267.8z"/>
	
		<linearGradient id="SVGID_23_" gradientUnits="userSpaceOnUse" x1="-7595.4111" y1="1105.1191" x2="-7573.7744" y2="1105.1191" gradientTransform="matrix(-1 0 0 1 -7434.5 -763.33)">
		<stop  offset="0" style="stop-color:#201B59"/>
		<stop  offset="1" style="stop-color:#2D2D84"/>
	</linearGradient>
	<path class="st26" d="M159.4,350h-5.6c-1.1,0-2-0.4-2.6-1.3c-1.7-2.2-5.3-6.6-7-6.7c-2.3-0.2-2,8-2,8h-1.3l-1.6-10.1
		c-0.4-2.5,0.9-5.1,3.1-6.3l0,0c0,0,0.5,3.9,3.4,5.6c2.9,1.7,11.6,7.9,11.6,7.9c0.7-0.1,1.5-0.1,2.2,0.1c0.8,0.1,1.4,0.8,1.3,1.6
		C160.9,349.5,160.3,350.1,159.4,350L159.4,350z"/>
	
		<linearGradient id="SVGID_24_" gradientUnits="userSpaceOnUse" x1="-7550.9951" y1="1163.6333" x2="-7531.7544" y2="938.6606" gradientTransform="matrix(-1 0 0 1 -7434.5 -763.33)">
		<stop  offset="0" style="stop-color:#F9BABA"/>
		<stop  offset="1" style="stop-color:#F5928F"/>
	</linearGradient>
	<path class="st27" d="M129.3,271c0,0-23,43.5-26.7,53.6c-2.3,6.2-3.9,12.6-5,19c-0.1,1.3-1.6,2.4-5.8,2.4c-2.2,0-3.2-0.9-3.8-1.7
		c-0.4-0.7-0.4-1.6-0.1-2.4c1.3-2.7,5.6-11.3,7.1-15.2c1.9-4.7,5.8-25.8,8.1-33.1c2.2-7.4,4.7-15.3,14.3-22.6
		C117.6,271,124.1,264.6,129.3,271z"/>
	
		<linearGradient id="SVGID_25_" gradientUnits="userSpaceOnUse" x1="119.1185" y1="995.9733" x2="179.7837" y2="920.779" gradientTransform="matrix(1 0 0 1 -11.07 -763.33)">
		<stop  offset="0" style="stop-color:#F5928F"/>
		<stop  offset="0.12" style="stop-color:#F58D8A"/>
		<stop  offset="1" style="stop-color:#F37064"/>
	</linearGradient>
	<path class="st28" d="M143.9,199.7c5.9-25.1-9.1-39.3-9.1-39.3c9.5-9.1,26.7-13.2,26.7-13.2s16.5,12,14.5,21.4
		c-1.2,5.5-11.6,33.1-11.6,33.1S154.8,206.2,143.9,199.7z"/>
	
		<linearGradient id="SVGID_26_" gradientUnits="userSpaceOnUse" x1="197.4382" y1="961.8312" x2="104.3046" y2="1054.9648" gradientTransform="matrix(1 0 0 1 -11.07 -763.33)">
		<stop  offset="0" style="stop-color:#201B59"/>
		<stop  offset="1" style="stop-color:#2D2D84"/>
	</linearGradient>
	<path class="st29" d="M130.8,212.1c2.4-7.3,13.1-12.5,13.1-12.5c10.9,6.6,20.6,2,20.6,2s2.2,8.3,0.7,16
		c-1.4,7.7-10.9,57.1-10.9,57.1c-14.8,3-37.4-3.1-37.4-3.1C126.2,255,128.4,219.3,130.8,212.1z"/>
	
		<linearGradient id="SVGID_27_" gradientUnits="userSpaceOnUse" x1="168.3342" y1="967.5826" x2="162.5728" y2="884.2757" gradientTransform="matrix(1 0 0 1 -11.07 -763.33)">
		<stop  offset="0" style="stop-color:#F9BABA"/>
		<stop  offset="1" style="stop-color:#F5928F"/>
	</linearGradient>
	<path class="st30" d="M150.8,130.5l-4.8,21.6c-0.4,1.9,1.3,1.6,3.2,1.3c3.1-0.6,7.3-1.8,8.6-4.3c0.2-0.3,0.2-0.5,0.3-0.8l2.1-15
		c0.2-1.2-0.4-2.3-1.6-2.9l-4-1.8c-1.3-0.6-3,0-3.6,1.3C150.9,130.2,150.8,130.4,150.8,130.5z"/>
	
		<linearGradient id="SVGID_28_" gradientUnits="userSpaceOnUse" x1="-7577.0034" y1="951.4986" x2="-7552.9863" y2="951.4986" gradientTransform="matrix(-1 0 0 1 -7434.5 -763.33)">
		<stop  offset="0" style="stop-color:#F9BABA"/>
		<stop  offset="1" style="stop-color:#F5928F"/>
	</linearGradient>
	<path class="st31" d="M134.8,160.4c0,0-33.7,24.1-4.3,49.4c0.9,0.9,2.1,1.6,3.3,1.9c1.1,0.4,4.4,2.8,6.1,4.1
		c0.5,0.4,1.3,0.3,1.6-0.2c0,0,0-0.1,0.1-0.1l0,0c0.3-0.4,0.4-1,0.1-1.5l-4.1-8.8c-1.2-1.1-3-1.2-4.1-0.2l0,0
		c-0.7,0.5-1.7,0.4-2.2-0.3c-0.1-0.1-0.1-0.2-0.2-0.3c-2.2-4.6-6.6-18.2,10.9-33.6c0.6-0.5,0.8-1.5,0.4-2.3
		C141,166.2,138.2,161.4,134.8,160.4z"/>
	
		<linearGradient id="SVGID_29_" gradientUnits="userSpaceOnUse" x1="-7799.8315" y1="141.8384" x2="-7768.2871" y2="85.6962" gradientTransform="matrix(-0.98 -0.19 -0.19 0.98 -7458.7603 -1494.9)">
		<stop  offset="0" style="stop-color:#F9BABA"/>
		<stop  offset="1" style="stop-color:#F5928F"/>
	</linearGradient>
	<path class="st32" d="M159.9,110.8c0,0,5.1,3.5,7.4,12.3s-1.3,12-5,11.8c-3.7-0.2-9-1.3-13.6-7.6
		C144,121.1,153.2,106.5,159.9,110.8z"/>
	
		<linearGradient id="SVGID_30_" gradientUnits="userSpaceOnUse" x1="-7806.6626" y1="97.2306" x2="-7790.895" y2="136.7975" gradientTransform="matrix(-0.98 -0.19 -0.19 0.98 -7458.7603 -1494.9)">
		<stop  offset="0" style="stop-color:#201B59"/>
		<stop  offset="1" style="stop-color:#2D2D84"/>
	</linearGradient>
	<path class="st33" d="M153.3,123.7c0,0-1.9-12.7,8.6-10.8l2.2,2.2c0,0,5.1-5.8-0.5-10.2c-5.7-4.4-13.6-3.2-17.9,4.8
		s-5.9,13.6-2.3,18.6c3.7,4.9,6.5,0.7,6.5,0.7s-1.7-4.3-0.3-6.1c1.4-1.8,3.2,1.1,3.2,1.1L153.3,123.7z"/>
	
		<linearGradient id="SVGID_31_" gradientUnits="userSpaceOnUse" x1="-7793.124" y1="145.6046" x2="-7761.5801" y2="89.4713" gradientTransform="matrix(-0.98 -0.19 -0.19 0.98 -7458.7603 -1494.9)">
		<stop  offset="0" style="stop-color:#F9BABA"/>
		<stop  offset="1" style="stop-color:#F5928F"/>
	</linearGradient>
	<path class="st34" d="M151.9,124.7c0,0-0.9-6.6-4.3-4.7s1.2,6.1,3.1,7.5L151.9,124.7z"/>
	
		<linearGradient id="SVGID_32_" gradientUnits="userSpaceOnUse" x1="-7828.3877" y1="46.2052" x2="-7799.2578" y2="112.4882" gradientTransform="matrix(-0.98 -0.21 -0.21 0.98 -7458.6206 -1571.12)">
		<stop  offset="0" style="stop-color:#F9BABA"/>
		<stop  offset="1" style="stop-color:#F5928F"/>
	</linearGradient>
	<path class="st35" d="M210.9,111.2c0.1,0.7-2.8,1.3-3.7-2c0.3-1.4,0.7-7.6,1.8-8.6c5.8-5.1,16.2-10.9,16.2-10.9
		c0.7,0.9,0.5,2.2-0.4,2.9l-5.1,3.5c0.5,1.8,1.3,3.3,1.4,5.4c0.1,1.5-0.5,3.1-1.5,4.2c-1.2,1.3-2.3,2.6-3.7,3.9
		C214.5,110.8,212.7,111.5,210.9,111.2z"/>
	
		<linearGradient id="SVGID_33_" gradientUnits="userSpaceOnUse" x1="221.3927" y1="866.672" x2="229.2361" y2="866.672" gradientTransform="matrix(1 0 0 1 -11.07 -763.33)">
		<stop  offset="0" style="stop-color:#F9BABA"/>
		<stop  offset="1" style="stop-color:#F5928F"/>
	</linearGradient>
	<path class="st36" d="M213.7,108.7l-0.8-0.4c0.1-0.3,2.6-6.3,3.8-7.5c0.4-0.3,0.6-0.7,0.6-1.3c0-0.2-0.1-0.4-0.3-0.5l-4.1,2.2
		l-1.8,2.9l-0.7-0.4l2-3.1l4.8-2.6l0.2,0.2c0.4,0.3,0.7,0.8,0.8,1.3c0,0.7-0.4,1.3-0.9,1.9C216.4,102.4,214.4,107,213.7,108.7z"/>
</g>
</svg>
