<?xml version="1.0" encoding="utf-8"?>
<!-- Generator: Adobe Illustrator 25.2.1, SVG Export Plug-In . SVG Version: 6.00 Build 0)  -->
<svg version="1.1" id="Layer_1" xmlns="http://www.w3.org/2000/svg" xmlns:xlink="http://www.w3.org/1999/xlink" x="0px" y="0px"
	 viewBox="0 0 565.8 390" style="enable-background:new 0 0 565.8 390;" xml:space="preserve">
<style type="text/css">
	.st0{fill:#0569AD;}
	.st1{fill:none;stroke:#6A8FC9;stroke-linecap:round;stroke-linejoin:round;}
	.st2{fill:#6A8FC9;}
	.st3{fill:none;stroke:#4064AF;stroke-miterlimit:10;}
	.st4{fill:none;stroke:#FFFFFF;stroke-miterlimit:10;}
	.st5{fill:none;stroke:#6A8FC9;stroke-miterlimit:10;}
	.st6{fill:#FFFFFF;}
	.st7{fill:none;stroke:#B6CCEA;stroke-miterlimit:10;}
	.st8{fill:#B6CCEA;}
	.st9{fill:none;stroke:#FFFFFF;stroke-linecap:round;stroke-linejoin:round;}
	.st10{fill:#FAB7A0;}
	.st11{fill:none;stroke:#010101;stroke-linecap:round;stroke-linejoin:round;}
	.st12{fill:none;}
	.st13{fill:none;stroke:#6A8FC9;stroke-width:2;stroke-linecap:round;stroke-linejoin:round;}
	.st14{fill:#F57E23;}
	.st15{fill:#FEE875;}
	.st16{fill:none;stroke:#010101;stroke-miterlimit:10;}
</style>
<g>
	<path class="st0" d="M120.1,220.1l22.1-0.2c2.5,0,4.4-2,4.4-4.4c0,0,0,0,0-0.1l-0.2-22.5c0-2.5-2-4.4-4.4-4.4c0,0,0,0-0.1,0
		l-19.1,0.2v3.4l0.2,24.7C123.1,218.5,121.8,219.9,120.1,220.1z"/>
	<path class="st0" d="M123,216.8c0.1,1.7-1.2,3.2-2.9,3.3c0,0-3.1,0.4-3.1-3.3h4C121.6,216.7,122.3,216.7,123,216.8z"/>
	<line class="st1" x1="143" y1="214.7" x2="127.4" y2="214.9"/>
	<line class="st1" x1="142.9" y1="211.2" x2="127.4" y2="211.4"/>
	<line class="st1" x1="142.9" y1="202.3" x2="127.3" y2="202.4"/>
	<line class="st1" x1="142.8" y1="198.8" x2="127.3" y2="198.9"/>
	<line class="st1" x1="142.9" y1="206.8" x2="127.3" y2="206.9"/>
	<path class="st2" d="M136.5,195.1l-8.5,0.1c-0.7,0-1.2-0.5-1.2-1.2l0-0.4c0-0.7,0.5-1.2,1.2-1.2l8.5-0.1c0.7,0,1.2,0.5,1.2,1.2
		l0,0.4C137.7,194.6,137.2,195.1,136.5,195.1z"/>
	<path class="st2" d="M374.1,257.2h31.1c1.9,0,3.4,1.5,3.4,3.4v26.2c0,1.9-1.5,3.4-3.4,3.4h-31.1c-1.9,0-3.4-1.5-3.4-3.4v-26.2
		C370.7,258.7,372.2,257.2,374.1,257.2z"/>
	<line class="st3" x1="379" y1="273.9" x2="379" y2="285"/>
	<line class="st3" x1="383.2" y1="273.9" x2="383.2" y2="285"/>
	<line class="st3" x1="386.9" y1="275.9" x2="386.9" y2="285"/>
	<line class="st3" x1="390.4" y1="282.9" x2="390.4" y2="285"/>
	<line class="st3" x1="394.6" y1="276.7" x2="394.6" y2="285"/>
	<line class="st3" x1="398.1" y1="263.8" x2="398.1" y2="285"/>
	<line class="st3" x1="401.8" y1="263.8" x2="401.8" y2="285"/>
	<path class="st4" d="M376.3,277c2.1-4.1,4.5-5.9,6.4-5.1c4.6,2,6.1,9.9,8.8,9.6c5.7-0.5,1.1-17.8,10.5-18.6"/>
	<line class="st5" x1="208.3" y1="318.2" x2="208.4" y2="311.2"/>
	<line class="st5" x1="217.3" y1="318.2" x2="217.3" y2="303.3"/>
	<line class="st5" x1="224.9" y1="318.2" x2="224.9" y2="302.3"/>
	<line class="st5" x1="233.5" y1="318.3" x2="233.6" y2="296.7"/>
	<line class="st5" x1="241.1" y1="318.3" x2="241.2" y2="288.8"/>
	<line class="st5" x1="247.7" y1="318.3" x2="247.9" y2="281.2"/>
	<path class="st5" d="M192.9,269.8l66.7,0.3c2,0,3.5,1.6,3.5,3.6l-0.2,50.9c0,2-1.6,3.5-3.6,3.5l-66.7-0.3c-2,0-3.5-1.6-3.5-3.6
		l0.2-50.9C189.4,271.3,191,269.8,192.9,269.8z"/>
	<path class="st4" d="M202.4,316.4l17.8-16c0.8-0.7,1.9-0.7,2.7,0.1l2.5,2.4c0.8,0.8,2,0.8,2.7,0c0,0,0,0,0.1-0.1l19.3-21.1"/>
	<path class="st4" d="M198.2,275.7l-0.2,41.8c0,2,1.6,3.6,3.6,3.6l51,0.2"/>
	<path class="st6" d="M248.5,282.6l-2.8-2.1c-0.2-0.2-0.2-0.4-0.1-0.6c0,0,0.1-0.1,0.1-0.1l3.6-1.7c0.2-0.1,0.5,0,0.6,0.2
		c0,0.1,0.1,0.2,0,0.3l-0.8,3.8c0,0.2-0.2,0.4-0.5,0.4C248.7,282.7,248.6,282.6,248.5,282.6z"/>
	<path class="st2" d="M477.9,125h-60.8l-9.4,7.3l-0.6-7.3h-15.2c-2.3,0-4.1-1.9-4.1-4.1c0,0,0,0,0,0v-16.6c0-2.3,1.9-4.1,4.1-4.1
		l0,0h86c2.3,0,4.1,1.9,4.1,4.1c0,0,0,0,0,0v16.6C482.1,123.1,480.2,125,477.9,125C478,125,477.9,125,477.9,125z"/>
	<line class="st7" x1="425.4" y1="116.7" x2="476.2" y2="116.7"/>
	<line class="st7" x1="425.4" y1="111.9" x2="476.2" y2="111.9"/>
	<line class="st7" x1="425.4" y1="106.9" x2="476.2" y2="106.9"/>
	<path class="st8" d="M394.7,103.7h23.5c0.9,0,1.6,0.7,1.6,1.6v14.6c0,0.9-0.7,1.6-1.6,1.6h-23.5c-0.9,0-1.6-0.7-1.6-1.6v-14.6
		C393.1,104.4,393.8,103.7,394.7,103.7z"/>
	<path class="st2" d="M273.7,191.3c-9.5,3.1-31.5,19.6-14.5,67.2c0.4,1.2,1.8,1.9,3,1.4c0.4-0.1,0.7-0.4,1-0.7
		c4.2-4.9,10.5-18.9,28.3-25.9L273.7,191.3z"/>
	<path class="st2" d="M326,175c10-1.1,40.8,3.3,44.6,53.6c0.1,1.3-0.9,2.4-2.2,2.5c-0.4,0-0.8,0-1.2-0.2c-5.8-2.8-18.6-7.5-37.7-6.6
		L326,175z"/>
	<path class="st0" d="M262.5,17.7c-1.9,0-15.1,14.3-20.5,64.2c-5.7,53.3,21.4,115.4,51.2,158.5l39.2-9
		c4.4-81.7,2.6-124.1-24.1-166.2C283,25.6,264.2,16.9,262.5,17.7z"/>
	<path class="st4" d="M288.3,234.6c0,0,27.2-10,45.1-10.7"/>
	<path class="st2" d="M308.2,65.3c-25.1-39.7-44-48.3-45.8-47.5c-1.7,0-12.7,10.8-18.4,46.5c-0.9,5.3-1.6,11.2-2.2,17.8
		c4.9,0.3,9.9,0.2,14.8-0.3c6.4-0.6,12.8-1.7,19.1-3.3C298.5,72.5,308.2,65.3,308.2,65.3z"/>
	<path class="st2" d="M301.5,173.4c-3.5-4.5,1.5,35.5,6.7,58c2.5,10.8,7.7,17.1,8.6,17.2c1,0.1,2.2-7.2,0.4-18.4
		C315.2,217.2,308.2,182.1,301.5,173.4z"/>
	<circle class="st2" cx="284.4" cy="117.3" r="22.9"/>
	<path class="st9" d="M277.5,101.6c0,0,16.3-4.7,23.2,7.6"/>
	<path class="st10" d="M210.4,162.8"/>
	<path class="st0" d="M298.9,238.8c0,0,25.1,88.7,25.8,103.6"/>
	<path class="st0" d="M327.1,232.9c0,0,13.8,47.6,19.2,57"/>
	<path class="st0" d="M317.7,364.1c-14.1-9.1-0.8-29.3,13.6-19.7"/>
	<path class="st0" d="M321.1,256.5c0,0,23.2,78,34.5,95.1"/>
	<path class="st11" d="M553.4,325.3"/>
	<path class="st5" d="M369.5,55.6v23.6c0,1.2-0.9,2.1-2.1,2.1h-34.7c-1.2,0-2.1-0.9-2.1-2.1V55.6c0-1.2,0.9-2.1,2.1-2.1h34.7
		C368.6,53.5,369.5,54.4,369.5,55.6z"/>
	<path class="st2" d="M369.5,55.9c0-1.4-1.1-2.5-2.5-2.5h-34c-1.4,0-2.5,1.1-2.5,2.5v1.8h38.9L369.5,55.9z"/>
	<path class="st2" d="M336.1,60.8h11.7c0.7,0,1.3,0.6,1.3,1.3v9.9c0,0.7-0.6,1.3-1.3,1.3h-11.7c-0.7,0-1.3-0.6-1.3-1.3v-9.9
		C334.8,61.4,335.4,60.8,336.1,60.8z"/>
	<line class="st1" x1="351.8" y1="61.7" x2="365.8" y2="61.7"/>
	<line class="st1" x1="351.8" y1="65.4" x2="365.8" y2="65.4"/>
	<line class="st1" x1="351.8" y1="69.4" x2="365.8" y2="69.4"/>
	<line class="st1" x1="351.8" y1="73" x2="365.8" y2="73"/>
	<line class="st1" x1="335.5" y1="76.7" x2="365.8" y2="76.7"/>
	<path class="st5" d="M114.1,254v15.1c0,0.7-0.6,1.3-1.3,1.3H79.2c-0.7,0-1.3-0.6-1.3-1.3V254c0-0.7,0.6-1.3,1.3-1.3h33.5
		C113.5,252.6,114.1,253.2,114.1,254z"/>
	<path class="st2" d="M114.1,254.2c0-0.9-0.7-1.6-1.6-1.6h0h-33c-0.9,0-1.6,0.7-1.6,1.6v1.2h36.2V254.2z"/>
	<path class="st2" d="M81.4,257.3h7.5c0.5,0,0.8,0.4,0.8,0.8v6.3c0,0.5-0.4,0.8-0.8,0.8h-7.5c-0.5,0-0.8-0.4-0.8-0.8v-6.3
		C80.6,257.7,81,257.3,81.4,257.3z"/>
	<line class="st1" x1="91.4" y1="257.9" x2="111.7" y2="257.9"/>
	<line class="st1" x1="91.4" y1="260.2" x2="111.7" y2="260.2"/>
	<line class="st1" x1="91.4" y1="262.8" x2="111.7" y2="262.8"/>
	<line class="st1" x1="91.4" y1="265.1" x2="111.7" y2="265.1"/>
	<line class="st1" x1="81" y1="267.5" x2="111.7" y2="267.5"/>
	<path class="st5" d="M98.2,41.8v15.8c0,0.8-0.6,1.4-1.4,1.4H73.5c-0.8,0-1.4-0.6-1.4-1.4V41.8c0-0.8,0.6-1.4,1.4-1.4h23.3
		C97.5,40.4,98.2,41,98.2,41.8z"/>
	<path class="st2" d="M98.2,42c0-0.9-0.7-1.7-1.7-1.7l0,0H73.7c-0.9,0-1.7,0.7-1.7,1.7v1.2h26L98.2,42z"/>
	<path class="st2" d="M75.8,45.3h7.8c0.5,0,0.9,0.4,0.9,0.9v6.7c0,0.5-0.4,0.9-0.9,0.9h-7.8c-0.5,0-0.9-0.4-0.9-0.9v-6.7
		C74.9,45.7,75.3,45.3,75.8,45.3z"/>
	<line class="st1" x1="86.3" y1="45.9" x2="95.6" y2="45.9"/>
	<line class="st1" x1="86.3" y1="48.4" x2="95.6" y2="48.4"/>
	<line class="st1" x1="86.3" y1="51.1" x2="95.6" y2="51.1"/>
	<line class="st1" x1="86.3" y1="53.5" x2="95.6" y2="53.5"/>
	<line class="st1" x1="75.4" y1="55.9" x2="95.6" y2="55.9"/>
	<circle class="st6" cx="312.8" cy="38.9" r="1.4"/>
	<circle class="st6" cx="46" cy="207" r="1.4"/>
	<circle class="st6" cx="481" cy="367.3" r="1.4"/>
	<circle class="st6" cx="293.9" cy="306" r="1.4"/>
	<circle class="st6" cx="380.6" cy="9.1" r="1.4"/>
	<circle class="st6" cx="1.4" cy="286.4" r="1.4"/>
	<circle class="st6" cx="191.7" cy="86.2" r="1.4"/>
	<circle class="st6" cx="533.9" cy="98.8" r="1.4"/>
	<circle class="st6" cx="543.7" cy="219.5" r="1.4"/>
	<line class="st12" x1="535.8" y1="6.1" x2="535.8" y2="-0.2"/>
	<line class="st12" x1="532.6" y1="2.9" x2="538.9" y2="2.9"/>
	<line class="st12" x1="96.7" y1="142.1" x2="96.7" y2="135.8"/>
	<line class="st12" x1="93.5" y1="138.9" x2="99.9" y2="138.9"/>
	<line class="st12" x1="37.9" y1="41.4" x2="37.9" y2="35.1"/>
	<line class="st12" x1="34.7" y1="38.3" x2="41.1" y2="38.3"/>
	<circle class="st13" cx="156.3" cy="344.3" r="5.9"/>
	<line class="st13" x1="160.3" y1="349.6" x2="165.3" y2="356.1"/>
	<path class="st0" d="M312.9,359.2c-3.5-3.5-13-0.5-12.5,6"/>
	<line class="st4" x1="559.9" y1="259.7" x2="565.8" y2="259.7"/>
	<line class="st4" x1="405.3" y1="313.4" x2="411.1" y2="313.4"/>
	<line class="st4" x1="117.7" y1="86" x2="123.5" y2="86"/>
	<line class="st4" x1="529.4" y1="150.9" x2="535.2" y2="150.9"/>
	<line class="st1" x1="497.7" y1="45.7" x2="507.4" y2="45.7"/>
	<line class="st1" x1="68.5" y1="98.8" x2="68.5" y2="104.2"/>
	<line class="st1" x1="44.9" y1="322.2" x2="44.9" y2="327.6"/>
	<line class="st1" x1="425.3" y1="340.2" x2="435" y2="340.2"/>
	<path class="st6" d="M111.8,333.4"/>
	<line class="st12" x1="477.4" y1="94.1" x2="477.4" y2="90.2"/>
	<line class="st12" x1="485.6" y1="100.9" x2="490" y2="100.9"/>
	<line class="st12" x1="482.7" y1="96.5" x2="486.6" y2="92.6"/>
	<path class="st0" d="M475.4,31c0,6.9-5.6,12.4-12.4,12.4c-6.9,0-12.4-5.6-12.4-12.4s5.6-12.4,12.4-12.4V31H475.4z"/>
	<path class="st2" d="M479.6,26.9c0-6.9-5.6-12.4-12.4-12.4v12.4C467.2,26.9,479.6,27.2,479.6,26.9z"/>
	<polyline class="st1" points="458.7,36.5 449.8,45.4 433.1,45.4 	"/>
	<path class="st2" d="M493.4,7.2h6.3c0.4,0,0.8,0.4,0.8,0.8v5c0,0.4-0.4,0.8-0.8,0.8h-6.3c-0.4,0-0.8-0.4-0.8-0.8V8
		C492.6,7.6,493,7.2,493.4,7.2z"/>
	<path class="st2" d="M423,42h6.3c0.4,0,0.8,0.4,0.8,0.8v5c0,0.4-0.4,0.8-0.8,0.8H423c-0.4,0-0.8-0.4-0.8-0.8v-5
		C422.2,42.3,422.5,42,423,42z"/>
	<polyline class="st1" points="479.7,15.8 484.5,10.9 489.4,10.9 	"/>
	<path class="st5" d="M497.6,225h-21.2c-2.4,0-4.3-1.9-4.3-4.3c0,0,0,0,0,0v-21.6c0-2.4,1.9-4.3,4.3-4.3c0,0,0,0,0,0h18.4v27
		C494.7,223.5,496,224.9,497.6,225z"/>
	<path class="st5" d="M494.8,221.8c-0.1,1.7,1.2,3.1,2.9,3.2c0,0,3,0.3,3-3.2h-3.8C496.1,221.8,495.4,221.8,494.8,221.8z"/>
	<line class="st1" x1="475.6" y1="220" x2="490.6" y2="220"/>
	<line class="st1" x1="475.6" y1="216.7" x2="490.6" y2="216.7"/>
	<line class="st1" x1="475.6" y1="208.1" x2="490.6" y2="208.1"/>
	<line class="st1" x1="475.6" y1="204.7" x2="490.6" y2="204.7"/>
	<line class="st1" x1="475.6" y1="212.4" x2="490.6" y2="212.4"/>
	<path class="st2" d="M481.6,198.4h8.2c0.6,0,1.2,0.5,1.2,1.2v0.4c0,0.6-0.5,1.2-1.2,1.2h-8.2c-0.6,0-1.2-0.5-1.2-1.2v-0.4
		C480.5,198.9,481,198.4,481.6,198.4z"/>
	<circle class="st0" cx="494.4" cy="210.3" r="3.2"/>
	<line class="st9" x1="496.5" y1="213.1" x2="499.2" y2="216.7"/>
	<path class="st0" d="M386.6,367.1c1.1-5.5,8.9-13.4,18.3-10.5c12.7,3.9,8.9,17.2,8.9,17.2"/>
	<path class="st0" d="M406.5,378.1c0,0,6.1-7.8,13.8-6.1"/>
	<line class="st12" x1="375.6" y1="336.4" x2="375.6" y2="330.1"/>
	<line class="st12" x1="372.4" y1="333.2" x2="378.7" y2="333.2"/>
	<path class="st9" d="M265.2,22c0,0,11.1,8,19.3,17.7"/>
	<path class="st9" d="M288.2,44.4c0,0,5.3,6,8,9.4"/>
	<circle class="st14" cx="221.2" cy="60.3" r="15"/>
	<path class="st4" d="M220.5,67.1l4.9-1.8c0.4-0.1,0.6-0.5,0.4-0.9c0,0,0,0,0,0c-0.3-1.1-0.2-2.3,0.2-3.3c1-3,1.1-6.7-1.4-8.7
		c-3-2.2-7.1-1.6-9.3,1.3c-1,1.3-1.4,2.9-1.3,4.6c0.3,3.9,3.7,5.3,4.3,5.6C219.5,64.8,220.5,67.1,220.5,67.1z"/>
	<path class="st4" d="M221.6,66.3l-2.2-6.1l0.5,0.1c0.7,0.2,1.5-0.1,2.1-0.6l0.4-0.5l2.2,6.1"/>
	<path class="st4" d="M220.5,67.1l0.6,1.9c0.2,0.7,1.3,1,2.3,0.6l1.9-0.7c1-0.4,1.7-1.2,1.4-1.9l-0.7-1.9L220.5,67.1z"/>
	<circle class="st15" cx="353" cy="131.1" r="15"/>
	<path class="st16" d="M352.9,138.4l4.9-1.7c0.4-0.1,0.6-0.5,0.4-0.9c0,0,0,0,0,0c-0.3-1.1-0.2-2.3,0.2-3.3c1-3,1.1-6.7-1.4-8.7
		c-3-2.2-7.1-1.6-9.3,1.3c-1,1.3-1.4,2.9-1.3,4.6c0.3,3.9,3.7,5.3,4.3,5.6C352,136.1,352.9,138.4,352.9,138.4z"/>
	<path class="st16" d="M354.1,137.7l-2.2-6.1l0.5,0.1c0.7,0.2,1.5-0.1,2.1-0.6l0.4-0.5l2.2,6.1"/>
	<path class="st16" d="M352.9,138.4l0.6,1.9c0.2,0.7,1.3,1,2.3,0.6l1.9-0.7c1-0.4,1.7-1.2,1.4-1.9l-0.7-1.9L352.9,138.4z"/>
	<path class="st0" d="M330.5,389.7c1.3-5.5,5.6-9.8,11.1-11.1c9.4-2.2,17.2,11.1,17.2,11.1"/>
	<path class="st5" d="M162.9,63.1h-11.8c-0.9,0-1.6-0.7-1.6-1.6v0V49.7c0-0.9,0.7-1.6,1.6-1.6l0,0h2.4c0,0-0.8,5.1,3.4,5.1
		c3.6,0,2.9-5.1,2.9-5.1h3.1c0.9,0,1.6,0.7,1.6,1.6c0,0,0,0,0,0V53c0,0,4.8-0.8,4.8,3.2c0,3.6-4.8,3.3-4.8,3.3v2.1
		C164.5,62.4,163.8,63.1,162.9,63.1C162.9,63.1,162.9,63.1,162.9,63.1z"/>
	<path class="st5" d="M244.9,389.8h-11.8c-0.9,0-1.6-0.7-1.6-1.6c0,0,0,0,0,0v-11.8c0-0.9,0.7-1.6,1.6-1.6c0,0,0,0,0,0h2.4
		c0,0-0.8,5.1,3.4,5.1c3.6,0,2.9-5.1,2.9-5.1h3.1c0.9,0,1.6,0.7,1.6,1.6c0,0,0,0,0,0v3.2c0,0,4.8-0.8,4.8,3.2c0,3.6-4.8,3.3-4.8,3.3
		v2.1C246.5,389,245.8,389.7,244.9,389.8C244.9,389.8,244.9,389.8,244.9,389.8z"/>
	<path class="st5" d="M533.8,305.5h11.8c0.9,0,1.6,0.7,1.6,1.6v11.8c0,0.9-0.7,1.6-1.6,1.6h-2.4c0,0,0.8-5.1-3.4-5.1
		c-3.6,0-2.9,5.1-2.9,5.1h-3.1c-0.9,0-1.6-0.7-1.6-1.6v-3.2c0,0-4.8,0.8-4.8-3.2c0-3.6,4.8-3.3,4.8-3.3v-2.1
		C532.2,306.2,532.9,305.5,533.8,305.5z"/>
	<path class="st6" d="M407.2,71.9h1.8c0.2,0,0.4-0.2,0.4-0.4c0,0,0,0,0,0v-2.7c0-0.2-0.2-0.4-0.4-0.4c0,0,0,0,0,0h-1.9
		c-0.2-0.8-0.6-1.6-1.1-2.3l1.3-1.4c0.1-0.1,0.1-0.4,0-0.5l-1.9-1.8c-0.1-0.1-0.4-0.1-0.5,0l-1.4,1.5c-0.7-0.4-1.4-0.6-2.1-0.8v-2
		c0-0.2-0.2-0.4-0.4-0.4l0,0h-2.7c-0.2,0-0.4,0.2-0.4,0.4c0,0,0,0,0,0v2.1c-0.8,0.2-1.6,0.5-2.3,1l-1.5-1.5c-0.1-0.1-0.4-0.1-0.5,0
		l-1.8,1.9c-0.1,0.1-0.1,0.4,0,0.5l1.5,1.5c-0.4,0.7-0.7,1.4-0.9,2.2h-2.1c-0.2,0-0.4,0.2-0.4,0.4l0,2.6c0,0.2,0.2,0.4,0.4,0.4
		c0,0,0,0,0,0h2.1c0.2,0.8,0.5,1.6,1,2.4l-1.4,1.4c-0.1,0.1-0.1,0.4,0,0.5l1.9,1.8c0.1,0.1,0.4,0.1,0.5,0l1.3-1.4
		c0.7,0.4,1.4,0.7,2.2,0.9v1.9c0,0.2,0.2,0.4,0.4,0.4l0,0h2.7c0.2,0,0.4-0.2,0.4-0.4c0,0,0,0,0,0v-1.8c0.9-0.2,1.8-0.6,2.6-1.1
		l1.3,1.2c0.1,0.1,0.4,0.1,0.5,0l1.8-1.9c0.1-0.1,0.1-0.4,0-0.5c0,0,0,0,0,0l-1.3-1.2C406.7,73.6,407,72.7,407.2,71.9z M404.1,72.3
		c-0.5,1.1-1.3,1.9-2.3,2.4c-0.1,0.1-0.3,0.1-0.5,0.2c-1.1,0.4-2.3,0.4-3.4-0.1l-0.2-0.1c-1.1-0.5-1.9-1.3-2.4-2.4l-0.1-0.3
		c-0.2-0.5-0.3-1.1-0.3-1.6c0-0.6,0.1-1.2,0.3-1.8v-0.1c0.5-1.1,1.3-1.9,2.3-2.4l0.2-0.1c0.6-0.2,1.2-0.4,1.8-0.4
		c0.5,0,1.1,0.1,1.6,0.3h0.1c1.1,0.4,2,1.2,2.5,2.2l0.1,0.3c0.3,0.6,0.4,1.2,0.4,1.9c0,0.5-0.1,1-0.2,1.5
		C404.2,72,404.2,72.1,404.1,72.3z"/>
	<path class="st6" d="M97.8,304.8h1.8c0.2,0,0.4-0.2,0.4-0.4c0,0,0,0,0,0v-2.6c0-0.2-0.2-0.4-0.4-0.4c0,0,0,0,0,0h-1.9
		c-0.2-0.8-0.6-1.6-1.1-2.4l1.3-1.4c0.1-0.1,0.1-0.4,0-0.5l-1.9-1.8c-0.1-0.1-0.4-0.1-0.5,0l-1.4,1.4c-0.7-0.4-1.4-0.6-2.1-0.8v-2
		c0-0.2-0.2-0.4-0.4-0.4c0,0,0,0,0,0H89c-0.2,0-0.4,0.2-0.4,0.4c0,0,0,0,0,0v2.1c-0.8,0.2-1.6,0.5-2.3,1l-1.5-1.5
		c-0.1-0.1-0.4-0.1-0.5,0l-1.8,1.9c-0.1,0.1-0.1,0.4,0,0.5l1.5,1.5c-0.4,0.7-0.7,1.4-0.9,2.1h-2.1c-0.2,0-0.4,0.2-0.4,0.4
		c0,0,0,0,0,0v2.7c0,0.2,0.2,0.4,0.4,0.4H83c0.2,0.8,0.5,1.6,1,2.4l-1.4,1.5c-0.1,0.1-0.1,0.4,0,0.5l1.9,1.8c0.1,0.1,0.4,0.1,0.5,0
		l1.3-1.4c0.7,0.4,1.4,0.7,2.2,0.9v1.9c0,0.2,0.2,0.4,0.4,0.4c0,0,0,0,0,0h2.7c0.2,0,0.4-0.2,0.4-0.4c0,0,0,0,0,0v-1.8
		c0.9-0.2,1.8-0.6,2.5-1.1l1.3,1.2c0.1,0.1,0.4,0.1,0.5,0l1.8-1.9c0.1-0.1,0.1-0.4,0-0.5l-1.3-1.2C97.3,306.5,97.6,305.7,97.8,304.8
		z M94.8,305.2c-0.5,1.1-1.3,1.9-2.3,2.4l-0.5,0.2c-0.5,0.2-1,0.3-1.6,0.3c-0.6,0-1.2-0.1-1.8-0.3l-0.2-0.1
		c-1.1-0.5-1.9-1.3-2.4-2.4c0-0.1-0.1-0.2-0.1-0.3c-0.2-0.5-0.3-1.1-0.3-1.6c0-0.6,0.1-1.2,0.3-1.8c0,0,0-0.1,0-0.1
		c0.5-1.1,1.3-1.9,2.3-2.4l0.2-0.1c0.6-0.2,1.2-0.4,1.8-0.4c0.5,0,1.1,0.1,1.6,0.3H92c1.1,0.4,2,1.2,2.5,2.2
		c0.1,0.1,0.1,0.2,0.1,0.3c0.3,0.6,0.4,1.2,0.4,1.9c0,0.5-0.1,1-0.2,1.5L94.8,305.2z"/>
	<path class="st6" d="M258,179.2h2.5c0.3,0,0.5-0.2,0.5-0.5c0,0,0,0,0,0l-0.1-3.6c0-0.3-0.2-0.5-0.5-0.5c0,0,0,0,0,0l-2.6,0
		c-0.3-1.2-0.8-2.3-1.5-3.3l1.8-1.9c0.2-0.2,0.2-0.5,0-0.7l-2.7-2.5c-0.2-0.2-0.5-0.2-0.7,0c0,0,0,0,0,0l-1.9,2
		c-0.9-0.5-1.9-0.9-2.9-1.1v-2.8c0-0.3-0.2-0.5-0.5-0.5h-3.6c-0.3,0-0.5,0.2-0.5,0.5v2.9c-1.2,0.3-2.2,0.8-3.2,1.4l-2.2-2.1
		c-0.2-0.2-0.5-0.2-0.7,0c0,0,0,0,0,0l-2.5,2.7c-0.2,0.2-0.2,0.5,0,0.7l2.2,2.1c-0.6,0.9-1,1.9-1.2,3h-3c-0.3,0-0.5,0.2-0.5,0.5
		l0.1,3.6c0,0.3,0.2,0.5,0.5,0.5c0,0,0,0,0,0h2.9c0.3,1.2,0.7,2.3,1.4,3.3l-1.9,2c-0.2,0.2-0.2,0.5,0,0.7l2.7,2.5
		c0.2,0.2,0.5,0.2,0.7,0l1.8-1.9c0.9,0.6,1.9,1,3,1.3v2.7c0,0.3,0.2,0.5,0.5,0.5c0,0,0,0,0,0h3.6c0.3,0,0.5-0.2,0.5-0.5c0,0,0,0,0,0
		v-2.5c1.3-0.3,2.5-0.8,3.6-1.5l1.8,1.7c0.2,0.2,0.5,0.2,0.7,0l2.5-2.7c0.2-0.2,0.2-0.5,0-0.7l-1.8-1.7
		C257.4,181.6,257.8,180.4,258,179.2z M253.8,179.8c-0.6,1.5-1.8,2.7-3.2,3.4c-0.2,0.1-0.4,0.2-0.6,0.3c-0.7,0.2-1.4,0.4-2.2,0.4
		c-0.9,0-1.7-0.2-2.5-0.5l-0.2-0.1c-1.5-0.7-2.6-1.9-3.3-3.3c-0.1-0.1-0.1-0.2-0.2-0.4c-0.3-0.7-0.4-1.5-0.4-2.3
		c0-0.8,0.2-1.7,0.5-2.4l0.1-0.1c0.6-1.5,1.8-2.7,3.2-3.4l0.3-0.1c0.8-0.3,1.6-0.5,2.5-0.5c0.7,0,1.5,0.1,2.2,0.4l0.1,0.1
		c1.5,0.6,2.8,1.7,3.5,3.1c0.1,0.1,0.1,0.3,0.2,0.4c0.6,1.5,0.7,3.1,0.2,4.7C254,179.5,253.9,179.6,253.8,179.8z"/>
</g>
</svg>
